<svg width="200" height="200" viewBox="0 0 200 200" fill="none" xmlns="http://www.w3.org/2000/svg">
<path d="M112.18 151.4C112.103 151.421 112.038 151.472 111.999 151.542C111.959 151.611 111.949 151.693 111.97 151.77C111.991 151.847 112.042 151.912 112.112 151.952C112.181 151.991 112.263 152.001 112.34 151.98C114.867 151.427 117.236 150.309 119.27 148.71C127 143 126.6 134.9 131 127.49C134.52 121.84 137.61 122.49 137.37 121.76C137.361 121.731 137.347 121.704 137.327 121.682C137.307 121.659 137.283 121.64 137.256 121.627C137.228 121.614 137.199 121.606 137.169 121.605C137.138 121.604 137.108 121.609 137.08 121.62C123.24 126.71 131.06 144.86 112.18 151.4ZM168.19 133.62C168.58 133.21 168.97 132.78 169.35 132.35C172.29 128.78 174.35 123.25 174.15 119.18C174.145 119.136 174.128 119.094 174.101 119.06C174.074 119.025 174.037 118.998 173.996 118.983C173.955 118.967 173.91 118.963 173.867 118.972C173.823 118.98 173.783 119 173.75 119.03C173.45 119.32 174.29 120.92 172.18 125.96C170.18 130.74 168.43 131.96 166.46 134.19C164.695 136.228 163.354 138.596 162.514 141.158C161.675 143.72 161.354 146.423 161.57 149.11C161.582 149.167 161.612 149.217 161.657 149.254C161.702 149.29 161.758 149.31 161.815 149.31C161.873 149.31 161.929 149.29 161.973 149.254C162.018 149.217 162.049 149.167 162.06 149.11C161.992 146.249 162.499 143.403 163.552 140.742C164.605 138.081 166.182 135.659 168.19 133.62ZM80.3902 90.44C81.3902 89.75 81.3202 87.64 80.3902 86.86C80.1272 86.6477 79.8207 86.496 79.4924 86.4157C79.1641 86.3354 78.8222 86.3284 78.4909 86.3952C78.1596 86.462 77.8471 86.601 77.5756 86.8024C77.3041 87.0037 77.0804 87.2624 76.9202 87.56C76.7346 88.0252 76.7012 88.5373 76.8248 89.0228C76.9483 89.5082 77.2225 89.942 77.6079 90.2619C77.9933 90.5818 78.4702 90.7713 78.9701 90.8033C79.47 90.8353 79.9671 90.7081 80.3902 90.44ZM77.6402 88.15C77.9402 87.01 79.9102 86.85 80.2102 87.99C80.4102 88.77 80.3202 89.32 79.9202 89.62C79.6798 89.7695 79.4064 89.8577 79.1239 89.8769C78.8415 89.896 78.5586 89.8456 78.3002 89.73C78.0296 89.5781 77.8177 89.34 77.6981 89.0537C77.5784 88.7674 77.5581 88.4492 77.6402 88.15ZM114.56 71.94C114.522 71.9373 114.483 71.9425 114.447 71.9553C114.411 71.9681 114.377 71.9883 114.349 72.0146C114.321 72.0409 114.299 72.0727 114.283 72.108C114.268 72.1434 114.26 72.1815 114.26 72.22C114.26 73.22 112.57 74.22 112.26 74.32C112.201 74.3346 112.149 74.3723 112.117 74.4248C112.085 74.4773 112.076 74.5403 112.09 74.6C112.105 74.6597 112.143 74.7111 112.195 74.743C112.248 74.7749 112.311 74.7846 112.37 74.77C115 74.23 115.4 71.92 114.56 71.94ZM111.05 70.41C110.93 70.34 110.4 69.95 110.21 69.8C110.21 69.67 110.68 68 110.77 67.68C110.86 67.36 110.45 67.28 110.34 67.54C109.922 68.3507 109.587 69.2017 109.34 70.08C109.42 70.37 110.81 70.75 110.91 70.75C110.952 70.7557 110.994 70.7474 111.031 70.7264C111.067 70.7054 111.096 70.673 111.112 70.6341C111.128 70.5952 111.13 70.5521 111.119 70.5116C111.108 70.471 111.084 70.4353 111.05 70.41ZM107.75 65.05C107.736 64.9636 107.691 64.885 107.624 64.8284C107.558 64.7717 107.473 64.7406 107.385 64.7406C107.298 64.7406 107.213 64.7717 107.146 64.8284C107.079 64.885 107.035 64.9636 107.02 65.05C106.982 65.7395 106.982 66.4305 107.02 67.12C107.083 67.2225 107.178 67.3012 107.29 67.3436C107.403 67.386 107.526 67.3897 107.641 67.3542C107.756 67.3186 107.855 67.2458 107.924 67.1472C107.993 67.0486 108.027 66.93 108.02 66.81C107.882 66.2318 107.791 65.6431 107.75 65.05ZM114.74 66.8C114.612 66.2266 114.522 65.6453 114.47 65.06C114.47 64.9619 114.431 64.8678 114.362 64.7984C114.292 64.729 114.198 64.69 114.1 64.69C114.002 64.69 113.908 64.729 113.839 64.7984C113.769 64.8678 113.73 64.9619 113.73 65.06C113.694 65.7262 113.694 66.3938 113.73 67.06C113.736 67.1374 113.758 67.2127 113.796 67.2804C113.834 67.3482 113.886 67.4068 113.949 67.4521C114.013 67.4974 114.085 67.5283 114.161 67.5426C114.237 67.557 114.316 67.5544 114.391 67.535C114.466 67.5157 114.536 67.48 114.596 67.4307C114.656 67.3813 114.704 67.3193 114.738 67.2492C114.771 67.1791 114.788 67.1025 114.789 67.0249C114.789 66.9473 114.773 66.8705 114.74 66.8Z" fill="black"/>
<path d="M193 53.1801C192.93 46.9501 190.84 44.4901 184.39 44.6801C182.55 44.6801 149.74 45.0101 147.39 45.0901C145.815 45.0905 144.256 45.4138 142.81 46.0401C141.98 46.3701 137.64 48.5401 137.16 49.6901C136.64 50.5101 137.25 73.8701 137.16 78.6901C136.465 78.2944 135.751 77.9339 135.02 77.6101C134.888 76.9532 134.608 76.3352 134.2 75.8031C133.793 75.2711 133.27 74.8391 132.67 74.5401C131.75 74.1801 130.57 74.6101 129.89 73.9601C129.21 73.3101 130.43 72.9601 130.56 71.9601C130.556 71.2667 130.476 70.5758 130.32 69.9001C129.717 66.2751 128.875 62.6939 127.8 59.1801C126.9 56.2901 125.96 53.8401 123.37 52.2701C123.37 47.4101 122.88 18.9301 122.61 17.4201C122.344 15.9298 121.549 14.5855 120.372 13.634C119.194 12.6825 117.713 12.1876 116.2 12.2401C116.1 12.2401 47.2801 12.2401 47.2001 12.3201C44.4501 13.9601 43.7101 17.6201 43.5301 20.3201C43.4701 21.6701 44.6501 48.9301 45.1201 57.5901C40.2501 57.6901 15.6501 58.3501 14.2401 59.1001C11.0501 59.8801 7.52011 62.1001 6.83011 65.7101C6.40011 68.0301 7.27011 112.6 7.56011 114.71C7.76779 116.989 8.78613 119.118 10.4301 120.71C12.2201 122.28 14.6601 122.57 16.8101 122.65L62.4401 121.79C57.9801 131.89 52.8401 146.21 49.4401 155.12C49.4241 155.146 49.4157 155.175 49.4157 155.205C49.4157 155.235 49.4241 155.265 49.4401 155.29C50.3603 156.194 51.3649 157.008 52.4401 157.72C50.8101 163.29 50.9901 163.6 50.6301 164.05C47.5401 167.84 43.8101 170.05 40.1301 170.41C38.4201 170.6 36.7301 170.9 36.1301 172.56C35.6401 174.07 36.9401 175.08 38.4601 175.5C39.4601 175.77 46.2801 177.28 47.2901 177.4C48.1851 177.55 49.1033 177.346 49.8501 176.83C50.5701 176.3 52.9401 173.5 53.8501 172.66C52.2001 180.66 51.0501 178.11 54.9801 179.82C55.035 179.849 55.0957 179.866 55.1578 179.869C55.2199 179.872 55.2819 179.861 55.3393 179.837C55.3967 179.813 55.4481 179.777 55.4897 179.731C55.5314 179.685 55.5623 179.63 55.5801 179.57C56.2801 177.57 61.0201 166.14 62.9501 163.17C63.4201 175.25 63.3401 174.62 63.5101 174.67C64.1801 174.84 64.9101 175 65.6601 175.15C65.6601 176.83 65.7101 178.55 65.8501 180.43C65.8501 180.49 65.7701 180.59 65.6901 180.75C63.2101 186.19 60.4301 188.41 57.4101 189.75C56.0701 190.35 54.2201 191.17 54.2701 193.02C54.2701 194.62 55.9101 195.13 57.5001 195.07C59.8901 194.99 62.9801 194.67 64.3801 194.6C68.3801 194.36 68.4801 193.6 70.1801 190.17C70.5701 189.38 71.0301 188.44 71.2901 187.98C71.7601 193.6 71.1401 194.43 71.9101 194.39C74.0001 194.28 74.9101 194.85 74.9101 194.1C74.9901 192.04 75.9101 183.94 76.3901 181.95C76.3901 181.72 76.2301 181.59 75.9901 181.54C76.2901 179.68 76.9901 176.02 77.0801 175.35C77.5801 175.28 78.0801 175.2 78.4701 175.11C78.5801 175.11 78.4701 175.64 80.1601 168.67C92.3001 173.46 105.25 174.61 116.87 171.88C117.28 173.47 120.25 184.31 121.87 189.06C122.422 190.612 123.157 192.092 124.06 193.47C124.29 193.69 124.68 194.08 125.06 194.08C125.44 194.08 125.86 193.55 125.96 193.01C126.06 192.47 124.49 176.7 123.96 171.01C126.336 170.421 128.64 169.573 130.83 168.48L134.07 179.24C134.165 179.4 134.308 179.527 134.478 179.602C134.649 179.677 134.839 179.696 135.021 179.658C135.203 179.619 135.368 179.524 135.494 179.386C135.619 179.249 135.699 179.075 135.72 178.89L135.41 166C136.924 165.013 138.374 163.931 139.75 162.76C140.375 163.364 141.078 163.882 141.84 164.3C141.918 164.343 142.011 164.354 142.097 164.33C142.183 164.305 142.256 164.248 142.3 164.17C143.132 162.913 144.065 161.725 145.09 160.62C144.89 161.91 144.5 164.55 144.45 165.37C144.449 165.423 144.458 165.476 144.478 165.525C144.497 165.574 144.527 165.619 144.564 165.656C144.602 165.693 144.646 165.723 144.695 165.742C144.745 165.762 144.797 165.771 144.85 165.77C145.912 165.737 146.972 165.875 147.99 166.18C144.73 167.75 143.24 169.08 143.44 170.18C143.831 172.144 144.379 174.074 145.08 175.95C145.62 177.51 146.18 179.13 147.86 179.81C155.56 183.07 167 180.69 174.73 177.44C181.29 174.87 182.25 170.71 181.67 164.83C181.55 163.71 180.25 163.58 177.52 163.65L184.17 155.24C186.17 152.85 184.43 152.93 183.8 148.24C184.402 149.133 185.126 149.937 185.95 150.63C185.999 150.668 186.055 150.696 186.116 150.712C186.176 150.727 186.239 150.73 186.3 150.72C186.57 150.67 186.36 150.81 188.84 146.35C188.887 146.269 188.905 146.174 188.89 146.081C188.876 145.988 188.83 145.903 188.76 145.84C187.67 144.94 185.04 142.84 185.04 142.84C186.396 142.519 187.732 142.119 189.04 141.64C189.352 141.56 189.635 141.392 189.854 141.156C190.074 140.92 190.222 140.627 190.28 140.31C190.41 139.53 190.42 123.82 190.44 121.68C190.44 121.33 189.88 121.23 189.82 121.61C188.65 129.54 183.28 136.14 176.42 138.11C176.64 137.22 177.2 135.29 176.89 134.76C175.759 134.048 174.556 133.458 173.3 133C174.55 132.29 177.44 130.44 177.65 129.87C177.78 129.54 177.14 114.11 177.11 112.42C177.105 112.35 177.078 112.284 177.033 112.231C176.988 112.177 176.928 112.14 176.86 112.123C176.792 112.106 176.721 112.112 176.656 112.138C176.591 112.164 176.537 112.211 176.5 112.27C174.564 116.093 171.7 119.37 168.17 121.8C167.76 122.08 164.81 123.65 164.58 123.86C163.84 124.57 164.76 125.44 165.15 125.99C165.43 126.37 166.39 127.66 166.58 127.93C163.06 128.36 162.13 127.15 161.95 127.93C161.604 128.949 161.138 129.922 160.56 130.83C160.766 131.707 161.03 132.568 161.35 133.41C160.764 133.507 160.166 133.507 159.58 133.41C159.476 133.388 159.367 133.405 159.274 133.459C159.182 133.512 159.113 133.598 159.08 133.7C158.8 134.61 158.58 135.37 158.38 136.08C157.168 134.024 155.832 132.044 154.38 130.15C153.67 124.73 151.11 118.4 145.7 117.56C149.77 115.86 152.44 111.49 153.08 107.06C155 107.06 182.74 106.98 183.86 107.06C189.93 107.23 192.64 104.91 193.21 98.7201C193.44 96.2501 193 53.6301 193 53.1801ZM54.9101 172.24C54.9353 172.134 54.9194 172.023 54.8656 171.928C54.8118 171.833 54.724 171.763 54.6201 171.73C53.8101 171.43 53.1901 172.14 52.7401 172.65C51.6009 174.037 50.3501 175.328 49.0001 176.51C48.2501 176.87 39.5201 175.06 38.4301 174.72C37.8434 174.587 37.333 174.228 37.0101 173.72C36.8838 173.351 36.8976 172.948 37.0488 172.589C37.2 172.229 37.478 171.938 37.8301 171.77C38.6001 171.3 39.1701 171.34 41.3301 170.94C43.4901 170.54 45.6301 170.15 49.3901 166.61C49.9139 166.108 50.4018 165.57 50.8501 165C51.4745 166.388 52.5254 167.541 53.8501 168.29C55.6248 169.078 57.6068 169.271 59.5001 168.84C58.5001 170.84 55.7401 177.09 55.0501 179C54.5001 178.78 53.9401 178.58 53.3901 178.42C54.0095 176.389 54.5169 174.326 54.9101 172.24ZM142.73 117.48C141.324 117.54 139.927 117.741 138.56 118.08C134.081 118.586 129.578 118.847 125.07 118.86C124.41 114.86 124.61 115.6 124.44 114.49C124.37 114.01 124.27 113.35 124.62 113.14C129.41 111 134.39 109.06 139.16 106.97C140.16 107.7 140.24 107.61 140.33 107.55C140.373 107.504 140.397 107.443 140.397 107.38C140.397 107.317 140.373 107.256 140.33 107.21C139.94 106.816 139.529 106.442 139.1 106.09C135.261 102.657 132.587 98.1131 131.45 93.0901C131.437 93.0304 131.4 92.9784 131.349 92.9456C131.297 92.9128 131.235 92.9018 131.175 92.9151C131.115 92.9283 131.063 92.9648 131.031 93.0163C130.998 93.0679 130.987 93.1304 131 93.1901C131.847 98.4137 134.549 103.157 138.61 106.55L124.82 112.25C124.421 112.367 124.071 112.609 123.82 112.94C123.13 112.752 122.506 112.375 122.02 111.85C119.42 109.76 118.38 111.19 115.02 113.85C114.695 114.095 114.388 114.362 114.1 114.65C112.324 113.07 110.554 111.484 108.79 109.89C108.34 109.23 104.24 95.0901 102.56 89.4101C103.859 86.2613 105.954 83.5044 108.64 81.4101C108.951 82.3585 109.342 83.2786 109.81 84.1601C110.56 84.8801 111.53 84.5301 112.47 84.3001C112.211 84.8375 112.062 85.4212 112.031 86.0169C112 86.6127 112.088 87.2087 112.29 87.7701C112.998 89.3574 114.104 90.7351 115.5 91.7701C118.92 94.7701 118.75 94.6901 118.95 94.6901C119.042 94.6855 119.13 94.6474 119.196 94.583C119.262 94.5186 119.303 94.4322 119.31 94.3401C119.65 90.8501 120.77 89.8901 123.93 88.7801C125.658 88.2159 127.121 87.0393 128.042 85.4719C128.962 83.9044 129.279 82.0543 128.93 80.2701C131.02 80.2859 133.103 80.0168 135.12 79.4701C135.215 79.4486 135.298 79.3902 135.351 79.3078C135.403 79.2254 135.421 79.1255 135.4 79.0301C135.4 78.8601 135.33 78.6601 135.28 78.4501C149.87 85.5401 158.76 107.63 146.99 115.84C145.71 116.697 144.255 117.258 142.73 117.48ZM146.09 118.62C148.66 119.17 150.81 121.33 152.21 125.13C158.89 143.18 143.32 165.05 123.99 170.13C123.87 168.92 123.21 161.9 123.08 161.38C122.984 160.921 122.72 160.514 122.34 160.24C121.11 159.56 119 160.31 117.88 160.97C116.812 161.679 115.858 162.545 115.05 163.54C115.05 163.86 116.45 169.89 116.75 171.12C104.596 173.662 91.9629 172.577 80.4201 168C82.2001 160.6 84.5601 150.47 85.2201 147.33C92.1001 149.47 101.77 149.27 101.87 149.26C101.902 149.252 101.93 149.233 101.951 149.207C101.971 149.18 101.982 149.148 101.982 149.115C101.982 149.082 101.971 149.05 101.951 149.024C101.93 148.997 101.902 148.979 101.87 148.97C96.3201 147.12 91.5301 142.35 88.3901 135.53C83.5601 125.34 73.5401 125.46 69.6401 130.53C64.0001 137.85 63.0901 159.15 63.0001 161.72C62.6501 162.36 60.6401 166.29 59.8801 167.89C53.8801 169.32 52.1701 165.89 51.4401 164.42C51.3201 164.17 51.3801 164.83 53.2401 158.26C54.2401 158.75 61.3501 161.26 61.3601 160.52C61.4401 152.02 63.5001 131.8 69.0801 127.15C73.0801 123.87 81.7301 124.44 85.5601 127.28C87.995 129.503 89.9868 132.166 91.4301 135.13C94.6401 142.02 100.17 147.13 106.31 148.41C114.18 147.72 123.31 135.18 125.92 127.16C130.74 121.05 138.69 117.55 146.09 118.62ZM161.74 159.29C161.753 159.35 161.79 159.402 161.841 159.435C161.893 159.467 161.955 159.478 162.015 159.465C162.075 159.452 162.127 159.415 162.16 159.364C162.192 159.312 162.203 159.25 162.19 159.19C161.56 155.97 159.78 153.19 158.66 150.19C156.72 145.06 158.13 139.55 159.77 134.34C160.502 134.477 161.258 134.379 161.93 134.06C162.48 133.63 162.04 132.9 161.42 131.06C161.93 130.289 162.33 129.451 162.61 128.57C164.173 128.94 165.798 128.96 167.37 128.63C167.431 128.614 167.488 128.585 167.535 128.543C167.582 128.502 167.619 128.45 167.643 128.391C167.666 128.333 167.675 128.269 167.67 128.207C167.664 128.144 167.644 128.083 167.61 128.03C166.94 127.15 165.17 124.74 165.08 124.56C164.99 124.38 165.08 124.4 165.37 124.27C170.15 122.095 174.069 118.39 176.51 113.74C176.63 117.01 177.02 129.18 176.91 129.67C175.356 130.795 173.718 131.798 172.01 132.67C171.936 132.711 171.875 132.774 171.836 132.849C171.797 132.925 171.781 133.011 171.791 133.095C171.8 133.18 171.835 133.26 171.89 133.325C171.945 133.39 172.018 133.437 172.1 133.46C173.515 133.944 174.886 134.546 176.2 135.26C176.38 135.55 175.75 137.84 175.64 138.43L174.64 138.63C174.541 138.656 174.455 138.719 174.401 138.807C174.347 138.895 174.329 138.999 174.35 139.1C174.61 140.87 175.2 145.23 175.2 145.23C172.33 142.56 172.35 141.08 171.73 141.02C171.669 141.012 171.606 141.02 171.548 141.043C171.491 141.066 171.44 141.102 171.4 141.15C166.698 146.606 164.058 153.538 163.94 160.74C163.951 160.794 163.981 160.843 164.024 160.877C164.066 160.912 164.12 160.931 164.175 160.931C164.23 160.931 164.284 160.912 164.327 160.877C164.369 160.843 164.399 160.794 164.41 160.74C164.787 153.926 167.315 147.407 171.63 142.12C172.625 143.833 173.93 145.346 175.48 146.58C175.546 146.639 175.629 146.675 175.717 146.684C175.805 146.693 175.893 146.674 175.97 146.629C176.046 146.585 176.107 146.518 176.143 146.437C176.179 146.356 176.188 146.267 176.17 146.18C176.17 146.18 175.45 141.31 175.17 139.33C181.98 138.12 187.83 132.33 189.8 124.95C189.8 129.06 189.66 139.25 189.66 139.35C189.66 140 189.66 140.62 189.08 140.91C187.44 141.486 185.771 141.977 184.08 142.38C184.011 142.398 183.948 142.435 183.897 142.486C183.847 142.537 183.811 142.6 183.794 142.67C183.777 142.739 183.778 142.812 183.799 142.881C183.819 142.949 183.858 143.011 183.91 143.06C184.38 143.44 187.08 145.65 187.97 146.36C187.97 146.36 186.75 148.69 186.13 149.84C185.116 148.902 184.276 147.791 183.65 146.56C183.609 146.49 183.547 146.435 183.472 146.404C183.398 146.373 183.315 146.367 183.237 146.388C183.158 146.408 183.089 146.454 183.039 146.517C182.989 146.581 182.961 146.659 182.96 146.74C183.24 153.42 185.38 152.55 183.61 154.74C177.51 162.41 176.44 164.89 169.87 166.83C171.19 160.83 175.71 158.4 177.52 154.07C178.52 151.7 178.3 149.07 179.09 146.69C179.64 145.038 180.539 143.524 181.726 142.251C182.914 140.977 184.361 139.974 185.97 139.31C186.028 139.29 186.076 139.248 186.104 139.193C186.131 139.137 186.135 139.073 186.115 139.015C186.095 138.957 186.053 138.909 185.998 138.881C185.942 138.854 185.878 138.85 185.82 138.87C183.724 139.609 181.875 140.916 180.479 142.645C179.082 144.373 178.193 146.456 177.91 148.66C177.48 151.73 177.57 153.24 175.65 155.93C173.53 158.88 170.06 161.49 168.94 167.08C167.201 167.513 165.421 167.761 163.63 167.82C163.42 166.03 162.32 164.98 161.54 164.94C160.82 163.68 153.23 152.13 150.43 149.6C153.526 144.028 154.95 137.681 154.53 131.32C155.73 133.09 157.78 136.41 158.14 137.06C154.65 150.52 160.35 152.54 161.74 159.29ZM145.97 159.73C145.97 159.66 145.949 159.591 145.911 159.531C145.873 159.472 145.819 159.425 145.754 159.395C145.69 159.366 145.619 159.355 145.549 159.365C145.479 159.375 145.414 159.404 145.36 159.45C144.081 160.719 142.92 162.102 141.89 163.58C141.301 163.236 140.748 162.834 140.24 162.38C142.657 160.28 144.849 157.934 146.78 155.38C157.4 168.12 156.89 167.75 157.19 167.51C157.214 167.494 157.234 167.474 157.249 167.45C157.264 167.426 157.275 167.399 157.279 167.371C157.284 167.343 157.283 167.314 157.276 167.286C157.269 167.259 157.257 167.233 157.24 167.21C156.54 166.15 149.41 157.21 147.24 154.7C148.271 153.276 149.212 151.79 150.06 150.25C154.06 154.16 160.27 164.45 160.85 165.42C160.298 166.214 160.04 167.176 160.12 168.14C158.857 168.493 157.529 168.551 156.24 168.31C154.71 168.01 148.99 165.2 145.24 165.09C145.48 164 145.86 160.67 146 159.73H145.97ZM119.79 161H119.96C120.74 160.82 121.96 160.55 122.25 161.34C122.4 161.88 125.42 191.71 125.42 192.63C125.436 192.775 125.42 192.922 125.374 193.06C125.327 193.198 125.251 193.324 125.15 193.43C122.55 192.43 116.15 165.9 115.9 163.65C116.908 162.403 118.261 161.482 119.79 161ZM13.3101 113.78C13.3101 111.49 11.7901 66.0901 11.9401 64.4501C12.2001 61.3601 13.3101 59.9701 15.7601 59.6501C18.3501 59.1501 42.5301 58.4601 45.1701 58.3901C45.2301 59.3901 45.2801 60.0901 45.3001 60.2201C45.411 61.0068 45.7862 61.7324 46.3641 62.2776C46.942 62.8228 47.6882 63.1552 48.4801 63.2201C48.4801 63.1201 47.8201 63.2201 68.4801 63.2901C68.4801 66.4101 68.6701 81.0701 68.6801 81.7601C62.8001 81.9801 56.7401 82.2201 55.5801 82.3301C55.4201 82.3301 55.2801 82.6201 55.3401 82.7601C57.0801 87.0601 64.8301 104.52 67.0001 109C67.2025 109.509 67.5503 109.947 68.0001 110.26C68.2801 110.68 68.6101 111.15 69.0001 111.62C65.8301 114.15 64.6901 116.95 62.8501 121.05C54.3801 121.23 20.0501 121.94 19.2801 121.91C17.1401 121.82 15.6301 121.2 14.6901 120.02C13.2601 118.32 13.3201 116 13.3101 113.78ZM129 73.8401C129.21 74.6001 130 75.0101 131.22 75.0401C133.32 74.9501 134.22 76.7601 134.6 78.8401C132.556 79.2396 130.482 79.4704 128.4 79.5301C128.34 79.5307 128.281 79.5453 128.227 79.5727C128.173 79.6001 128.127 79.6396 128.091 79.6881C128.055 79.7365 128.031 79.7926 128.02 79.8519C128.01 79.9113 128.013 79.9722 128.03 80.0301C128.349 81.1716 128.352 82.3784 128.039 83.5216C127.725 84.6647 127.107 85.7011 126.25 86.5201C123.56 89.1101 119.25 87.6801 118.62 93.6501C117.72 92.8701 114.39 90.0401 113.71 89.2101C112.54 87.8601 112.07 85.6201 113.27 84.2101C115.84 83.7901 118.437 83.5595 121.04 83.5201C121.098 83.5201 121.154 83.4969 121.196 83.4556C121.237 83.4144 121.26 83.3584 121.26 83.3001C121.26 83.2417 121.237 83.1858 121.196 83.1445C121.154 83.1032 121.098 83.0801 121.04 83.0801C118.045 82.8677 115.035 83.0832 112.1 83.7201C110.98 84.0301 110.43 84.2501 109.93 83.2001C109.68 82.6701 108.19 78.1301 107.93 77.2901C107.47 76.2001 107.75 76.5301 108.59 76.0101C109.413 76.7056 110.337 77.272 111.33 77.6901C111.33 77.8101 111.85 79.4001 111.93 79.6901C111.964 79.9303 112.084 80.1501 112.268 80.3083C112.452 80.4665 112.687 80.5525 112.93 80.5501C115.262 80.7643 117.612 80.4229 119.786 79.5538C121.961 78.6846 123.898 77.3126 125.44 75.5501C125.471 75.5081 125.485 75.4563 125.479 75.4047C125.474 75.353 125.45 75.3052 125.411 75.2704C125.373 75.2356 125.323 75.2163 125.271 75.2162C125.219 75.2162 125.169 75.2353 125.13 75.2701C123.581 76.8355 121.721 78.0576 119.669 78.857C117.617 79.6564 115.42 80.0152 113.22 79.9101C112.52 79.8601 112.61 80.0101 112.02 77.9101C114.72 78.6701 115.4 77.6401 114.44 78.5901C114.409 78.6274 114.392 78.6746 114.391 78.7233C114.391 78.7721 114.407 78.8194 114.438 78.8573C114.469 78.8951 114.512 78.9211 114.56 78.9307C114.607 78.9403 114.657 78.933 114.7 78.9101C118.338 76.1905 120.991 72.361 122.26 68.0001C122.269 67.9718 122.273 67.9421 122.27 67.9125C122.267 67.8829 122.259 67.8542 122.245 67.8281C122.231 67.8019 122.212 67.7788 122.189 67.7603C122.165 67.7417 122.139 67.728 122.11 67.7201C121.59 67.5401 121.94 68.5701 119.5 72.5601C118.5 68.5601 119.17 64.3301 118.09 60.3101C118.076 60.253 118.039 60.2041 117.988 60.1741C117.938 60.1441 117.877 60.1355 117.82 60.1501C117.763 60.1646 117.714 60.2013 117.684 60.2519C117.654 60.3026 117.646 60.363 117.66 60.4201C117.835 61.2708 117.949 62.133 118 63.0001C115.87 60.8901 111.37 57.5201 107.82 58.2901C107.055 58.3136 106.331 58.6374 105.803 59.1914C105.275 59.7454 104.987 60.485 105 61.2501C104.14 60.0901 104.74 58.3201 105.52 57.3401C107.58 54.6501 111.24 53.3401 114.89 52.3401C118.12 51.4801 122.44 51.6001 124.89 54.5201C125.953 55.9773 126.721 57.6283 127.15 59.3801C128.427 63.3277 129.318 67.3901 129.81 71.5101C129.848 71.6762 129.84 71.8496 129.788 72.0116C129.735 72.1737 129.639 72.3183 129.51 72.4301C129.31 72.6009 129.159 72.8207 129.069 73.0678C128.98 73.3149 128.956 73.581 129 73.8401ZM67.7301 108.76C66.7901 106.76 57.5001 86.1601 56.0201 82.7601C59.3301 82.7601 96.6801 81.3901 97.3301 81.3701C98.6001 85.4501 106 110.09 106 110.3C106 110.3 97.1601 110.52 92.3901 110.71C84.3401 106.65 76.8901 107.09 71.4701 109.96C68.4101 109.83 68.2701 109.89 67.7301 108.76ZM105.73 67.2801C105.59 64.2801 105.73 62.1901 106.2 61.9801C107.92 61.2001 111.13 60.9801 114.7 62.1101C115.15 62.2601 116.59 63.0101 118.04 63.6201C118.2 66.8201 118.04 70.2101 119.04 73.3101C118.156 74.8601 117.021 76.2524 115.68 77.4301C109.63 78.2301 106 73.3901 105.71 67.2801H105.73ZM114.91 127.08C114.67 127.54 118.74 130.6 119.18 130.93C120.62 132.29 118.86 133.03 117.4 131.72C109.4 124.53 102.58 116.29 93.6901 111.37C98.8701 111.2 105.28 111.01 106.38 111C107.49 112.07 120.38 124.14 123.71 127C114.41 127.07 115 126.92 114.89 127.08H114.91ZM124.73 126.94C124.63 126.85 107.73 111.58 107.08 110.82C106.7 110.18 99.6901 86.3901 98.0801 81.6001C99.0679 82.2737 99.8004 83.2599 100.16 84.4001C100.76 86.1101 107.57 108.91 107.6 109.02C107.682 109.574 107.929 110.09 108.31 110.5C110.94 113.03 122.1 123.15 125.73 126.15C125.52 126.41 125.31 126.67 125.11 126.94H124.73ZM124 117.33C122.26 117.19 121.71 116.99 121.28 117.52C121.14 117.74 120.74 118.23 120.23 118.12C120.142 118.099 120.058 118.061 119.986 118.007C119.913 117.952 119.852 117.884 119.807 117.805C119.762 117.726 119.734 117.639 119.724 117.548C119.714 117.458 119.723 117.367 119.75 117.28C120.24 116.82 120.75 116.42 121.21 115.93C121.235 115.896 121.247 115.854 121.245 115.811C121.243 115.769 121.227 115.728 121.2 115.696C121.172 115.664 121.134 115.642 121.093 115.634C121.051 115.625 121.008 115.631 120.97 115.65C120.46 115.98 119.97 116.51 119.39 116.86C119.342 116.861 119.295 116.872 119.252 116.893C119.209 116.913 119.171 116.943 119.14 116.98C119.02 117.029 118.891 117.049 118.762 117.039C118.633 117.03 118.508 116.991 118.397 116.925C118.285 116.859 118.191 116.768 118.12 116.66C118.05 116.552 118.005 116.428 117.99 116.3C117.99 115.5 118.85 114.97 119.35 114.38C119.55 114.18 119.25 113.88 119.04 114.07C118.504 114.522 118.006 115.017 117.55 115.55C116.974 115.733 116.386 115.877 115.79 115.98C115.52 115.98 115.79 116.15 114.61 115.14C115.84 113.986 117.18 112.955 118.61 112.06C121.04 110.46 121.49 113.23 123.68 113.55C123.678 114.817 123.785 116.082 124 117.33ZM126.25 125.57L116.18 116.57C116.545 116.498 116.906 116.405 117.26 116.29C117.252 116.507 117.295 116.723 117.384 116.921C117.474 117.119 117.609 117.293 117.778 117.43C117.947 117.567 118.145 117.662 118.357 117.709C118.569 117.756 118.789 117.753 119 117.7C119.04 117.912 119.13 118.112 119.261 118.283C119.393 118.454 119.564 118.591 119.759 118.684C119.954 118.776 120.168 118.821 120.383 118.816C120.599 118.81 120.81 118.753 121 118.65C122.38 118.02 121 117.78 123.23 117.98C123.52 117.98 123.83 118.04 124.13 118.05C124.22 118.52 124.31 118.95 124.41 119.36C124.434 119.442 124.484 119.514 124.553 119.564C124.622 119.615 124.705 119.641 124.79 119.64C142.67 119.26 133.89 116.79 126.23 125.57H126.25ZM102.25 88.3301C101.12 84.5401 100.53 81.4801 98.2501 80.7001C98.2501 80.8201 99.1001 80.5701 69.5001 81.7001C69.5001 76.8301 69.2901 65.0501 69.2601 63.2601H105.11C104.83 67.5901 105.11 72.2601 108.11 75.4801C107.75 75.6201 107.11 75.9201 106.96 76.1701C107.329 77.7863 107.824 79.3711 108.44 80.9101C105.757 82.8035 103.611 85.3599 102.21 88.3301H102.25ZM98.1401 57.4201C98.1401 56.0201 97.8201 48.4901 97.7501 47.1101H100.3C100.3 48.5301 100.49 56.0301 100.55 57.4101C99.7501 57.3901 98.9401 57.4001 98.1401 57.4201ZM83.4901 57.7201C83.5001 55.0001 83.1501 32.0001 83.1001 29.0001H85.6501C85.6501 36.6001 85.8701 55.6101 85.9101 57.6801L83.4901 57.7201ZM67.7101 32.8601H70.2701C70.2701 39.4301 70.4801 56.0201 70.5301 57.9901H68.1101C68.1201 55.5301 67.7701 35.6001 67.7101 32.8601ZM46.0001 59.7801C45.8601 58.9301 44.7001 32.3001 44.2301 22.1001C44.1201 18.9601 44.9501 15.1001 47.0601 13.3101C47.0601 20.3101 47.9601 58.9401 48.1601 62.4401C47.5716 62.2702 47.0491 61.9243 46.663 61.4488C46.2768 60.9733 46.0455 60.3909 46.0001 59.7801ZM137.75 51.4701C137.668 50.8173 137.824 50.1568 138.19 49.6101C138.973 48.9937 139.813 48.4545 140.7 48.0001C139.7 49.8001 139.96 49.3001 140.49 80.9001C139.665 80.2713 138.807 79.6872 137.92 79.1501C137.82 74.1101 137.77 55.7901 137.78 51.4701H137.75ZM146.49 62.5801C146.955 61.9205 147.572 61.3832 148.29 61.014C149.007 60.6448 149.803 60.4548 150.61 60.4601C154.68 60.4601 156.16 65.3001 156.96 69.2401C157.66 72.3301 157.71 75.9701 159.96 78.4901C170.42 87.9701 171.21 74.7401 177.57 75.2501C179.57 75.4801 180.9 77.3101 182.33 78.6301C182.941 79.3167 183.799 79.7344 184.716 79.7924C185.634 79.8505 186.537 79.5442 187.23 78.9401V93.1501C184.77 93.1501 153.53 92.9201 150.1 92.9601C149.265 91.2123 148.281 89.5395 147.16 87.9601C147.28 86.7501 146.54 63.6601 146.52 62.5801H146.49ZM150.49 93.6401C155.09 93.7101 184.28 93.7901 187.31 93.7901C187.314 94.171 187.338 94.5515 187.38 94.9301C187.387 95.0106 187.424 95.0856 187.483 95.1409C187.542 95.1962 187.619 95.228 187.7 95.2301C188.29 95.2301 188.02 96.1401 187.92 69.0201C187.92 68.9538 187.894 68.8902 187.847 68.8433C187.8 68.7964 187.736 68.7701 187.67 68.7701C187.604 68.7701 187.54 68.7964 187.493 68.8433C187.446 68.8902 187.42 68.9538 187.42 69.0201C187.42 70.8001 187.31 76.6801 187.3 77.8401C187.071 78.2015 186.759 78.5035 186.39 78.7212C186.021 78.9388 185.606 79.0661 185.179 79.0924C184.752 79.1188 184.324 79.0435 183.931 78.8727C183.539 78.702 183.192 78.4406 182.92 78.1101C180.03 75.1101 177.17 72.6101 172.99 76.4701C169.57 80.0001 167.69 82.9801 162.99 79.9301C161.087 78.916 159.653 77.202 158.99 75.1501C157.41 69.4801 157.85 60.7301 151.17 59.5701C150.277 59.4788 149.375 59.6079 148.544 59.9461C147.712 60.2843 146.976 60.8213 146.4 61.5101C146.4 59.9901 146.29 58.5101 146.23 56.9701C146.23 56.9064 146.205 56.8454 146.16 56.8003C146.115 56.7553 146.054 56.7301 145.99 56.7301C145.926 56.7301 145.865 56.7553 145.82 56.8003C145.775 56.8454 145.75 56.9064 145.75 56.9701C145.75 58.6301 146.27 81.8101 146.43 86.9001C144.889 84.8833 143.117 83.0542 141.15 81.4501C141.15 77.6401 140.81 52.9001 140.77 51.3701C140.71 48.5901 141.82 46.9801 144.38 46.3101C146.48 45.7301 184.24 45.1501 187.83 45.6401C190.21 45.9401 191.57 48.2701 191.91 50.2901C192.33 52.8001 192.45 94.2901 192.46 94.8401C192.54 99.7401 191.96 105.33 186.86 106.02C185.71 106.18 157.26 106.25 153.13 106.21C153.258 101.872 152.36 97.5656 150.51 93.6401H150.49ZM121.21 15.8001C122.41 17.9001 121.73 17.3201 122.58 51.8601C118.44 49.9901 112.58 51.7101 108.58 53.8601V24.2301C108.58 24.0001 109.1 24.0701 105.58 24.0701C105.36 24.0701 105.38 22.0101 106.12 55.5201C105.52 56.0617 104.998 56.6844 104.57 57.3701H101.21C101.21 56.0701 100.83 46.8501 100.79 46.7701C100.779 46.7181 100.749 46.6717 100.707 46.6389C100.665 46.606 100.613 46.5888 100.56 46.5901C99.4796 46.5538 98.398 46.5772 97.3201 46.6601C97.2881 46.6819 97.2628 46.7121 97.2469 46.7474C97.231 46.7827 97.2252 46.8217 97.2301 46.8601C97.2301 47.8601 97.4101 55.9801 97.4801 57.4201L93.7101 57.5001C93.9001 40.4201 93.9701 41.3201 93.7101 41.3001C91.0001 41.4101 90.9401 41.3601 90.9401 41.5601V57.5601L86.5401 57.6501C86.5401 55.4201 86.2001 30.2201 86.1301 28.7601C86.1331 28.6943 86.111 28.6299 86.0683 28.5797C86.0256 28.5296 85.9655 28.4976 85.9001 28.4901C85.9001 28.4901 82.7701 28.4901 82.6701 28.5901C82.3801 28.8201 82.8301 56.5901 82.8301 57.7301L78.0801 57.8201V42.8901C78.0448 42.8761 78.0054 42.8761 77.9701 42.8901C75.2101 42.8901 75.2401 42.8901 75.2401 43.1101V57.8801L71.1801 58.0001C70.9001 32.1801 70.6701 32.6501 70.7701 32.6501C70.7705 32.586 70.7473 32.524 70.7048 32.476C70.6624 32.4281 70.6037 32.3974 70.5401 32.3901C70.5401 32.3901 67.4301 32.3901 67.3301 32.4701C66.9901 32.6801 67.4701 56.3001 67.4701 58.0801L61.9701 58.1801C62.0001 19.2101 62.1101 21.0001 61.8501 21.0001L59.4001 21.0901C59.2301 21.0901 59.2901 18.7001 59.2901 58.2201C55.1701 58.3001 55.2901 58.2201 55.2301 58.3801C55.2109 58.4112 55.2002 58.4469 55.199 58.4835C55.1978 58.5201 55.2062 58.5564 55.2234 58.5888C55.2406 58.6211 55.266 58.6484 55.2969 58.6679C55.3279 58.6875 55.3635 58.6985 55.4001 58.7001C61.4701 58.7001 98.2301 58.3301 104.22 58.1501C103.62 59.6801 103.73 61.3701 105.12 62.2601V62.4801C99.3401 62.6501 49.8801 62.4801 48.9901 62.4801C48.9901 61.1701 47.8701 15.4201 47.8601 12.8601C54.7901 12.8601 115.86 12.9501 117.45 13.2101C118.23 13.3363 118.971 13.6341 119.621 14.0821C120.272 14.53 120.814 15.1168 121.21 15.8001ZM12.2101 60.7001C11.0601 62.3601 11.0001 64.5201 11.0001 66.6101C11.0001 67.0701 12.4001 116.29 12.6101 117.49C12.7297 118.361 13.0343 119.196 13.5035 119.94C13.9726 120.683 14.5955 121.317 15.3301 121.8C14.1547 121.741 13.0056 121.431 11.9601 120.89C9.74011 119.67 8.90011 117.16 8.60011 115.77C8.07011 113.27 7.37011 70.3301 7.49011 68.1101C7.42011 64.4301 8.67011 62.4401 12.1901 60.7001H12.2101ZM162.21 173.79C166.213 173.511 170.134 172.522 173.79 170.87C176.39 169.67 179.63 167.77 180.97 166.26C181.18 170.98 180.22 174.03 175.37 176.26C168.95 179.26 153.72 182.94 147.14 178.55C146.55 177.98 145.14 173.65 144.58 171.65C147.45 173.56 155.81 174.3 162.19 173.79H162.21ZM71.7701 186.89C70.9301 186.82 70.5301 187.66 70.2501 188.27C67.9101 193.27 67.9401 193.59 65.5601 193.75C64.8101 193.8 57.7501 194.38 57.2301 194.38C55.4101 194.51 54.4001 193.26 55.6901 191.73C56.4255 191.175 57.2417 190.737 58.1101 190.43C60.8901 189.14 65.2901 185.73 66.2601 181.51C67.2639 182.689 68.6331 183.499 70.1501 183.81C72.0282 184.012 73.9224 183.624 75.5701 182.7C75.1901 184.86 74.3101 191.59 74.2001 193.7C73.6155 193.639 73.0278 193.612 72.4401 193.62C72.4301 193.05 72.2401 186.93 71.7501 186.89H71.7701ZM75.4501 181.74C74.1506 182.659 72.5915 183.139 71.0001 183.11C70.1583 183.047 69.3385 182.811 68.5918 182.417C67.8451 182.023 67.1876 181.479 66.6601 180.82C66.6601 180.51 66.5501 177.16 66.5801 175.36C69.8202 175.616 73.0725 175.679 76.3201 175.55C76.1601 176.43 75.6501 180 75.4301 181.74H75.4501Z" fill="black"/>
<path d="M175 52.66C175.056 52.6486 175.107 52.6179 175.144 52.5732C175.18 52.5286 175.2 52.4727 175.2 52.415C175.2 52.3574 175.18 52.3015 175.144 52.2568C175.107 52.2122 175.056 52.1815 175 52.17H173.32C160.75 52.56 161.16 52.55 161.17 52.9C161.18 53.25 160.79 53.33 175 52.66ZM175.42 55C173.18 55 164.42 55.12 162.17 55.3C162.091 55.3137 162.019 55.3548 161.968 55.4161C161.916 55.4774 161.888 55.5549 161.888 55.635C161.888 55.7151 161.916 55.7927 161.968 55.8539C162.019 55.9152 162.091 55.9563 162.17 55.97C164.46 55.97 173.17 55.52 175.43 55.43C175.479 55.4183 175.522 55.3901 175.553 55.3503C175.584 55.3104 175.6 55.2613 175.598 55.211C175.597 55.1607 175.579 55.1124 175.546 55.074C175.514 55.0356 175.469 55.0095 175.42 55ZM173.22 58.68C171.66 58.74 166.65 58.68 161.87 58.68C161.764 58.68 161.662 58.7222 161.587 58.7972C161.512 58.8722 161.47 58.9739 161.47 59.08C161.47 59.1861 161.512 59.2879 161.587 59.3629C161.662 59.4379 161.764 59.48 161.87 59.48C162.87 59.55 172.25 59.16 173.23 59.12C173.288 59.1187 173.344 59.0943 173.384 59.0521C173.424 59.0099 173.446 58.9534 173.445 58.895C173.444 58.8367 173.419 58.7813 173.377 58.7409C173.335 58.7006 173.278 58.6787 173.22 58.68ZM141 8.71002C139.828 8.9978 138.756 9.59807 137.899 10.4469C137.041 11.2957 136.43 12.3612 136.13 13.53C135.02 17.78 138.87 22.41 143.3 21.67C144.268 21.4656 145.184 21.0657 145.992 20.4948C146.801 19.924 147.484 19.1941 148 18.35C148.504 17.4184 148.791 16.3845 148.837 15.3261C148.884 14.2677 148.69 13.2125 148.27 12.24C147.67 10.52 145.89 7.77002 141 8.71002ZM143.42 17.14C141.49 18.47 139.23 16.05 140.12 14.56C141.72 11.9 144.56 13.91 144.63 14.91C144.629 15.354 144.517 15.7907 144.303 16.1802C144.09 16.5697 143.783 16.8997 143.41 17.14H143.42ZM143.3 12.59C142.625 12.3777 141.899 12.395 141.235 12.6392C140.571 12.8835 140.006 13.3409 139.63 13.94C139.322 14.4794 139.206 15.107 139.301 15.7207C139.395 16.3344 139.694 16.8981 140.15 17.32C140.513 17.6684 140.959 17.9178 141.446 18.0444C141.933 18.171 142.444 18.1705 142.931 18.0431C143.417 17.9157 143.863 17.6655 144.225 17.3166C144.588 16.9676 144.854 16.5315 145 16.05C145.853 16.6097 146.808 16.997 147.81 17.19C147.456 18.0539 146.913 18.8274 146.221 19.4538C145.528 20.0803 144.705 20.5437 143.81 20.81C139.81 21.97 136.25 18.34 136.7 14.42C136.832 13.5071 137.169 12.636 137.687 11.8725C138.204 11.109 138.889 10.4731 139.688 10.0128C140.487 9.55241 141.381 9.27966 142.301 9.21509C143.221 9.15052 144.144 9.29582 145 9.64003C144.208 10.4768 143.622 11.487 143.29 12.59H143.3Z" fill="black"/>
<path d="M132 25.88C134.44 25.75 179.12 25.41 182.38 24.44C184.89 23.98 185.75 22.82 185.62 20.29C185.62 19.45 185.76 9.82003 185.5 8.11003C185.27 6.00003 184.14 5.00003 181.76 4.87003C179.76 4.68003 133.41 5.40003 131.22 5.87003C129.44 6.22003 128.22 6.87003 127.98 8.87003C127.87 9.48003 128.35 20.77 128.41 21.87C128.55 24.25 129.74 25.66 132 25.88ZM135.9 25.2C135.311 25.1291 134.745 24.9281 134.244 24.6116C133.742 24.2951 133.317 23.871 133 23.37C132.295 22.156 131.932 20.7737 131.95 19.37C131.84 17.67 131.52 11.37 131.48 9.85003C131.48 9.23003 131.48 7.17003 133 6.43003C135.35 6.19003 179.13 5.54003 181 5.60003C182 5.60003 183.35 5.68003 184.11 6.45003C185.23 7.58003 184.87 9.45004 184.94 20.2C185.16 22.94 184.12 23.54 181.56 23.91C179.26 24.26 136.3 25.2 135.92 25.2H135.9ZM130.8 8.58003C130.67 9.48003 131.2 18.08 131.25 19.22C131.37 22.05 132.18 24.06 133.78 25.22H132.78C130.34 25.22 129.23 24.05 129.12 21.56C129.06 20.14 128.6 9.56003 128.7 8.96003C128.91 7.14003 130.14 6.74003 131.77 6.54003C131.265 7.11511 130.935 7.82313 130.82 8.58003H130.8Z" fill="black"/>
<path d="M154.4 11.17C154.77 11.17 166.25 10.88 166.15 10.88C166.202 10.8691 166.248 10.8408 166.281 10.7998C166.314 10.7588 166.332 10.7077 166.332 10.655C166.332 10.6023 166.314 10.5512 166.281 10.5102C166.248 10.4692 166.202 10.4409 166.15 10.43C165.3 10.43 155.39 10.26 154.38 10.43C154.303 10.4579 154.237 10.5094 154.191 10.5771C154.145 10.6448 154.121 10.7253 154.123 10.8072C154.125 10.8891 154.153 10.9683 154.203 11.0334C154.253 11.0985 154.322 11.1463 154.4 11.17ZM169.67 14.31C168.23 14.45 153.77 13.96 153.67 14.69C153.67 14.83 153.8 14.94 153.9 14.96C155.16 15.11 169.62 14.8 169.72 14.79C169.752 14.7867 169.782 14.7773 169.81 14.7622C169.838 14.7471 169.863 14.7266 169.883 14.702C169.903 14.6774 169.917 14.6491 169.926 14.6187C169.935 14.5884 169.938 14.5565 169.935 14.525C169.932 14.4935 169.922 14.4629 169.907 14.4351C169.892 14.4072 169.872 14.3826 169.847 14.3626C169.823 14.3427 169.794 14.3277 169.764 14.3187C169.734 14.3097 169.702 14.3067 169.67 14.31ZM169.38 18.15C166.91 18.15 154.46 18.09 153.81 18.2C153.746 18.2169 153.69 18.2546 153.649 18.307C153.609 18.3595 153.587 18.4238 153.587 18.49C153.587 18.5562 153.609 18.6205 153.649 18.673C153.69 18.7254 153.746 18.7631 153.81 18.78C154.5 18.89 168.37 18.57 169.39 18.54C169.434 18.5289 169.473 18.5031 169.5 18.4669C169.528 18.4308 169.542 18.3864 169.541 18.341C169.54 18.2957 169.523 18.252 169.494 18.2173C169.465 18.1826 169.425 18.1589 169.38 18.15ZM28.0002 82.21C34.7702 81.66 38.3602 72.94 33.1002 68.1C32.9102 67.93 33.2702 67.55 27.7302 75.56C21.0302 69.21 21.3902 69.45 21.2402 69.56C15.9402 74.79 21.1902 82.77 28.0002 82.21Z" fill="black"/>
<path d="M27.26 72.28C27.45 72.49 27.36 72.52 31.89 64.88C31.9009 64.8631 31.9082 64.8441 31.9116 64.8242C31.9149 64.8044 31.9143 64.784 31.9096 64.7644C31.9049 64.7448 31.8964 64.7264 31.8844 64.7101C31.8725 64.6939 31.8574 64.6803 31.84 64.67C30.2425 63.8293 28.4123 63.5393 26.6332 63.8448C24.854 64.1504 23.2254 65.0345 22 66.36C21.88 66.51 21.7 66.22 27.26 72.28ZM16.81 109.33C17.0665 109.328 17.3168 109.251 17.5293 109.107C17.7418 108.964 17.9072 108.76 18.0044 108.523C18.1017 108.286 18.1266 108.025 18.076 107.774C18.0254 107.522 17.9015 107.291 17.72 107.11C18.22 106.3 21.46 100.97 22.41 99.53C22.6562 99.6439 22.931 99.6809 23.1986 99.6363C23.4661 99.5917 23.7141 99.4676 23.91 99.28L28.53 102.84C28.4547 103.063 28.4413 103.302 28.4911 103.532C28.541 103.762 28.6524 103.974 28.8133 104.146C28.9743 104.317 29.1788 104.442 29.405 104.506C29.6313 104.571 29.8708 104.573 30.098 104.512C30.3253 104.451 30.5318 104.33 30.6954 104.161C30.8591 103.992 30.9738 103.781 31.0274 103.552C31.081 103.323 31.0714 103.084 30.9997 102.86C30.9279 102.636 30.7967 102.435 30.62 102.28L32.26 100.12C32.5535 100.254 32.8863 100.276 33.1945 100.18C33.5027 100.084 33.7646 99.8772 33.93 99.6L38.71 101.22C38.6842 101.435 38.7125 101.653 38.7924 101.855C38.8724 102.056 39.0013 102.234 39.1677 102.373C39.334 102.512 39.5323 102.607 39.7447 102.65C39.9571 102.692 40.1768 102.681 40.3838 102.617C40.5908 102.553 40.7786 102.439 40.9301 102.284C41.0816 102.129 41.192 101.939 41.2512 101.731C41.3104 101.522 41.3167 101.302 41.2693 101.091C41.2219 100.879 41.1225 100.683 40.98 100.52C41.38 99.09 44.84 88.52 45.19 87.52C45.5258 87.4908 45.8374 87.3332 46.06 87.08C47.01 87.83 49.86 89.96 50.78 90.58C50.7275 90.787 50.7267 91.0038 50.7778 91.2111C50.8289 91.4185 50.9303 91.61 51.073 91.7689C51.2158 91.9278 51.3954 92.049 51.5961 92.1219C51.7969 92.1948 52.0125 92.2172 52.2239 92.187C52.4353 92.1568 52.636 92.075 52.8083 91.9488C52.9805 91.8226 53.1191 91.6558 53.2116 91.4634C53.3042 91.2709 53.3479 91.0586 53.3389 90.8453C53.3299 90.6319 53.2684 90.424 53.16 90.24C55.82 86 55.94 86.07 55.66 85.88C55.6074 85.8474 55.5444 85.8354 55.4835 85.8465C55.4225 85.8576 55.3678 85.8909 55.33 85.94C54.86 86.62 52.64 89.74 52.64 89.74C52.4035 89.6236 52.1378 89.5795 51.8764 89.6133C51.6149 89.6471 51.3692 89.7573 51.17 89.93C50.24 89.28 47.29 87.17 46.35 86.44C46.3902 86.2093 46.3672 85.9719 46.2836 85.7531C46.2 85.5343 46.0589 85.3421 45.875 85.197C45.6912 85.0518 45.4716 84.959 45.2394 84.9283C45.0071 84.8977 44.7709 84.9303 44.5557 85.0229C44.3405 85.1154 44.1544 85.2644 44.0168 85.454C43.8793 85.6436 43.7956 85.8669 43.7745 86.1002C43.7535 86.3335 43.7958 86.5681 43.8971 86.7793C43.9984 86.9905 44.1549 87.1704 44.35 87.3C43.49 89.64 40.99 97.74 40.35 100.1C40.1097 100.038 39.8569 100.045 39.6201 100.119C39.3833 100.193 39.172 100.332 39.01 100.52C38.01 100.18 35.01 99.27 34.1 98.98C34.1 98.6379 33.9641 98.3098 33.7222 98.0679C33.4803 97.826 33.1522 97.69 32.81 97.69C32.4679 97.69 32.1398 97.826 31.8979 98.0679C31.6559 98.3098 31.52 98.6379 31.52 98.98C31.5222 99.2657 31.6169 99.5428 31.79 99.77L30 102C29.8286 101.962 29.6512 101.961 29.4791 101.995C29.3069 102.03 29.1438 102.099 29 102.2L24.23 98.59C24.2821 98.2805 24.2195 97.9626 24.054 97.6959C23.8885 97.4292 23.6314 97.232 23.3309 97.1412C23.0304 97.0504 22.7071 97.0723 22.4216 97.2028C22.1361 97.3333 21.908 97.5634 21.78 97.85C21.6806 98.0561 21.64 98.2857 21.663 98.5134C21.6859 98.7411 21.7714 98.9579 21.91 99.14C20.97 100.55 17.56 106 17.07 106.79C16.8905 106.745 16.7035 106.739 16.5215 106.773C16.3395 106.806 16.1669 106.879 16.0153 106.985C15.8638 107.091 15.7369 107.229 15.6432 107.388C15.5496 107.548 15.4913 107.726 15.4725 107.91C15.4536 108.094 15.4746 108.28 15.534 108.455C15.5934 108.63 15.6898 108.791 15.8167 108.926C15.9436 109.06 16.0979 109.166 16.2693 109.236C16.4407 109.306 16.6251 109.338 16.81 109.33ZM34.21 112.87C34.1358 112.87 34.0645 112.9 34.012 112.952C33.9595 113.005 33.93 113.076 33.93 113.15C33.93 113.224 33.9595 113.296 34.012 113.348C34.0645 113.401 34.1358 113.43 34.21 113.43C35.96 113.43 56.5 112.63 57.21 112.62C57.2567 112.61 57.2984 112.584 57.3283 112.546C57.3582 112.509 57.3745 112.463 57.3745 112.415C57.3745 112.367 57.3582 112.321 57.3283 112.284C57.2984 112.246 57.2567 112.22 57.21 112.21C54.42 112.22 36 112.67 34.21 112.87ZM43 105.72C43.0637 105.72 43.1247 105.695 43.1697 105.65C43.2147 105.605 43.24 105.544 43.24 105.48C43.24 105.416 43.2147 105.355 43.1697 105.31C43.1247 105.265 43.0637 105.24 43 105.24C42.21 105.24 39.35 105.07 38.68 105.1C38.5633 105.1 38.4514 105.146 38.3689 105.229C38.2864 105.311 38.24 105.423 38.24 105.54C38.24 105.657 38.2864 105.769 38.3689 105.851C38.4514 105.934 38.5633 105.98 38.68 105.98C39.34 106.06 42.17 105.79 43 105.72ZM32.31 107H28C27.9068 107.004 27.8165 107.034 27.7386 107.085C27.6606 107.136 27.5979 107.208 27.557 107.291C27.5161 107.375 27.4985 107.469 27.5061 107.562C27.5136 107.655 27.5461 107.744 27.6 107.82C27.87 108.22 28.08 107.91 32.33 107.55C32.3828 107.525 32.427 107.485 32.4573 107.435C32.4876 107.385 32.5026 107.327 32.5004 107.268C32.4983 107.21 32.4791 107.154 32.4453 107.106C32.4115 107.058 32.3645 107.021 32.31 107ZM15.26 112.34C15.47 112.34 18.51 112.01 19.18 111.98C19.2543 111.98 19.3255 111.951 19.378 111.898C19.4305 111.846 19.46 111.774 19.46 111.7C19.46 111.626 19.4305 111.555 19.378 111.502C19.3255 111.45 19.2543 111.42 19.18 111.42C18.79 111.42 15.41 111.56 15.18 111.67C15.119 111.707 15.0698 111.76 15.0385 111.824C15.0072 111.888 14.995 111.96 15.0035 112.031C15.0119 112.102 15.0406 112.168 15.0861 112.223C15.1316 112.278 15.192 112.319 15.26 112.34Z" fill="black"/>
<path d="M50.5502 95H50.7102C54.9602 94.62 54.8102 94.91 54.9902 94.71C55.0235 94.6708 55.0453 94.6232 55.0532 94.5724C55.0612 94.5216 55.055 94.4696 55.0354 94.4221C55.0158 94.3746 54.9835 94.3334 54.942 94.303C54.9005 94.2727 54.8515 94.2543 54.8002 94.25C53.3102 94.25 51.9102 94.12 50.5702 94.18C50.0002 94.19 50.0502 95 50.5502 95ZM28.1902 86.27C28.0815 86.27 27.9772 86.3132 27.9003 86.3901C27.8234 86.467 27.7802 86.5712 27.7802 86.68C27.7802 86.7887 27.8234 86.893 27.9003 86.9699C27.9772 87.0468 28.0815 87.09 28.1902 87.09C29.6202 87.09 35.1902 86.58 36.5402 86.44C36.6042 86.4277 36.6619 86.3936 36.7034 86.3434C36.7449 86.2932 36.7676 86.2301 36.7676 86.165C36.7676 86.0999 36.7449 86.0368 36.7034 85.9866C36.6619 85.9364 36.6042 85.9022 36.5402 85.89C35.1502 86 29.5702 86.15 28.1902 86.27ZM27.5102 88.61C27.4298 88.6299 27.3594 88.6786 27.3123 88.7468C27.2652 88.815 27.2446 88.898 27.2545 88.9803C27.2643 89.0626 27.3038 89.1385 27.3657 89.1936C27.4275 89.2488 27.5074 89.2795 27.5902 89.28C29.1702 89.28 35.3702 88.72 36.9302 88.71C36.9992 88.71 37.0653 88.6826 37.1141 88.6338C37.1628 88.5851 37.1902 88.5189 37.1902 88.45C37.1902 88.381 37.1628 88.3149 37.1141 88.2661C37.0653 88.2174 36.9992 88.19 36.9302 88.19C33.7844 88.1207 30.6374 88.261 27.5102 88.61ZM36.1302 90.21C33.5132 90.1723 30.8961 90.2757 28.2902 90.52C27.8102 90.58 27.7902 91.31 28.2902 91.31C29.1802 91.31 34.0402 90.81 36.1402 90.73C36.1744 90.7293 36.2081 90.722 36.2394 90.7083C36.2707 90.6946 36.2989 90.6749 36.3226 90.6503C36.3463 90.6257 36.3649 90.5967 36.3774 90.5649C36.3898 90.5331 36.3959 90.4991 36.3952 90.465C36.3946 90.4308 36.3872 90.3972 36.3735 90.3659C36.3599 90.3346 36.3402 90.3063 36.3156 90.2826C36.2909 90.2589 36.2619 90.2403 36.2301 90.2279C36.1983 90.2154 36.1644 90.2093 36.1302 90.21ZM39.4202 68.67C39.9102 68.67 44.9002 68.15 45.8802 68.08C45.9492 68.08 46.0153 68.0526 46.0641 68.0038C46.1128 67.9551 46.1402 67.8889 46.1402 67.82C46.1402 67.751 46.1128 67.6849 46.0641 67.6361C46.0153 67.5874 45.9492 67.56 45.8802 67.56C45.3902 67.56 40.0402 67.72 39.4502 67.76C38.8602 67.8 38.8602 68.67 39.4202 68.67ZM40.4502 70.69C42.0202 70.69 48.1402 70.11 49.6902 70.01C49.7468 69.9985 49.7976 69.9678 49.8341 69.9232C49.8706 69.8785 49.8905 69.8226 49.8905 69.765C49.8905 69.7073 49.8706 69.6514 49.8341 69.6068C49.7976 69.5621 49.7468 69.5315 49.6902 69.52C48.1302 69.59 41.9702 69.62 40.4402 69.78C40.3313 69.7974 40.2322 69.8533 40.1611 69.9376C40.09 70.0219 40.0515 70.129 40.0527 70.2393C40.0539 70.3496 40.0947 70.4558 40.1677 70.5385C40.2407 70.6213 40.341 70.675 40.4502 70.69Z" fill="black"/>
</svg>
