<svg width="200" height="200" viewBox="0 0 200 200" fill="none" xmlns="http://www.w3.org/2000/svg">
<path d="M62.5104 44.5797C59.0404 44.7097 56.0704 48.3097 57.4104 51.5797C58.6204 54.4797 62.5304 54.1997 64.9204 53.1497C69.6004 51.1497 67.6104 44.3997 62.5104 44.5797ZM65.2604 52.1997C63.1704 53.5297 58.9704 53.7697 57.9204 51.4397C56.8704 49.1097 58.9204 45.8797 61.8704 45.4397C66.4004 44.6197 68.5204 50.1297 65.2604 52.1997ZM83.5404 48.0997C84.3204 47.0997 85.8304 46.2497 86.9604 46.7597C87.6204 47.0697 88.0104 46.1997 87.2604 46.0597C86.48 45.9229 85.6766 46.021 84.952 46.3415C84.2274 46.6619 83.6143 47.1903 83.1904 47.8597C83.1747 47.8827 83.1636 47.9086 83.1578 47.9358C83.1521 47.9631 83.1517 47.9912 83.1568 48.0186C83.162 48.046 83.1724 48.0721 83.1876 48.0955C83.2028 48.1188 83.2225 48.139 83.2454 48.1547C83.2684 48.1705 83.2943 48.1816 83.3216 48.1873C83.3488 48.1931 83.3769 48.1934 83.4043 48.1883C83.4317 48.1832 83.4579 48.1728 83.4812 48.1576C83.5046 48.1424 83.5247 48.1227 83.5404 48.0997ZM40.6304 17.7597C42.4757 18.5514 44.4047 19.1318 46.3804 19.4897C46.6204 19.4897 46.7504 19.1997 46.8104 19.0197C47.6072 16.5497 49.232 14.4304 51.4104 13.0197C59.7404 8.11972 67.7604 16.4897 64.2704 24.4097C62.3304 28.7997 57.2704 30.0697 53.1404 31.2297C52.4004 31.4397 52.5704 31.7597 53.2904 33.4797C54.5038 36.3997 55.7004 39.3231 56.8804 42.2497C57.1204 42.8197 58.1404 42.4497 58.5504 42.3697C59.1904 42.2597 62.6904 41.8497 62.8004 40.9797C62.9104 40.1097 60.6604 35.4697 60.2304 34.4897C68.1704 32.3097 73.5404 23.8897 71.7304 15.7397C69.4604 5.62972 58.3904 3.23972 49.6204 6.14972C45.0004 7.68972 40.4004 11.8197 40.3304 17.0597C40.3304 17.5897 40.2304 17.5897 40.6304 17.7597ZM48.4704 7.26972C57.1604 3.90972 68.6304 5.51972 71.0004 15.9297C72.7804 23.6597 67.4504 31.7097 59.9204 33.7597C59.6204 33.8397 59.3004 33.9797 59.8304 35.0297C60.6704 36.7397 62.0004 40.1297 62.3004 40.7997C60.7296 41.3133 59.1168 41.6881 57.4804 41.9197L53.3004 31.9997C57.2404 31.7397 63.3004 28.6097 64.9804 24.7697C68.3604 16.9997 61.0004 7.75972 52.0004 11.9997C50.6097 12.6583 49.384 13.6198 48.4133 14.8138C47.4425 16.0077 46.7513 17.4038 46.3904 18.8997L40.7904 17.2597C40.8604 12.9997 44.6404 8.74972 48.4704 7.26972ZM85.1704 50.8397C84.5704 50.2897 83.0004 52.6297 83.8004 53.1097C84.2504 53.3697 85.7804 51.3997 85.1704 50.8397ZM98.2604 50.3497C98.834 50.6736 99.314 51.1404 99.654 51.7046C99.9939 52.2688 100.182 52.9113 100.2 53.5697C100.201 53.618 100.217 53.6648 100.246 53.7031C100.276 53.7413 100.317 53.7688 100.363 53.7813C100.41 53.7938 100.459 53.7906 100.504 53.7723C100.549 53.7539 100.586 53.7214 100.61 53.6797C101.23 52.0497 99.9904 50.4397 98.6804 49.5797C98.1504 49.2197 97.7204 50.1897 98.2604 50.3497ZM91.0804 66.7397C92.4904 65.5997 94.7904 65.3997 95.9304 67.0497C96.7904 68.2997 96.0604 69.8297 94.5204 69.4497C94.0862 69.2734 93.6651 69.0662 93.2604 68.8297C93.2229 68.8157 93.1822 68.8123 93.1428 68.8198C93.1034 68.8273 93.0668 68.8453 93.0369 68.8721C93.007 68.8989 92.9851 68.9333 92.9734 68.9717C92.9616 69.01 92.9606 69.0508 92.9704 69.0897C93.5204 70.7397 96.7804 70.6597 97.0304 68.4897C97.3304 65.8997 93.4804 63.8397 90.8604 66.4897C90.8273 66.5189 90.8071 66.56 90.8043 66.6041C90.8015 66.6482 90.8163 66.6916 90.8454 66.7247C90.8746 66.7579 90.9158 66.7781 90.9598 66.7809C91.0039 66.7837 91.0473 66.7689 91.0804 66.7397ZM94.6204 56.9997C95.6204 57.4597 96.6204 54.9497 95.8104 54.6097C95.0004 54.2697 94.0004 56.7397 94.6204 56.9997ZM88.0504 60.6697C89.4604 61.2397 89.2404 60.5097 89.0504 60.3397C87.9119 59.7618 86.7359 59.2607 85.5304 58.8397C87.0004 56.5097 88.3904 54.1497 90.0004 51.9097C90.1404 51.7197 89.8404 51.4797 89.7004 51.6797C88.1804 53.8097 86.6404 55.9297 85.1704 58.0897C84.2304 59.4597 84.5304 59.2497 88.0504 60.6697ZM124 143.66C124.693 143.309 125.244 142.73 125.56 142.021C125.877 141.312 125.939 140.516 125.738 139.766C125.536 139.016 125.082 138.358 124.452 137.904C123.823 137.449 123.056 137.225 122.28 137.27C117.05 137.27 117.48 147.24 124 143.66ZM145.62 120.73C147.8 122.83 152.78 121.93 151.24 117.53C149.41 112.28 141.66 116.92 145.62 120.73ZM139.81 158.32C132.95 158.88 136.56 168.39 141.42 165.51C144.73 163.54 143.25 158 139.81 158.32ZM122.09 109.55C121.3 106.22 115.74 105.39 114.5 109.25C112.56 115.34 123.36 114.92 122.09 109.55ZM164.56 143.45C157.61 145.97 168.1 156.18 169.89 147.05C170.56 143.69 167.37 142.43 164.56 143.45ZM99.1604 128.1C98.381 128.212 97.6628 128.586 97.1231 129.159C96.5834 129.732 96.2542 130.472 96.1892 131.257C96.1241 132.042 96.3272 132.825 96.7652 133.48C97.2032 134.134 97.8502 134.621 98.6004 134.86C103.75 136.4 104.62 127.3 99.1604 128.1Z" fill="black"/>
<path d="M181.16 156.7C180.81 141.06 171.26 124.79 161.55 112.86C163.89 109.654 165.21 105.818 165.338 101.851C165.467 97.8839 164.398 93.9703 162.27 90.6197C159.54 86.3197 155.86 84.8297 154.7 81.6197C153.3 77.7997 155.05 73.6197 154.81 69.7597C154.53 65.1197 151.81 60.0097 147.02 58.7597C143.84 57.9297 139.14 59.4097 137.43 53.6097C136.09 49.0597 138.43 42.3297 134.43 35.9797C132.29 32.5697 128.52 30.6797 124.85 29.3897C120.21 27.7597 114.72 27.1197 110.25 29.5397C107.578 28.5099 104.694 28.1494 101.85 28.4897C105 25.2097 106.35 18.3897 104.85 14.0697C104.39 12.7297 96.6203 18.2597 96.0603 25.1797C92.9103 21.4897 89.8003 20.2597 85.2203 19.6697C83.4603 19.4397 87.1303 28.5797 90.2803 29.7897C87.8803 30.0097 84.5603 30.7897 82.8303 32.5597C82.2878 33.2136 81.8825 33.97 81.6385 34.7838C81.3945 35.5977 81.3168 36.4524 81.4101 37.2969C81.5034 38.1414 81.7658 38.9585 82.1816 39.6994C82.5974 40.4404 83.1581 41.09 83.8303 41.6097C80.2603 47.2897 77.1203 53.5397 76.5303 60.3197C73.6887 61.0262 71.2389 62.8222 69.7103 65.3197C65.4603 71.5197 70.4003 74.3197 68.8203 79.2197C66.9503 85.1097 61.3003 82.9197 58.6203 86.8297C56.6203 89.6597 57.0903 93.6497 59.0303 96.3997C56.1003 98.0797 52.4103 100.17 50.0903 102.58C50.6203 87.1697 48.6203 72.9197 47.8403 69.7397C47.7303 69.3197 46.1604 69.6497 45.7404 69.6797C46.5965 67.8289 47.1857 65.866 47.4904 63.8497C47.6604 61.9697 47.4904 59.2797 45.0804 59.1297C44.8704 58.5397 45.0803 52.4697 41.2303 49.1297C40.3903 48.3997 39.5004 48.2597 39.5204 49.5897C39.5204 51.5897 40.9103 53.3397 41.1003 56.5897C40.1869 56.6425 39.3082 56.9585 38.5704 57.4997C35.1804 56.6197 31.5104 64.3197 34.5704 64.8897C34.1674 66.3186 34.2626 67.8421 34.8404 69.2097C34.5704 69.2097 33.9904 68.9897 33.8404 69.2997C26.6104 83.3997 16.4204 108.63 19.2104 124.15C22.4604 142.22 41.9104 147.24 57.8003 145.44C58.7353 154.43 61.3758 163.159 65.5804 171.16C66.7604 173.38 71.5803 182.88 74.2503 185.1C73.488 188.29 73.102 191.559 73.1003 194.84C73.1003 195.16 73.5803 195.11 73.5903 194.84C73.7001 191.77 74.1121 188.719 74.8203 185.73C77.0278 186.656 79.2807 187.471 81.5703 188.17C99.5618 193.554 118.714 193.71 136.79 188.62C139.44 187.87 142.29 187.17 144.6 185.62C145.51 188.62 146.51 191.49 147.48 194.42C147.488 194.444 147.5 194.467 147.515 194.486C147.531 194.506 147.551 194.522 147.573 194.534C147.596 194.546 147.62 194.554 147.645 194.557C147.671 194.559 147.696 194.557 147.72 194.55C147.745 194.542 147.767 194.531 147.787 194.515C147.807 194.499 147.823 194.479 147.835 194.457C147.847 194.434 147.855 194.41 147.857 194.385C147.86 194.359 147.858 194.334 147.85 194.31C146.95 191.09 146.08 187.87 145.11 184.68C145.752 181.82 146.087 178.9 146.11 175.97C152.23 176.85 160.89 177.57 166.91 176.36C172.93 175.15 177.96 171.88 179.91 165.85C180.849 162.894 181.272 159.799 181.16 156.7ZM116.61 35.9397C118.45 39.4197 118.95 44.5097 118.37 48.3397C117.993 51.2353 116.827 53.9715 115 56.2497L114 55.9697C116.47 47.9697 114.21 38.8197 107.18 33.8997C104.388 32.1204 101.266 30.9231 98.0003 30.3797C103.87 26.9997 113.43 29.8997 116.61 35.9397ZM104.54 14.7197C105.12 22.6397 103.94 25.3397 100.54 28.7197C99.8959 28.8589 99.2712 29.0772 98.6803 29.3697C98.1785 28.0369 97.4587 26.7966 96.5503 25.6997C97.4003 21.1197 100 16.4997 104.54 14.7197ZM85.4903 20.2097C85.4903 20.0697 85.4903 20.0997 85.6103 20.1297C92.4003 21.6797 94.9403 23.5397 98.0703 29.7097C97.8303 29.8604 97.6059 30.0346 97.4003 30.2297C95.4694 29.8368 93.5003 29.6624 91.5303 29.7097C88.3903 29.1597 86.0003 23.0597 85.4903 20.2097ZM84.5903 41.9997C91.0903 45.5497 101.45 48.5897 109.13 47.5897C107.043 50.1105 105.973 53.3205 106.13 56.5897C106.25 59.1297 107.82 60.7897 110.03 58.9097C111.18 57.9097 112.65 56.1597 114.37 56.7297C116.09 57.2997 115.86 59.2697 115.15 60.7297C112.52 66.1197 107.47 65.2197 109.43 77.6597C109.765 79.7762 110.29 81.8581 111 83.8797C110.667 85.505 109.775 86.9625 108.48 87.9997C102.55 93.3797 91.1503 92.0897 91.3403 84.6997C91.3966 82.6618 91.3465 80.6224 91.1903 78.5897C87.2603 77.7897 82.2703 75.9697 79.8203 72.5297C78.9833 71.2774 78.3677 69.8905 78.0003 68.4297C76.3103 62.5497 77.4703 56.2697 79.8403 50.7397C81.1536 47.6875 82.7436 44.7619 84.5903 41.9997ZM111.65 84.2697C112.75 84.3697 113.8 84.5197 114.84 84.6897C114.84 85.4897 115.84 88.6897 115.07 92.5497C114.32 96.6397 111.42 100.89 106.98 101.25C100.28 101.78 98.7303 95.1697 98.7603 91.9497C107.33 92.5597 112 85.6497 111.65 84.2697ZM97.4503 91.7897C96.9803 91.7897 95.8303 96.3897 91.6703 97.3297C87.7303 98.2297 85.3303 95.0797 86.0603 91.3297C86.6303 88.3297 88.8203 86.2597 89.2503 85.3297L90.6403 85.0197C90.3403 88.8397 93.6103 91.1397 97.4503 91.7897ZM46.0003 59.9997C47.5603 60.9997 46.7903 64.7797 46.3203 66.1997C45.9403 67.3697 45.4903 68.5297 45.0703 69.6897C41.883 69.8318 38.6893 69.6778 35.5303 69.2297C35.0998 67.7951 34.9504 66.2909 35.0904 64.7997C35.5466 64.6739 35.9434 64.3905 36.2103 63.9997C37.1403 65.0897 38.5103 63.5297 39.2103 62.8597L40.9603 63.1397C39.7647 63.9999 38.8971 65.2412 38.5004 66.6597C38.5038 66.7036 38.5217 66.7451 38.5512 66.7778C38.5807 66.8105 38.6202 66.8325 38.6635 66.8405C38.7068 66.8485 38.7515 66.842 38.7907 66.8219C38.8299 66.8019 38.8614 66.7695 38.8804 66.7297C39.1672 65.952 39.612 65.2421 40.1869 64.6449C40.7617 64.0476 41.4541 63.576 42.2204 63.2597C43.5004 62.8897 43.2204 62.3797 42.2204 62.5797C41.9104 62.6397 38.7703 62.4797 38.7103 61.9697C38.6503 61.4597 44.2103 58.8597 46.0003 59.9997ZM41.2404 57.1397V58.3397C41.2404 58.5297 41.5803 58.5397 41.6203 58.3397C42.4103 53.9697 40.3104 52.0497 40.3104 49.4197C40.3104 48.9297 40.6403 49.2797 40.8703 49.4197C44.1503 52.0497 44.4303 56.8797 44.5003 59.0797C42.5379 59.2618 40.6498 59.921 39.0004 60.9997C38.1604 61.4597 37.4704 62.2197 38.6304 62.7197C38.1504 63.0697 36.9304 64.4497 36.4904 63.4097C36.0504 62.3697 37.6603 57.2197 41.2103 57.1197L41.2404 57.1397ZM34.1904 63.6297C34.0004 61.3697 35.6504 58.2797 38.0004 57.9997C36.6604 59.3097 35.4604 62.3197 35.9104 63.6397C35.5004 64.1897 34.2404 64.9297 34.1604 63.6097L34.1904 63.6297ZM34.3204 69.5197C38.3704 70.6997 43.1203 70.2997 47.3203 70.1697L48.1304 75.8297C42.7436 76.2662 37.3218 75.8169 32.0804 74.4997C32.8004 72.8197 33.5604 71.1797 34.2904 69.4997L34.3204 69.5197ZM178.32 167.92C173.72 162.61 168.79 170.92 172.99 173.36C169.42 175.43 165.25 176.07 161.18 176.18C146.46 176.58 130.99 172.91 117.7 166.66C118.38 158.66 116.51 152.44 113.8 148.35C125.03 145.48 133.68 144.76 144.5 144.12C144.68 144.12 144.72 143.8 144.5 143.79C142.403 143.691 140.302 143.728 138.21 143.9C138.02 143.01 131.49 136.38 125.21 122.9C125.11 122.69 124.78 122.79 124.87 123.01C128.037 130.151 132.046 136.889 136.81 143.08C137.02 143.36 137.24 143.64 137.48 143.91C126.471 144.53 115.593 146.608 105.13 150.09C104.65 150.26 104.98 150.75 105.26 150.97C103.764 151.047 102.282 151.292 100.84 151.7C100.18 151.33 97.9903 151.18 96.3703 149.61C94.3703 147.61 94.2103 152.29 96.7603 153.39C89.9403 157.12 88.4003 162.7 90.3803 162.49C90.8603 162.44 91.2403 161.97 91.5803 161.64C92.1703 161.09 92.7803 160.55 93.3603 159.97C90.5103 165.97 93.4903 167.81 94.3003 164.97C94.8431 163.068 95.8779 161.343 97.3003 159.97C95.6003 163.29 97.1003 167.4 98.5603 166.29C99.3803 165.65 99.0803 162.29 101.93 160.7C102.25 160.53 102.59 160.42 102.93 160.26C103.84 161.4 106.82 162.95 110.19 162.94C110.29 163.17 110.3 163.28 110.44 163.37C121.208 169.684 133.091 173.864 145.44 175.68C145.415 178.706 145.08 181.722 144.44 184.68C141.59 186.6 135 188.21 131.53 188.99C118.181 191.961 104.361 192.138 90.9403 189.51C87.8503 188.9 76.4903 186.37 74.6803 184.27C71.2903 180.34 69.7703 176.8 67.2204 172.27C62.1304 163.22 58.5503 151.42 58.4103 141.03C58.2051 132.94 60.3145 124.961 64.4903 118.03C66.4517 115.116 68.575 112.315 70.8503 109.64C71.0103 109.46 70.7304 109.21 70.5804 109.39C66.7504 113.74 63.4403 117.68 61.1403 123.06C58.3179 129.84 57.1788 137.203 57.8203 144.52C45.4104 146.09 31.3804 143.73 23.7004 132.86C26.9904 131.52 25.9404 124.35 20.3504 125.55C17.8004 115.55 21.8104 100.84 25.0704 91.5497C27.0704 85.8397 29.4304 80.2797 31.9304 74.7597C34.4804 76.0297 42.8603 76.9397 48.2603 76.4197C49.7122 88.2828 50.0136 100.259 49.1603 112.18C49.1603 112.4 49.4903 112.4 49.5303 112.18C49.9636 109.249 50.1908 106.292 50.2103 103.33C54.5203 99.2397 61.9603 95.3297 67.3403 92.7997C66.5903 94.7497 68.5503 97.0497 70.5903 97.0397C74.7903 97.0397 74.8303 91.3097 71.9003 90.7897C77.2081 88.5976 82.6821 86.832 88.2703 85.5097C86.2703 88.1997 84.2703 91.6197 85.7203 95.0197C87.4203 99.0997 93.4403 99.5097 96.9303 93.8397C92.3318 103.495 89.3618 113.845 88.1403 124.47C88.1403 124.71 88.4703 124.79 88.5103 124.55C90.04 113.592 93.29 102.944 98.1403 92.9997C98.1825 95.2184 98.9167 97.3686 100.24 99.1497C105.35 105.87 118.74 100.48 115.59 84.7997C123.057 86.1264 130.239 88.7313 136.82 92.4997C136.102 93.1313 135.641 94.0042 135.523 94.9532C135.405 95.9022 135.639 96.8615 136.18 97.6497C136.456 98.071 136.813 98.4338 137.229 98.7172C137.646 99.0006 138.114 99.1991 138.607 99.3012C139.1 99.4034 139.609 99.4073 140.104 99.3127C140.598 99.218 141.07 99.0267 141.49 98.7497C141.883 98.4585 142.201 98.0783 142.419 97.6402C142.636 97.2021 142.746 96.7187 142.74 96.2297C153.64 103.83 162.43 114.11 169.43 125.32C174.8 133.92 179.51 144.09 180.29 154.44C180.63 159 180.36 163.79 178.32 167.9V167.92ZM98.9103 158L97.9803 159C93.5703 162 93.9803 166.63 92.9803 165.68C91.7503 164.48 93.8103 159.22 95.6603 157.58C97.2403 156.18 95.4103 156.38 93.9703 158.81L93.8903 158.89C92.7713 159.797 91.6999 160.762 90.6803 161.78C88.4403 163.84 91.4003 152.57 105.77 151.5C108.77 154.25 109.55 158.42 110.08 162.33C106 162.33 103.19 159.78 102.82 159.82C100.59 160.08 99.1503 162.6 98.6003 164.54C98.5303 164.78 98.3703 165.84 98.1303 165.92C97.3803 166.18 95.9503 161.4 99.1303 158.31C99.3703 158.07 99.1003 157.81 98.9103 158ZM97.2503 153.12C95.4603 152.58 94.9403 149.54 95.6003 149.68C96.8174 150.762 98.2634 151.555 99.8303 152C98.94 152.287 98.0766 152.651 97.2503 153.09V153.12ZM105.53 150.7C105.25 150.7 111.53 148.91 113.32 148.45C117.16 155.32 117.45 160.45 116.99 166.34L110.91 163.19C110.25 157.49 108.47 152.57 105.53 150.67V150.7Z" fill="black"/>
<path d="M43.9403 132.32C45.1803 134.79 50.9403 133.94 50.7503 130.13C50.4903 124.67 41.0503 126.59 43.9403 132.32ZM39.3803 86.2098C39.5303 80.8998 33.1303 81.7197 32.4603 86.9497C32.1103 89.6297 39.2203 91.9298 39.3803 86.2098ZM38.4503 100.49C37.1103 101.78 37.2103 106.09 40.9603 105.99C47.4303 105.83 42.6703 96.4397 38.4503 100.49ZM71.9103 157C73.9103 159.79 78.6003 157.76 77.8103 154.13C76.6903 149 68.6103 152.44 71.9103 157ZM76.3203 113.37C72.2503 113.37 71.7103 118.98 74.6503 120.28C81.6203 123.36 81.9303 113.37 76.3203 113.37ZM102.33 180.79C106.25 183.47 111.33 177 106.93 174.45C102.3 171.74 98.2103 178 102.33 180.79Z" fill="black"/>
</svg>
