<svg width="200" height="200" viewBox="0 0 200 200" fill="none" xmlns="http://www.w3.org/2000/svg">
<path d="M60.8302 189.45C59.6473 189.019 58.3751 188.892 57.1302 189.08C56.9843 189.13 56.8577 189.225 56.7681 189.35C56.6784 189.476 56.6302 189.626 56.6302 189.78C56.6302 189.934 56.6784 190.085 56.7681 190.21C56.8577 190.336 56.9843 190.43 57.1302 190.48C59.6602 191.59 64.0002 190.81 60.8302 189.45ZM57.8902 190.45C56.1802 189.76 57.7502 189.19 58.2902 189.19C60.5202 189.19 61.9502 190.09 60.9202 190.65C59.9164 190.933 58.8454 190.859 57.8902 190.44V190.45ZM84.5902 183C84.4121 183.033 84.2473 183.116 84.1161 183.241C83.9849 183.366 83.8929 183.526 83.8515 183.702C83.8101 183.879 83.821 184.063 83.883 184.233C83.9449 184.403 84.0552 184.552 84.2002 184.66C84.7082 184.963 85.2726 185.159 85.8589 185.236C86.4452 185.314 87.0411 185.271 87.6102 185.11C88.6102 184.86 89.4202 184.11 88.6102 183.46C88.6002 183.44 86.0702 182.53 84.5902 183ZM86.6802 185C86.1297 185.034 85.577 184.987 85.0402 184.86C83.5402 184.23 84.2202 183.19 85.5602 183.19C85.8102 183.19 87.9302 183.19 88.4402 183.65C89.2202 184.35 87.6502 185 86.6802 185ZM100.66 183.63C100.2 183.97 100.6 184.63 101 184.76C101.4 184.89 102.59 185.05 102.76 184.47C103 183.6 101.13 183.3 100.66 183.63ZM101.01 184.43C100.58 184.21 100.5 183.71 101.42 183.74C102.34 183.77 103.5 184.74 101.72 184.59C101.472 184.586 101.227 184.532 101 184.43H101.01ZM52.0002 103.77C51.979 103.77 51.9587 103.779 51.9437 103.794C51.9287 103.809 51.9202 103.829 51.9202 103.85C51.9202 103.871 51.9287 103.892 51.9437 103.907C51.9587 103.922 51.979 103.93 52.0002 103.93C52.7102 103.93 57.1302 104.72 57.0002 103.77C57.0002 103.55 54.7802 101.48 55.0002 101.42C55.2202 101.36 58.1502 102.18 58.7902 102.18C58.9102 102.18 58.9402 101.98 58.7902 101.97H58.5602C59.2519 101.257 59.7509 100.379 60.0102 99.4201C60.2761 100.31 60.6848 101.151 61.2202 101.91C61.2499 101.938 61.2893 101.954 61.3302 101.954C61.3712 101.954 61.4105 101.938 61.4402 101.91C61.5402 101.85 61.7702 101.53 63.0002 100.5C62.2402 103.41 62.0002 103.5 62.2702 103.57C63.7082 103.761 65.1692 103.687 66.5802 103.35C66.5955 103.344 66.6087 103.334 66.6181 103.321C66.6274 103.307 66.6324 103.291 66.6324 103.275C66.6324 103.259 66.6274 103.243 66.6181 103.229C66.6087 103.216 66.5955 103.206 66.5802 103.2C65.9802 103.29 63.1502 103.86 62.7202 103.2C62.4202 102.74 63.3002 100.73 63.4402 100.13C63.4462 100.111 63.4481 100.091 63.4456 100.071C63.4432 100.051 63.4366 100.032 63.4261 100.015C63.4157 99.9981 63.4018 99.9835 63.3852 99.9723C63.3687 99.961 63.3499 99.9535 63.3302 99.9501C63.0802 99.8801 61.9102 101.52 61.3302 101.35C60.7502 101.18 60.3302 99.2901 60.2202 98.7301C60.2202 98.6001 59.9702 98.5801 59.9502 98.7301C59.7662 99.9196 59.2136 101.021 58.3702 101.88C57.1434 101.693 55.9354 101.399 54.7602 101C54.7352 100.993 54.7085 100.993 54.6836 101C54.6586 101.008 54.6366 101.023 54.6204 101.044C54.6042 101.064 54.5946 101.089 54.5928 101.115C54.591 101.142 54.597 101.168 54.6102 101.19C54.9102 101.61 56.8102 103.64 56.7102 103.85C56.6102 104.06 52.8702 103.78 52.0002 103.77ZM94.0002 30.2501C93.7485 31.0272 93.3362 31.7426 92.7902 32.3501C92.6002 32.5801 92.1402 32.9301 92.1802 33.2701C92.2502 33.8701 93.5902 34.1301 94.0302 34.1501C94.0541 34.1501 94.077 34.1407 94.0939 34.1238C94.1108 34.1069 94.1202 34.084 94.1202 34.0601C94.1202 34.0363 94.1108 34.0134 94.0939 33.9965C94.077 33.9796 94.0541 33.9701 94.0302 33.9701C93.6341 33.9251 93.254 33.7881 92.9202 33.5701C92.1402 32.9101 93.5702 32.6301 94.1302 30.2901C94.141 30.2808 94.149 30.2687 94.1535 30.2552C94.158 30.2417 94.1588 30.2272 94.1559 30.2132C94.1529 30.1993 94.1463 30.1864 94.1366 30.1759C94.127 30.1654 94.1148 30.1576 94.1011 30.1534C94.0875 30.1492 94.073 30.1487 94.0592 30.152C94.0453 30.1553 94.0326 30.1623 94.0223 30.1721C94.012 30.182 94.0045 30.1944 94.0006 30.2081C93.9968 30.2218 93.9966 30.2364 94.0002 30.2501ZM96.3402 36.8401C97.1522 36.9359 97.9703 36.7211 98.6306 36.2389C99.2908 35.7567 99.7444 35.0427 99.9002 34.2401C99.9002 34.0701 99.6902 33.9501 99.6202 34.1201C99.0202 35.4801 98.0002 36.7201 96.3702 36.6501C96.2602 36.6501 96.2302 36.8201 96.3402 36.8401ZM92.1402 27.1501C91.8417 27.1873 91.5548 27.2888 91.2992 27.4477C91.0437 27.6065 90.8257 27.8189 90.6602 28.0701C90.6428 28.0946 90.6311 28.1227 90.626 28.1523C90.6209 28.1819 90.6226 28.2123 90.6308 28.2412C90.6391 28.27 90.6538 28.2967 90.6737 28.3191C90.6937 28.3416 90.7185 28.3592 90.7462 28.3708C90.7739 28.3823 90.8039 28.3875 90.8339 28.3859C90.8639 28.3843 90.8932 28.3759 90.9195 28.3614C90.9458 28.347 90.9685 28.3267 90.986 28.3023C91.0034 28.2778 91.0151 28.2497 91.0202 28.2201C91.1407 27.9981 91.3091 27.8058 91.5132 27.657C91.7173 27.5082 91.952 27.4068 92.2002 27.3601C92.225 27.3497 92.2451 27.3306 92.2567 27.3063C92.2683 27.2821 92.2707 27.2544 92.2633 27.2286C92.2559 27.2027 92.2393 27.1805 92.2166 27.166C92.194 27.1516 92.1668 27.1459 92.1402 27.1501ZM97.4502 27.1601C97.7579 27.2119 98.0512 27.3277 98.3113 27.4999C98.5714 27.6722 98.7925 27.8971 98.9602 28.1601C98.9828 28.1973 99.0191 28.2239 99.0613 28.2342C99.1035 28.2446 99.1481 28.2377 99.1852 28.2151C99.2224 28.1926 99.249 28.1562 99.2593 28.114C99.2696 28.0718 99.2628 28.0273 99.2402 27.9901C99.0466 27.688 98.7805 27.4392 98.4661 27.2663C98.1517 27.0933 97.799 27.0018 97.4402 27.0001C97.3102 27.0001 97.3102 27.1501 97.4502 27.1601ZM91.5602 29.6901C91.4241 30.0868 91.3467 30.5011 91.3302 30.9201C91.3302 30.9573 91.345 30.9929 91.3712 31.0191C91.3975 31.0454 91.4331 31.0601 91.4702 31.0601C91.5074 31.0601 91.543 31.0454 91.5692 31.0191C91.5955 30.9929 91.6102 30.9573 91.6102 30.9201C91.7085 30.5319 91.782 30.1377 91.8302 29.7401C91.8298 29.7078 91.8181 29.6765 91.7973 29.6518C91.7764 29.6271 91.7476 29.6103 91.7157 29.6044C91.6839 29.5985 91.651 29.6038 91.6227 29.6195C91.5943 29.6351 91.5722 29.6601 91.5602 29.6901ZM97.3102 30.8901C97.4052 30.4159 97.4554 29.9338 97.4602 29.4501C97.4602 29.2801 97.1802 29.2401 97.1502 29.4501C97.048 29.9097 96.9977 30.3793 97.0002 30.8501C97.0034 30.8865 97.0189 30.9206 97.0442 30.947C97.0695 30.9733 97.103 30.9902 97.1391 30.9948C97.1753 30.9995 97.212 30.9917 97.2431 30.9726C97.2742 30.9536 97.2979 30.9245 97.3102 30.8901ZM189.84 172.21C188.519 172.888 187.351 173.831 186.41 174.98C185.33 172.35 186.53 170.03 187.9 167.77C187.915 167.74 187.919 167.705 187.913 167.672C187.907 167.639 187.891 167.609 187.866 167.585C187.842 167.562 187.811 167.547 187.777 167.543C187.744 167.538 187.71 167.544 187.68 167.56C185.537 169.086 183.75 171.058 182.44 173.34C182.44 172.96 182.44 172.59 182.37 172.2C182.37 172.177 182.366 172.155 182.356 172.134C182.347 172.113 182.334 172.094 182.317 172.079C182.299 172.064 182.279 172.053 182.258 172.046C182.236 172.039 182.213 172.037 182.19 172.04C182.03 172.04 182.05 172.04 181.71 173.34C181.41 172.34 181.11 171.34 180.82 170.41C180.82 170.27 180.53 170.24 180.5 170.41C180.389 171.155 180.372 171.911 180.45 172.66C178.812 171.531 177.239 170.309 175.74 169C175.71 168.981 175.674 168.973 175.638 168.978C175.602 168.982 175.569 168.998 175.544 169.023C175.518 169.049 175.502 169.082 175.498 169.118C175.494 169.153 175.501 169.19 175.52 169.22C176.916 170.755 178.202 172.386 179.37 174.1C179.45 174.22 179.64 174.1 179.56 173.99C176.36 169.12 175.49 169.68 180.56 173.14C180.69 173.23 180.81 173.08 180.79 172.95C180.715 172.4 180.695 171.844 180.73 171.29L181.54 174C181.554 174.042 181.584 174.077 181.623 174.098C181.662 174.118 181.708 174.123 181.75 174.11C181.88 174.11 181.86 174.02 182.08 173.21V173.92C182.078 173.959 182.089 173.997 182.111 174.029C182.134 174.061 182.166 174.084 182.204 174.094C182.241 174.105 182.281 174.102 182.317 174.087C182.353 174.072 182.382 174.045 182.4 174.01C183.574 171.809 185.187 169.872 187.14 168.32C185.95 170.37 184.84 172.83 186.14 175.08C186.174 175.16 186.229 175.23 186.3 175.28C186.333 175.29 186.369 175.29 186.402 175.282C186.436 175.273 186.466 175.255 186.49 175.23C187.267 174.372 188.147 173.613 189.11 172.97C188.538 173.677 188.23 174.561 188.24 175.47C188.24 175.61 188.49 175.66 188.5 175.47C188.629 174.305 189.164 173.222 190.01 172.41C190.17 172.33 190 172.15 189.84 172.21ZM194 87.7301C192.39 88.0164 190.927 88.85 189.86 90.0901C189.759 88.5527 190.001 87.012 190.57 85.5801C190.58 85.548 190.579 85.5135 190.567 85.4821C190.555 85.4506 190.533 85.4241 190.504 85.4068C190.475 85.3895 190.442 85.3824 190.408 85.3866C190.375 85.3909 190.344 85.4062 190.32 85.4301C188.81 87.0601 188.43 89.5201 188.2 89.5801C188.2 89.5801 187.6 89.1101 187.53 89.0601C186.405 88.275 185.189 87.6271 183.91 87.1301C183.75 87.0701 183.66 87.3201 183.8 87.4001C185.173 88.2282 186.35 89.3438 187.25 90.6701C187.31 90.7701 187.48 90.6701 187.41 90.5701C186.752 89.5651 185.938 88.6707 185 87.9201C186.182 88.4816 187.283 89.2015 188.27 90.0601C188.289 90.0785 188.312 90.0916 188.338 90.0981C188.363 90.1046 188.39 90.1043 188.415 90.0972C188.441 90.0901 188.464 90.0765 188.482 90.0577C188.501 90.0389 188.514 90.0156 188.52 89.9901C188.742 88.6896 189.248 87.4537 190 86.3701C189.6 87.6975 189.461 89.0898 189.59 90.4701C189.59 90.5901 189.77 90.7001 189.86 90.5801C190.785 89.3814 192.084 88.5261 193.55 88.1501C193.129 88.5769 192.796 89.0829 192.571 89.639C192.346 90.1952 192.234 90.7903 192.24 91.3901C192.24 91.4259 192.254 91.4603 192.28 91.4856C192.305 91.5109 192.339 91.5251 192.375 91.5251C192.411 91.5251 192.445 91.5109 192.471 91.4856C192.496 91.4603 192.51 91.4259 192.51 91.3901C192.592 90.0911 193.176 88.8749 194.14 88.0001C194.27 87.8801 194.13 87.7101 194 87.7301ZM47.0502 86.5901C47.7502 84.9501 48.3602 79.5901 47.2402 77.2701C47.1042 76.8898 46.8788 76.5478 46.583 76.2728C46.2871 75.9978 45.9295 75.798 45.5402 75.6901C44.4102 75.4801 44.7002 74.2101 44.7102 73.2801C44.7102 70.8801 44.7102 62.1301 44.2002 60.2301C43.4302 57.5601 41.0002 54.9401 38.0002 55.3101C37.1502 55.4201 37.0002 55.8901 36.9402 54.8601C36.9402 53.5401 37.1202 36.4301 34.4602 33.7401C32.3202 31.5801 29.0802 30.9901 26.6602 33.0701C23.4302 35.8501 23.3102 41.0701 22.8502 45.0701C22.177 49.9973 22.2613 54.9985 23.1002 59.9001C20.5802 59.5401 19.2502 62.0601 18.8502 64.2201C18.2326 67.7996 18.1081 71.4469 18.4802 75.0601C18.5502 75.8701 19.3702 80.0601 19.2702 80.2701C19.0502 80.7001 17.6402 80.4901 15.8602 81.8601C11.8602 84.9501 11.8602 92.8601 15.0202 97.1701C16.0202 98.5001 17.4602 99.2501 17.6502 101C18.1802 107.13 26.3502 110.92 32.8802 110.71C33.1502 117.57 33.6002 124.42 33.7902 131.28C33.7968 131.3 33.8095 131.318 33.8266 131.33C33.8437 131.342 33.8642 131.349 33.8852 131.349C33.9063 131.349 33.9268 131.342 33.9439 131.33C33.9609 131.318 33.9737 131.3 33.9802 131.28C33.7902 124.43 33.8302 117.53 33.2202 110.7C37.5402 110.46 41.6702 108.6 44.0402 104.79C46.0402 101.34 46.3602 96.7901 45.9602 92.9301C45.7263 91.9033 45.5692 90.8604 45.4902 89.8101C45.5602 88.5401 46.5802 87.7001 47.0502 86.5901ZM40.8002 80.5901C38.2949 84.3678 35.5772 88.0004 32.6602 91.4701C32.7602 94.7801 32.9602 105.87 33.5102 108.63C33.5037 108.65 33.4909 108.668 33.4739 108.68C33.4568 108.692 33.4363 108.699 33.4152 108.699C33.3942 108.699 33.3736 108.692 33.3566 108.68C33.3395 108.668 33.3268 108.65 33.3202 108.63C32.7431 105.462 32.4453 102.25 32.4302 99.0301C30.6047 98.3598 28.9269 97.3409 27.4902 96.0301C26.1802 94.8901 24.4102 93.5101 23.7902 91.8301C23.7302 91.6701 23.9802 91.5701 24.0702 91.7201C25.0064 93.2216 26.1937 94.5509 27.5802 95.6501C28.9935 96.9616 30.6381 97.9992 32.4302 98.7101C32.4302 97.1101 32.0202 84.7101 31.8902 80.1501C30.3802 78.9601 28.8902 77.7601 27.4702 76.4301C26.3702 75.4301 24.9702 74.1901 24.5402 72.6701C24.4902 72.5101 24.7402 72.4001 24.8102 72.5601C26.2402 75.4801 29.3202 77.7901 31.8702 79.7901C31.8702 79.3301 31.1402 57.7901 30.8702 47.4501C30.8806 47.4035 30.9066 47.3618 30.9438 47.3319C30.9811 47.302 31.0275 47.2857 31.0752 47.2857C31.123 47.2857 31.1694 47.302 31.2066 47.3319C31.2439 47.3618 31.2699 47.4035 31.2802 47.4501C31.5102 53.6901 31.6902 59.9201 31.8802 66.1601C33.1819 65.1728 34.2961 63.9604 35.1702 62.5801C35.2006 62.5439 35.2429 62.5196 35.2895 62.5116C35.3361 62.5036 35.3841 62.5124 35.4248 62.5363C35.4656 62.5603 35.4965 62.598 35.5122 62.6426C35.5278 62.6872 35.5271 62.736 35.5102 62.7801C34.5636 64.2579 33.329 65.5298 31.8802 66.5201C31.9902 70.3201 32.5002 86.6001 32.6402 90.9401C35.3802 87.5101 37.9002 83.9401 40.4402 80.3201C40.5902 80.1501 41.0002 80.3501 40.8002 80.5801V80.5901Z" fill="black"/>
<path d="M188.71 63.8202C191.96 59.5302 193.24 54.0102 194.08 48.8202C195.048 42.8436 195.253 36.7684 194.69 30.7402C194.5 28.7402 194.26 26.4702 192.83 24.8902C192.14 24.1202 191.21 23.6002 190.57 22.8002C189.43 21.4202 190.02 19.2002 190 17.5202C190 15.2502 189.53 12.7702 187.86 11.1002C186.19 9.43016 183.49 8.89016 181.29 9.00016C180.29 9.06587 179.318 9.36178 178.451 9.86481C177.584 10.3678 176.844 11.0644 176.29 11.9002C175.746 12.7762 175.312 13.7168 175 14.7002C174 17.3502 171.38 17.6002 170.09 19.9802C169.608 21.1051 169.291 22.2942 169.15 23.5102C168.84 24.7802 166.75 27.5102 166.57 27.8802C153.66 27.7102 147.93 27.7802 147.93 27.7802C147.921 27.2385 147.802 26.7044 147.58 26.2102C147.018 25.133 146.624 23.9764 146.41 22.7802C145.5 20.5702 143.77 19.4602 141.63 18.6002C139.32 17.6702 137.34 15.6002 134.69 15.7602C132.307 15.83 130.033 16.7731 128.3 18.4102C126.59 20.2902 126.63 21.7702 125.75 23.2702C125.406 23.8087 125.092 24.3663 124.81 24.9402C124.461 25.9764 124.216 27.0451 124.08 28.1302C119.433 28.6524 114.753 28.8196 110.08 28.6302C110.32 27.3102 110.71 26.0002 111.08 24.7302C113.52 24.2102 113.75 18.1002 108.49 17.5202C108.16 16.8102 108.61 16.2202 109.11 15.7602C108.751 15.6914 108.38 15.7129 108.031 15.8229C107.682 15.9328 107.365 16.1278 107.11 16.3902C107.222 16.0221 107.256 15.6346 107.208 15.2529C107.16 14.8711 107.033 14.5037 106.834 14.1744C106.635 13.8452 106.369 13.5616 106.053 13.342C105.737 13.1225 105.378 12.9719 105 12.9002C105.353 13.373 105.578 13.9293 105.651 14.5147C105.725 15.1002 105.645 15.6947 105.42 16.2402C104.67 14.0602 100.26 10.9502 94.6004 11.4702C95.0604 12.0002 95.3204 12.9402 94.5204 13.2102C90.6304 14.5102 88.4104 12.3502 88.4504 12.1002C87.3304 15.7802 88.8304 16.4902 88.5104 16.6702C87.6647 17.2503 87.0033 18.0608 86.6045 19.0055C86.2057 19.9503 86.0862 20.9896 86.2604 22.0002C86.4211 21.7014 86.6401 21.4378 86.9045 21.2251C87.1688 21.0123 87.473 20.8547 87.7993 20.7615C88.1255 20.6683 88.4672 20.6414 88.804 20.6823C89.1408 20.7233 89.466 20.8314 89.7604 21.0002C89.0527 23.2268 88.567 25.5179 88.3104 27.8402C85.2104 27.7402 73.0604 27.6102 70.1904 28.0902C70.3204 24.8702 69.3104 24.6002 68.9504 23.0102C67.8104 17.9302 65.6104 17.5102 62.2504 15.9302C59.8304 14.8002 57.7204 12.7502 54.8604 12.9302C52.0004 13.1102 49.1204 14.1402 47.3304 16.3002C45.5404 18.4602 45.9004 19.7102 44.4704 22.0002C43.3871 23.631 42.8032 25.5424 42.7904 27.5002C35.7904 27.9302 11.3803 27.3002 5.08035 27.2602C5.05382 27.2602 5.02839 27.2707 5.00964 27.2894C4.99088 27.3082 4.98035 27.3336 4.98035 27.3602C4.98035 27.3867 4.99088 27.4121 5.00964 27.4309C5.02839 27.4496 5.05382 27.4602 5.08035 27.4602C11.3803 27.5402 36.5403 28.1002 42.8004 27.9102C42.9604 31.5402 45.2504 32.8502 46.8004 34.4302C47.666 35.4925 48.8028 36.301 50.0904 36.7702C51.4804 37.1802 54.4804 36.9102 55.1604 36.4202C55.3504 38.8502 55.6604 41.2702 56.0604 43.6502C56.0604 43.8802 56.5004 43.8302 56.4704 43.6502C56.2204 41.2602 55.9804 38.8802 55.8004 36.5002C55.8604 36.5002 56.9104 37.0102 57.3804 37.1902C58.7747 37.6281 60.2534 37.7268 61.6936 37.4781C63.1337 37.2294 64.4937 36.6404 65.6604 35.7602C67.9004 33.8802 69.9604 31.4002 70.2304 28.4002C71.8204 28.1902 85.3804 28.4002 88.3104 28.3102C88.1484 30.1598 88.2325 32.0227 88.5604 33.8502C89.2304 37.3902 90.8504 39.3402 95.4504 40.5402C95.1804 42.3702 95.6004 44.6402 93.3104 45.3602C86.4004 46.5202 80.4804 49.6602 74.9304 53.8302C74.0304 54.5002 73.3804 54.6002 73.6204 55.7002C72.8693 56.0392 72.1411 56.4266 71.4404 56.8602C71.6504 55.9302 73.3003 44.4802 73.8103 39.6902C73.8711 39.6525 73.9281 39.609 73.9804 39.5602C74.3104 39.9002 74.8204 39.6602 75.0404 39.2802C75.4815 39.0434 75.8502 38.6914 76.1073 38.2618C76.3644 37.8321 76.5002 37.3409 76.5004 36.8402C77.3204 35.7002 77.7704 35.7402 77.6004 35.2902C77.4304 34.8402 76.5404 34.7102 76.1204 34.9802C75.2204 33.6202 72.8503 33.6202 71.5203 34.2502C69.0103 35.4402 69.3804 38.2502 68.3804 40.4102C65.7704 46.1902 59.2704 51.8802 56.7904 61.4102C55.7904 65.3302 56.3904 69.4102 59.9904 71.7802C64.7404 74.8902 71.5104 72.5502 75.8304 69.6402C75.9204 69.8402 76.0404 70.2902 76.4704 70.2502C77.9449 70.0714 79.3582 69.5546 80.6004 68.7402C80.2104 72.0102 79.9904 81.5402 79.9404 84.8402C79.9404 87.5902 79.8004 91.8402 80.2604 92.2102C80.6567 92.4797 81.1016 92.6699 81.5704 92.7702C81.2704 95.7702 82.5704 106.35 82.5704 106.97C86.3804 103.05 86.8603 102.65 89.3403 100.19C89.3563 100.176 89.3773 100.168 89.3989 100.169C89.4205 100.17 89.4408 100.179 89.4554 100.195C89.4699 100.211 89.4776 100.232 89.4767 100.254C89.4757 100.275 89.4663 100.296 89.4504 100.31C87.8304 102.07 79.1404 111.38 78.8304 112.31C78.5204 113.24 80.3404 114.95 80.4004 115C73.7304 123 73.5203 125.15 71.8103 135.47C67.3803 137.89 61.0204 139.47 60.8104 138.61C60.6104 137.86 61.3904 136.92 61.9104 136.52C62.0504 136.42 62.0304 136.16 61.8204 136.17C60.3484 136.276 58.9671 136.92 57.9404 137.98C57.9442 137.322 58.09 136.672 58.3678 136.075C58.6457 135.477 59.049 134.947 59.5504 134.52C59.7304 134.37 59.5504 134.14 59.3304 134.22C57.331 135.129 55.644 136.608 54.4804 138.47C54.0615 137.405 54.0297 136.226 54.3904 135.14C54.4504 134.94 54.2104 134.89 54.0704 135C52.6804 136.15 52.5204 138.61 52.4504 138.66C52.1804 138.85 48.4004 136.4 45.4504 137.01C45.2704 137.01 45.2004 137.31 45.4504 137.35C47.1951 137.71 48.7407 138.713 49.7804 140.16C47.2069 141.784 44.4203 143.043 41.5004 143.9C31.0004 147.22 17.7003 148 6.91035 147.54C6.88117 147.54 6.85319 147.552 6.83257 147.572C6.81194 147.593 6.80035 147.621 6.80035 147.65C6.80035 147.679 6.81194 147.707 6.83257 147.728C6.85319 147.749 6.88117 147.76 6.91035 147.76C15.4251 148.21 23.9635 147.781 32.3903 146.48C37.9804 145.53 45.3904 143.65 50.0604 140.37C50.0872 140.352 50.1091 140.327 50.1243 140.298C50.1394 140.27 50.1473 140.238 50.1473 140.205C50.1473 140.173 50.1394 140.141 50.1243 140.112C50.1091 140.083 50.0872 140.059 50.0604 140.04C49.2849 138.834 48.1522 137.901 46.8204 137.37C48.8221 137.538 50.7569 138.172 52.4704 139.22C52.4937 139.231 52.5193 139.237 52.5452 139.238C52.5712 139.238 52.5969 139.233 52.6206 139.223C52.6444 139.212 52.6656 139.197 52.6828 139.177C52.7 139.158 52.7128 139.135 52.7204 139.11C52.8883 138.01 53.2615 136.952 53.8204 135.99C53.6909 136.994 53.8505 138.014 54.2804 138.93C54.2975 138.957 54.3212 138.979 54.3492 138.994C54.3771 139.01 54.4085 139.018 54.4404 139.018C54.4722 139.018 54.5036 139.01 54.5315 138.994C54.5595 138.979 54.5832 138.957 54.6004 138.93C55.5342 137.302 56.8789 135.946 58.5004 135C57.7787 135.967 57.4435 137.169 57.5604 138.37C57.5601 138.407 57.5707 138.444 57.5909 138.475C57.6112 138.506 57.6401 138.531 57.6742 138.546C57.7083 138.561 57.746 138.565 57.7826 138.559C57.8192 138.553 57.8532 138.536 57.8804 138.51C58.726 137.464 59.9177 136.755 61.2404 136.51C60.9083 136.865 60.6675 137.295 60.5386 137.764C60.4097 138.233 60.3966 138.725 60.5004 139.2C60.5143 139.247 60.5461 139.287 60.5891 139.312C60.632 139.336 60.6826 139.343 60.7304 139.33C64.4704 138.78 68.5004 137.86 71.7304 135.78C70.5304 142.99 68.4004 158.37 68.1604 166.44C67.8879 166.549 67.6427 166.717 67.4422 166.931C67.2418 167.145 67.0909 167.401 67.0004 167.68C66.7204 168.29 66.0004 170.37 59.7304 170.33C59.2604 170.33 58.5104 170.12 57.9604 170.51C56.7604 171.38 57.2104 173.19 58.1304 174.07C59.4904 175.36 61.7904 176.07 63.5304 176.72C65.5304 177.42 68.1804 178.45 70.3204 178.01C72.8804 177.5 73.5504 173.65 73.4404 171.01C75.8904 164.66 80.1504 159.21 83.0104 153.01C85.5804 147.46 88.2404 142.5 89.8804 137.01C90.2204 135.87 90.2404 134.82 91.2704 134.09C91.8704 133.67 97.1804 130.45 98.9304 128.89C99.6012 129.42 100.329 129.872 101.1 130.24C102.1 130.43 105.1 126.94 105.81 126.24C108.487 128.257 111.551 129.701 114.81 130.48C117.002 131.048 119.222 131.502 121.46 131.84C129.65 133.15 143.09 134.74 144.78 134.84C144.977 135.067 145.224 135.244 145.502 135.357C145.78 135.47 146.081 135.516 146.38 135.49C147.06 135.49 150.95 134.81 151.85 140.97C152.18 143.03 154.66 143.87 155.85 141.04C156.56 139.33 156.23 136.82 156.07 135.04C155.88 132.89 155.69 130.14 154.48 128.3C153.42 126.69 150.96 126.39 148.74 127.4C147.984 127.689 147.246 128.023 146.53 128.4C137.73 125.21 129.53 120.53 121.26 116.24C119.93 115.55 118.64 114.77 117.33 114.03C117.837 113.364 118.317 112.664 118.77 111.93C122.64 109.66 126.29 106.49 128.18 102.62C128.688 101.714 128.995 100.71 129.082 99.6745C129.168 98.6394 129.031 97.5978 128.68 96.6202C127.68 94.1502 125.18 92.6802 122.88 91.6202C122.845 83.0774 121.879 74.5638 120 66.2302C122.07 67.2302 122.85 67.6802 123.65 67.6702C124.25 67.6702 124.33 67.4202 124.65 66.8902C124.97 66.3602 125.23 65.8902 125.52 65.4002C127.4 67.0902 130.37 67.4802 132.74 68.0902C131.331 72.2909 130.78 76.7323 131.12 81.1502C131.341 86.091 131.889 91.0118 132.76 95.8802C132.04 96.5802 130.53 95.8802 130.13 96.4202C129.58 97.1602 131.39 97.7602 131.97 97.9302C131.585 98.7744 131.453 99.7124 131.59 100.63C132.1 101.83 133.92 102.42 135.12 102.28C136.32 102.14 136.47 101.08 136.77 100.17C137.194 98.9432 137.377 97.6464 137.31 96.3502C139.12 87.8802 144.31 80.3502 145.06 71.6102C145.461 68.0339 144.763 64.4205 143.06 61.2502C141.85 59.1202 139.86 57.7402 137.91 56.3502C135.484 54.6168 132.994 52.9868 130.44 51.4602C130.62 50.6602 130.72 50.5502 130.55 50.4602C130.15 50.2402 129.73 50.0402 129.32 49.8402C140.78 44.6502 153.32 44.3002 165.49 41.7702C164.96 45.7702 164.56 51.6302 165.41 54.4202C149.74 63.6702 150.53 80.6602 161.07 86.0702C167.24 89.2202 174.07 88.6402 180.59 93.9102C185.27 97.7202 187.84 103.35 188.74 109.23C190.74 122.23 185.26 138.06 177.96 149.08C170.66 160.1 160.05 169.08 148.86 176.27C129.43 188.66 118.78 190 119 190.43C119.007 190.453 119.023 190.471 119.043 190.482C119.064 190.494 119.088 190.496 119.11 190.49C128.11 188.21 136.7 183.85 144.67 179.22C155.84 172.72 166.37 164.55 174.5 154.45C182.89 144 188.81 130.56 189.5 117C190.17 104 185.24 93.2302 172.82 89.2902C166.43 87.2902 157.53 86.7102 154.59 78.0202C152.08 70.5702 155.15 60.9102 165.48 54.7502C167.33 62.4802 174.21 67.6102 180.2 67.6802C180.2 71.4002 180.51 75.1202 180.65 78.8302C180.65 78.9802 180.91 78.9802 180.89 78.8302C180.78 75.1202 180.89 71.3902 180.59 67.6802C182.136 67.6249 183.653 67.2539 185.05 66.5901C186.446 65.9262 187.692 64.9836 188.71 63.8202ZM68.9304 31.3502C68.3804 32.8202 66.6404 34.4902 65.4404 35.5402C64.3371 36.3765 63.054 36.944 61.693 37.1974C60.332 37.4509 58.9307 37.3833 57.6004 37.0002C56.9904 36.7802 55.7404 36.1302 55.7404 36.1302C55.7404 36.1302 55.6504 34.9702 55.6204 34.3902C57.7715 32.4082 59.5883 30.0917 61.0004 27.5302C61.0004 27.4502 60.9204 27.3802 60.8704 27.4502C59.4206 29.8212 57.6317 31.9673 55.5604 33.8202C55.3904 31.0102 55.2804 28.2002 55.2604 25.3802C57.0005 24.0632 58.3123 22.261 59.0304 20.2002C59.0804 20.1002 58.9004 20.0202 58.8504 20.1302C57.9148 21.8884 56.695 23.4798 55.2404 24.8402C55.2404 23.3402 55.2404 21.8402 55.3104 20.3402C55.3104 20.3163 55.3009 20.2934 55.284 20.2765C55.2671 20.2596 55.2442 20.2502 55.2204 20.2502C55.1965 20.2502 55.1736 20.2596 55.1567 20.2765C55.1398 20.2934 55.1304 20.3163 55.1304 20.3402C54.9404 22.7202 54.8204 25.1202 54.7904 27.5302C53.6013 27.2123 52.461 26.7346 51.4004 26.1102C51.2904 26.0302 51.2004 26.2002 51.3004 26.2802C52.3336 27.0983 53.5307 27.6849 54.8104 28.0002C54.8104 30.7002 55.0804 36.1002 55.0804 36.1002C54.2124 36.5528 53.2533 36.8031 52.2748 36.8326C51.2964 36.862 50.324 36.6698 49.4304 36.2702C48.0304 35.6902 47.1404 34.3802 46.0604 33.3702C44.9372 32.48 44.0567 31.3209 43.5004 30.0002C43.104 28.7312 42.998 27.3893 43.1901 26.0738C43.3822 24.7583 43.8676 23.5028 44.6104 22.4002C45.2298 21.3676 45.7361 20.2713 46.1204 19.1302C47.3304 16.0402 51.8804 12.6302 57.1204 13.6202C58.3121 14.0132 59.4256 14.6123 60.4104 15.3902C62.6104 16.7202 65.2104 17.1802 66.9204 19.2502C67.9204 20.4102 68.1004 21.7602 68.6204 23.1602C69.2863 24.4135 69.6602 25.8013 69.7138 27.2196C69.7675 28.6379 69.4997 30.05 68.9304 31.3502ZM154.43 129C155.63 131.45 156.01 137.18 155.76 139.85C155.65 140.99 154.62 143.24 153.11 142.39C153.442 141.865 153.644 141.269 153.7 140.65C153.923 138.993 154.03 137.322 154.02 135.65C154.105 133.813 153.851 131.976 153.27 130.23C152.989 129.098 152.409 128.062 151.59 127.23C152.191 127.183 152.79 127.33 153.301 127.648C153.812 127.967 154.208 128.441 154.43 129ZM150.43 130.32C150.52 129.76 151.08 129.16 151.56 129.45C151.83 129.65 151.73 130.1 151.56 130.38C151.19 131.18 150.3 131 150.41 130.35L150.43 130.32ZM149.87 132.07C150.29 131.78 151.1 131.28 151.64 131.42C151.732 131.44 151.815 131.489 151.878 131.559C151.941 131.629 151.98 131.717 151.99 131.81C151.99 132.01 151.86 132.12 151.71 132.22C151.375 132.451 151.016 132.645 150.64 132.8C150.443 132.912 150.212 132.948 149.99 132.9C149.913 132.872 149.845 132.823 149.792 132.76C149.74 132.697 149.705 132.621 149.691 132.54C149.676 132.459 149.684 132.376 149.712 132.299C149.74 132.222 149.788 132.153 149.85 132.1L149.87 132.07ZM150.09 133.53C150.7 133.24 151.92 132.53 152.42 133.1C152.92 133.67 152.1 134.03 151.72 134.24C151.34 134.45 150.43 135.01 149.84 134.7C149.39 134.49 149.31 133.93 150.07 133.56L150.09 133.53ZM125.89 23.6202C126.53 22.6202 126.68 21.4502 127.28 20.4402C128.21 18.8836 129.601 17.6548 131.26 16.9238C132.919 16.1928 134.764 15.9958 136.54 16.3602C137.658 16.8234 138.724 17.4033 139.72 18.0902C141.55 19.1502 143.58 19.4902 145.01 21.2002C145.791 22.2454 146.309 23.4629 146.52 24.7502C146.79 25.9102 147.47 26.7502 147.52 28.0302C147.688 29.5961 147.317 31.1725 146.47 32.5002C145.732 33.5836 144.807 34.5281 143.74 35.2902C142.74 35.9402 139.02 37.4202 136.69 36.5102C136.27 36.3502 135.3 35.8302 135.3 35.8302C135.3 35.8302 135.23 34.8302 135.2 34.3502C137.066 32.6335 138.642 30.6278 139.87 28.4102C139.876 28.401 139.879 28.3908 139.88 28.3803C139.882 28.3698 139.881 28.3592 139.878 28.3489C139.875 28.3387 139.871 28.3292 139.864 28.3208C139.858 28.3124 139.85 28.3054 139.84 28.3002C139.831 28.2949 139.821 28.2915 139.811 28.2902C139.8 28.2888 139.789 28.2896 139.779 28.2924C139.769 28.2952 139.759 28.2999 139.751 28.3064C139.743 28.3129 139.736 28.321 139.73 28.3302C138.479 30.3618 136.944 32.2038 135.17 33.8002C135.024 31.3935 134.934 28.9768 134.9 26.5502C136.436 25.4012 137.59 23.8154 138.21 22.0002C138.21 21.9002 138.08 21.8202 138.03 21.9302C137.214 23.4153 136.171 24.7647 134.94 25.9302V22.1002C134.94 21.9802 134.76 21.9902 134.75 22.1002C134.59 24.1468 134.49 26.2135 134.45 28.3002C133.429 28.0369 132.45 27.633 131.54 27.1002C131.43 27.0302 131.34 27.2002 131.44 27.2702C132.318 27.9867 133.342 28.5022 134.44 28.7802C134.44 31.1102 134.67 35.7802 134.67 35.7802C132.31 36.7002 130.54 36.4402 129.24 35.6302C128.227 34.8652 127.295 33.9973 126.46 33.0402C125.324 31.7607 124.65 30.1367 124.547 28.4287C124.444 26.7206 124.917 25.0273 125.89 23.6202ZM90.0004 21.0602C95.8304 17.9602 107.66 19.2102 110.86 24.6202C110.49 25.9602 109.72 29.2102 109.71 29.3702C107.31 26.4902 103.95 24.0402 100.15 23.6002C96.5204 23.1902 91.9904 23.1502 88.9504 25.4702C89.2199 23.9822 89.5704 22.51 90.0004 21.0602ZM93.4104 45.5602C95.7304 44.8502 95.3304 42.4102 95.6504 40.4902C95.6504 40.1102 92.7304 39.7502 90.8804 38.0302C88.1404 35.4802 88.2404 29.3802 88.8804 25.7802C91.9304 23.4002 96.6804 23.3802 100.35 23.8802C101.416 24.0269 102.454 24.3301 103.43 24.7802C103.15 26.1002 103.18 28.3902 103.59 28.9602C103.877 28.7067 104.219 28.5247 104.589 28.4291C104.959 28.3335 105.347 28.327 105.72 28.4102C105.968 28.4775 106.195 28.6035 106.383 28.7777C106.571 28.9518 106.714 29.1688 106.8 29.4102C107.43 31.0302 106.03 32.0202 105.8 32.3402C105.631 32.6443 105.574 32.9984 105.64 33.3402C105.739 34.3989 105.581 35.4658 105.181 36.4509C104.781 37.436 104.149 38.3103 103.34 39.0002C103.072 39.0985 102.798 39.182 102.52 39.2502C102.38 39.2502 102.52 42.1302 105.79 44.8902C107.005 44.86 108.22 44.9001 109.43 45.0102C108.697 47.1059 107.249 48.8763 105.34 50.0102C99.5904 53.8402 95.0504 53.0102 93.1104 52.0102C92.0921 51.4374 91.3325 50.4957 90.9882 49.3793C90.644 48.2628 90.7414 47.0569 91.2604 46.0102C91.9304 45.8402 93.3504 45.5702 93.4004 45.5602H93.4104ZM77.1704 35.5602C77.1704 35.6302 76.6004 36.1302 76.4804 36.3502C76.4669 36.0084 76.3994 35.6708 76.2804 35.3502C76.6804 35.0502 77.2804 35.2502 77.1604 35.5302L77.1704 35.5602ZM63.1704 72.8002C61.2045 72.4459 59.4423 71.3691 58.2302 69.7813C57.0181 68.1936 56.4439 66.2099 56.6204 64.2202C57.252 60.1157 58.6969 56.1787 60.8704 52.6402C63.8704 47.8802 67.7003 43.3402 69.0203 39.6402C69.4403 38.3602 69.4003 36.9502 70.2003 35.8102C70.6481 35.1991 71.2675 34.7349 71.9798 34.4767C72.692 34.2185 73.465 34.178 74.2003 34.3602C74.6959 34.4175 75.1544 34.651 75.4921 35.0181C75.8299 35.3852 76.0245 35.8615 76.0404 36.3602C76.0829 36.8223 76.0205 37.2881 75.8577 37.7228C75.6949 38.1574 75.436 38.5496 75.1004 38.8702C75.1558 38.161 75.0212 37.4499 74.7104 36.8102C74.7104 36.7202 74.4904 36.8102 74.5304 36.8902C74.7897 37.6146 74.8451 38.3964 74.6904 39.1502C74.5604 39.4402 74.2504 39.3702 74.0804 39.3202C74.2935 38.4862 74.2658 37.609 74.0004 36.7902C73.9934 36.7678 73.9794 36.7482 73.9605 36.7343C73.9416 36.7204 73.9188 36.7129 73.8953 36.7129C73.8719 36.7129 73.8491 36.7204 73.8302 36.7343C73.8113 36.7482 73.7973 36.7678 73.7904 36.7902C73.7904 37.3602 74.2904 39.6702 73.2604 39.1702C73.1986 38.3615 73.0918 37.5569 72.9404 36.7602C72.9404 36.6302 72.7404 36.6902 72.7504 36.8102C72.8468 37.5364 72.9003 38.2676 72.9104 39.0002C72.9104 39.4202 72.3104 39.2702 72.1204 39.0002C71.7943 38.3372 71.6725 37.5924 71.7703 36.8602C71.7666 36.8303 71.7541 36.8023 71.7342 36.7797C71.7144 36.7571 71.6882 36.741 71.6591 36.7334C71.63 36.7259 71.5993 36.7272 71.571 36.7374C71.5427 36.7475 71.5181 36.7659 71.5004 36.7902C70.9904 37.7902 71.7503 40.0002 72.7403 39.8602C72.8412 39.7755 72.9687 39.7291 73.1003 39.7291C73.232 39.7291 73.3595 39.7755 73.4604 39.8602C71.2504 54.1702 71.8704 60.7802 66.8204 64.3202C66.7504 64.3202 66.8204 64.5002 66.8904 64.4402C69.2157 62.6849 70.794 60.1175 71.3103 57.2502C72.0553 56.7918 72.8267 56.3778 73.6204 56.0102C74.0004 57.7802 74.7003 67.0002 75.7003 69.4502C72.2903 71.7002 67.3004 73.5802 63.1804 72.7602L63.1704 72.8002ZM67.8804 172.11C67.9316 172.054 67.9965 172.012 68.0688 171.988C68.1411 171.965 68.2183 171.96 68.2929 171.975C68.3674 171.991 68.4368 172.025 68.4942 172.075C68.5516 172.125 68.595 172.188 68.6204 172.26C68.6204 172.26 68.8904 173.8 68.5104 174.26C68.4504 174.334 68.3696 174.387 68.2786 174.414C68.1876 174.441 68.0906 174.44 68.0004 174.41C67.8104 174.28 67.5004 172.47 67.8904 172.08L67.8804 172.11ZM66.2504 171.27C66.6904 170.86 67.4804 173.86 66.7504 174.21C66.0204 174.56 65.9604 173.66 65.9304 173.21C65.9004 172.6 65.7704 171.71 66.2604 171.24L66.2504 171.27ZM69.5404 177.81C67.8318 177.739 66.1449 177.402 64.5404 176.81C62.6065 176.19 60.7482 175.354 59.0004 174.32C57.9504 173.73 56.7704 171.88 58.0004 170.94C58.3374 171.456 58.7891 171.887 59.3204 172.2C65.4004 175.63 70.3204 176.36 71.1204 176.25C71.5398 176.184 71.9517 176.076 72.3503 175.93C72.1407 176.496 71.7563 176.98 71.2528 177.313C70.7494 177.646 70.1531 177.809 69.5504 177.78L69.5404 177.81ZM69.2604 173.95C69.2724 173.872 69.3027 173.798 69.3489 173.734C69.3951 173.67 69.4558 173.618 69.526 173.582C69.5962 173.545 69.674 173.527 69.753 173.526C69.832 173.526 69.9099 173.545 69.9804 173.58C70.1336 173.674 70.2642 173.801 70.3627 173.951C70.4612 174.102 70.5253 174.272 70.5504 174.45C70.5781 174.54 70.577 174.636 70.5472 174.725C70.5175 174.815 70.4605 174.892 70.3844 174.947C70.3083 175.002 70.2168 175.032 70.1228 175.033C70.0289 175.033 69.9371 175.004 69.8604 174.95C69.8604 174.95 69.2103 174.3 69.2703 173.92L69.2604 173.95ZM73.1804 170.7C72.5719 170.989 71.8897 171.085 71.225 170.976C70.5603 170.867 69.9447 170.558 69.4604 170.09C69.0363 169.501 68.7711 168.812 68.6904 168.09C70.2014 168.986 71.9345 169.436 73.6904 169.39C73.5404 169.78 73.3604 170.22 73.1904 170.67L73.1804 170.7ZM90.3204 134.5C89.9704 135.23 86.6904 145 83.1604 151.76C81.4504 155.03 79.9204 158.29 78.0004 161.43C76.4408 163.879 75.0509 166.431 73.8403 169.07C72.0224 169.069 70.2353 168.601 68.6504 167.71C68.5504 167.09 68.5104 166.58 68.4804 166.5C68.9304 162.06 69.1804 157.6 69.6804 153.16C70.2604 147.95 72.6103 130.38 74.1004 125.68C75.3404 121.68 77.9304 118.28 80.5504 115.09C84.6304 118.32 98.3304 128.57 98.6504 128.76C96.8404 130.29 90.8504 133.38 90.3204 134.5ZM146.52 128.76C147.015 129.194 147.369 129.765 147.536 130.401C147.704 131.038 147.677 131.709 147.46 132.33C147.15 133.23 145.26 134.33 144.76 134.65L144.41 134.6C145.83 132.81 145.82 130.69 145.7 128.49C146 128.59 146.25 128.67 146.52 128.76ZM124.47 118.41C129.71 121.21 139.83 126.41 145.42 128.41C145.51 130.62 145.54 132.75 144.11 134.58C128 132.29 113.75 132 106 126.14C108.45 123.81 116 116.39 117.19 114.25C119.61 115.61 122 117.09 124.47 118.41ZM122.84 91.9202C125.17 93.0802 127.67 94.6202 128.54 97.2102C129.28 99.4102 128.44 101.76 127.28 103.64C125.195 106.812 122.398 109.452 119.11 111.35C120.512 108.972 121.395 106.324 121.702 103.58C122.009 100.837 121.732 98.0594 120.89 95.4302C121.49 95.1902 122.07 94.9302 122.65 94.6302C122.691 94.636 122.733 94.6257 122.767 94.6015C122.8 94.5772 122.823 94.5409 122.83 94.5002C122.84 94.4002 122.85 92.3102 122.84 91.9202ZM136.28 55.5502C138.2 56.8602 140.47 58.2202 141.95 60.0502C144.34 63.0502 145.01 67.2602 144.79 70.9502C144.25 79.8902 138.65 87.5502 137.01 96.2302C137.108 97.1272 137.047 98.0343 136.83 98.9102C136.68 99.8168 136.372 100.69 135.92 101.49C135.06 102.62 131.97 101.72 131.72 100.34C131.72 99.5011 131.88 98.6697 132.19 97.8902C132.194 97.8677 132.191 97.8446 132.18 97.8246C132.169 97.8046 132.151 97.7889 132.13 97.7802C131.532 97.677 130.972 97.4144 130.51 97.0202C130.46 96.9411 130.433 96.8491 130.433 96.7552C130.433 96.6612 130.46 96.5692 130.51 96.4902C130.69 96.3302 132.35 96.8302 132.97 96.0202C132.98 96.0054 132.986 95.988 132.986 95.9702C132.986 95.9524 132.98 95.935 132.97 95.9202C132.14 86.6102 129.82 77.2802 132.97 68.1302C132.977 68.1165 132.981 68.1016 132.981 68.0864C132.981 68.0712 132.979 68.0561 132.973 68.042C132.968 68.028 132.959 68.0152 132.948 68.0045C132.937 67.9939 132.925 67.9856 132.91 67.9802C130.59 66.7502 127.67 67.0402 125.62 65.2302C125.9 64.7202 129.91 53.6902 130.34 51.7402C132.36 52.9302 134.33 54.2202 136.28 55.5502ZM124.07 67.0902C123.42 67.9402 121.18 66.3502 120.4 65.9902C119.62 65.6302 118.56 65.1402 117.63 64.7602C117.47 64.6902 117.35 64.9602 117.51 65.0402C118.23 65.4102 118.97 65.7602 119.71 66.1102C121.575 75.435 122.516 84.9208 122.52 94.4302C118.338 96.2301 113.823 97.1263 109.27 97.0602C104.496 97.2807 99.7132 96.8603 95.0504 95.8102C90.7604 94.7102 86.4304 93.8802 82.1704 92.6502C81.0204 92.3202 80.2604 92.1502 80.1704 90.7302C80.0804 89.3102 80.4204 69.2702 81.7204 63.2102C81.7204 63.0702 81.5304 63.0102 81.5004 63.1502C81.1204 64.9102 80.8304 66.6902 80.6104 68.4802C79.6104 69.0902 77.4803 70.4802 76.3103 69.8102C75.1403 69.1402 75.1603 65.8102 75.0603 64.9302C74.8503 63.1702 73.8204 55.2402 73.9304 54.9302C76.698 52.6019 79.7167 50.5895 82.9304 48.9302C85.5154 47.7056 88.2196 46.7506 91.0004 46.0802C89.4504 49.6602 91.9004 53.5302 98.0004 53.2002C100.549 52.9053 102.984 51.9846 105.09 50.5202C107.25 49.1902 109.09 47.5202 109.61 44.9802C117.11 45.5902 120.83 47.2702 123.78 48.0402C125.964 48.7487 128.107 49.5766 130.2 50.5202C130.2 50.5202 126.32 64.1302 124.05 67.0802L124.07 67.0902ZM165.77 40.0002C165.9 40.3502 165.68 40.8402 165.56 41.2902C153.26 43.5202 140.42 44.2902 128.93 49.5702C122 46.4102 113.35 44.3202 105.93 44.5702C104.238 43.3099 103.093 41.4489 102.73 39.3702C105.37 38.7902 107 36.5802 108.36 34.2902C109.207 32.6342 109.762 30.8446 110 29.0002C112.17 29.0502 114.35 29.0002 116.52 29.0002C119.047 29.1052 121.577 28.9443 124.07 28.5202C124.075 29.4163 124.265 30.3017 124.63 31.1202C125.229 32.1884 126.035 33.1267 127 33.8802C127.836 34.8746 128.854 35.6996 130 36.3102C131.58 36.8615 133.307 36.8225 134.86 36.2002C134.86 36.2002 135.29 40.3902 135.64 42.4402C135.64 42.6702 136.08 42.6202 136.05 42.4402C135.83 40.3802 135.48 36.2702 135.48 36.2702C135.48 36.2702 136.33 36.6502 136.71 36.8002C139.11 37.8002 143.3 36.1802 144.11 35.5702C146.11 34.0402 147.77 32.1302 147.98 29.5002V28.2002C147.98 28.2002 163.4 28.2002 166.39 28.3402C165 30.0002 163.76 34.5702 165.77 40.0002ZM187.17 38.3302C185.17 41.8502 183.17 45.4302 180.81 48.7602C180.87 54.5902 181.03 60.4602 180.72 66.2702C180.72 66.3285 180.697 66.3845 180.656 66.4257C180.615 66.467 180.559 66.4902 180.5 66.4902C180.442 66.4902 180.386 66.467 180.345 66.4257C180.304 66.3845 180.28 66.3285 180.28 66.2702V60.3602C178.413 58.3596 176.255 56.6505 173.88 55.2902C173.71 55.2002 173.88 54.9302 174.04 55.0202C176.428 56.1345 178.554 57.7394 180.28 59.7302C180.28 52.2302 180.46 44.7302 180.57 37.2502C179.091 35.4319 177.27 33.9203 175.21 32.8002C175.01 32.7102 175.21 32.4202 175.39 32.5102C177.486 33.3461 179.291 34.7786 180.58 36.6302C180.72 26.8902 180.58 27.1802 180.79 27.2202C180.84 27.2202 180.87 27.2202 180.88 27.3102C181.1 33.8502 180.81 40.3902 180.88 46.9302V47.9302C182.88 44.6402 185.05 41.4902 186.97 38.1702C186.998 38.1616 187.028 38.1608 187.056 38.1678C187.084 38.1748 187.11 38.1894 187.131 38.2099C187.151 38.2305 187.166 38.2563 187.173 38.2845C187.18 38.3128 187.179 38.3424 187.17 38.3702V38.3302Z" fill="black"/>
</svg>
