<svg width="200" height="200" viewBox="0 0 200 200" fill="none" xmlns="http://www.w3.org/2000/svg">
<path d="M88.8593 43.0599C88.6089 43.0072 88.3548 42.9737 88.0993 42.9599C88.0418 42.9563 87.9848 42.9735 87.9389 43.0083C87.893 43.0432 87.8612 43.0935 87.8493 43.1499C87.5293 44.3899 88.8493 44.4299 89.0593 43.3399C89.0682 43.2765 89.0524 43.2121 89.0152 43.16C88.9779 43.1079 88.9222 43.0721 88.8593 43.0599ZM89.6093 39.2299C89.1791 39.1594 88.7376 39.2165 88.3395 39.3942C87.9413 39.572 87.6041 39.8625 87.3693 40.2299C87.308 40.3206 87.2818 40.4305 87.2956 40.5391C87.3095 40.6477 87.3624 40.7475 87.4446 40.8198C87.5268 40.8922 87.6325 40.9321 87.7419 40.9321C87.8514 40.9321 87.9571 40.8922 88.0393 40.8199C88.4282 40.5085 88.9234 40.3613 89.4193 40.4099C90.4593 40.5599 90.4293 39.3599 89.6093 39.2299ZM91.2193 46.9999C91.3537 46.9818 91.4769 46.9156 91.5662 46.8135C91.6555 46.7115 91.7047 46.5805 91.7047 46.4449C91.7047 46.3093 91.6555 46.1783 91.5662 46.0763C91.4769 45.9742 91.3537 45.908 91.2193 45.8899H90.7493C90.8027 44.8065 90.9465 43.7294 91.1793 42.6699C91.2067 42.5533 91.1876 42.4306 91.126 42.3279C91.0644 42.2252 90.9651 42.1506 90.8493 42.1199C90.738 42.0916 90.6201 42.1068 90.5197 42.1626C90.4193 42.2184 90.344 42.3104 90.3093 42.4199C89.8704 43.5459 89.6367 44.7415 89.6193 45.9499C89.6193 46.3399 89.6193 47.0099 90.4493 47.0299C90.7064 47.0384 90.9637 47.0284 91.2193 46.9999ZM95.8593 41.1999C95.4196 40.8241 94.8905 40.5679 94.3231 40.4558C93.7556 40.3437 93.1689 40.3796 92.6193 40.5599C92.4911 40.654 92.4046 40.7945 92.3785 40.9514C92.3523 41.1083 92.3885 41.2693 92.4793 41.3999C92.9193 42.0199 94.1793 41.2999 95.4793 42.1799C95.5866 42.2387 95.7102 42.2608 95.8312 42.2427C95.9521 42.2246 96.0639 42.1675 96.1493 42.0799C96.2893 41.8599 96.2093 41.5699 95.8593 41.1999ZM93.7793 47.7699C93.3644 48.1068 92.8812 48.3493 92.3631 48.4806C91.845 48.6118 91.3046 48.6287 90.7793 48.5299C90.6586 48.5074 90.534 48.5337 90.4327 48.6031C90.3314 48.6724 90.2619 48.7792 90.2393 48.8999C90.2168 49.0206 90.2431 49.1453 90.3125 49.2465C90.3819 49.3478 90.4886 49.4174 90.6093 49.4399C91.3138 49.5928 92.0431 49.5896 92.7462 49.4307C93.4493 49.2718 94.1091 48.9609 94.6793 48.5199C95.3993 47.8099 94.5993 46.8999 93.7793 47.7699ZM94.5693 43.6499C94.5767 43.6164 94.5773 43.5818 94.5712 43.548C94.5651 43.5143 94.5524 43.4821 94.5338 43.4533C94.5152 43.4245 94.4911 43.3996 94.4629 43.3802C94.4347 43.3607 94.4029 43.347 94.3693 43.3399C94.0993 43.2882 93.8237 43.2714 93.5493 43.2899C93.4991 43.2903 93.4504 43.3072 93.4107 43.3379C93.371 43.3686 93.3424 43.4114 93.3293 43.4599C92.9993 44.4999 94.1293 45.3499 94.5693 43.6499Z" fill="black"/>
<path fill-rule="evenodd" clip-rule="evenodd" d="M92.4495 57C91.2095 57 91.0695 57.53 91.1695 59C91.3095 61 91.2995 61.1 92.9495 61.1C94.5995 61.1 94.7395 61.1 94.7595 58.98C94.7795 56.86 94.3395 57 92.4495 57ZM85.4495 109.16C85.4495 109.218 85.4727 109.274 85.5139 109.316C85.5552 109.357 85.6112 109.38 85.6695 109.38C85.7279 109.38 85.7838 109.357 85.8251 109.316C85.8663 109.274 85.8895 109.218 85.8895 109.16C84.7173 93.1153 87.1113 77.0101 92.8995 62C93.0495 61.61 92.4495 61.32 92.3095 61.72C87.6751 73.4564 85.1986 85.9333 84.9995 98.55C84.9995 102.09 85.1595 105.63 85.4495 109.16ZM32.3695 103.13C30.5395 103.39 28.7095 103.48 26.8695 103.58C25.9732 101.308 24.8474 99.1334 23.5095 97.09C22.7195 96.09 22.3695 98.96 20.8395 104.37L14.5995 105.85C14.3095 105.92 13.9395 106.65 14.3095 106.92C15.4695 107.77 17.7595 109.1 19.0695 109.83C18.4895 111.48 17.4295 114.34 17.0695 115.89C16.9795 116.24 17.6095 116.89 17.9795 116.58L24.2895 111.8C26.3379 113.029 28.4775 114.099 30.6895 115C30.7778 115.04 30.8754 115.055 30.9716 115.044C31.0679 115.032 31.1592 114.994 31.2355 114.935C31.3118 114.875 31.3702 114.795 31.4044 114.704C31.4386 114.614 31.4473 114.515 31.4295 114.42C30.8057 112.385 29.9921 110.413 28.9995 108.53C30.4295 107.07 31.7695 105.53 33.1495 104.01C33.5295 103.5 32.8195 103.07 32.3695 103.13ZM27.9995 108.48C28.7495 110.2 29.5595 111.88 30.1395 113.66C29.3395 113.31 24.2495 110.54 23.9395 110.75L18.2995 115.17C18.8995 113.29 19.4895 111.41 20.0895 109.54C20.2795 108.91 15.9995 106.94 15.2895 106.54C16.2895 106.33 20.8195 105.54 21.4395 105.12C21.6295 104.99 23.1295 99.77 23.4395 98.82C23.9395 99.61 26.1995 104.36 26.6095 104.38C28.3015 104.47 29.9982 104.41 31.6795 104.2C31.1795 104.71 27.8595 108.1 28.0295 108.5L27.9995 108.48ZM24.1995 82.92C24.7895 83.25 24.9395 82.35 24.8795 82L23.5895 76.32L28.0495 73.49C28.5795 73.15 29.1595 72.29 28.3495 72.15C26.2995 71.79 24.2295 71.52 22.1695 71.21C21.5494 68.9347 20.7879 66.7004 19.8895 64.52C19.8503 64.435 19.7876 64.3629 19.7087 64.3124C19.6298 64.2619 19.5381 64.2351 19.4445 64.2351C19.3509 64.2351 19.2592 64.2619 19.1803 64.3124C19.1014 64.3629 19.0387 64.435 18.9995 64.52C18.3995 65.96 17.3995 69.19 16.9295 70.79C15.2695 70.88 11.2795 71.01 9.9295 71.24C9.6295 71.34 9.2795 71.94 9.5695 72.24L13.8495 76.12C13.4095 78.06 12.9995 80.03 12.6195 81.99C12.5495 82.36 12.9995 82.77 13.3595 82.55C15.2695 81.41 17.1495 80.21 19.0295 79.03C20.6895 80.37 22.4395 81.64 24.1995 82.92ZM14.6295 75.72C13.3828 74.4364 12.0461 73.2433 10.6295 72.15L17.1195 71.86C17.7695 71.86 19.2595 66.72 19.5395 65.93C20.0295 67.45 20.8795 70.06 21.1895 71.06C21.4995 72.06 21.0995 71.9 22.2395 72.06L27.2395 72.88L22.9395 75.79C22.5295 76.07 23.6995 80.79 23.8395 81.52L19.2195 78.15C18.7095 77.78 14.2195 80.94 13.5395 81.39C13.8695 80.09 14.9995 76.92 14.6295 75.72ZM57.6895 137C56.8395 137.08 52.5395 137.35 51.7995 137.54L49.3195 133.42C49.1395 133.08 48.5195 131.31 47.8295 131.55C47.6695 131.55 47.5695 131.68 47.4795 132.09C47.3095 132.79 47.1595 134.44 46.7195 138.58C44.7195 139.07 42.7695 139.58 40.8195 140.2C40.5295 140.29 40.2295 140.97 40.5595 141.2C42.2606 142.311 44.046 143.288 45.8995 144.12C45.5595 145.57 45.4095 147.06 45.1795 148.52C45.0095 149.66 44.5495 151.42 46.4895 149.92C47.9281 148.809 49.2665 147.574 50.4895 146.23C51.9095 146.9 55.0595 148.39 56.4095 148.82C56.5395 148.87 57.4095 148.92 57.2595 148.35C56.4341 146.379 55.4299 144.488 54.2595 142.7C55.512 141.324 56.6903 139.882 57.7895 138.38C58.2695 137.85 58.5195 136.93 57.6895 137ZM53.4895 142.87L55.9095 147.55C55.2595 147.28 50.4495 145.05 50.2395 145.2C48.8495 146.57 47.5695 147.8 46.0795 149.08C46.2195 148.15 47.0795 143.67 46.6995 143.42C44.9895 142.59 43.3395 141.76 41.6995 140.85C42.4595 140.67 47.3695 139.68 47.5395 139.15C47.8695 138.1 48.1495 134.9 48.3295 133.61C49.162 135.225 50.1679 136.743 51.3295 138.14C51.7695 138.68 56.1595 138.14 56.9795 138.03C56.3995 138.67 53.1295 142.21 53.4895 142.87ZM166.19 50.16C167.873 51.0287 169.643 51.7191 171.47 52.22L172.03 58.32C172.08 58.74 172.81 58.82 172.97 58.55L176.49 53C178.67 53.41 180.82 53.94 182.98 54.47C183.69 54.64 184.27 54.07 183.47 53.06C182.17 51.5448 180.977 49.9409 179.9 48.26C180.13 47.85 182.64 43.54 182.71 43.03C182.704 42.8667 182.644 42.7099 182.539 42.5848C182.434 42.4597 182.289 42.3735 182.13 42.34C182 42.34 177.13 44.28 176.64 44.47C176.07 43.99 172.18 40.37 172.01 40.01C171.66 39.33 171.08 39.27 171.01 39.9L170.89 46.46L166.2 48.88C165.88 49.05 165.87 50 166.19 50.16ZM171.76 46.86C171.96 45.68 171.94 42.79 171.97 41.34C173.242 42.8048 174.652 44.1443 176.18 45.34C176.66 45.71 180.47 44.04 181.37 43.66L179.11 47.89C179.11 49.42 181.38 52.21 182.42 53.32C181.63 53.11 176.29 51.62 175.94 52.15C174.94 53.81 173.78 55.6 172.77 57.26L172.51 53.26C172.36 51.03 172.18 51.48 170.57 50.91L166.8 49.51C167.7 49.2 171.64 47.56 171.76 46.86ZM148.61 143.49C148.61 142.98 145.74 139.06 145.25 138.49C145.42 138.21 147.92 133.37 148.07 132.84C148.32 131.84 147.69 131.68 147.21 131.84C145.34 132.56 143.69 132.97 141.83 133.56C140.316 131.56 138.81 129.56 137.31 127.56C136.72 126.86 136.31 128.42 136.31 128.85C136.18 130.7 135.86 133.55 135.91 135.2L130.21 137.87C129.67 138.14 130.21 138.76 130.39 138.87L135.68 140.81C135.68 142.81 135.31 145.81 135.49 147.58C135.49 147.91 136.19 148.13 136.4 147.88C137.98 146.05 139.5 144.17 141.02 142.28C143.359 143.14 145.754 143.838 148.19 144.37C148.78 144.51 149.09 143.72 148.61 143.49ZM140.55 141.32C139.15 143.04 137.76 144.78 136.41 146.55C136.46 145.62 136.86 140.75 136.64 140.15C136.52 139.83 132.09 138.55 131.45 138.34C131.96 138.13 136.31 136.29 136.68 135.96C137.05 135.63 137.26 129.91 137.32 129.04L141.23 134.49C141.68 134.93 146.03 133.37 146.89 133.03C146.083 134.783 145.27 136.527 144.45 138.26C144.23 138.93 146.84 142.43 147.32 143.14C146.52 142.93 140.74 141.08 140.55 141.32ZM190.19 86.28L186.48 81.72C187.08 80.38 188.48 76.32 188.67 75.61C188.681 75.4831 188.647 75.3562 188.574 75.2519C188.5 75.1476 188.393 75.0725 188.27 75.04C187.86 74.9 183.44 76.89 182.78 77.15C181.326 75.5648 179.967 73.8953 178.71 72.15C178.37 71.64 177.87 72.25 177.78 72.47C177.69 72.69 177.44 78.65 177.39 79.47L170.79 82C170.34 82.19 170.56 83.09 170.85 83.17L177.26 84.87V91.53C177.26 91.98 177.58 93.53 178.21 92.81C179.8 90.69 181.53 88.44 183.11 86.31C187.4 86.8 188.9 87.44 190.11 87.15C190.209 87.1349 190.3 87.0869 190.369 87.0138C190.438 86.9406 190.481 86.8464 190.49 86.7463C190.499 86.6462 190.475 86.5459 190.42 86.4613C190.366 86.3768 190.285 86.313 190.19 86.28ZM182.62 85.42C181.22 87.35 179.69 89.42 178.29 91.33C178.29 89.92 178.22 85.56 178.05 84.74C178.81 83.74 172.51 82.74 171.78 82.55C172.55 82.27 178.05 80.55 178.14 80.03C178.47 77.9148 178.66 75.7802 178.71 73.64C179.18 74.34 181.79 78.19 182.58 77.93C183.02 78.27 186.58 76.71 187.42 76.3C187.2 77.01 185.42 81.65 185.71 82.1C186.71 83.43 187.85 84.86 188.86 86.19C187.86 86.19 182.86 85.19 182.6 85.42H182.62ZM178.56 117.41C178.92 116.77 180.99 113.19 181.09 112.73C181.07 112.618 181.029 112.512 180.968 112.417C180.907 112.321 180.828 112.239 180.735 112.175C180.641 112.11 180.536 112.065 180.426 112.042C180.315 112.019 180.201 112.018 180.09 112.04C178.25 112.64 176.45 113.2 174.6 113.76C172.82 112.06 170.99 110.36 169.15 108.7C169.089 108.647 169.017 108.609 168.939 108.588C168.861 108.567 168.78 108.565 168.7 108.58C168.621 108.595 168.547 108.629 168.483 108.677C168.418 108.726 168.366 108.788 168.33 108.86C168.09 109.45 168.68 115.33 168.82 116.31L162.64 119.43C162.48 119.52 161.97 120.29 162.51 120.43L169.84 121.57C169.902 124.184 170.238 126.785 170.84 129.33C171.07 129.77 171.9 129.52 172.05 129.26L175.83 122.33C177.57 122.69 179.83 123.13 181.57 123.49C182.63 123.74 183.4 123.22 182.68 122.49C181.29 120.82 179.87 119.15 178.56 117.41ZM175.56 121.52C174.98 121.7 172.18 127.46 171.75 128.3C171.59 127.37 170.85 120.84 170.41 120.67C169.97 120.5 164.48 119.86 163.9 119.81C164.63 119.47 169.76 117.32 169.77 116.69C169.77 114.46 169.5 112.28 169.43 110.06C171.003 111.627 172.586 113.173 174.18 114.7C174.62 115.15 179.04 113.52 179.78 113.24C179.11 114.53 177.78 116.36 177.78 117.78C178.887 119.405 180.096 120.958 181.4 122.43C180.41 122.21 176.06 121.27 175.52 121.52H175.56ZM114.93 188C114.83 187.24 114.93 183.24 114.8 182.62C115.741 182.645 116.682 182.551 117.6 182.34C117.99 182.02 119.89 126.71 119.42 117.22C115.49 119.49 104.57 125.31 99.4195 124.42C96.1695 123.86 90.2295 119.69 88.0495 117.51C86.3695 115.82 86.3595 113.31 86.5295 111.09L81.5295 110.94C81.2931 113.251 80.4201 115.452 79.0078 117.297C77.5954 119.142 75.699 120.559 73.5295 121.39C70.2595 140.94 67.4095 161.88 66.7395 182.39C66.7395 182.62 68.0395 182.7 69.0595 182.73C68.9795 183.38 68.4595 187.38 68.5595 187.73C66.4695 188.65 59.7495 191.61 59.5595 194.2C59.4095 195.79 77.0595 194.73 77.1495 194.2C77.3095 193.41 77.1495 189.35 76.6195 188.7C77.0195 186.7 77.4095 184.7 77.7995 182.7C79.6495 182.62 81.0895 182.7 81.1595 182.36C84.2795 169.83 89.9095 158.19 93.3895 145.73C92.6395 141.07 91.8195 135.65 91.2295 130.98C89.9294 130.398 88.7415 129.592 87.7195 128.6C86.7995 127.71 88.0995 127.33 88.8595 127.77C90.9495 128.99 92.6195 129.5 92.6795 129.92C94.6795 142.43 101.25 171.61 104.11 182.3C104.18 182.55 105.31 182.53 106.47 182.61C106.72 184.44 106.99 186.37 107.33 188.19C106.85 188.29 106.33 193.36 106.8 193.71C107.8 194.42 122.8 195.39 123.12 194.52C123.44 193.65 119.73 190.23 114.93 188ZM76.1195 188.48C73.7595 188.22 71.2895 188.61 69.0195 187.78C69.347 186.11 69.5873 184.425 69.7395 182.73H77.1095C76.5908 184.609 76.2591 186.535 76.1195 188.48ZM107.83 188.18C107.65 186.32 107.4 184.48 107.13 182.63C109.537 182.77 111.952 182.77 114.36 182.63C114.17 184.408 114.17 186.202 114.36 187.98C112.192 188.226 110.008 188.293 107.83 188.18Z" fill="black"/>
<path fill-rule="evenodd" clip-rule="evenodd" d="M149.999 8.62992C149.869 7.49992 149.109 7.90992 148.799 8.32992C139.559 20.4599 130.269 32.5399 121.149 44.7499C111.119 32.0999 97.4194 16.3499 85.5994 5.09992C85.3394 4.85992 84.7494 5.09992 84.6494 5.38992C79.7994 20.0699 75.2094 36.5799 71.3994 51.6799C59.0494 45.0299 42.3994 37.6799 29.1994 32.1599C28.8994 32.0399 27.7494 31.8799 27.9194 32.6099C35.8094 68.1599 47.3194 105.88 51.3694 117.15C51.6494 117.95 51.8794 118.04 52.6994 117.93C58.5994 117.25 64.6994 116.05 70.5994 115.07L70.8394 118.31C71.0294 120.91 73.0694 119.65 74.5094 118.67C76.8079 117.325 78.512 115.16 79.2794 112.61C80.1794 109.49 80.0694 94.8199 80.2794 90.6799C80.9994 91.0299 82.6094 89.6099 82.1594 87.9799C82.485 87.6812 82.6976 87.2794 82.7613 86.8422C82.8251 86.405 82.7361 85.9592 82.5094 85.5799C84.1594 84.1999 82.5794 82.1899 81.0494 81.4599C81.8494 74.1999 83.8594 62.9799 86.1394 58.1699L86.7094 57.9399C86.6561 59.1151 86.703 60.2927 86.8494 61.4599C86.8586 61.572 86.8964 61.6798 86.959 61.7732C87.0217 61.8666 87.1071 61.9425 87.2073 61.9935C87.3075 62.0446 87.419 62.0693 87.5314 62.0651C87.6438 62.061 87.7532 62.0282 87.8494 61.9699C88.7424 61.3665 89.5973 60.7086 90.4094 59.9999C90.3112 59.1938 90.2878 58.3803 90.3394 57.5699C89.4478 56.7534 88.436 56.0788 87.3394 55.5699C86.6594 55.2899 86.7494 56.7899 86.7294 57.1099C74.2494 61.9999 61.1294 73.9299 57.4294 87.1699C55.6894 93.3999 56.3094 107.92 66.4294 106.24C70.3394 105.58 74.3394 100.88 76.6594 97.1699C78.2894 94.5499 78.9894 96.5799 77.8594 98.3899C75.8887 101.407 73.498 104.128 70.7594 106.47C70.5527 108.964 70.496 111.469 70.5894 113.97C64.5894 114.97 58.4194 116.16 52.3494 117.09C49.6794 108.09 40.0294 80.3899 29.1594 33.0899C41.8994 38.5599 58.3394 46.3199 70.5894 52.4899C71.9294 53.1699 71.9294 53.3299 72.2794 51.9799C76.2794 37.0799 80.6694 20.6299 85.4894 6.24992C97.8194 19.0899 109.389 31.7099 120.489 45.7199C120.679 45.9599 121.219 46.2299 121.489 45.8999C130.849 33.8399 140.039 21.6499 149.289 9.49992C152.229 38.5799 154.159 68.7499 153.819 98.7499C147.219 100.083 140.616 101.373 134.009 102.62C139.289 93.6799 133.959 81.4799 128.439 73.8999C121.754 64.7005 111.989 58.2066 100.919 55.5999C100.919 52.3499 100.709 49.2699 102.409 46.3299C102.919 45.4399 103.719 44.6399 103.549 43.5499C105.779 41.7299 106.939 38.3799 107.479 35.6499C108.399 31.0199 104.479 32.0199 101.879 32.7199C98.5494 33.6099 92.9694 32.3199 89.7794 31.4199C87.8594 30.8799 83.0394 29.6399 82.3494 32.5399C81.7794 34.8899 85.1494 37.0599 87.0194 37.6999C85.4094 43.1499 84.0194 53.8599 89.6194 55.0399C89.6194 55.3799 89.5494 55.7199 89.5194 56.0399C89.7594 56.1399 89.9894 56.2499 90.1994 56.3599C90.1994 55.9699 90.3394 54.4899 89.8394 54.3599C86.1594 53.1599 86.1394 48.3599 86.3594 45.2299C86.5508 42.747 86.9184 40.2808 87.4594 37.8499C89.8791 38.4608 92.4311 38.2785 94.7394 37.3299C96.1394 36.7999 99.4294 34.6999 100.889 35.8899C102.139 36.8899 99.0594 38.0899 99.4694 42.2499C99.7394 45.0299 101.249 42.6699 102.389 43.0199C102.54 43.0747 102.67 43.1758 102.76 43.3087C102.849 43.4417 102.895 43.5996 102.889 43.7599C102.979 45.3399 99.6794 46.4599 100.169 55.2699C99.2794 55.0299 96.2894 57.1899 95.5694 57.7099C95.6764 58.5719 95.6528 59.445 95.4994 60.2999C96.9394 61.1899 99.4394 62.2399 99.6994 62.0799C100.149 61.8099 100.939 57.9499 100.799 56.3699C101.889 56.6199 102.969 56.9199 104.029 57.2599C100.629 61.2599 93.5194 75.5299 92.5594 81.2599C91.8503 81.1909 91.1358 81.3164 90.4927 81.623C89.8496 81.9296 89.3022 82.4056 88.9094 82.9999C87.7794 84.8299 87.0094 88.5399 88.4994 90.2699C88.9895 90.7606 89.6054 91.1067 90.2794 91.2699C89.0453 98.1429 88.3332 105.099 88.1494 112.08C88.1494 113.79 88.2194 115.08 89.7594 116.49C91.9194 118.49 96.7594 122.06 99.5994 122.49C103.879 123.22 115.889 117.59 120.089 114.49C120.506 114.088 120.759 113.547 120.799 112.97C120.934 112.016 120.957 111.049 120.869 110.09C111.442 108.819 102.663 104.585 95.7994 97.9999C94.7994 96.9999 95.6494 95.8499 96.7394 96.8399C105.429 104.72 123.619 114.21 133.109 103.84C140.216 102.507 147.319 101.12 154.419 99.6799C154.899 99.5899 154.819 99.0299 154.819 98.6099C155.001 68.5475 153.392 38.5009 149.999 8.62992ZM76.3794 71.5399C76.4894 71.0499 77.9694 69.7999 78.6194 69.2799C78.0194 68.8899 76.7894 67.9999 76.8994 67.4199C77.1094 66.3299 80.0594 62.2799 80.7894 61.3399C81.2794 60.7199 82.2994 61.5099 81.7894 62.1399C80.561 63.7578 79.4895 65.4889 78.5894 67.3099C80.0194 68.6499 80.5294 68.5599 80.5894 69.1199C80.5894 69.9999 78.6894 71.1199 77.8794 71.8599C77.9794 73.9733 78.0827 76.0899 78.1894 78.2099C78.1894 79.0499 76.9694 79.0599 76.8994 78.2099C76.8294 77.3599 76.2294 72.1899 76.3794 71.5399ZM79.7194 81.0899C78.9304 80.9734 78.1255 81.0279 77.3594 81.2499C78.1596 80.2839 78.7214 79.1431 78.9994 77.9199C79.2794 76.9199 79.8594 77.0799 79.9994 77.8399C80.1269 78.931 80.0316 80.0367 79.7194 81.0899ZM80.7794 82.0899C82.0494 82.7099 82.9694 83.7399 82.1494 85.1399C81.7494 84.6699 80.4594 83.4299 79.8194 83.7699C79.7852 83.7887 79.7557 83.8149 79.733 83.8466C79.7103 83.8783 79.695 83.9147 79.6883 83.9531C79.6815 83.9915 79.6835 84.0309 79.6941 84.0685C79.7047 84.106 79.7236 84.1407 79.7494 84.1699C79.9094 84.3499 83.0194 85.6299 81.8594 87.3999C81.5694 86.8999 80.5494 85.9899 79.9494 86.1199C79.9166 86.1246 79.8852 86.1361 79.8571 86.1535C79.829 86.1709 79.8048 86.194 79.786 86.2212C79.7672 86.2485 79.7543 86.2793 79.748 86.3117C79.7417 86.3442 79.7422 86.3776 79.7494 86.4099C79.8694 86.9999 81.3794 86.9299 81.5494 88.4099C81.5882 88.7935 81.4914 89.1786 81.2758 89.4983C81.0602 89.818 80.7396 90.0521 80.3694 90.1599C80.8894 89.1599 79.4794 88.3799 78.6794 89.1599C78.5694 89.2599 78.5694 89.5599 79.0394 89.4199C79.1833 89.3798 79.3355 89.3798 79.4794 89.4199C78.4794 92.2099 75.1094 90.5699 74.4794 87.9599C74.1003 86.2847 74.3871 84.5276 75.2794 83.0599C77.2394 81.9299 78.4694 80.9999 80.7794 82.1299V82.0899ZM62.0694 86.0899C61.9485 86.1432 61.8127 86.1521 61.686 86.115C61.5592 86.0779 61.4496 85.9971 61.3766 85.887C61.3036 85.7769 61.2719 85.6446 61.287 85.5134C61.3022 85.3821 61.3632 85.2605 61.4594 85.1699C64.2319 83.1545 67.3861 81.7254 70.7294 80.9699C71.4107 78.2393 72.3 75.5648 73.3894 72.9699C73.6394 72.3599 74.6494 72.7699 74.3894 73.3699C73.4878 75.7759 72.7429 78.2377 72.1594 80.7399C72.6061 80.6933 73.0461 80.6633 73.4794 80.6499C74.0294 80.6499 74.2394 81.5099 73.6494 81.6499C69.5082 82.2964 65.557 83.8352 62.0694 86.1599V86.0899ZM77.2094 94.6699C72.1294 93.8399 68.9794 87.9899 73.3194 83.0499L74.7594 82.9999C73.3594 84.7199 73.2094 88.8799 75.4494 90.7299C75.8339 91.0538 76.285 91.2889 76.7707 91.4185C77.2564 91.5481 77.7647 91.5691 78.2594 91.4799C78.0454 92.6058 77.6927 93.7008 77.2094 94.7399V94.6699ZM96.8094 79.5599C97.6894 78.3499 101.089 73.5599 101.969 72.5599C101.519 72.1099 100.429 70.9299 100.579 70.2099C100.601 70.097 100.654 69.9923 100.731 69.9075C100.809 69.8227 100.909 69.7613 101.019 69.7299L104.229 68.4899L106.229 60.7299C106.242 60.6462 106.272 60.566 106.318 60.4946C106.363 60.4231 106.423 60.3619 106.493 60.3148C106.564 60.2677 106.643 60.2358 106.727 60.2212C106.81 60.2065 106.896 60.2094 106.978 60.2296C107.06 60.2498 107.137 60.2869 107.205 60.3386C107.272 60.3903 107.327 60.4553 107.368 60.5297C107.408 60.604 107.433 60.686 107.44 60.7704C107.447 60.8548 107.437 60.9398 107.409 61.0199C107.099 62.3399 106.039 68.8999 105.179 69.5599C104.3 70.0763 103.35 70.4605 102.359 70.6999C103.119 71.3799 103.969 72.0799 103.419 73.0099C103.159 73.4799 98.5594 79.4599 97.8294 80.3799C97.3594 80.9999 96.3494 80.2599 96.8094 79.6299V79.5599ZM93.7494 78.9999C95.6794 75.5799 95.5794 78.5899 95.4094 80.2699C95.3644 80.7859 95.4362 81.3054 95.6194 81.7899C94.8089 81.4505 93.9466 81.251 93.0694 81.1999C93.1395 80.4271 93.3711 79.6775 93.7494 78.9999ZM88.9994 89.7599C87.6694 88.5699 88.5994 84.6899 89.5694 83.2499C90.7894 81.4699 93.4094 81.4699 95.1994 82.2499C93.8431 83.2284 92.8057 84.5853 92.2169 86.1506C91.6282 87.7159 91.5142 89.4202 91.8894 91.0499C90.8531 90.8067 89.8724 90.3689 88.9994 89.7599ZM95.5094 94.6199L92.5094 91.6199C91.5094 87.0899 93.6494 83.4399 96.4494 82.3399C97.3894 82.4099 98.4494 82.3399 99.3894 82.3399C96.8094 85.4899 94.6394 90.4299 95.4594 94.6199H95.5094ZM124.999 87.2499C117.909 83.6542 110.069 81.7867 102.119 81.7999C101.419 81.7999 101.479 80.7999 102.119 80.7299C105.075 80.5946 108.036 80.7553 110.959 81.2099C110.859 80.8399 110.409 79.1499 110.279 78.6799C110.224 78.5473 110.223 78.398 110.277 78.2649C110.332 78.1317 110.437 78.0256 110.569 77.9699C110.702 77.9142 110.851 77.9135 110.984 77.9679C111.118 78.0223 111.224 78.1273 111.279 78.2599C111.762 79.2962 112.15 80.3739 112.439 81.4799C117.035 82.3613 121.437 84.0545 125.439 86.4799C126.069 86.7599 125.549 87.5199 124.999 87.2499Z" fill="black"/>
</svg>
