<svg width="200" height="200" viewBox="0 0 200 200" fill="none" xmlns="http://www.w3.org/2000/svg">
<path fill-rule="evenodd" clip-rule="evenodd" d="M57.4598 46.5803V47.2903C57.4598 47.4892 57.5389 47.68 57.6795 47.8206C57.8202 47.9613 58.0109 48.0403 58.2098 48.0403C58.4088 48.0403 58.5995 47.9613 58.7402 47.8206C58.8808 47.68 58.9598 47.4892 58.9598 47.2903V46.5403C58.9496 46.3431 58.864 46.1573 58.7207 46.0215C58.5773 45.8856 58.3873 45.81 58.1898 45.8103C58.0909 45.8115 57.9933 45.8326 57.9027 45.8722C57.812 45.9119 57.7303 45.9693 57.6622 46.0411C57.5942 46.1129 57.5412 46.1976 57.5064 46.2902C57.4717 46.3828 57.4558 46.4814 57.4598 46.5803ZM57.1698 44.4903C58.2698 44.2303 59.1698 43.4903 57.5698 43.5903C57.1735 43.6455 56.7823 43.7325 56.3998 43.8503C54.8998 44.4703 56.1998 44.7203 57.1698 44.4903ZM148.92 51.4503C148.459 52.4171 147.688 53.2021 146.73 53.6803C146.693 53.6935 146.661 53.7193 146.641 53.7531C146.621 53.787 146.613 53.8269 146.619 53.8659C146.625 53.9049 146.644 53.9406 146.673 53.967C146.703 53.9933 146.74 54.0086 146.78 54.0103C147.104 54.0673 147.436 54.0436 147.749 53.9414C148.061 53.8392 148.343 53.6617 148.571 53.4244C148.798 53.1871 148.963 52.8975 149.052 52.581C149.141 52.2646 149.151 51.9312 149.08 51.6103C149.08 51.5678 149.063 51.5271 149.033 51.4971C149.003 51.4671 148.962 51.4503 148.92 51.4503ZM144.94 43.5203C144.748 43.4711 144.544 43.499 144.372 43.598C144.2 43.697 144.074 43.8593 144.02 44.0503C143.929 44.3758 143.912 44.7173 143.97 45.0503C143.97 45.2492 144.049 45.4399 144.19 45.5806C144.33 45.7213 144.521 45.8003 144.72 45.8003C144.919 45.8003 145.11 45.7213 145.25 45.5806C145.391 45.4399 145.47 45.2492 145.47 45.0503C145.47 44.3303 145.63 43.7103 144.94 43.5203ZM110.55 141.77C109.74 141.36 94.2498 142.37 93.8598 144.11C93.7798 144.49 94.0298 145.95 94.4698 146.19C95.3398 146.65 110.24 145.81 111.06 144.19C111.293 143.796 111.37 143.329 111.276 142.881C111.181 142.433 110.922 142.037 110.55 141.77ZM94.6599 145.77C94.3515 145.286 94.1852 144.725 94.1798 144.15C94.3798 143.25 102.63 142.76 103.54 142.7C103.518 143.508 103.726 144.306 104.14 145C103 145.18 95.1999 146.06 94.6599 145.8V145.77ZM110.33 143.77C109.54 144.33 105.53 144.84 104.57 144.96C104.654 144.169 104.486 143.371 104.09 142.68C105.28 142.6 109.09 142.39 110.22 142.49C110.52 142.71 110.53 143.39 110.33 143.79V143.77ZM84.2698 144.14C84.2428 144.123 84.2117 144.114 84.1798 144.114C84.148 144.114 84.1168 144.123 84.0898 144.14C84.0898 144.04 64.9898 154.8 64.4098 155.94C64.384 155.995 64.3706 156.055 64.3706 156.115C64.3706 156.176 64.384 156.236 64.4098 156.29C65.0198 158.04 84.9498 176.06 85.7798 176.47C86.0198 176.59 86.3198 176.38 87.2598 175.88C89.2598 174.81 106.33 165.69 108.09 164.22C108.58 163.72 108.88 159.22 108.61 158.71C108.34 158.2 84.2698 144.24 84.2698 144.14ZM85.9998 175.64C83.8698 173.95 66.9998 158.75 65.1298 156.17C66.8698 154.53 83.6998 144.78 84.2098 144.48C86.7898 146.05 105.36 157.35 107.74 158.95C106.482 159.314 105.285 159.863 104.19 160.58C103.62 161.13 105.04 162.15 107.01 164.06C104 166 89.0698 174 85.9998 175.64ZM107.58 163.49C107.48 163.39 105.07 161.04 104.96 160.95C105.931 160.344 106.933 159.786 107.96 159.28C107.963 160.693 107.829 162.103 107.56 163.49H107.58Z" fill="black"/>
<path fill-rule="evenodd" clip-rule="evenodd" d="M99.2697 161.65C98.5697 161.95 90.0297 164.78 87.6197 165.76C86.9114 166.113 86.1396 166.321 85.3497 166.37C85.2097 166.37 86.0197 164.81 92.1497 160.03C92.7897 159.53 94.0197 158.58 94.1497 157.8C94.7397 155.22 87.7497 159.08 81.4997 161.52C80.8534 161.867 80.148 162.091 79.4197 162.18C79.3497 161.77 80.7597 160.48 80.8497 160.38C84.5797 156.26 89.3097 154.56 88.9897 153.04C88.4997 150.66 79.8197 155.29 77.9897 156.04C76.4497 156.69 73.9897 157.47 74.1397 157.47C73.8097 157.6 74.1397 157.83 74.1997 157.8C74.2597 157.77 77.4297 156.8 78.1997 156.46C79.3497 156.02 87.0397 152.31 88.3197 153.18C88.8297 153.54 83.3897 156.47 80.3197 159.86C79.7797 160.44 78.3197 161.62 78.7697 162.58C78.8522 162.729 78.9773 162.849 79.1288 162.926C79.2803 163.002 79.4513 163.032 79.6197 163.01C81.1097 163.01 91.2697 157.92 93.3597 157.76C92.88 158.393 92.3068 158.95 91.6597 159.41C90.1697 160.59 85.8497 164.11 84.8497 165.73C84.3297 166.57 84.7597 167.07 85.4397 167.08C86.3397 167.08 87.4397 166.47 90.1497 165.45C99.3397 161.91 99.6297 162.07 99.4797 161.74C99.472 161.72 99.4604 161.702 99.4456 161.687C99.4309 161.672 99.4132 161.66 99.3936 161.651C99.3741 161.643 99.353 161.638 99.3318 161.638C99.3105 161.638 99.2894 161.642 99.2697 161.65Z" fill="black"/>
<path fill-rule="evenodd" clip-rule="evenodd" d="M195 123.52C194.87 113.06 193.93 91.7102 191.86 81.3602C190.77 75.8702 188.41 68.3602 184.02 64.7302C182.16 63.2002 179.42 61.7302 174.45 58.9802C174.51 58.8502 166.6 55.6502 166.23 56.7102C165.923 54.8863 165.492 53.0855 164.94 51.3202C165.68 51.0802 165.35 48.9202 165.66 47.7002C165.97 46.4802 167.14 45.6102 167.74 44.6102C169.09 42.3802 169.32 38.4902 169.07 35.9002C168.83 33.4902 165.31 28.1102 162.99 27.2302C160.67 26.3502 158.29 26.3802 155.84 25.8902C153.84 25.4802 152.36 24.3702 150.12 24.0902C147.88 23.8102 146.54 25.0902 144.62 25.0902C142.7 25.0902 140.54 23.6002 138.53 23.4802C137.438 23.4632 136.377 23.8431 135.544 24.5493C134.711 25.2556 134.162 26.2401 134 27.3202C133.757 28.93 133.948 30.5754 134.553 32.087C135.157 33.5986 136.154 34.9217 137.44 35.9202C139.006 36.9106 140.765 37.555 142.6 37.8102C142.48 42.9202 143.02 41.5502 142.42 42.0002C141.82 42.4502 142.01 45.6002 142.22 46.4702C142.31 46.8202 142.4 46.9502 142.83 47.0902C142.59 48.0902 140.9 50.2502 142.42 50.7802C142.62 50.8502 143.42 50.9902 143.5 51.0202C143.705 51.9685 144.006 52.8933 144.4 53.7802C144.788 54.6718 145.354 55.4743 146.065 56.1383C146.775 56.8022 147.614 57.3133 148.53 57.6402C149.97 58.2002 151.11 58.3502 151.95 58.6402C152.066 59.0537 152.126 59.4807 152.13 59.9102C148.559 60.8488 145.194 62.4462 142.21 64.6202C136.8 69.0102 129.11 87.2202 127.1 89.2202C126.32 89.9902 107.95 93.5502 105.24 95.3902C104.71 95.7502 104.69 96.0602 104.76 96.7002C104.1 96.8202 101.32 97.3402 101.01 97.9302C100.918 98.3588 100.943 98.804 101.08 99.2202C98.6055 98.7581 96.1088 98.4243 93.5999 98.2202C93.1408 98.2309 92.689 98.3379 92.2739 98.5343C91.8587 98.7306 91.4894 99.012 91.1899 99.3602C90.3499 100.36 91.0299 100.19 90.1399 100.05C88.2499 99.7802 81.4799 102.05 80.6299 102.45C80.6299 102.09 80.6299 101.84 80.2499 101.64C79.1338 101.317 77.9677 101.201 76.8099 101.3C76.1099 101.77 78.8099 101.61 79.9299 102.19C79.9299 102.96 80.0299 110.86 79.9299 112.41C79.9299 112.69 79.9299 112.65 79.7199 112.68C78.7199 112.82 77.2799 112.68 76.8399 113C76.9999 109.52 76.8399 101 76.3599 100.5C76.0699 100.2 70.7299 99.5602 64.9199 98.8602C64.9405 94.6565 64.7068 90.4555 64.2199 86.2802C63.1499 77.0002 60.9099 66.0602 53.9099 60.5102C54.3156 60.6758 54.762 60.7142 55.1899 60.6202C55.7614 60.3934 56.3765 60.2977 56.9899 60.3402C57.9899 60.6102 58.1199 61.3402 60.6199 59.6602C60.7799 59.5502 61.1999 59.5802 61.5299 59.2502C62.6599 58.1202 62.0899 56.5902 62.0899 55.4502C62.2555 54.6751 62.3094 53.8804 62.2499 53.0902C62.2193 52.9723 62.1618 52.8632 62.082 52.7713C62.0022 52.6793 61.9022 52.6071 61.7899 52.5602C61.7899 52.2302 62.1399 51.6402 61.6399 51.0002C62.3599 50.6202 63.1399 50.1802 62.7399 49.4002C61.9758 48.178 61.3455 46.8772 60.8599 45.5202C60.5499 44.3602 60.9699 42.8802 60.9499 41.6302C60.9499 40.7702 61.0399 39.7402 60.9499 38.8002C61.7212 38.2616 62.3106 37.5013 62.6399 36.6202C62.7129 36.264 62.6972 35.8953 62.5943 35.5466C62.4915 35.1978 62.3045 34.8797 62.0499 34.6202C61.7199 34.4102 61.6499 34.6202 61.6599 34.0002C61.6961 33.7826 61.6863 33.5598 61.6312 33.3463C61.5761 33.1327 61.4768 32.9331 61.3399 32.7602C60.9199 32.3502 59.9599 31.9002 59.6599 31.4802C59.1499 30.7302 58.8499 29.9802 57.8899 29.6802C57.2099 29.4602 56.5699 29.8902 56.1099 29.7402C55.4799 29.5402 54.8299 28.8602 54.1099 29.5802C53.9492 29.6673 53.7728 29.7219 53.5909 29.7408C53.409 29.7597 53.2252 29.7425 53.0499 29.6902C52.4499 29.1802 52.2999 28.3002 51.2799 28.1102C50.6999 28.0102 49.5599 28.2902 49.1199 28.1102C48.3991 27.5796 47.6038 27.1584 46.7599 26.8602C45.8164 26.7703 44.8645 26.8516 43.9499 27.1002C43.3099 27.2302 42.4899 27.1602 41.8199 27.2602C40.4299 27.4802 40.0299 28.6802 39.1099 29.2602C38.1899 29.8402 36.6399 29.8502 35.7599 31.1502C35.0199 32.2502 35.1799 33.4402 34.8899 34.5402C34.7699 35.0102 34.1299 35.5402 33.8899 36.0202C33.3299 37.1302 33.7599 38.2502 33.7499 39.2102C33.7399 40.1702 33.0699 41.0502 33.2599 42.2102C33.4143 42.7895 33.668 43.3376 34.0099 43.8302C34.0141 43.9923 33.9938 44.1541 33.9499 44.3102C33.6448 45.0971 33.5822 45.9573 33.7699 46.7802C33.9336 47.569 34.3146 48.2964 34.8699 48.8802C35.5699 49.4902 35.9299 49.3302 36.4399 50.2002C36.6544 50.6602 36.9769 51.0616 37.3799 51.3702C38.1199 51.8702 39.0299 51.4402 39.4699 51.6602C39.7437 51.8047 40.0422 51.8963 40.3499 51.9302C40.1037 52.0546 39.8911 52.2363 39.7299 52.4602C34.2899 53.1502 27.1099 57.1202 22.7299 62.5502C20.9999 64.7802 18.0899 68.0002 16.9999 70.5802C11.1399 83.8202 13.9999 104.58 11.6399 110.99L5.79992 126.22C5.51992 126.95 4.79992 130.58 5.05992 131.83C5.47992 133.69 7.42992 131.36 8.61992 130.04C7.87992 132.67 7.88992 133.36 7.49992 143.71C7.37992 146.95 7.26992 150.48 7.21992 153.45C7.21705 153.471 7.2188 153.493 7.22504 153.514C7.23128 153.534 7.24188 153.553 7.2561 153.569C7.27033 153.586 7.28785 153.598 7.30749 153.607C7.32713 153.616 7.34842 153.62 7.36992 153.62C7.64992 153.62 7.46992 153.94 7.87992 145.68C8.16992 139.87 8.49992 134.45 8.52992 134.01C8.67795 132.301 9.05464 130.619 9.64992 129.01C12.4426 126.924 15.5852 125.352 18.9299 124.37C22.6524 123.374 26.5833 123.475 30.2499 124.66C31.2499 124.99 33.9399 125.66 34.8999 125.21C36.8999 124.21 42.0499 120.9 42.8999 118.89C43.3199 117.89 43.6599 117.08 43.9899 116.33C45.5199 116.47 47.3999 116.86 49.0699 116.88C50.9399 116.88 52.1399 116.58 54.2099 114.75C61.8199 114.92 70.2099 114.69 74.2099 114.54C76.8799 115.54 85.0799 118.47 87.0699 120.44C87.8499 121.2 88.3099 123.32 88.5899 125.68C88.9586 128.501 89.0557 131.351 88.8799 134.19C83.3999 135.24 76.4199 136.9 71.0199 138.24C70.7175 138.156 70.4015 138.132 70.0899 138.17C68.6599 138.32 69.3299 138.9 68.8599 137.45C68.8824 137.455 68.9059 137.455 68.9282 137.449C68.9506 137.443 68.9711 137.432 68.9879 137.416C69.0047 137.4 69.0174 137.38 69.0247 137.358C69.032 137.336 69.0338 137.313 69.0299 137.29C69.0152 135.368 68.7905 133.453 68.3599 131.58C68.2899 131.3 67.7999 131.16 67.4999 131.07C64.2599 130.13 51.7499 128.87 48.9999 129.58C47.2099 130.05 34.8199 136.45 34.2599 137.81C33.6999 139.17 32.1799 147.35 31.8999 148.86C25.4199 150.75 20.3099 152.31 17.8099 153.16C17.7892 153.167 17.7701 153.178 17.7537 153.192C17.7373 153.206 17.724 153.224 17.7147 153.244C17.7053 153.263 17.7001 153.285 17.6992 153.306C17.6984 153.328 17.7021 153.35 17.7099 153.37C17.8299 153.74 21.1099 152.04 54.7099 143.21C55.0476 144.072 55.4802 144.894 55.9999 145.66C54.9999 145.9 53.8699 146.34 53.5399 147.26C53.4812 147.454 53.4715 147.66 53.5117 147.859C53.5518 148.058 53.6405 148.244 53.7699 148.4C54.5903 149.319 55.684 149.95 56.8899 150.2C59.0044 150.73 61.2015 150.846 63.3599 150.54C65.4325 150.359 67.4747 149.923 69.4399 149.24C71.5799 148.34 71.4399 147 70.6199 146.39C69.7749 145.893 68.8464 145.554 67.8799 145.39C68.7899 143.74 67.9399 144.47 69.2999 144.14C70.0695 143.957 70.7726 143.562 71.3299 143C72.2099 142.1 72.7999 139.88 71.9599 138.81C76.1799 137.81 93.1499 133.61 97.2999 133.92C104.83 134.47 159.58 156.98 172.54 161.32C172.56 161.327 172.582 161.329 172.603 161.327C172.624 161.326 172.645 161.32 172.664 161.31C172.683 161.3 172.7 161.287 172.714 161.271C172.728 161.254 172.738 161.236 172.745 161.215C172.751 161.195 172.754 161.173 172.752 161.152C172.751 161.131 172.745 161.11 172.735 161.091C172.725 161.072 172.712 161.055 172.695 161.041C172.679 161.027 172.66 161.017 172.64 161.01C169.25 159.83 161.69 156.82 152.64 153.2C153.08 152.14 154.24 148.72 155.14 147.54C155.51 147.06 155.49 147.02 158.79 147.21C167.44 147.71 175.06 147.48 183.36 144.83C188.43 143.2 190.92 139.44 192.36 134.41C192.65 134.5 193.44 134.76 193.72 134.82C193.8 134.84 193.883 134.84 193.963 134.82C194.043 134.801 194.117 134.764 194.18 134.71C195.17 133.7 195 125.49 195 123.52ZM58.2199 54.7602C57.9493 54.8588 57.6571 54.8829 57.3739 54.8302C57.0907 54.7774 56.8269 54.6496 56.6099 54.4602C56.3941 54.2874 56.2251 54.0632 56.1185 53.8081C56.0119 53.5529 55.9711 53.2751 55.9999 53.0002C55.9867 52.9591 55.9903 52.9144 56.01 52.8759C56.0297 52.8375 56.0638 52.8084 56.1049 52.7952C56.146 52.7819 56.1907 52.7855 56.2292 52.8052C56.2676 52.8249 56.2967 52.8591 56.3099 52.9002C56.8036 53.6103 57.5009 54.1542 58.3099 54.4602C58.3357 54.4815 58.3546 54.5099 58.3643 54.5419C58.374 54.5739 58.374 54.608 58.3644 54.64C58.3548 54.672 58.336 54.7005 58.3103 54.7219C58.2846 54.7432 58.2531 54.7566 58.2199 54.7602ZM48.8299 46.0002C48.8641 45.7064 48.9821 45.4286 49.1699 45.2002C49.3899 44.9802 50.0599 45.1202 50.5299 44.8002C50.8814 44.5224 51.1482 44.1517 51.2999 43.7302C51.8599 42.6202 52.7499 43.4802 53.9899 41.6502C54.3064 41.1355 54.552 40.5805 54.7199 40.0002C55.4199 39.6702 56.3299 40.1502 57.2099 38.7002C57.4999 38.2102 57.6899 37.7002 58.2099 37.5602C58.5999 37.9802 58.9899 39.5602 60.5699 38.9502C60.5699 39.4902 60.4499 42.2202 60.4199 42.4402C60.2903 43.0992 60.22 43.7686 60.2099 44.4402C60.2099 46.4402 61.1299 47.5402 62.1499 49.6302C62.3099 49.9602 61.4699 50.2802 61.0499 50.5102C60.4574 50.2919 59.8443 50.1344 59.2199 50.0402C57.2799 49.5702 55.7299 50.5802 54.0599 51.0402C53.7768 51.0419 53.4947 51.0083 53.2199 50.9402C52.5899 50.8802 51.9299 51.5202 51.0399 51.6402C50.8079 51.6857 50.5675 51.6605 50.35 51.5678C50.1324 51.475 49.9478 51.3191 49.8199 51.1202C49.7121 50.7539 49.6351 50.3793 49.5899 50.0002C49.4999 49.6402 49.3899 49.2802 49.3099 48.9302C49.1499 48.2102 49.6199 47.9302 49.0699 46.9302C48.6899 46.2502 48.6999 46.5502 48.8299 46.0002ZM49.2099 66.4002C49.8833 65.1223 50.4324 63.7829 50.8499 62.4002C51.4099 65.8802 51.7099 67.6402 51.8499 68.5202C51.1199 67.9102 51.0499 67.6802 49.2099 66.3602V66.4002ZM52.2099 70.4702C52.6999 73.4702 52.5899 72.7902 52.6799 73.4102C52.441 72.9602 52.1489 72.5405 51.8099 72.1602C51.9218 71.4996 51.9721 70.83 51.9599 70.1602L52.2099 70.4702ZM48.5899 72.2702C47.9927 71.6492 47.4476 70.9803 46.9599 70.2702C47.4544 69.1138 48.0119 67.9855 48.6299 66.8902C50.7299 68.5002 50.5699 68.4802 51.0899 69.1302C51.1662 69.9818 51.1662 70.8385 51.0899 71.6902L48.5899 72.2702ZM48.7199 72.9202C49.9099 75.5702 50.3899 79.9202 50.6399 82.8202C49.3916 79.1675 47.7131 75.6763 45.6399 72.4202C46.0454 71.8661 46.4065 71.281 46.7199 70.6702C47.1318 71.4372 47.6246 72.158 48.1899 72.8202C48.2621 72.8656 48.3435 72.8945 48.4282 72.9049C48.5129 72.9153 48.5989 72.9068 48.6799 72.8802L48.7199 72.9202ZM42.7799 51.5202C42.8613 51.5454 42.9451 51.5622 43.0299 51.5702C43.2628 51.5597 43.486 51.4742 43.6662 51.3264C43.8465 51.1786 43.974 50.9764 44.0299 50.7502C44.1899 50.6502 44.3099 50.5402 44.2999 50.3502C44.2899 50.1602 42.1399 47.2202 44.8799 45.7102C45.1215 45.684 45.3644 45.7467 45.5632 45.8865C45.762 46.0264 45.903 46.2339 45.9599 46.4702C46.0893 47.0036 46.3626 47.4913 46.7499 47.8802C46.7802 48.5194 46.8638 49.1549 46.9999 49.7802C47.0799 50.1502 46.7999 50.6302 46.7399 51.1402C46.5999 52.1402 47.5699 53.2402 47.9199 54.1402C48.3899 55.3502 48.0699 56.6502 49.1899 57.7202C50.3099 58.7902 50.0999 57.9102 50.4899 60.3102C50.0234 62.1963 49.3805 64.0344 48.5699 65.8002C47.4399 64.2002 41.7199 54.8602 40.5699 52.7302C40.9999 52.4702 42.3399 51.7102 42.7399 51.4802L42.7799 51.5202ZM39.7799 52.8502C40.5099 54.5502 47.7799 66.0702 47.7799 66.1702C47.4299 67.2802 45.4199 71.8802 44.4699 72.3802C42.3799 70.8902 36.6499 55.2202 36.2399 53.8002C37.3681 53.3169 38.5549 52.984 39.7699 52.8102L39.7799 52.8502ZM50.0999 97.0002C48.9999 96.6502 45.4499 84.6002 42.2799 77.9302C40.3799 73.9302 36.6499 67.3202 32.5799 65.5602C28.1799 63.6702 19.9999 68.2002 19.1299 74.0802C18.5987 77.958 18.9125 81.905 20.0499 85.6502C24.7699 99.9202 31.1599 111.3 44.8099 114.56C45.1299 113.92 43.9999 114.45 52.9799 114.69C52.5398 115.032 52.0715 115.337 51.5799 115.6C49.8999 116.51 46.7099 115.78 44.3499 115.52L44.6499 114.87C30.5899 111.73 24.0099 99.8702 19.2999 85.8702C18.1104 82.0121 17.7693 77.9424 18.2999 73.9402C19.1999 67.5802 27.6699 63.0202 32.3599 64.6002C33.5557 65.0457 34.6505 65.7257 35.5799 66.6002C35.1339 62.593 35.0236 58.5557 35.2499 54.5302C35.4337 54.3669 35.6311 54.2197 35.8399 54.0902C36.6999 57.0902 41.5999 71.4302 44.0899 73.0202C44.2478 73.1135 44.4327 73.1505 44.6144 73.1251C44.7961 73.0996 44.9637 73.0133 45.0899 72.8802C47.3399 76.7502 49.4399 80.7102 50.2799 84.8802C50.7551 87.1816 50.8765 89.5421 50.6399 91.8802C49.2199 86.0002 45.2899 77.5002 40.8199 73.4302C45.3899 81.3202 48.7199 93.9402 50.2099 96.4302C50.8059 96.5944 51.4148 96.7082 52.0299 96.7702C51.7699 90.7702 51.5699 78.2602 49.0299 72.8302C49.3399 72.8302 51.5299 72.3602 51.5299 72.3602C51.9249 72.8344 52.2607 73.3549 52.5299 73.9102C52.9399 74.7002 52.7999 74.1002 53.4199 78.3002C56.4199 97.6902 56.2499 97.5902 56.6399 97.8002C54.6799 97.5502 51.2299 97.3402 50.0999 97.0002ZM56.7399 93.0002C52.8399 70.8602 52.7999 70.2402 51.1599 61.0002C51.2899 60.5602 51.3899 60.2002 51.4599 59.9402C52.0799 60.7302 55.4599 65.0602 55.8299 66.0102C55.2799 66.5002 53.2999 67.3402 53.8999 68.0102C54.1699 68.3202 56.3999 70.2502 57.0999 70.9502C57.4799 72.5602 56.8799 90.2002 56.7399 93.0002ZM32.2999 148.73C32.5799 147.46 34.4099 139.2 34.9199 138.04C35.2899 137.18 47.3499 130.78 49.2499 130.3C51.9899 129.58 66.9099 131.06 67.9499 131.73C68.4194 133.474 68.6944 135.265 68.7699 137.07C67.0899 135.07 54.0899 135.6 53.9499 138.42C53.9472 138.513 53.9666 138.605 54.0066 138.688C54.0466 138.772 54.106 138.844 54.1799 138.9C54.1734 140.109 54.311 141.314 54.5899 142.49C46.9099 144.56 39.2299 146.72 32.2999 148.73ZM70.4299 147.17C70.9399 148.82 64.9499 149.53 63.2199 149.73C61.1657 150.023 59.0744 149.918 57.0599 149.42C56.1799 149.18 54.5499 148.54 54.2399 147.74C54.0899 147.36 54.5799 147 54.9399 146.81C55.396 146.572 55.8796 146.391 56.3799 146.27C56.9247 147.021 57.6552 147.617 58.4999 148C59.4999 148.44 63.7699 148.13 65.2499 147.81C65.8999 147.67 66.5899 147.48 67.5699 145.91C68.1699 146 70.2599 146.62 70.4299 147.17ZM65.6499 146.82C64.8999 147.27 59.5999 147.63 58.7899 147.3C56.1099 146.23 54.6499 142.05 54.5399 139.1C56.7185 139.579 58.9545 139.744 61.1799 139.59C62.8499 139.37 66.7999 138.69 68.2499 137.96C69.1199 141.24 67.2799 145.87 65.6499 146.82ZM71.2399 141.66C70.9692 142.196 70.589 142.668 70.1238 143.047C69.6587 143.426 69.119 143.703 68.5399 143.86C69.0631 142.457 69.3109 140.967 69.2699 139.47C69.3488 139.305 69.4634 139.159 69.6055 139.043C69.7475 138.928 69.9134 138.845 70.0912 138.801C70.2691 138.757 70.4545 138.753 70.6341 138.789C70.8137 138.825 70.983 138.901 71.1299 139.01C71.8799 139.5 71.5499 140.81 71.2399 141.66ZM174.24 59.2702C181 63.0002 184 64.5602 186.16 67.8302C184.801 66.6618 183.072 66.0133 181.28 66.0002C174.87 65.7802 171.72 75.2702 170.08 81.4102C167.36 91.6502 169.03 104.61 168.88 106.51C167.15 108.12 158.29 112.72 154.33 114.87C154.88 112.55 156.84 103.6 158.12 100.07C159.84 95.3302 164.79 84.2902 165.12 81.8902C165.21 81.1802 165.07 81.0902 162.97 79.7302C163.78 79.7302 165.97 79.5102 166.65 79.3802C166.94 79.3802 167.09 79.2502 167.2 78.6402C167.57 76.5202 168.29 59.0502 168.35 57.1902C168.28 57.1502 173.38 58.7802 174.27 59.2702H174.24ZM166.53 56.8802C166.985 56.8473 167.443 56.8982 167.88 57.0302C167.38 64.2802 166.88 77.0302 166.41 78.6602C165.88 78.7602 164 78.8902 163.27 78.9402C161.71 79.0302 161.67 78.9402 161.51 79.1602C161.35 79.3802 161.57 79.6802 161.86 79.8802C162.37 80.2402 164.07 81.3102 164.31 81.5902C164.079 82.7808 163.724 83.9438 163.25 85.0602C157.6 100.06 157.94 95.4502 154.14 111.9C154.394 104.02 155.122 96.1627 156.32 88.3702C157.12 84.0802 158.09 80.0502 161.32 70.8702C162.59 67.3202 165.22 60.5202 165.32 60.5602C165.822 59.365 166.236 58.1352 166.56 56.8802H166.53ZM149.16 118.25C149.35 118.99 149.35 118.89 149.29 118.9L148.98 118.84C148.98 118.74 148.44 108.7 148.7 104.55C149.17 97.2002 149.77 89.2302 150.33 81.5502C150.6 77.8302 151.62 69.8402 151.59 70.1402L152.59 69.4002C153.005 70.2281 153.476 71.0266 154 71.7902C154.2 72.0602 154.47 72.4002 154.79 72.4302C154.57 74.2402 151.24 96.5702 150.26 110.84C149.72 118.61 150.26 116.96 149.47 117.67C149.376 117.733 149.301 117.82 149.252 117.922C149.202 118.024 149.181 118.137 149.19 118.25H149.16ZM155.1 72.4402C155.86 72.4402 156.68 70.8402 157.68 70.1602C158.07 70.5702 159.25 72.5302 160.03 72.7902C156.72 81.8702 153.18 94.5302 153.19 115.43C152.34 115.89 151.19 116.55 150.34 117.04C150.84 108.53 154.46 80.6002 155.13 72.4402H155.1ZM165.6 59.0002C165.28 60.0002 160.53 71.4702 160.2 72.0002C159.684 71.4946 159.225 70.9347 158.83 70.3302C157.99 69.2002 157.7 68.8302 156.27 70.4402C158.39 66.4402 162.53 62.3802 164.27 60.3602C165.93 58.4602 165.71 58.6202 165.6 59.0002ZM143.2 38.0002C143.946 38.2299 144.744 38.2299 145.49 38.0002C146.061 37.7465 146.691 37.6565 147.31 37.7402C148.184 38.143 149.082 38.4904 150 38.7802C151.135 38.7702 152.268 38.6799 153.39 38.5102C153.904 38.7504 154.34 39.1317 154.646 39.6096C154.952 40.0875 155.117 40.6425 155.12 41.2102C153.256 41.4808 151.457 42.0873 149.81 43.0002C149.709 42.6718 149.508 42.383 149.236 42.1734C148.964 41.9638 148.633 41.8439 148.29 41.8302C146.65 41.6329 144.994 41.6127 143.35 41.7702C143.204 40.4924 143.154 39.2054 143.2 37.9202V38.0002ZM142.81 46.5302C142.56 46.0902 142.07 42.6802 142.57 42.3102C142.65 42.4102 142.3 42.1002 144.2 42.1202C145.539 42.1624 146.875 42.2826 148.2 42.4802C149.1 42.6402 149.25 43.0502 149.2 43.9202C149.2 45.5302 149.25 45.3702 149.2 45.8702C149.2 46.0102 149.14 46.3802 149.03 46.4602C146.973 46.8324 144.866 46.829 142.81 46.4502V46.5302ZM152 57.8002C149.26 57.0202 146.75 56.9202 145.06 53.4402C143.97 51.2002 144.57 50.5502 143.58 50.2602C143.213 50.2164 142.851 50.136 142.5 50.0202C142.5 49.3502 143.34 47.9502 143.5 47.2402C145.161 47.4387 146.839 47.4387 148.5 47.2402C149.5 47.0902 150.03 46.9202 149.87 44.8902V43.3402C151.44 42.8602 154.77 42.0702 155.17 41.9602C155.172 42.5042 155.246 43.0455 155.39 43.5702C155.546 43.9001 155.816 44.1628 156.15 44.3102C156.203 44.3339 156.262 44.345 156.32 44.3426C156.378 44.3402 156.435 44.3243 156.487 44.2963C156.538 44.2682 156.582 44.2287 156.616 44.1808C156.649 44.1329 156.671 44.0779 156.68 44.0202C156.91 43.0902 157.09 42.2602 157.16 41.8602C157.16 42.0802 157.25 41.1602 157.91 40.8002C158.91 40.2802 160.46 41.4402 160.57 43.0802C160.63 43.8802 159.83 45.3302 159.23 47.0002C158.87 48.0002 161.05 48.4302 161.81 48.8002C162.09 49.4502 161.92 50.1802 162.3 50.5702C162.87 50.9217 163.496 51.1752 164.15 51.3202C164.84 53.5305 165.342 55.7953 165.65 58.0902C163.11 60.7602 162.54 61.4002 161.86 62.0902C159.203 64.6144 156.95 67.5318 155.18 70.7402C154.47 66.5702 153.12 62.8902 152.97 61.6802C152.85 60.7402 153.05 59.0802 152.61 58.1902C152.543 58.0843 152.454 57.9944 152.349 57.927C152.243 57.8595 152.124 57.8162 152 57.8002ZM152.29 61.1902C152.77 62.9702 154.05 68.7502 154.42 71.0702C153.81 70.1502 153.06 68.6302 153.06 68.6302C153.034 68.5759 152.996 68.5282 152.949 68.4907C152.902 68.4531 152.847 68.4266 152.789 68.4131C152.73 68.3997 152.669 68.3996 152.61 68.413C152.552 68.4263 152.497 68.4527 152.45 68.4902L151.72 69.0502C152 66.4502 152.28 63.8002 152.32 61.1902H152.29ZM152 60.3002C151.91 67.6602 150.44 74.2202 149.84 81.5502C147.84 106.19 147.84 104.98 148.04 113.7C146.96 105.82 145.45 90.4902 144.62 82.1802C145.21 81.7302 148.06 79.5602 148.38 78.9002C148.53 78.5802 148.38 78.2502 147.66 78.2502C146.408 78.3445 145.151 78.3445 143.9 78.2502C144.66 75.1502 149.01 63.8402 150.17 60.8402C150.76 60.6702 151.25 60.5002 152 60.3002ZM105.51 96.1402C107.06 94.5102 126.51 90.7102 127.57 89.6802C129.06 88.1802 133.16 78.8702 137.34 71.8102C140.89 65.8102 142.82 63.5902 149.73 61.0402C148.07 65.1502 144.83 73.1902 143.37 77.8702C143.28 78.1602 143.15 78.4802 143.37 78.6702C143.92 79.2102 146.22 78.8902 147.54 78.9102C146.61 79.8402 144.05 81.7302 144.05 81.7302C144.001 81.7666 143.962 81.8153 143.937 81.8714C143.913 81.9276 143.903 81.9892 143.91 82.0502C144.33 86.6902 146.91 114.38 148.03 118.4L146.23 117.94C145.066 117.369 143.803 117.029 142.51 116.94C144.79 105.6 143.97 102.43 144.25 96.2502C144.25 95.6102 141.55 82.7502 141.53 82.6502C141.53 82.6077 141.513 82.567 141.483 82.537C141.453 82.507 141.412 82.4902 141.37 82.4902C141.327 82.4902 141.287 82.507 141.257 82.537C141.227 82.567 141.21 82.6077 141.21 82.6502C141.38 87.0302 142.62 91.2002 143.47 95.9802C140.27 98.9802 136.92 103.13 131.47 104.48C128.1 105.33 112.32 108.77 110.22 108.92C108.5 107 105.24 97.4202 105.51 96.1402ZM103.61 97.4702C103.61 97.4702 104.81 97.1802 104.79 96.9902C105.724 100.504 106.9 103.949 108.31 107.3C107.401 107.581 106.471 107.792 105.53 107.93C104.96 107.93 105.36 108.43 103.97 105.13C103.113 103.079 102.379 100.978 101.77 98.8402C101.6 98.1502 101.31 98.2202 103.61 97.4702ZM91.8999 99.5802C92.6899 98.7102 93.2599 98.5802 101.16 99.5802C101.863 101.965 102.714 104.303 103.71 106.58C102.084 107.848 100.221 108.776 98.2299 109.31C98.1699 108.88 98.0299 109.01 98.3699 109.04C98.6571 109.048 98.9424 108.992 99.2049 108.875C99.4673 108.758 99.7002 108.584 99.8864 108.365C100.073 108.146 100.207 107.889 100.281 107.611C100.354 107.333 100.364 107.042 100.31 106.76C100.23 105.76 97.3699 103.68 96.5599 103.11C97.0407 103.209 97.5397 103.171 97.9999 103C98.041 102.987 98.0752 102.958 98.0949 102.919C98.1146 102.881 98.1182 102.836 98.1049 102.795C98.0917 102.754 98.0626 102.72 98.0242 102.7C97.9857 102.681 97.941 102.677 97.8999 102.69C96.2199 103.13 94.5199 101.13 94.2999 101.07C93.5299 100.88 94.0099 102.67 92.2999 103.74C92.0499 103.9 91.0899 103.54 91.0299 103.05C90.904 102.444 90.9169 101.816 91.0676 101.216C91.2182 100.615 91.5028 100.056 91.8999 99.5802ZM80.7199 102.73C81.9999 102.27 88.5199 100.25 90.3999 100.73C90.1883 101.529 90.1407 102.362 90.2599 103.18C90.3235 103.44 90.4422 103.683 90.6082 103.893C90.7742 104.102 90.9834 104.274 91.2217 104.395C91.4599 104.517 91.7215 104.585 91.9887 104.597C92.2559 104.608 92.5223 104.561 92.7699 104.46C93.4668 103.995 93.9906 103.313 94.2599 102.52C95.1499 103.06 99.5699 105.99 99.5099 107.03C99.5099 107.73 99.1399 108.32 98.4399 108.26C97.849 108.048 97.2903 107.756 96.7799 107.39C96.2663 106.98 95.725 106.606 95.1599 106.27C95.0701 106.224 94.9661 106.212 94.8681 106.237C94.7701 106.263 94.685 106.323 94.6291 106.408C94.5732 106.492 94.5506 106.594 94.5655 106.694C94.5804 106.795 94.6319 106.886 94.7099 106.95C94.7099 106.95 95.4599 107.51 96.2899 108.05C97.5399 109.05 97.9699 109.97 96.4199 110.44C96.1773 110.512 95.9224 110.533 95.6711 110.502C95.4199 110.471 95.1778 110.389 94.9599 110.26C94.7051 109.757 94.367 109.301 93.9599 108.91C93.7783 108.443 93.4526 108.046 93.0301 107.776C92.6076 107.506 92.1101 107.378 91.6099 107.41C91.0899 107.47 91.0499 107.73 91.0999 107.49C91.3399 106.3 89.8199 105.58 88.7599 105.78C87.0499 106.12 86.0999 108.38 85.5399 110.03C85.1999 110.75 86.5399 109.95 80.6899 112.03C80.8548 109.126 80.8548 106.214 80.6899 103.31C80.6399 102.62 80.6199 102.78 80.7199 102.73ZM85.8199 110.14C86.3699 108.96 87.5799 106.75 88.8699 106.55C89.3699 106.46 90.3799 106.8 90.2699 107.31C90.0534 108.664 89.4289 109.92 88.4799 110.91C88.5999 111.11 85.4699 111.17 85.8199 110.14ZM91.4799 108.23C91.7199 107.99 93.1199 108.48 93.1599 109.23C93.2299 110.48 92.0399 111.97 91.0099 112.66C90.6799 112.89 89.3799 111.83 89.0799 111.4C89.7942 110.281 90.5967 109.221 91.4799 108.23ZM93.1699 111.56C93.2399 111.46 94.2399 109.24 94.4099 111.08C94.4799 111.8 93.4099 112.18 92.7099 112.08C92.8726 111.915 93.0262 111.742 93.1699 111.56ZM115.41 124.56C111.2 127.83 110.6 132.13 111.29 137.26C104.53 134.86 99.3699 133.26 97.3599 133.09C94.6395 133.146 91.9319 133.481 89.2799 134.09C89.5499 131.4 89.4299 121.96 87.5199 120.02C85.6099 118.08 78.6799 115.43 76.0699 114.43H76.6599C76.8899 114.31 76.5099 113.26 77.3799 113.2C78.4299 113.14 79.8999 113.54 80.3799 113.12C80.5232 112.902 80.6061 112.65 80.6199 112.39C81.7199 112.04 84.3099 111.25 85.6199 110.91C86.0603 111.26 86.5759 111.502 87.126 111.618C87.6761 111.735 88.2457 111.722 88.7899 111.58C89.0899 112.25 90.4899 113.72 91.3599 113.24C91.6012 113.101 91.8319 112.944 92.0499 112.77C92.6825 112.945 93.3541 112.917 93.9699 112.69C94.2958 112.601 94.5865 112.415 94.8029 112.155C95.0193 111.896 95.1509 111.577 95.1799 111.24C95.7035 111.391 96.2618 111.366 96.7705 111.172C97.2792 110.977 97.7107 110.622 97.9999 110.16C100.192 109.667 102.244 108.683 104 107.28C104.19 107.69 104.37 108.04 104.52 108.28C104.57 108.365 104.639 108.435 104.723 108.486C104.807 108.536 104.902 108.565 105 108.57C106 108.67 108.36 107.57 108.46 107.57C108.802 108.285 109.229 108.956 109.73 109.57C109.91 109.75 110.21 109.7 110.49 109.67C113.39 109.32 127.79 106.22 131.64 105.26C136.64 104.01 139.9 100.5 143.33 97.1602C143.14 102.9 143.89 105.7 141.62 116.97C136.9 117.557 132.223 118.452 127.62 119.65C123.59 120.8 118.79 121.94 115.41 124.57V124.56ZM130 144.29L129.65 144.15C129.57 139.07 130.83 134.39 134.55 130.92C134.879 131.004 135.213 131.067 135.55 131.11C131.72 134.39 130.21 139.17 130 144.29ZM145.79 127.62C142.79 129.38 143.67 130.33 140.92 130.62C138.717 130.771 136.503 130.6 134.35 130.11C132.61 129.55 133.53 128.88 135.35 128.68C135.66 128.73 138.1 128.75 139.25 128.68C139.344 128.665 139.429 128.617 139.491 128.545C139.553 128.472 139.587 128.38 139.587 128.285C139.587 128.19 139.553 128.098 139.491 128.026C139.429 127.953 139.344 127.905 139.25 127.89C137.953 127.779 136.65 127.758 135.35 127.83C134.522 127.818 133.698 127.721 132.89 127.54C132.809 127.409 132.763 127.26 132.754 127.106C132.745 126.953 132.775 126.8 132.84 126.66C133.89 126.03 138.84 126.27 139.66 126.24C139.756 126.225 139.844 126.176 139.908 126.102C139.971 126.027 140.006 125.933 140.006 125.835C140.006 125.737 139.971 125.643 139.908 125.569C139.844 125.495 139.756 125.445 139.66 125.43C138.019 125.465 136.378 125.378 134.75 125.17C134.05 125.05 132.42 124.7 132.54 123.99C132.76 122.71 135.39 123.81 137.24 123.68C138.545 123.661 139.837 123.417 141.06 122.96C141.151 122.932 141.228 122.869 141.273 122.785C141.318 122.7 141.328 122.602 141.3 122.51C141.272 122.419 141.209 122.342 141.125 122.297C141.04 122.252 140.941 122.242 140.85 122.27C139.599 122.571 138.329 122.791 137.05 122.93C136.969 122.913 136.897 122.868 136.847 122.801C136.797 122.735 136.773 122.653 136.78 122.57C136.794 122.383 136.842 122.2 136.92 122.03C137.436 121.358 138.128 120.842 138.92 120.54C141.76 119.36 143.92 120.54 147.17 120.75C147.578 122.599 148.095 124.423 148.72 126.21C147.723 126.609 146.757 127.08 145.83 127.62H145.79ZM149.61 126.4C149.26 125.22 147.96 120.94 147.83 119.94C148.346 119.688 148.89 119.497 149.45 119.37C149.91 121.08 150.76 124.05 151.31 125.71C150.773 125.979 150.219 126.209 149.65 126.4H149.61ZM152.44 126.4C151.91 125.2 150.34 119.61 149.98 118.21C151.7 116.8 167.14 109.21 169.44 106.9C170.16 106.18 167.73 92.6302 170.58 81.4802C172.1 75.4802 175.08 66.0502 181.23 66.2602C185.45 66.4002 187.86 69.6202 189.23 73.6402C191.74 81.0402 190.74 91.3102 190.74 91.2102C190.74 99.6002 187.74 112.21 181.74 118.21C177.21 122.75 155.26 126.91 152.48 126.43L152.44 126.4ZM193.67 134C192.5 133.69 187.13 131.71 184.86 131.52C173.07 130.52 173.8 128.28 166.51 125.08C170.51 124.08 179.4 121.76 182.35 118.84C188.58 112.66 191.46 99.9202 191.43 91.3002C191.661 88.2813 191.661 85.2491 191.43 82.2302C193.64 94.7702 195 130.2 193.67 134Z" fill="black"/>
<path fill-rule="evenodd" clip-rule="evenodd" d="M39.0497 66.4002L35.7697 66.7802C36.7696 67.7206 37.6802 68.7516 38.4897 69.8602L39.3997 66.8602C39.4274 66.8064 39.4394 66.7459 39.4341 66.6856C39.4289 66.6253 39.4066 66.5678 39.37 66.5196C39.3333 66.4715 39.2838 66.4347 39.2271 66.4135C39.1704 66.3924 39.1089 66.3878 39.0497 66.4002ZM133.91 157.66C133.085 157.138 132.174 156.766 131.22 156.56C133.49 152.87 133.08 148.56 132.48 148.18C131.915 147.605 131.163 147.25 130.36 147.18C127.36 146.55 120.09 146.5 118.17 148.1C117.75 148.45 117.5 149.02 117.91 149.4C117.714 151.771 118.211 154.147 119.34 156.24C118.34 156.43 117.18 156.81 116.8 157.71C116.734 157.904 116.716 158.11 116.748 158.312C116.779 158.514 116.859 158.706 116.98 158.87C117.747 159.822 118.798 160.505 119.98 160.82C122.067 161.455 124.257 161.683 126.43 161.49C128.506 161.406 130.564 161.07 132.56 160.49C134.77 159.67 134.75 158.32 133.91 157.66ZM118.26 149.58C120.409 150.167 122.632 150.443 124.86 150.4C127.289 150.234 129.688 149.764 132 149C132.2 150.376 132.126 151.778 131.783 153.125C131.44 154.472 130.834 155.738 130 156.85C129.798 157.203 129.507 157.497 129.156 157.703C128.805 157.908 128.406 158.018 128 158.02C126.6 158.2 122.78 158.3 122 157.95C119.47 156.78 118.22 152.53 118.26 149.58ZM126.39 160.58C124.325 160.776 122.243 160.565 120.26 159.96C119.362 159.716 118.535 159.26 117.85 158.63C117.69 158.46 117.43 158.12 117.51 157.91C117.77 157.25 119.04 156.91 119.74 156.79C120.241 157.554 120.929 158.178 121.74 158.6C122.74 159.11 128.28 159.05 129.31 158.52C129.952 158.128 130.496 157.595 130.9 156.96C131.49 157.13 133.55 157.83 133.69 158.39C134.14 160.11 128.19 160.52 126.39 160.63V160.58Z" fill="black"/>
</svg>
