<svg width="200" height="200" viewBox="0 0 200 200" fill="none" xmlns="http://www.w3.org/2000/svg">
<path d="M173.318 107.272C171.6 106.951 169.854 106.809 168.107 106.851L173.97 75.0329C174.57 71.7329 175.029 71.4549 171.557 71.2459C137.594 69.1989 117.817 70.9009 117.765 70.0909C117.743 69.7459 116.065 60.4699 115.382 54.8839C115.206 53.4449 114.227 48.5499 113.882 46.8789C113.344 44.2719 113.401 43.6489 112.125 43.6909C101.401 44.0439 74.7457 46.7329 60.6337 49.0109C36.1637 52.9589 36.2657 52.9999 36.3997 54.1059C36.3997 54.1319 37.3207 66.1549 41.8577 90.9949C30.1507 91.2739 30.8577 93.4079 32.5267 118.203C33.3267 130.144 36.3367 154.158 39.0467 166.378C42.7917 183.269 44.0917 187.022 56.9157 187.793C65.2887 188.293 138.372 189.142 157.522 186.711C159.346 186.48 160.555 184.031 160.944 182.489C161.444 180.503 162.444 178.42 166.586 160.867C177.611 114.213 180.452 108.819 173.318 107.272ZM168.918 72.7609C172.738 72.8039 172.574 72.7509 172.471 73.2289C172.317 73.9439 157.971 149 154.171 166.844C151.085 148.003 145.451 113.563 144.99 111.67C143.273 104.614 141.465 104.234 136.336 103.676C135.186 103.55 90.9747 102.734 90.5637 102.707C89.9637 102.666 90.0787 102.455 90.1217 102.246C90.1217 102.246 90.2127 101.688 90.2597 101.446C95.3977 75.2099 95.0137 73.1649 95.9847 73.1279C140.518 71.4429 153.234 72.5819 168.917 72.7609H168.918ZM37.8767 54.6999C37.7517 54.2499 38.1037 54.4559 39.8627 54.2519C43.8387 53.7919 54.2757 52.0139 60.2537 51.1089C82.8647 47.6879 111.36 44.9209 111.363 44.9469C112.405 44.8469 112.172 44.8259 112.38 46.3779C112.48 47.1359 112.671 48.3089 112.742 48.9529C115.178 71.1739 116.595 70.4429 115.17 70.4529C108.573 70.4948 101.983 70.868 95.4237 71.5709C94.0097 71.7339 94.0697 72.5399 92.7537 78.7929C90.1697 91.0709 88.9227 97.6569 88.4477 100.86C88.3297 101.66 88.1127 102.485 86.7667 102.4C83.4667 102.192 76.2487 102.505 74.3257 99.9339C68.4357 92.0609 74.4037 91.2579 54.8307 91.0249C53.5697 91.0099 48.2627 90.9069 43.7557 90.9579C43.5667 90.1199 43.3557 88.6849 43.0357 86.8579C39.5537 66.7139 37.8757 54.1059 37.8767 54.6999ZM165.228 158.235C164.506 162.135 163.088 168.054 162.377 170.802C158.141 187.161 159.765 184.857 150.783 185.423C137.083 186.286 60.5297 186.745 53.9997 186.007C45.0587 184.996 44.0327 180.881 41.1887 166.184C39.8627 159.332 35.9967 135.446 34.0047 110.075C32.6227 92.4849 33.2137 93.5529 38.4047 92.9749C43.3477 92.4279 49.4827 92.9579 56.7147 92.9629C57.0697 92.9629 64.8577 93.3199 65.9227 93.4129C67.2227 93.5259 67.9107 93.6739 68.4227 94.2129C70.5227 96.4129 72.1947 102.682 76.1707 103.642C82.5807 105.191 121.586 105.198 135.371 105.731C141.811 105.98 142.009 106.607 143.271 113.791C144.742 122.154 144.671 123.633 150.652 157.573C154.115 177.216 154.68 182.098 155.999 181.844C156.704 181.708 156.305 179.614 156.155 178.917C156.125 178.779 155.674 176.043 154.972 171.745C162.364 137.123 161.904 140.205 167.824 108.356C169.405 108.356 170.985 108.442 172.557 108.615C178.139 109.358 175.757 112.79 168.614 144.268C168.733 144.5 165.8 155.129 165.228 158.235Z" fill="black"/>
<path d="M97.8746 88.2C96.8926 88.082 96.7746 87.287 97.3236 86.919C99.2856 85.595 137.318 86.702 143.591 87.719C145.207 87.98 144.21 89.153 141.118 89.193C135.453 89.263 103.5 88.873 97.8746 88.2Z" fill="black"/>
<path d="M118.527 80.3C108.255 80.3 96.1011 81.194 98.0911 79.281C99.8401 77.6 126.174 77.381 126.62 79.175C126.72 79.575 126.713 79.721 126.371 79.89C125.093 80.514 118.527 80.32 118.527 80.3Z" fill="black"/>
<path d="M96.5755 96.5869C95.8755 96.1709 96.2885 95.3109 97.7055 95.1219C100.912 94.6959 113.356 95.2649 113.381 95.2659C119.071 95.3659 119.411 95.4739 120.913 96.2969C121.459 96.5969 121.426 97.0879 120.926 97.4399C119.683 98.3139 97.7665 97.2909 96.5755 96.5869Z" fill="black"/>
<path d="M130.765 80.1219C129.819 79.5399 131.399 78.8009 132.474 78.7849C137.069 78.7199 143.84 78.8779 146.405 79.0269C147.147 79.0699 147.92 79.7519 147.464 80.3509C146.941 81.0379 146.41 80.9189 144.208 81.0599C144.193 80.8159 132.35 81.0999 130.765 80.1219Z" fill="black"/>
<path d="M43.6898 59.2248C43.6898 57.8508 43.3148 57.8988 49.3518 56.7908C57.4048 55.3138 64.2998 54.4998 79.1148 52.7498C85.5888 51.9868 84.9628 51.8918 85.4408 53.8418C87.1938 60.9998 89.4318 77.5598 89.4618 77.8218C89.6978 79.8798 89.6348 79.7358 82.7708 80.8658C82.2018 80.9598 66.5708 83.3538 64.6708 83.6298C50.8318 85.6358 47.9438 86.0298 47.5228 84.5398C45.6308 77.8118 43.6908 59.8998 43.6898 59.2248ZM86.4798 68.4118C84.0468 53.7538 84.7138 52.9788 83.6718 53.1428C79.4818 53.7988 68.4768 55.3518 64.8938 55.9308C44.9458 59.1538 50.6168 58.2998 44.9108 59.1518C44.4248 59.2238 45.0208 59.1388 46.5108 70.0278C48.5208 84.6918 48.3428 84.2588 48.7428 84.1278C49.1858 83.9768 49.4528 84.1928 49.7598 83.6648C50.0598 83.1538 51.5058 81.6318 53.0388 79.7968C55.4549 77.0181 58.0221 74.3744 60.7288 71.8778C62.4048 70.2518 62.1438 70.3028 67.5588 73.7998C68.4188 74.3558 68.5718 74.4238 68.4068 74.6358C68.3868 74.6608 64.0318 80.5588 63.8438 81.3498C63.3058 83.6088 69.2438 74.8088 76.9848 65.5858C79.0938 63.0718 78.6418 62.9678 86.2508 68.7038C86.4048 68.8128 86.4798 68.8688 86.4798 68.4118Z" fill="black"/>
<path d="M66.6247 63.3638C65.5247 63.2358 63.4167 63.3639 63.2157 61.1949C63.1157 60.1159 64.2567 58.1948 66.9017 58.0168C68.8727 57.8838 69.3647 58.7619 69.7457 58.1529C70.9167 56.2799 72.4057 56.2929 73.4017 57.2269C74.2497 58.0269 73.8727 58.4049 74.7757 58.2959C75.9967 58.1489 78.1907 57.7428 79.3487 58.2378C80.6347 58.7888 79.9697 60.4719 78.7317 61.0189C74.6477 62.8239 65.6097 63.3638 66.6247 63.3638ZM66.4337 62.3279C69.5997 61.9629 81.5807 60.7089 78.8907 58.9409C78.2907 58.5409 77.3127 58.9529 76.1377 59.0189C74.1817 59.1279 73.9217 59.6798 73.6007 59.1698C73.3822 58.6255 73.0118 58.1556 72.5337 57.8159C71.7667 57.3319 70.5987 58.0749 70.3497 59.1239C70.2107 59.7079 70.0497 59.9819 69.2747 59.6119C67.4537 58.7379 65.1287 58.8119 64.3097 60.9118C64.0757 61.5118 64.4967 61.7499 64.9667 62.0569C65.4219 62.2792 65.9291 62.3729 66.4337 62.3279Z" fill="black"/>
<path d="M55.1348 59.7999C60.4068 59.4729 62.1418 67.0359 57.3518 69.4279C56.5932 69.8044 55.7499 69.9776 54.9043 69.9305C54.0587 69.8833 53.2398 69.6174 52.5278 69.1589C51.5753 68.5954 50.8353 67.7336 50.4223 66.7069C50.0092 65.6802 49.9463 64.546 50.2433 63.4799C50.5403 62.4139 51.1805 61.4755 52.0648 60.8102C52.9491 60.1449 54.0282 59.7898 55.1348 59.7999ZM58.9748 64.9159C58.7108 63.2069 58.3388 61.7929 56.2848 60.9879C53.3938 59.8549 50.1928 63.6499 52.0048 66.6979C52.4097 67.4082 53.0368 67.9658 53.7896 68.2849C54.5424 68.604 55.3791 68.6669 56.1712 68.464C56.9632 68.261 57.6666 67.8034 58.1732 67.1617C58.6797 66.5199 58.9614 65.7294 58.9748 64.9119V64.9159Z" fill="black"/>
<path d="M61.3306 30.19C61.926 28.9137 62.9276 27.8708 64.1788 27.2243C65.43 26.5778 66.8601 26.3642 68.2456 26.617C68.7006 26.702 68.4526 26.757 67.3646 23.569C66.5326 21.128 65.3466 17.437 65.1986 16.999C65.0266 16.493 65.6406 16.762 56.6596 19.943C49.0376 22.643 49.5656 22.419 49.7246 22.766C53.1876 30.358 54.3166 33.044 54.5896 34.229C55.5826 38.55 47.9816 42.445 44.8956 38.635C42.7696 36.01 44.9706 32.514 48.2496 31.378C51.7596 30.161 52.2856 34.155 47.2606 22.258C46.2786 19.933 45.3966 18.929 46.5416 18.27C51.9399 15.5208 57.6063 13.3333 63.4516 11.742C64.7706 11.389 65.0746 12.159 66.0036 14.122C67.5166 17.322 68.4306 20.322 70.6636 27.331C71.3316 29.425 71.8026 31.358 70.3216 33.247C66.5236 38.093 58.9676 35.268 61.3306 30.19Z" fill="black"/>
<path d="M11.0188 143.743C10.9758 143.393 10.1978 138.478 10.1328 135.874C10.0798 133.732 11.0978 133.108 11.4968 133.944C12.8838 136.844 13.2378 139.477 13.9128 142.93C14.0008 143.38 14.0958 143.13 16.9908 142.57C17.2678 142.517 19.0968 142.34 20.0108 142.19C20.6598 142.084 22.5108 142.359 21.8598 143.041C20.4138 144.559 15.2068 146.121 14.8038 146.171C14.3688 146.225 14.5488 146.393 14.8338 148.028C14.9948 148.952 16.4548 156.945 15.5408 157.095C15.3098 157.133 15.0408 157.229 14.8408 156.984C13.4668 155.291 12.3728 151.484 12.0628 149.584C11.3898 145.47 12.5628 147.32 5.7868 147.551C5.62042 147.544 5.45839 147.496 5.3158 147.41C4.5078 146.976 5.4248 145.979 6.2398 145.651C7.70182 144.975 9.22552 144.442 10.7898 144.058C11.0188 144.01 11.0488 143.906 11.0188 143.743Z" fill="black"/>
<path d="M95.6501 20.378C95.6501 18.712 100.195 19.885 100.177 19.012C100.099 17.8879 100.176 16.7584 100.404 15.655C100.544 14.97 100.391 14.021 101.212 13.994C101.577 13.982 101.783 14.125 101.949 14.545C102.054 14.7934 102.13 15.0536 102.173 15.32C102.802 20.034 101.405 19.259 104.853 19.412C105.769 19.4437 106.663 19.7039 107.453 20.169C107.992 20.564 107.016 21.084 106.563 21.169C102.555 21.94 102.571 21.129 102.577 22.304C102.695 23.8456 102.554 25.3962 102.159 26.891C102.006 27.46 101.374 27.711 100.981 27.156C100.541 26.534 100.725 26.217 100.42 24.433C100.089 22.498 100.586 21.697 100.04 21.672C97.5501 21.56 95.6531 21.526 95.6501 20.378Z" fill="black"/>
<path d="M13.8998 60.3148C14.2868 60.3611 14.6602 60.4863 14.9968 60.6828C15.3334 60.8792 15.6261 61.1427 15.8568 61.4568C16.4808 62.1548 16.8431 63.0479 16.8818 63.9834C16.9205 64.9188 16.6331 65.8387 16.0688 66.5858C11.3888 72.1978 4.85479 63.5428 10.2688 60.7698C11.401 60.2396 12.6717 60.0803 13.8998 60.3148ZM12.4548 66.3448C13.0907 66.345 13.7063 66.1211 14.1936 65.7126C14.681 65.3041 15.0089 64.737 15.1198 64.1108C15.1568 62.8448 14.9138 61.7258 13.5198 61.5538C11.0048 61.2428 9.81979 62.8249 10.3818 64.6339C10.6418 65.4539 11.5748 66.4328 12.4558 66.3448H12.4548Z" fill="black"/>
<path d="M194.124 50.883C195.37 53.009 195.163 54.904 194.263 56.112C191.11 60.343 185.977 56.092 187.126 52.496C188.154 49.277 193.188 49.285 194.124 50.883ZM190.141 55.819C191.459 56.758 192.913 55.572 193.246 54.397C193.598 53.156 193.015 51.36 192.006 51.34C188.256 51.263 188.014 54.3 190.141 55.819Z" fill="black"/>
<path d="M127.826 19.5761C128.868 13.9191 128.037 14.6161 132.766 15.0031C139.917 15.5891 147.64 16.2961 153.901 17.0361C154.712 17.1361 172.171 19.4971 173.532 19.7871C175.025 20.1051 174.732 19.8801 171.718 45.2481C169.584 63.1961 169.365 63.0481 168.706 63.0481C166.199 63.0621 164.614 62.5481 150.011 60.7891C133.211 58.7651 133.622 59.4531 124.197 57.6891C123.442 57.5481 123.571 56.2951 123.548 54.8581C123.441 48.3061 126.654 25.9321 127.826 19.5761ZM168.426 54.2171C169.216 54.3961 168.46 55.0351 170.877 37.3441C172.072 28.6011 172.204 28.6441 171.952 28.5841C171.011 28.3601 131.84 24.0041 128.991 23.5721C128.576 23.5091 128.744 22.2611 125.916 47.1511C125.68 49.2301 125.523 49.1641 126.216 49.1991C140.087 49.9061 168.523 54.2171 168.421 54.2171H168.426ZM152.1 18.0251C151.521 17.9481 151.242 19.7891 151.043 22.1251C150.857 24.2991 151.086 25.5851 151.292 25.5701C151.8 25.5651 152.925 18.1371 152.1 18.0251ZM147.049 58.4151C147.339 60.4331 147.671 59.4311 148.074 57.4211C148.386 55.8631 148.398 54.0031 148.519 53.0801C148.523 52.7928 148.501 52.5056 148.454 52.2221C148.445 51.9751 147.87 51.7591 147.724 52.5361C147.375 54.4797 147.149 56.4432 147.046 58.4151H147.049ZM168.472 20.4261C168.49 19.9261 167.979 20.0791 167.888 20.2261C167.318 21.1601 166.582 27.1831 167.314 27.1591C167.639 27.1491 167.978 25.3421 168.214 23.7391C168.425 22.6481 168.511 21.5365 168.469 20.4261H168.472ZM164.056 54.1321C163.756 54.5321 163.714 54.3861 163.301 57.2321C163.061 58.376 163.022 59.553 163.187 60.7101C163.193 60.8261 163.356 61.3541 163.542 61.0671C164.11 60.1881 165.229 52.5481 164.053 54.1321H164.056ZM142.7 24.4831C142.72 24.5052 142.744 24.5225 142.771 24.5338C142.798 24.5452 142.828 24.5501 142.857 24.5484C142.886 24.5467 142.915 24.5383 142.941 24.5238C142.966 24.5094 142.988 24.4893 143.005 24.4651C143.187 24.226 143.315 23.9504 143.38 23.6571C143.436 22.7161 144.339 17.3231 143.694 17.1571C142.962 16.9681 142.426 21.1831 142.409 22.7391C142.315 23.3366 142.417 23.9485 142.7 24.4831ZM138.5 56.7741C138.844 58.6391 138.766 58.3641 138.955 58.6081C139.555 57.8891 139.477 55.9081 139.818 53.7441C140.052 52.9927 140.088 52.1937 139.924 51.4241C139.886 51.3181 139.972 51.1601 139.798 51.1141C139.107 50.9341 139.165 51.5001 138.5 56.7741ZM154.467 58.8001C154.606 59.9471 154.618 60.3671 154.785 60.3671C155.63 60.3671 155.625 56.1981 155.785 55.4331C155.921 54.7177 155.91 53.9823 155.754 53.2711C155.694 52.9561 155.136 53.1401 155.022 53.7841C154.989 53.9641 154.467 58.6931 154.467 58.8001ZM158.367 24.7921C158.305 25.9551 158.497 26.7151 158.867 26.3501C159.32 25.8971 159.607 23.8031 159.652 23.1771C159.752 21.8151 160.125 18.6971 159.293 19.2311C158.813 19.5381 158.432 23.6301 158.371 24.7921H158.367ZM130.34 55.4651C130.3 56.0461 130.317 56.6296 130.392 57.2071C130.481 57.4931 130.874 57.4161 130.992 56.8371C131.465 54.8601 131.675 52.8291 131.616 50.7971C131.616 50.1461 130.964 50.2111 130.859 50.8551C130.517 52.3679 130.342 53.914 130.34 55.4651ZM135.574 17.8001C135.503 17.7921 135.494 17.8001 135.516 16.7911C135.527 16.3001 135.055 16.2651 134.872 16.6001C134.698 17.2532 134.57 17.9174 134.487 18.5881C133.561 24.9241 135.07 24.4261 135.287 20.5711C135.321 19.8631 135.573 17.7001 135.574 17.8001Z" fill="black"/>
<path d="M143.573 33.5801C144.194 28.7001 143.94 28.9021 145.239 28.4391C145.823 28.2301 146.29 28.8041 154.248 35.1391C155.917 36.3645 157.437 37.7807 158.777 39.3591C159.442 40.3101 159.084 40.4891 155.121 42.3511C152.989 43.3511 147.214 45.7711 144.313 46.7151C141.699 47.5661 142.055 45.5001 143.573 33.5801ZM145.704 30.0741C145.035 29.3571 145.593 31.1561 144.655 38.0891C143.63 45.6641 143.631 45.6411 143.633 45.6661C144.139 45.6331 143.538 45.4231 156.256 40.3411C156.692 40.1939 157.108 39.9923 157.494 39.7411C157.499 39.8401 148.079 32.6211 145.704 30.0741Z" fill="black"/>
</svg>
