<svg width="200" height="200" viewBox="0 0 200 200" fill="none" xmlns="http://www.w3.org/2000/svg">
<path fill-rule="evenodd" clip-rule="evenodd" d="M61.7101 115.79C60.2214 118.297 58.0313 120.313 55.4101 121.59C49.2601 124.4 42.0201 120.66 40.1701 119.45C40.1464 119.429 40.1163 119.418 40.0851 119.418C40.0538 119.418 40.0237 119.429 40.0001 119.45C39.9892 119.46 39.9805 119.473 39.9745 119.486C39.9686 119.5 39.9656 119.515 39.9656 119.53C39.9656 119.545 39.9686 119.56 39.9745 119.573C39.9805 119.587 39.9892 119.6 40.0001 119.61C42.2375 121.382 44.8798 122.571 47.6901 123.07C46.8901 123.55 42.4701 126.42 37.6201 126.67C29.6201 127.08 24.3801 121.37 22.8101 119.67C17.2201 113.49 17.6701 110.19 11.9901 106.94C9.85771 105.739 7.52185 104.942 5.10006 104.59C5.06974 104.587 5.03945 104.596 5.01531 104.614C4.99117 104.633 4.97499 104.66 4.97006 104.69C4.9672 104.706 4.96754 104.722 4.97105 104.737C4.97456 104.753 4.98117 104.768 4.99049 104.781C4.99981 104.794 5.01166 104.805 5.02532 104.813C5.03899 104.822 5.0542 104.827 5.07006 104.83C7.43843 105.238 9.71239 106.075 11.7801 107.3C17.3401 110.63 16.6901 113.76 22.3801 120.06C23.9801 121.83 29.3801 127.77 37.6501 127.2C39.5816 127.053 41.4797 126.615 43.2801 125.9C45.1184 125.214 46.8571 124.286 48.4501 123.14C54.5701 124.06 59.0501 121.34 61.8901 115.9C61.9043 115.872 61.907 115.84 61.8976 115.81C61.8883 115.78 61.8676 115.755 61.8401 115.74C61.8159 115.734 61.7904 115.735 61.7671 115.744C61.7438 115.753 61.7238 115.769 61.7101 115.79ZM78.3301 87.7799L72.9301 87.3799L72.1601 90.2999L77.7501 90.6599L78.3301 87.7799ZM104 96.8599C104.068 96.8642 104.135 96.8445 104.19 96.8043C104.245 96.7641 104.284 96.7059 104.3 96.6399L104.73 95.0399C104.747 95.002 104.755 94.9612 104.755 94.9199C104.755 94.8786 104.747 94.8377 104.73 94.7999C104.707 94.7636 104.677 94.733 104.64 94.7104C104.604 94.6879 104.563 94.674 104.52 94.6699L71.5201 92.3599C71.5043 92.357 71.4881 92.3573 71.4724 92.3608C71.4568 92.3644 71.442 92.371 71.4289 92.3803C71.4159 92.3896 71.4048 92.4015 71.3964 92.4151C71.3881 92.4288 71.3825 92.444 71.3801 92.4599C71.0301 93.9599 70.9301 94.1099 71.0001 94.2099C71.0104 94.2243 71.0239 94.2363 71.0394 94.245C71.055 94.2536 71.0723 94.2587 71.0901 94.2599L104 96.8599ZM79.3001 94.5499L71.1901 93.9999L71.5501 92.5999C72.3401 92.6599 102.41 95.0699 104.06 95.1899L103.79 96.1899C102.81 96.1799 81.8201 94.7099 79.3001 94.5499ZM85.0001 97.1699C85.0001 97.1699 82.8701 96.9799 81.0001 96.8599C79.5901 96.7699 78.3401 96.7199 78.3401 96.7199C78.2956 96.716 78.2512 96.7279 78.2146 96.7535C78.178 96.7791 78.1516 96.8167 78.1401 96.8599L77.8001 98.5299C77.7929 98.5455 77.7891 98.5626 77.7891 98.5799C77.7891 98.5971 77.7929 98.6142 77.8001 98.6299C77.8291 98.6406 77.861 98.6406 77.8901 98.6299L81.8901 99.0799L84.5401 99.3099C84.6083 99.3163 84.6766 99.2974 84.7319 99.2569C84.7872 99.2163 84.8257 99.1569 84.8401 99.0899L85.2701 97.4899C85.2866 97.452 85.2951 97.4112 85.2951 97.3699C85.2951 97.3286 85.2866 97.2877 85.2701 97.2499C85.2368 97.213 85.194 97.186 85.1463 97.1719C85.0987 97.1578 85.0481 97.1571 85.0001 97.1699ZM84.3301 98.7499L81.9201 98.5899L78.0901 98.4499L78.4801 97.1099C78.8501 97.1099 79.8601 97.2799 80.9801 97.3899C82.3701 97.5299 83.9201 97.6599 84.6001 97.7199L84.3301 98.7499ZM100.85 100.42C98.4401 97.5499 93.9301 101.66 96.4601 104.42C96.973 104.932 97.6618 105.23 98.3863 105.252C99.1108 105.274 99.8166 105.02 100.36 104.54C100.623 104.84 100.95 105.077 101.317 105.235C101.684 105.392 102.081 105.466 102.48 105.45C103.235 105.416 103.949 105.098 104.48 104.56C104.782 104.331 105.034 104.042 105.219 103.712C105.405 103.381 105.52 103.016 105.558 102.639C105.597 102.262 105.557 101.881 105.442 101.52C105.326 101.159 105.138 100.826 104.888 100.541C104.638 100.256 104.332 100.026 103.989 99.864C103.646 99.7024 103.274 99.6131 102.895 99.6018C102.516 99.5904 102.139 99.6572 101.788 99.7979C101.436 99.9387 101.117 100.15 100.85 100.42ZM96.1501 102.34C96.1453 101.835 96.2977 101.342 96.5861 100.928C96.8744 100.514 97.2845 100.2 97.7593 100.03C98.2341 99.8595 98.7502 99.8411 99.236 99.9773C99.7217 100.113 100.153 100.397 100.47 100.79C100.059 101.216 99.7953 101.761 99.7161 102.348C99.637 102.934 99.747 103.53 100.03 104.05C99.6995 104.356 99.2865 104.559 98.8419 104.634C98.3974 104.708 97.9408 104.651 97.5284 104.469C97.116 104.287 96.7657 103.989 96.5208 103.611C96.2759 103.232 96.147 102.791 96.1501 102.34ZM100.39 103.67C100.165 103.252 100.066 102.778 100.107 102.305C100.148 101.833 100.326 101.382 100.62 101.01C100.853 101.425 100.956 101.901 100.915 102.375C100.874 102.85 100.691 103.301 100.39 103.67ZM104.12 104.12C103.899 104.344 103.636 104.522 103.346 104.644C103.056 104.766 102.745 104.828 102.43 104.828C102.115 104.828 101.804 104.766 101.514 104.644C101.224 104.522 100.961 104.344 100.74 104.12C101.174 103.645 101.436 103.038 101.485 102.396C101.534 101.755 101.367 101.115 101.01 100.58C101.479 100.167 102.094 99.9584 102.717 99.9987C103.341 100.039 103.923 100.325 104.335 100.795C104.747 101.264 104.957 101.878 104.916 102.502C104.876 103.125 104.589 103.707 104.12 104.12ZM126.66 128C125.81 128.358 125.106 128.992 124.66 129.8C124.492 130.084 124.397 130.405 124.383 130.734C124.369 131.064 124.437 131.392 124.581 131.689C124.724 131.986 124.939 132.243 125.206 132.436C125.473 132.63 125.783 132.755 126.11 132.8C127.046 132.979 128.014 132.838 128.86 132.4C133 130.4 130.77 125.82 126.66 128ZM125 131.49C124.871 131.192 124.823 130.865 124.86 130.542C124.897 130.219 125.017 129.911 125.21 129.65C127.1 126.58 132.02 127.81 130.11 130.65C128.87 132.51 125.77 133 125 131.49ZM133.92 131.74C133.004 131.608 132.069 131.781 131.26 132.23C128.47 133.48 128.17 136.51 130.7 137.08C131.636 137.254 132.603 137.113 133.45 136.68C136.28 135.27 136.4 132.21 133.92 131.74ZM131.22 136.58C127.81 136.35 129.84 131.72 133.42 132.09C137 132.46 134.62 136.8 131.22 136.58ZM140.08 137C139.92 136.71 139.695 136.462 139.423 136.274C139.15 136.087 138.838 135.966 138.51 135.92C137.598 135.838 136.681 136.009 135.86 136.413C135.038 136.816 134.343 137.438 133.85 138.21C133.686 138.497 133.591 138.817 133.572 139.147C133.553 139.477 133.611 139.806 133.74 140.11C133.894 140.408 134.115 140.667 134.386 140.867C134.656 141.066 134.969 141.201 135.3 141.26C136.232 141.435 137.197 141.294 138.04 140.86C139.51 140.16 140.82 138.48 140.08 137ZM135.82 140.75C135.5 140.759 135.184 140.684 134.903 140.531C134.622 140.378 134.386 140.153 134.22 139.88C134.088 139.58 134.038 139.251 134.075 138.927C134.112 138.602 134.235 138.292 134.43 138.03C134.797 137.43 135.328 136.948 135.961 136.641C136.594 136.334 137.302 136.216 138 136.3C138.33 136.31 138.651 136.409 138.931 136.584C139.21 136.76 139.438 137.007 139.59 137.3C140.33 138.74 138.09 140.93 135.82 140.78V140.75ZM143.11 140.16C142.197 140.019 141.263 140.192 140.46 140.65C139.613 141.012 138.91 141.645 138.46 142.45C138.296 142.737 138.201 143.057 138.182 143.387C138.163 143.717 138.221 144.046 138.35 144.35C138.504 144.648 138.725 144.907 138.996 145.107C139.266 145.306 139.579 145.441 139.91 145.5C140.843 145.676 141.809 145.532 142.65 145.09C145.46 143.69 145.62 140.63 143.11 140.16ZM143.93 143.27C143.53 143.824 143 144.271 142.386 144.571C141.772 144.871 141.093 145.015 140.41 144.99C140.092 144.998 139.777 144.922 139.498 144.77C139.218 144.617 138.984 144.393 138.82 144.12C138.688 143.82 138.638 143.491 138.675 143.167C138.712 142.842 138.835 142.532 139.03 142.27C139.394 141.661 139.927 141.17 140.564 140.858C141.202 140.546 141.916 140.425 142.62 140.51C142.947 140.492 143.273 140.571 143.554 140.739C143.836 140.906 144.062 141.154 144.202 141.45C144.343 141.746 144.392 142.077 144.343 142.401C144.295 142.725 144.151 143.028 143.93 143.27Z" fill="black"/>
<path fill-rule="evenodd" clip-rule="evenodd" d="M132.52 128.91C133.455 129.064 134.414 128.923 135.264 128.505C136.114 128.087 136.812 127.414 137.26 126.58C138.34 124.24 135.78 122.58 133.08 124.06C130.27 125.31 130 128.35 132.52 128.91ZM135.24 123.91C138.65 124.27 136.5 128.62 133.03 128.4C129.56 128.18 131.65 123.55 135.24 123.92V123.91ZM140.33 127.78C139.417 127.643 138.484 127.815 137.68 128.27C133.45 130.16 135.62 134.79 139.86 132.72C142.68 131.32 142.84 128.25 140.33 127.78ZM139.6 132.19C137.21 133.38 134.95 132.01 136.25 129.89C136.623 129.288 137.157 128.804 137.792 128.493C138.427 128.182 139.137 128.056 139.84 128.13C142.32 128.39 142 131 139.6 132.19ZM146.45 135C146.619 134.711 146.713 134.384 146.723 134.05C146.734 133.715 146.66 133.384 146.508 133.085C146.357 132.787 146.133 132.531 145.858 132.341C145.582 132.152 145.263 132.034 144.93 132C144.017 131.907 143.096 132.072 142.272 132.477C141.448 132.882 140.754 133.51 140.27 134.29C140.107 134.576 140.011 134.897 139.992 135.227C139.973 135.556 140.031 135.886 140.16 136.19C141.18 138.33 145.31 137.46 146.45 135ZM140.84 134.1C141.215 133.498 141.751 133.015 142.388 132.703C143.024 132.392 143.736 132.266 144.44 132.34C144.767 132.322 145.093 132.401 145.374 132.569C145.656 132.736 145.882 132.984 146.022 133.28C146.163 133.576 146.212 133.907 146.164 134.231C146.115 134.555 145.971 134.858 145.75 135.1C143.85 137.92 139.05 137 140.84 134.1ZM146.88 136.69C146.031 137.049 145.327 137.683 144.88 138.49C143.71 140.75 146.22 142.49 149.07 141.13C149.935 140.729 150.639 140.05 151.07 139.2C151.218 138.899 151.294 138.569 151.294 138.235C151.294 137.9 151.218 137.57 151.07 137.27C150.35 135.85 148.3 135.92 146.88 136.69ZM150.35 139.31C149.953 139.869 149.42 140.316 148.8 140.61C146.39 141.8 144.15 140.4 145.44 138.31C145.831 137.714 146.368 137.228 147 136.9C147.645 136.606 148.355 136.485 149.06 136.55C149.387 136.532 149.713 136.611 149.994 136.779C150.276 136.946 150.502 137.194 150.642 137.49C150.783 137.786 150.832 138.117 150.784 138.441C150.735 138.765 150.591 139.068 150.37 139.31H150.35Z" fill="black"/>
<path fill-rule="evenodd" clip-rule="evenodd" d="M138.75 124.79C141.45 125.4 144.59 122.62 143.54 120.53C142.79 119.11 140.75 119.17 139.31 119.94C136.53 121.18 136.22 124.22 138.75 124.79ZM141.47 119.79C144.88 120.15 142.69 124.5 139.27 124.27C135.85 124.04 137.94 119.43 141.47 119.8V119.79ZM143.91 124.15C139.65 126.05 141.91 130.64 146.1 128.59C150.29 126.54 148 121.94 143.91 124.15ZM147.38 126.77C146.989 127.33 146.458 127.778 145.84 128.07C143.48 129.23 141.16 127.91 142.48 125.77C144.36 122.72 149.29 123.93 147.38 126.77ZM150.69 132.8C151.553 132.397 152.257 131.718 152.69 130.87C152.84 130.57 152.919 130.24 152.919 129.905C152.919 129.57 152.84 129.239 152.69 128.94C151.94 127.51 149.89 127.6 148.47 128.36C144.32 130.23 146.44 134.88 150.69 132.8ZM150.69 128.22C151.021 128.197 151.351 128.275 151.638 128.444C151.924 128.612 152.152 128.862 152.294 129.163C152.435 129.463 152.483 129.799 152.431 130.127C152.378 130.454 152.228 130.759 152 131C150.1 133.82 145.29 132.93 147.1 130C147.466 129.396 147.996 128.909 148.628 128.594C149.26 128.279 149.968 128.149 150.67 128.22H150.69ZM153.11 132.57C152.259 132.926 151.553 133.56 151.11 134.37C150.942 134.654 150.847 134.975 150.833 135.304C150.819 135.634 150.887 135.962 151.031 136.259C151.174 136.556 151.389 136.812 151.656 137.006C151.923 137.2 152.233 137.325 152.56 137.37C153.492 137.55 154.458 137.409 155.3 136.97C159.51 134.92 157.19 130.37 153.11 132.57ZM151.47 136C151.338 135.702 151.288 135.375 151.325 135.051C151.362 134.728 151.485 134.42 151.68 134.16C153.06 131.91 156.22 131.95 156.86 133.35C158 135.79 152.6 138.27 151.47 136ZM143.43 119.52C143.583 119.819 143.804 120.079 144.075 120.279C144.345 120.478 144.659 120.612 144.99 120.67C145.923 120.822 146.88 120.679 147.728 120.262C148.576 119.844 149.272 119.172 149.72 118.34C149.875 118.043 149.961 117.715 149.969 117.381C149.978 117.046 149.91 116.714 149.77 116.41C148.28 113.56 142.1 116.62 143.43 119.52ZM147.71 115.68C148.037 115.662 148.363 115.741 148.644 115.909C148.926 116.076 149.152 116.324 149.292 116.62C149.433 116.916 149.482 117.247 149.433 117.571C149.385 117.895 149.241 118.198 149.02 118.44C148.623 118.999 148.09 119.446 147.47 119.74C146.27 120.33 144.47 120.41 143.91 119.29C143.17 117.9 145.11 115.41 147.71 115.68Z" fill="black"/>
<path fill-rule="evenodd" clip-rule="evenodd" d="M148 123.73C149.44 126.73 155.87 123.64 154.34 120.61C154.178 120.324 153.951 120.078 153.679 119.893C153.407 119.707 153.096 119.587 152.77 119.54C150.42 119.1 147 121.53 148 123.73ZM150.22 120.24C150.866 119.948 151.574 119.824 152.28 119.88C152.61 119.892 152.93 119.991 153.209 120.167C153.488 120.343 153.716 120.588 153.87 120.88C154.41 122.02 153.27 123.39 152.04 123.99C148.52 125.7 146.77 122.12 150.25 120.24H150.22Z" fill="black"/>
<path fill-rule="evenodd" clip-rule="evenodd" d="M156.93 128.68C157.795 128.279 158.499 127.599 158.93 126.75C159.099 126.461 159.193 126.134 159.203 125.8C159.213 125.465 159.14 125.134 158.988 124.835C158.837 124.537 158.613 124.281 158.338 124.091C158.062 123.902 157.743 123.784 157.41 123.75C156.496 123.617 155.563 123.793 154.76 124.25C150.55 126.1 152.67 130.76 156.93 128.68ZM154.85 124.45C155.494 124.153 156.204 124.029 156.91 124.09C157.24 124.102 157.56 124.201 157.839 124.377C158.118 124.552 158.346 124.798 158.5 125.09C158.615 125.389 158.649 125.713 158.598 126.029C158.547 126.345 158.413 126.642 158.21 126.89C157.822 127.452 157.29 127.901 156.67 128.19C156.053 128.507 155.363 128.655 154.67 128.62C152.21 128.41 152.48 125.72 154.85 124.45ZM157.22 132.15C158.22 134.28 162.36 133.45 163.52 130.96C163.668 130.659 163.744 130.329 163.744 129.995C163.744 129.66 163.668 129.33 163.52 129.03C163.359 128.756 163.139 128.522 162.876 128.343C162.613 128.165 162.314 128.048 162 128C161.084 127.868 160.15 128.04 159.34 128.49C157.87 129.1 156.56 130.68 157.22 132.15ZM159.45 128.65C160.091 128.354 160.798 128.234 161.5 128.3C161.831 128.312 162.153 128.41 162.434 128.586C162.715 128.761 162.944 129.007 163.1 129.3C163.215 129.599 163.249 129.923 163.198 130.239C163.147 130.555 163.013 130.852 162.81 131.1C160.91 133.93 156.11 133.03 157.91 130.1C158.29 129.492 158.821 128.993 159.45 128.65Z" fill="black"/>
<path fill-rule="evenodd" clip-rule="evenodd" d="M195 141.17C188.63 133.56 178.05 123.64 169 118.17C162.35 114.17 155.51 113.32 151 114.46C149.472 113.228 147.932 112.011 146.38 110.81C142.76 108.02 139.09 105.32 135.69 102.91C128.23 97.6098 122.12 93.6998 120.86 93.1898C119.673 92.7452 118.432 92.4627 117.17 92.3498C115.403 92.1959 113.627 92.1959 111.86 92.3498L112.31 89.6698C112.374 89.2878 112.356 88.8967 112.259 88.5219C112.162 88.147 111.987 87.7969 111.745 87.4941C111.504 87.1914 111.202 86.9428 110.858 86.7646C110.514 86.5864 110.137 86.4825 109.75 86.4598C68.8499 84.0998 71.6199 84.1098 70.5999 84.8198C69.2899 85.7398 69.67 86.5498 66.91 94.9398C62.71 91.0698 57.5299 86.8098 52.8299 83.2098C40.5699 73.8398 31.2399 77.1298 21.3099 75.8798C16.7299 75.2998 11.8799 74.4198 11.8799 74.4198C11.8642 74.4169 11.848 74.4172 11.8323 74.4208C11.8167 74.4243 11.8019 74.4309 11.7888 74.4402C11.7758 74.4495 11.7647 74.4614 11.7563 74.475C11.7479 74.4887 11.7424 74.5039 11.7399 74.5198C11.7367 74.5513 11.7451 74.5829 11.7635 74.6087C11.7819 74.6345 11.8091 74.6526 11.8399 74.6598C11.9399 74.6598 23.3599 76.8598 27.6299 76.7898C32.032 76.4404 36.4616 76.7778 40.7599 77.7898C45.0271 78.9896 49.0117 81.0294 52.4799 83.7898C58.4542 88.2993 64.1512 93.1647 69.5399 98.3598C71.373 100.042 72.9557 101.979 74.2399 104.11C75.2399 106.11 73.7499 106.39 72.2399 106.64C69.9199 107.04 66.3099 106.57 61.7399 104.42C57.1699 102.27 51.5699 98.1598 45.7399 91.4198C45.7399 91.4198 45.4999 91.4898 45.4499 91.5298C45.4391 91.54 45.4304 91.5524 45.4244 91.5662C45.4185 91.58 45.4154 91.5948 45.4154 91.6098C45.4154 91.6247 45.4185 91.6396 45.4244 91.6533C45.4304 91.6671 45.4391 91.6795 45.4499 91.6898C51.1999 98.5898 56.7799 102.69 61.5099 105C64.0596 106.347 66.8492 107.179 69.7199 107.45C68.6547 109.418 67.2536 111.184 65.5799 112.67C64.1723 113.774 62.5491 114.571 60.8148 115.01C59.0805 115.45 57.2735 115.521 55.5099 115.22C51.9441 114.692 48.5336 113.402 45.5099 111.44C45.4997 111.429 45.4873 111.42 45.4735 111.414C45.4598 111.408 45.4449 111.405 45.4299 111.405C45.415 111.405 45.4001 111.408 45.3864 111.414C45.3726 111.42 45.3602 111.429 45.3499 111.44C45.339 111.45 45.3304 111.462 45.3244 111.476C45.3185 111.49 45.3154 111.505 45.3154 111.52C45.3154 111.535 45.3185 111.55 45.3244 111.563C45.3304 111.577 45.339 111.589 45.3499 111.6C48.3228 113.812 51.7828 115.28 55.4399 115.88C57.3001 116.19 59.2051 116.098 61.0267 115.609C62.8483 115.121 64.5441 114.248 65.9999 113.05C67.7959 111.477 69.2668 109.567 70.3299 107.43C71.61 107.534 72.8962 107.328 74.0799 106.83L87.3499 108C85.5499 109.16 83.0199 112.8 81.9199 114.64C81.5199 115.3 81.2899 115.72 81.2899 115.72C81.2695 115.743 81.2583 115.774 81.2583 115.805C81.2583 115.836 81.2695 115.866 81.2899 115.89C80.9499 116.59 79.3599 120.74 84.6099 127.03C88.6099 131.85 96.4199 134.56 100.8 130.8L107.96 135.48C105.76 135.03 102.51 134.85 100.63 136.11C96.6299 138.81 102.84 142.69 107.39 145.45C107.83 145.72 111.39 147.89 116.49 150.35C117.565 152.058 119.024 153.493 120.75 154.54C122.728 155.716 124.97 156.376 127.27 156.46C128.291 157.662 129.488 158.704 130.82 159.55C134.08 161.55 138.55 162.35 149.96 161.97C157.044 161.736 164.106 161.042 171.1 159.89C173.03 163.28 176.58 168.76 176.84 169.14C177.26 169.76 178.68 171.77 178.94 172.14C178.963 172.158 178.991 172.167 179.02 172.167C179.049 172.167 179.077 172.158 179.1 172.14C179.12 172.118 179.13 172.089 179.13 172.06C179.13 172.03 179.12 172.002 179.1 171.98C178.85 171.57 177.63 169.44 177.25 168.8C177.18 168.68 173.8 163.27 171.33 159.8C172.66 159.57 173.95 159.33 175.21 159.08C175.225 159.077 175.238 159.072 175.251 159.064C175.263 159.056 175.274 159.046 175.283 159.034C175.291 159.022 175.297 159.008 175.3 158.994C175.303 158.979 175.303 158.964 175.3 158.95C175.298 158.934 175.292 158.919 175.284 158.905C175.275 158.891 175.264 158.88 175.251 158.87C175.238 158.861 175.223 158.854 175.208 158.851C175.192 158.847 175.176 158.847 175.16 158.85C166.807 160.261 158.367 161.097 149.9 161.35C138.72 161.68 134.3 160.98 131.07 159.02C127.4 156.79 120.88 147.79 119.66 143.88C117.58 137.21 123.66 138.99 127.47 143C132.18 147.91 134.01 152.18 137.03 154C139.075 155.141 141.274 155.98 143.56 156.49C143.555 156.499 143.552 156.509 143.552 156.52C143.552 156.53 143.555 156.541 143.56 156.55C143.564 156.564 143.572 156.576 143.581 156.587C143.591 156.598 143.602 156.608 143.615 156.614C143.628 156.621 143.643 156.624 143.657 156.625C143.672 156.626 143.686 156.624 143.7 156.62C150.7 154.4 157.79 150.73 162.64 146.34C164.861 144.434 166.663 142.088 167.93 139.45C168.764 137.645 169.079 135.644 168.84 133.67C168.66 132.34 167.66 130.6 166.05 128.6C163.162 125.222 159.998 122.091 156.59 119.24C154.87 117.74 153.04 116.24 151.15 114.7C154.088 114.187 157.103 114.309 159.99 115.06C163.04 115.807 165.953 117.032 168.62 118.69C175.06 122.63 182.03 128.69 187.45 133.9C190.45 136.81 193.03 139.45 194.71 141.36C194.73 141.382 194.758 141.396 194.788 141.398C194.818 141.4 194.847 141.39 194.87 141.37C194.892 141.35 194.906 141.322 194.908 141.292C194.91 141.262 194.9 141.232 194.88 141.21L195 141.17ZM74.4199 106.62C75.2399 106.08 75.6499 105.43 74.8699 103.86C73.6147 101.757 72.0695 99.8415 70.2799 98.1698C76.9999 98.9698 76.7399 98.8298 76.8099 98.5798L77.2299 96.9798C77.2467 96.9402 77.2554 96.8977 77.2554 96.8548C77.2554 96.8118 77.2467 96.7693 77.2299 96.7298C77.2041 96.6951 77.1711 96.6664 77.1331 96.6457C77.0951 96.625 77.0531 96.6127 77.0099 96.6098C70.0699 96.1098 70.2399 96.0698 70.1799 96.3098L69.8899 97.7298C69.0399 96.8798 68.4899 96.3498 67.5099 95.4398C70.5099 86.7698 69.6999 85.8898 70.8399 85.1098C71.8399 84.4498 68.7799 84.5598 109.74 87.0198C110.043 87.0393 110.339 87.1223 110.609 87.2636C110.878 87.4048 111.115 87.601 111.303 87.8396C111.492 88.0781 111.628 88.3536 111.703 88.6483C111.779 88.9429 111.791 89.25 111.74 89.5498L108.82 107.12C108.728 107.658 108.439 108.143 108.01 108.48C107.581 108.822 107.037 108.987 106.49 108.94L74.4199 106.62ZM70.0699 97.8898L70.4599 96.5598C72.5599 96.8198 74.4599 96.9898 76.5799 97.1698L76.3099 98.1698L73.8999 97.9998C73.2399 97.9998 70.3599 97.8998 70.0699 97.8898ZM107.73 144.89C105.42 143.46 101.96 141.2 100.52 139.43C99.0799 137.66 100.63 136.23 102.75 135.72C104.87 135.21 107.43 135.87 108.75 136.16L111.29 137.53C112.504 141.803 114.181 145.93 116.29 149.84C112.3 147.7 107.82 145 107.73 144.92V144.89ZM119.73 139.55C119.73 139.55 118.45 140.69 119.4 143.95C120.47 147.59 125.29 154.06 127.04 156.11C124.906 155.882 122.853 155.167 121.04 154.02C119.092 152.791 117.508 151.065 116.45 149.02C114.544 145.285 112.916 141.414 111.58 137.44C111.07 135.94 110.77 134.91 110.67 134.57C110.632 134.312 110.649 134.049 110.719 133.798C110.79 133.547 110.913 133.313 111.08 133.113C111.247 132.913 111.455 132.75 111.689 132.636C111.923 132.522 112.179 132.458 112.44 132.45C115.78 132.11 119.53 139.37 119.75 139.54L119.73 139.55ZM156.26 119.61C159.642 122.441 162.783 125.548 165.65 128.9C166.266 129.647 166.831 130.436 167.34 131.26C166.52 131.9 165.68 132.52 164.85 133.13C162.19 135.13 158.05 137.96 154.12 140.46C148.25 144.2 144.05 146.46 140.12 148.7C140.1 148.722 140.089 148.75 140.089 148.78C140.089 148.809 140.1 148.838 140.12 148.86C140.126 148.873 140.135 148.885 140.146 148.895C140.157 148.904 140.17 148.912 140.184 148.917C140.198 148.921 140.213 148.923 140.228 148.922C140.243 148.921 140.257 148.917 140.27 148.91C145.17 146.539 149.919 143.867 154.49 140.91C158.171 138.599 161.723 136.089 165.13 133.39C165.93 132.75 166.72 132.1 167.51 131.39C167.933 132.066 168.224 132.816 168.37 133.6C168.603 135.47 168.309 137.368 167.52 139.08C166.302 141.659 164.562 143.957 162.41 145.83C157.64 150.23 150.67 153.97 143.73 156.25C143.33 155.25 140.16 147.78 134.73 142.89C128.95 137.63 95.2399 112.63 90.5799 111.99C86.4799 111.41 84.9199 111.81 82.4299 114.44C84.1099 112.23 86.7899 108.5 87.8099 107.88L98.5399 108.76C97.6799 109.3 96.8499 109.85 96.0599 110.38C96.0599 110.38 110.19 119.6 118.83 125.91C118.83 125.91 140.31 115.19 144.59 112.79C144.59 112.79 125.5 98.7898 121.33 95.8798C121.33 95.8798 116.33 98.4398 110.22 101.88L111.79 92.7698C113.562 92.6353 115.343 92.662 117.11 92.8498C120.11 93.1898 120.61 92.8498 135.23 103.4C138.61 105.83 142.39 108.4 146 111.2C149.61 114 153.13 116.89 156.3 119.64L156.26 119.61ZM137.11 72.1298L126.62 93.8198C126.586 93.8799 126.577 93.9507 126.593 94.0177C126.61 94.0846 126.652 94.1426 126.71 94.1798C126.762 94.2229 126.827 94.2464 126.895 94.2464C126.962 94.2464 127.028 94.2229 127.08 94.1798L145.35 75.8598C149.519 76.9134 153.889 76.886 158.045 75.7801C162.201 74.6742 166.006 72.5264 169.1 69.5398C171.422 67.2974 173.269 64.6095 174.528 61.6369C175.788 58.6643 176.435 55.4682 176.43 52.2398C176.405 49.0063 175.743 45.8095 174.481 42.8323C173.219 39.8551 171.382 37.156 169.076 34.8896C166.77 32.6232 164.039 30.8339 161.04 29.6242C158.041 28.4145 154.833 27.8081 151.6 27.8398C137.8 27.8398 126.6 38.7298 126.6 52.2098C126.6 56.1745 127.583 60.0775 129.46 63.5698C131.302 66.9848 133.923 69.9174 137.11 72.1298ZM151.6 28.3198C163.6 28.3198 175.83 37.7798 175.83 52.2098C175.884 55.3398 175.29 58.4472 174.085 61.3366C172.881 64.226 171.091 66.8351 168.83 68.9998C166.179 71.6149 162.955 73.5772 159.414 74.7314C155.874 75.8856 152.113 76.2 148.43 75.6498C147.391 75.5941 146.355 75.4773 145.33 75.2998C145.05 75.2298 146.2 74.2998 127.86 92.5398L137.73 72.1498C137.763 72.0884 137.771 72.0168 137.752 71.9497C137.734 71.8826 137.69 71.8253 137.63 71.7898C134.441 69.6146 131.823 66.7022 130 63.2998C128.157 59.8936 127.192 56.0824 127.19 52.2098C127.15 39.0598 138.1 28.3398 151.6 28.3198Z" fill="black"/>
<path fill-rule="evenodd" clip-rule="evenodd" d="M151.78 66.7696C154.704 66.7696 157.562 65.9025 159.992 64.278C162.423 62.6535 164.317 60.3446 165.436 57.6434C166.554 54.9421 166.846 51.9698 166.275 49.1025C165.704 46.2352 164.295 43.6017 162.227 41.535C160.159 39.4684 157.525 38.0615 154.657 37.4924C151.79 36.9232 148.817 37.2173 146.117 38.3375C143.416 39.4577 141.109 41.3537 139.486 43.7856C137.863 46.2174 136.998 49.076 137 51.9996C137.003 55.9178 138.561 59.6746 141.332 62.4442C144.104 65.2138 147.862 66.7696 151.78 66.7696ZM162.56 49.3996C163.129 51.7431 162.917 54.2082 161.958 56.4207C160.999 58.6332 159.344 60.4723 157.244 61.6589C155.145 62.8455 152.716 63.3147 150.325 62.9954C147.935 62.6761 145.714 61.5856 144 59.8896L162.56 49.3996ZM151.78 40.8996C153.612 40.9041 155.414 41.3633 157.025 42.236C158.636 43.1086 160.005 44.3675 161.01 45.8996L141.72 56.6396C141.051 55.1811 140.71 53.594 140.72 51.9896C140.72 49.0535 141.884 46.2373 143.958 44.1584C146.031 42.0795 148.844 40.9075 151.78 40.8996Z" fill="black"/>
</svg>
