<svg width="200" height="200" viewBox="0 0 200 200" fill="none" xmlns="http://www.w3.org/2000/svg">
<path d="M117.379 151.075C117.193 150.117 116.792 149.213 116.205 148.433C115.618 147.653 114.861 147.017 113.992 146.573C113.123 146.129 112.164 145.889 111.188 145.87C110.212 145.852 109.244 146.056 108.359 146.467C101.276 149.28 104.326 160.34 112.187 158.874C113.043 158.709 113.858 158.376 114.584 157.893C115.31 157.41 115.933 156.788 116.416 156.062C116.9 155.336 117.234 154.521 117.399 153.665C117.564 152.809 117.557 151.929 117.379 151.075ZM111.05 158C103.043 157.368 104.05 146.89 110.826 146.78C118.212 146.658 118.635 157.481 111.05 158Z" fill="black"/>
<path d="M107.422 152.4C107.412 153.292 107.75 154.152 108.365 154.799C108.979 155.446 109.821 155.828 110.712 155.864C111.172 155.886 111.632 155.813 112.063 155.65C112.494 155.486 112.887 155.237 113.218 154.916C113.548 154.595 113.809 154.209 113.985 153.783C114.161 153.357 114.247 152.9 114.239 152.439C114.254 147.915 107.581 148.045 107.422 152.4ZM109.295 154.445C108.8 154.093 108.447 153.575 108.299 152.986C108.151 152.397 108.218 151.774 108.488 151.23C108.758 150.685 109.213 150.255 109.772 150.016C110.33 149.777 110.956 149.745 111.536 149.926C112.019 150.07 112.448 150.355 112.767 150.745C113.087 151.135 113.283 151.611 113.329 152.113C113.369 152.599 113.27 153.087 113.044 153.519C112.818 153.951 112.474 154.31 112.052 154.554C111.63 154.798 111.147 154.918 110.66 154.899C110.172 154.879 109.701 154.722 109.299 154.445H109.295Z" fill="black"/>
<path fill-rule="evenodd" clip-rule="evenodd" d="M98.7444 111.946C103.849 113.227 108.678 114.327 112.98 115.2C114.721 115.554 116.315 115.851 117.77 116.122C130.489 118.493 132.556 118.878 129.332 137.649C129.313 137.759 129.285 137.931 129.25 138.145C129.083 139.168 128.756 141.16 128.496 142.088C128.387 142.476 128.361 142.769 128.343 142.98C128.312 143.324 128.301 143.447 127.982 143.399C126.31 143.145 125.176 143.006 124.151 142.881C121.77 142.59 119.972 142.37 113.382 140.947C112.486 140.753 111.606 140.531 110.753 140.315C106.791 139.313 103.402 138.456 101.553 141.309C100.748 142.552 96.9955 155.188 97.8475 157.24C98.5735 158.99 99.4715 160.347 102.748 161.585C109.103 163.774 115.632 165.424 122.264 166.515C122.317 166.524 122.358 166.527 122.383 166.548C122.481 166.633 122.329 167.009 121.656 169.204C121.331 170.263 121.02 171.282 120.721 172.261C114.815 191.589 113.56 195.697 103.556 193.714C102.568 193.518 101.601 193.329 100.646 193.141C91.7477 191.397 83.9352 189.866 70.1835 185.384C53.6835 180.006 39.7675 173.733 31.4985 169.093C21.3803 163.415 22.1767 157.402 24.4995 139.864C24.8513 137.208 25.2382 134.286 25.6275 131.062C25.6334 131.012 25.6244 130.971 25.6409 130.95C25.7169 130.85 26.3312 131.163 31.3995 132.949C33.0239 133.522 33.6397 133.535 34.0318 133.838C34.6792 134.338 34.7167 135.628 37.6755 141.528C38.5115 143.196 43.3615 152.249 45.3585 155.022C46.7825 156.999 55.1335 158.922 57.4885 159.439C58.0541 159.563 58.0626 159.638 58.0832 159.819C58.0848 159.834 58.0865 159.848 58.0885 159.864C58.1024 159.986 58.1141 160.097 58.1252 160.202C58.2266 161.159 58.2794 161.658 59.5375 166.322C59.7843 167.237 60.0006 167.705 60.1217 167.968C60.2699 168.289 60.2755 168.301 60.0195 168.446L59.9993 168.457C58.9753 169.04 58.3531 169.393 58.1415 170.662C57.9976 171.292 58.0512 171.952 58.295 172.551C58.5387 173.15 58.9608 173.659 59.504 174.01C60.0472 174.361 60.6852 174.536 61.3314 174.512C61.9776 174.488 62.6007 174.265 63.1162 173.875C63.6316 173.484 64.0145 172.945 64.2127 172.329C64.411 171.714 64.4151 171.052 64.2245 170.434C64.0339 169.816 63.6578 169.272 63.1472 168.875C62.6366 168.478 62.0164 168.248 61.3705 168.216C61.1684 168.204 61.0326 168.198 60.9287 168.138C60.4921 167.883 60.6198 166.66 58.7545 159.939C58.6448 159.546 58.7149 159.373 58.6619 159.255C58.5219 158.943 57.5205 159.017 50.0485 156.439C49.1667 156.135 48.499 155.914 47.9885 155.746C46.469 155.243 46.3428 155.202 46.1085 154.793C45.6165 153.936 34.2805 133.914 35.2315 134.185C41.1863 135.885 41.8912 135.971 42.1426 136.355C42.1945 136.434 42.2271 136.526 42.2825 136.647C42.7645 137.705 45.7385 143.366 47.2825 145.82C47.5985 146.324 47.8244 146.65 47.9758 146.87C48.2796 147.309 48.2834 147.315 48.1125 147.442C47.6452 147.801 47.2924 148.289 47.0968 148.845C46.9011 149.401 46.8712 150.002 47.0105 150.575C47.1499 151.148 47.4526 151.668 47.8818 152.072C48.311 152.476 48.8483 152.747 49.4285 152.852C53.4535 153.432 54.3205 147.747 50.7195 146.923C49.1615 146.566 48.9054 147.129 48.6994 147.111C48.4012 147.085 48.208 145.843 44.3195 138.832C43.4578 137.277 43.0355 136.672 43.1542 136.535C43.2636 136.408 43.8326 136.68 44.9405 136.973C49.937 138.294 50.4515 138.206 50.6583 138.419C50.7103 138.472 50.7429 138.544 50.8225 138.663C52.3277 140.909 52.7871 141.613 53.276 142.297C53.7651 142.98 54.2837 143.643 55.9085 145.806C56.0621 146.01 56.2065 146.205 56.3441 146.39C57.3319 147.721 57.9686 148.579 59.1175 149.106C66.6616 152.585 68.2027 152.039 68.9103 152.581C69.2336 152.829 69.3829 153.304 69.8515 154.494C71.5824 158.888 72.0843 159.446 71.9747 159.621C71.9454 159.668 71.8728 159.687 71.7685 159.744C71.0937 160.137 70.5617 160.734 70.2499 161.45C69.9382 162.166 69.8629 162.963 70.0351 163.724C70.2073 164.486 70.618 165.173 71.2074 165.685C71.7968 166.197 72.5342 166.508 73.3124 166.572C74.0905 166.636 74.8689 166.45 75.5342 166.041C76.1995 165.633 76.717 165.023 77.0116 164.299C77.3062 163.576 77.3625 162.778 77.1722 162.021C76.9819 161.264 76.555 160.587 75.9535 160.089C75.505 159.707 74.9694 159.441 74.3939 159.315C73.8185 159.189 73.2208 159.206 72.6535 159.365C72.5175 159.385 72.4843 159.263 72.3645 158.825C72.1673 158.103 71.7354 156.522 70.2235 153.299C70.1105 152.905 69.8983 152.546 69.6072 152.257C69.3161 151.968 68.9557 151.758 68.5605 151.648C65.0212 150.385 63.6371 149.872 62.9126 149.604C62.282 149.37 62.1511 149.322 61.5335 149.125C58.7695 148.252 58.6265 148.069 58.3445 147.677C57.0866 145.925 55.3692 143.59 53.9322 141.635C52.8697 140.191 51.9605 138.954 51.5035 138.316C51.0596 137.696 51.0318 137.688 48.446 136.995C46.0864 136.362 41.5966 135.159 32.7165 132.397C32.6915 132.397 27.2995 130.707 25.8165 130.053C26.208 126.737 26.3025 126.783 26.5495 126.902C26.5706 126.912 26.5929 126.923 26.6165 126.932C37.2614 131.039 46.847 133.341 51.5562 134.472C53.0298 134.826 54.0259 135.065 54.4275 135.209C54.7985 135.342 56.1763 137.232 57.7363 139.372C59.0062 141.115 60.3969 143.022 61.4635 144.283C62.0321 144.954 62.3142 145.058 66.5787 146.625C66.9195 146.75 67.2857 146.885 67.6795 147.03C76.4072 150.243 77.4161 150.413 77.4347 150.658C77.4384 150.708 77.401 150.761 77.3795 150.844C77.2306 151.51 77.2622 152.203 77.4711 152.852C77.6799 153.502 78.0585 154.083 78.5675 154.537C79.0766 154.991 79.6976 155.301 80.3665 155.435C81.0354 155.568 81.7279 155.521 82.3722 155.297C83.0166 155.073 83.5895 154.681 84.0317 154.162C84.4738 153.643 84.7692 153.015 84.8873 152.343C85.0054 151.671 84.9419 150.98 84.7034 150.341C84.4648 149.702 84.0599 149.138 83.5305 148.708C82.819 148.138 81.9302 147.836 81.0189 147.855C80.1076 147.873 79.2316 148.21 78.5435 148.808C77.8181 149.421 77.7859 149.808 77.6094 149.892C77.2104 150.083 76.0741 148.732 64.5305 144.977C63.6361 144.686 63.2248 144.675 62.8757 144.522C62.1047 144.184 61.6376 143.153 56.9395 136.877C56.2025 135.894 55.8536 135.349 55.3746 134.966C54.3914 134.18 52.8602 134.08 46.2985 132.291C45.9895 132.207 27.4385 126.591 26.5045 126.237C26.513 126.157 26.5205 126.077 26.5279 125.997C26.5459 125.804 26.564 125.61 26.5965 125.419C26.9017 123.631 26.9375 123.253 27.0678 123.217C27.1057 123.206 27.1516 123.225 27.2145 123.246C27.8527 123.461 28.6586 123.742 29.5389 124.05C31.8661 124.864 34.7137 125.859 36.3585 126.278C38.2687 126.764 39.6468 127.148 40.676 127.435C43.4913 128.22 43.6975 128.277 45.0485 127.707C50.7933 125.283 51.2502 124.126 51.9271 123.978C52.5687 123.838 53.4081 124.606 59.1355 126.061C60.4152 126.469 61.7324 126.748 63.0675 126.894C63.1192 126.897 63.1504 126.892 63.1776 126.9C63.3682 126.955 63.3685 127.66 68.8615 136.385C69.239 136.981 70.5323 137.365 71.9047 137.772C72.3502 137.905 72.804 138.04 73.2375 138.185C78.854 140.056 79.8073 139.863 79.9879 140.152C80.0299 140.22 80.0302 140.313 80.0375 140.464C80.0529 141.301 80.3591 142.107 80.9035 142.744C81.4478 143.38 82.1966 143.807 83.0214 143.952C83.8462 144.097 84.6957 143.951 85.4244 143.538C86.1531 143.125 86.7156 142.472 87.0155 141.69C88.6325 137.299 82.2875 134.69 80.3265 139.035C80.2421 139.223 80.2212 139.354 80.1446 139.415C79.8533 139.649 78.757 138.877 70.3165 136.379C69.4495 136.123 68.9895 135.311 68.3855 134.224C66.2714 130.423 65.116 128.618 64.5453 127.726C64.02 126.905 63.99 126.858 64.1635 126.741C64.4663 126.536 64.9913 126.25 65.8173 125.8C66.4915 125.434 67.3663 124.958 68.4845 124.327C69.6879 123.647 70.5058 123.16 71.0808 122.817C72.3664 122.051 72.4382 122.008 72.8915 122.154C79.6823 124.342 82.7541 125.005 84.1275 125.301C85.1752 125.527 85.2345 125.54 85.2025 125.854C85.1325 126.541 85.2816 127.232 85.6285 127.828C85.9754 128.425 86.5022 128.896 87.1335 129.175C87.7973 129.465 88.5394 129.524 89.2404 129.341C89.9415 129.159 90.5607 128.745 90.9985 128.168C91.4364 127.591 91.6673 126.883 91.6543 126.159C91.6412 125.435 91.3849 124.736 90.9265 124.175C90.4313 123.527 89.7023 123.098 88.8953 122.981C88.0883 122.863 87.2672 123.065 86.6075 123.545C85.8104 124.183 85.588 124.594 85.469 124.815C85.3641 125.009 85.3396 125.054 85.0725 124.974C84.7555 124.883 83.6771 124.541 82.2831 124.1C79.0911 123.089 74.2436 121.553 73.0875 121.298C71.8085 121.015 64.7565 125.349 63.7655 126.106C63.371 126.407 63.3338 126.396 60.4459 125.565C59.7839 125.375 58.9719 125.141 57.9715 124.858C57.8435 124.822 53.1435 123.486 52.8015 123.342C52.114 123.054 51.7908 123.232 50.0899 124.17C49.6484 124.413 49.1141 124.708 48.4565 125.059C46.0165 126.36 45.2279 126.759 44.832 126.96C44.5819 127.087 44.4884 127.134 44.2345 127.279C44.1841 127.308 44.1447 127.335 44.1027 127.358C43.7396 127.553 43.1783 127.378 33.6685 124.501C28.2552 122.864 27.1835 122.734 27.1154 122.399C27.0854 122.252 27.2505 122.065 27.3245 121.691C27.4723 120.947 27.4263 120.481 27.6351 120.282C28.1721 119.769 30.3945 121.022 41.9335 123.864C42.0386 123.89 42.1178 123.91 42.198 123.915C42.6187 123.942 43.0666 123.537 47.4395 121.172C51.0736 119.206 51.0923 119.214 51.3288 119.309C51.3424 119.314 51.3567 119.32 51.3725 119.326C54.2262 120.212 57.1274 120.937 60.0625 121.498C60.3638 121.563 60.6174 121.627 60.8385 121.682C61.6675 121.89 62.0397 121.983 62.7565 121.612C71.4929 117.083 72.3278 115.768 72.7088 115.889C72.7909 115.915 72.8519 116.007 72.9665 116.149C73.3608 116.652 73.904 117.017 74.5183 117.192C75.1326 117.367 75.7866 117.343 76.3867 117.124C76.9867 116.905 77.5022 116.502 77.8593 115.973C78.2164 115.443 78.3969 114.814 78.3749 114.176C78.3529 113.537 78.1296 112.922 77.7369 112.418C77.3441 111.914 76.8022 111.548 76.1884 111.371C75.5747 111.193 74.9206 111.215 74.3199 111.432C73.7191 111.649 73.2023 112.05 72.8435 112.579C72.2122 113.421 72.3127 114.212 72.3809 114.75C72.4229 115.081 72.4527 115.316 72.2905 115.405C63.4983 120.264 62.835 121.083 62.1312 121.12C61.9975 121.127 61.8623 121.105 61.6695 121.078C60.4213 120.902 54.9544 119.461 53.9229 119.189C53.8355 119.166 53.78 119.152 53.7615 119.147C50.962 118.418 50.8349 118.484 50.1576 118.835C50.1144 118.858 50.069 118.881 50.0205 118.906C44.5633 121.672 43.4589 122.869 42.2391 123.001C40.7028 123.167 38.9835 121.644 28.1525 119.437C28.0183 119.409 27.9209 119.412 27.8658 119.366C27.7227 119.244 27.8659 118.785 28.3945 116.571C30.3435 107.787 33.0747 99.1943 36.5555 90.8969C37.9995 87.6169 39.2975 86.4689 47.5555 86.5229C54.3703 86.5714 62.8204 87.646 71.6066 89.2415C71.5957 88.9051 71.592 88.5683 71.5955 88.2313C65.6707 87.1324 60.2251 86.3441 55.9395 86.0859C55.3697 86.0515 54.5635 86.0118 53.9218 85.9802C53.3868 85.9539 52.9662 85.9332 52.8925 85.9259C51.2089 85.75 49.5157 85.6832 47.8235 85.7259C47.641 85.7259 47.4567 85.7255 47.2709 85.7252C43.2617 85.7176 38.5607 85.7087 36.6885 89.1779C30.4795 100.678 25.8285 121.462 24.0585 135.419C23.8919 136.733 23.7296 137.989 23.5741 139.193C20.3177 164.398 20.0808 166.232 47.5635 178.108C59.4892 183.237 71.7923 187.44 84.3635 190.68C90.9485 192.452 103.091 194.68 103.412 194.687C103.537 194.691 103.764 194.72 104.071 194.759C105.929 194.999 110.695 195.615 113.112 193.14C113.361 192.885 114.097 192.963 115.078 193.067C117.209 193.292 120.496 193.64 122.468 190.967C124.854 187.733 128.099 176.899 129.254 173.008C129.692 171.531 129.966 170.459 130.166 169.678C130.638 167.831 130.695 167.609 131.523 167.492C133.644 167.192 134.958 165.078 135.648 163.041C137.548 157.429 139.67 149.967 139.609 144.041C139.591 142.274 138.679 141.527 138.042 141.006C137.654 140.689 137.368 140.455 137.449 140.125C138.2 137.1 139.644 125.963 140.1 121.893C141.621 108.461 136.306 106.563 128.75 103.864C128.243 103.683 127.726 103.498 127.2 103.306C127.2 103.306 120.746 101.02 116.269 99.5057C116.117 99.8007 115.96 100.092 115.797 100.378C120.782 102.019 127.949 104.406 129.365 104.919C132.858 106.18 136.341 107.725 137.898 110.189C138.954 111.859 139.089 112.981 139.297 114.708C139.318 114.885 139.34 115.068 139.364 115.258C139.984 120.227 136.748 138.143 135.646 143.271H135.64C135.538 143.745 135.516 144.007 135.375 144.129C135.156 144.319 134.65 144.177 133.12 143.978C133.118 143.978 133.146 143.847 133.198 143.603C133.754 141.018 137.05 125.692 135.993 116.86C135.912 115.66 135.592 114.489 135.05 113.416C134.508 112.343 133.756 111.39 132.838 110.613C129.826 108.107 125.912 106.782 122.209 105.53C121.761 105.378 121.315 105.228 120.875 105.076C119.677 104.664 117.236 103.912 114.082 102.981C112.611 104.921 110.865 106.595 108.914 107.963C116.599 110.116 122.409 111.735 123.446 112C124.619 112.3 124.898 113.029 122.775 112.679C120.778 112.349 116.446 111.258 107.609 108.814C104.93 110.435 101.922 111.509 98.7444 111.946ZM71.9127 92.3478C65.068 91.0331 58.1859 89.9069 51.2215 89.5489C38.7725 88.9079 39.5445 90.7489 46.2875 94.0889C55.4639 98.6287 67.8588 103.08 80.3472 106.859C79.4025 106.092 78.5161 105.251 77.6968 104.344C76.354 102.856 75.2086 101.208 74.285 99.4397C68.5709 97.7776 62.2506 95.8135 61.0485 94.9509C61.0048 94.9208 60.9732 94.8761 60.9594 94.8249C60.9456 94.7737 60.9503 94.7192 60.9729 94.6712C60.9955 94.6231 61.0344 94.5847 61.0826 94.5627C61.1309 94.5406 61.1854 94.5365 61.2365 94.5509C61.2365 94.5509 66.3321 95.9879 73.6104 98.038C73.3701 97.4936 73.15 96.9394 72.9509 96.3767C72.4862 95.0637 72.1394 93.7154 71.9127 92.3478ZM124.172 185.014C125.143 182.127 129.225 169.582 129.4 167.844H129.406C129.427 167.64 129.309 167.623 128.275 167.474C128.105 167.449 127.91 167.421 127.687 167.388C127.404 167.344 127.28 167.283 127.205 167.321C127.127 167.36 127.103 167.505 127.011 167.888C126.217 171.173 121.697 187.056 119.361 188.712C118.868 189.064 118.305 189.308 117.711 189.427C117.116 189.546 116.503 189.538 115.912 189.403C115.612 189.333 115.509 189.572 115.299 190.059C115.107 190.504 114.826 191.156 114.222 191.969C114.026 192.232 114.358 192.247 115.942 192.32C116.375 192.339 116.901 192.363 117.536 192.398C117.694 192.383 117.848 192.371 117.998 192.358C120.446 192.155 121.808 192.042 124.172 185.014ZM138.661 147.108C138.691 146.731 138.719 146.368 138.805 145.834H138.811C138.994 145.054 138.956 144.238 138.7 143.479C138.444 142.72 137.982 142.047 137.364 141.537C137.248 141.419 137.205 141.501 137.171 141.609C137.14 141.682 137.113 141.757 137.091 141.834C136.773 143.438 136.647 143.87 136.772 143.963C136.827 144.005 136.932 143.98 137.091 143.96C137.914 143.86 137.935 144.648 136.991 144.86C135.754 145.137 132.828 144.874 127.828 144.326C120.107 143.479 114.775 142.243 111.009 141.37C104.245 139.802 102.534 139.406 101.114 144.54C101.072 144.691 101.021 144.874 100.963 145.084C100.266 147.59 98.5019 153.926 98.5305 155.799C98.3985 158.148 100.125 159.578 102.331 160.414C112.075 164.107 128.23 166.8 130.856 166.524C134.016 166.187 134.892 162.906 135.682 159.943C135.753 159.677 135.823 159.415 135.894 159.157C138.445 149.888 138.56 148.411 138.661 147.108ZM61.7741 169.175C61.4516 169.104 61.1176 169.102 60.7945 169.171L60.7995 169.172C60.4906 169.209 60.1921 169.307 59.9215 169.461C59.6509 169.614 59.4135 169.82 59.2232 170.066C59.0329 170.312 58.8934 170.594 58.813 170.895C58.7325 171.195 58.7126 171.509 58.7545 171.817C59.6655 174.987 63.6905 174.246 63.5825 171.264C63.5583 170.935 63.4639 170.614 63.3055 170.324C63.1471 170.034 62.9285 169.782 62.6644 169.584C62.4002 169.385 62.0967 169.246 61.7741 169.175ZM49.8805 152.226C53.3175 152.155 52.8285 147.283 49.9285 147.555C49.3129 147.565 48.7253 147.814 48.2904 148.25C47.8556 148.686 47.6078 149.274 47.5995 149.89C47.5996 150.5 47.8382 151.086 48.2644 151.522C48.6906 151.959 49.2706 152.211 49.8805 152.226ZM73.5605 160.081C69.9275 160.047 69.5645 165.721 73.6815 165.841C74.4194 165.81 75.1178 165.499 75.6342 164.971C76.1506 164.443 76.4461 163.738 76.4605 163C76.4703 162.616 76.4021 162.233 76.2601 161.876C76.1181 161.519 75.9051 161.194 75.6341 160.921C75.3631 160.648 75.0397 160.433 74.6833 160.289C74.3269 160.144 73.945 160.074 73.5605 160.081ZM78.951 149.532C78.4028 150.086 78.0948 150.834 78.0935 151.613C78.1161 152.383 78.432 153.114 78.9765 153.659C79.521 154.203 80.2529 154.519 81.0225 154.541C81.4187 154.549 81.8125 154.477 82.1802 154.329C82.5478 154.181 82.8818 153.961 83.162 153.68C83.4423 153.4 83.6629 153.066 83.8108 152.699C83.9587 152.331 84.0307 151.937 84.0225 151.541C84.0023 150.762 83.6762 150.022 83.1148 149.482C82.5534 148.941 81.8017 148.644 81.0225 148.653C80.2433 148.663 79.4991 148.978 78.951 149.532ZM83.6195 143.08C86.9255 143.244 87.6115 137.979 83.6845 137.6C83.3247 137.596 82.9675 137.662 82.6335 137.796C82.2994 137.93 81.995 138.128 81.7375 138.38C81.4801 138.631 81.2747 138.931 81.133 139.261C80.9914 139.592 80.9163 139.948 80.912 140.307C80.9077 140.667 80.9744 141.024 81.1081 141.359C81.2419 141.693 81.4401 141.997 81.6916 142.254C81.943 142.512 82.2426 142.717 82.5734 142.859C82.9042 143.001 83.2597 143.076 83.6195 143.08ZM88.1807 123.741C87.749 123.789 87.3395 123.958 86.9995 124.228C86.6706 124.468 86.4092 124.788 86.241 125.159C86.0728 125.529 86.0035 125.937 86.0397 126.342C86.0759 126.748 86.2165 127.137 86.4478 127.472C86.679 127.806 86.9931 128.076 87.3593 128.253C87.7255 128.43 88.1315 128.51 88.5376 128.484C88.9437 128.458 89.3361 128.327 89.6765 128.104C90.017 127.881 90.294 127.574 90.4804 127.212C90.6669 126.85 90.7565 126.447 90.7405 126.04C90.7418 125.606 90.6204 125.18 90.3903 124.811C90.1602 124.443 89.8307 124.147 89.4398 123.958C89.0488 123.768 88.6124 123.693 88.1807 123.741ZM73.7393 112.662C73.3134 113.081 73.0638 113.647 73.0415 114.244H73.0435C73.0605 114.845 73.3118 115.415 73.7437 115.832C74.1755 116.25 74.7537 116.482 75.3545 116.479C76.4095 116.658 77.5975 115.414 77.5755 114.244C77.54 113.66 77.2927 113.108 76.8798 112.693C76.4669 112.278 75.9167 112.028 75.3325 111.989C74.7351 112.002 74.1652 112.242 73.7393 112.662Z" fill="black"/>
<path d="M95.2496 64.0081C122.249 65.0021 128.46 98.7661 106.691 110.143C103.293 111.931 99.5224 112.893 95.6834 112.952C91.8443 113.01 88.0454 112.164 84.5945 110.481C81.1436 108.797 78.1378 106.325 75.8207 103.263C73.5036 100.202 71.9403 96.6374 71.2576 92.8591C68.4596 77.5451 80.9616 63.4821 95.2496 64.0081ZM94.1346 112.127C106.724 112.845 117.934 103.656 118.997 89.6631C119.279 75.6631 109.078 65.6081 96.6926 64.8431C93.5769 64.6557 90.4549 65.0863 87.5062 66.1099C84.5576 67.1335 81.8404 68.7301 79.511 70.8078C77.1816 72.8854 75.2861 75.4031 73.9333 78.216C72.5806 81.029 71.7974 84.0816 71.6288 87.1984C71.4602 90.3151 71.9095 93.4345 72.9509 96.3769C73.9922 99.3194 75.6051 102.027 77.6968 104.344C79.7884 106.66 82.3175 108.541 85.1385 109.877C87.9595 111.212 91.0169 111.977 94.1346 112.127Z" fill="black"/>
<path d="M84.6722 105.411C80.255 102.7 77.0736 98.3687 75.8081 93.3429C74.5426 88.317 75.2935 82.9955 77.9002 78.516C87.2392 62.464 111.275 66.916 114.432 84.886C117.5 102.362 98.7292 114.065 84.6722 105.411ZM76.3222 92.685C77.0695 95.8459 78.603 98.7669 80.7805 101.177C82.9581 103.587 85.709 105.408 88.7782 106.471C106.641 112.531 121.412 92.088 110.226 76.997C98.4652 61.132 71.8432 71.948 76.3222 92.685Z" fill="black"/>
<path d="M89.0996 98.1652C85.7466 97.9862 86.0716 98.2182 86.4806 93.8202C86.8386 89.9572 87.5806 90.3942 84.9646 91.0052C83.4846 91.3512 83.1926 91.4882 83.2286 90.6332C83.2457 89.0777 83.4532 87.5302 83.8466 86.0252C83.8679 85.8982 83.9244 85.7797 84.0099 85.6833C84.0953 85.587 84.2061 85.5166 84.3296 85.4802C87.5296 84.2492 87.9026 84.7702 88.0226 84.2202C90.2436 74.0402 90.5226 73.8202 91.6436 73.7652C93.5173 73.6759 95.3946 73.6976 97.2656 73.8302C97.9216 73.8762 98.0426 74.2772 98.0166 74.4072C97.0326 79.2682 96.5166 81.2722 96.5166 81.6712C97.0426 81.6422 96.0336 81.8042 100.353 80.7582C100.953 80.6132 101.002 81.2272 100.896 81.8422C99.9176 87.4912 101.056 86.2772 95.8526 88.0702C95.4036 88.2252 95.0816 88.1762 94.9956 88.7942C94.8496 89.8512 94.5836 90.5202 94.5136 91.2472C94.4316 92.0892 94.0596 91.2992 105.506 91.6042C106.955 91.6422 106.679 92.1372 106.231 94.0832C105.223 98.4532 105.523 97.9442 103.124 98.0832C98.4544 98.3779 93.772 98.4053 89.0996 98.1652ZM104.787 97.1342C104.975 96.4672 105.862 93.3342 105.997 92.6542C106.11 92.0832 106.465 92.2202 102.591 92.0542C102.248 92.0392 100.032 92.1762 96.3146 92.2082C92.9206 92.2382 93.8806 92.6912 94.4196 88.4982C94.5106 87.7862 94.8586 87.7172 96.8196 87.0502C100.327 85.8572 99.2196 86.5672 99.6856 85.0322C100.036 83.8832 100.079 82.6832 100.313 81.5152C100.429 80.9382 99.1726 81.7152 96.3586 82.5242C95.3446 82.8152 95.6196 82.3992 97.1066 76.1392C97.5066 74.4492 97.5896 74.4542 97.1726 74.4252C96.8996 74.4062 94.0946 74.3762 93.8216 74.3742C90.6716 74.3542 91.1846 74.2742 90.6356 76.1992C87.6886 86.5542 90.0756 84.3602 85.6356 85.6932C84.5666 86.0152 84.2466 85.1182 83.8996 89.8452C83.8806 90.1132 83.6776 90.3622 83.8056 90.6452C87.2146 89.8852 87.6436 89.5452 87.5736 90.3802C87.4736 91.5582 87.1596 93.7232 86.9996 94.8802C86.6456 97.4342 86.6136 97.3202 87.3426 97.3592C95.0176 97.7622 104.627 97.7132 104.789 97.1342H104.787Z" fill="black"/>
<path d="M60.1993 22.957C91.9543 24.903 92.2583 66.025 65.4493 71.557C61.8198 72.3554 58.0561 72.3158 54.4442 71.4413C50.8323 70.5669 47.4673 68.8805 44.6049 66.5104C41.7426 64.1403 39.4582 61.1489 37.9254 57.7634C36.3927 54.378 35.6518 50.6877 35.7593 46.973C35.8363 41.721 37.9783 35.373 41.8593 31.373C47.6513 25.387 51.8993 23.525 60.1993 22.957ZM60.2503 71.339C63.4573 71.3742 66.6376 70.7525 69.5954 69.5123C72.5531 68.272 75.2257 66.4395 77.4485 64.1275C79.6714 61.8155 81.3974 59.0729 82.5204 56.0687C83.6434 53.0645 84.1395 49.8622 83.9783 46.659C83.7961 42.0044 82.2492 37.5062 79.5301 33.724C76.8111 29.9418 73.0398 27.0426 68.6857 25.3873C64.3316 23.7319 59.5869 23.3935 55.0419 24.414C50.4969 25.4346 46.3524 27.769 43.124 31.127C39.8956 34.4849 37.7259 38.718 36.8848 43.2996C36.0438 47.8812 36.5685 52.609 38.3938 56.8946C40.219 61.1803 43.2642 64.8346 47.1504 67.4029C51.0365 69.9711 55.5921 71.3399 60.2503 71.339Z" fill="black"/>
<path d="M77.2121 37.576C79.7425 42.0771 80.443 47.3795 79.1683 52.3833C77.8936 57.3871 74.7416 61.7081 70.3661 64.45C57.2131 72.618 40.5531 62.772 40.1561 49.242C39.4991 26.687 67.0751 19.993 77.2121 37.576ZM63.9091 66.193C74.0141 63.659 79.1291 55.593 79.1701 47.302C79.2301 35.002 66.5091 25.44 54.8521 29.038C49.8391 30.586 45.2391 33.433 42.6891 39.017C35.2051 55.4 50.5581 69.54 63.9091 66.193Z" fill="black"/>
<path d="M63.8677 59.7669C62.4506 59.6216 61.0605 59.2797 59.7377 58.7509C59.4577 58.6139 59.6077 58.6999 58.7917 60.6239C58.3917 61.5629 58.0137 62.7069 57.2227 62.3859C53.5817 60.9079 53.8527 61.6029 55.5787 57.2369C55.6587 57.0369 55.3387 56.9929 55.1787 56.9209C54.9697 56.8209 55.0117 56.7849 54.2127 58.5579C53.3627 60.4449 53.4427 60.6999 52.8617 60.5799C52.5237 60.5109 50.5537 59.6149 50.2447 59.4599C49.7617 59.2189 49.7447 59.0949 49.8777 58.6199C50.1872 57.5741 50.5912 56.5585 51.0847 55.5859C51.2547 55.2449 51.3847 55.4539 47.3287 53.7389C45.7937 53.0899 46.1197 52.7729 47.5937 49.6389C47.9027 48.9819 48.0767 49.1549 50.4647 50.0879C52.4647 50.8689 50.5987 51.1309 53.1587 45.5009C53.4217 44.9219 54.9707 41.3279 56.0587 38.9089C56.1667 38.6679 56.3657 38.8329 53.5487 37.5209C52.9957 37.2629 52.9307 37.0869 53.0877 36.4209C53.3737 35.4093 53.7977 34.4418 54.3477 33.5459C54.6027 33.0849 54.6887 32.9369 57.0997 33.8549C59.5667 34.7949 59.4087 35.0959 59.5857 34.6059C60.9597 30.7999 60.7587 31.1209 62.7987 31.8999C63.383 32.089 63.9487 32.3314 64.4887 32.6239C64.7967 32.8669 64.7247 32.6959 63.3057 36.4859C63.2157 36.7279 63.9797 36.9679 64.0297 36.7059C64.2409 35.9205 64.5296 35.1581 64.8917 34.4299C65.3857 33.2209 65.6167 33.1199 66.0747 33.1939C67.066 33.4069 68.0029 33.8217 68.8267 34.4129C69.1147 34.7349 68.9477 35.3209 68.7757 35.8009C67.7817 38.5779 67.7567 38.2659 68.1267 38.4129C74.9847 41.1389 73.0657 47.4769 69.5457 48.8429C69.2087 48.9739 68.8367 48.9759 69.0457 49.2079C70.7537 51.0729 71.4357 52.7079 70.4407 55.2249C68.8317 59.2999 65.9247 59.5829 63.8677 59.7669ZM68.3867 57.2669C70.9867 54.6239 70.6137 50.8359 68.3067 49.2719C67.8627 48.9719 68.0267 48.6629 68.2607 48.6009C68.8667 48.5337 69.4482 48.3236 69.9572 47.9879C70.4662 47.6522 70.8883 47.2005 71.1887 46.6699C72.2827 44.7569 72.4277 42.2499 70.8367 40.6589C69.8434 39.8368 68.7146 39.1938 67.5007 38.7589C67.0447 38.5469 67.1417 38.3179 67.3247 37.8709C68.8737 34.0878 69.1527 34.9709 66.0987 33.7909C65.7727 33.6659 65.8777 33.6659 64.7847 36.1909C64.2777 37.3639 64.2517 37.6559 63.8997 37.4659C62.3807 36.6489 62.2257 37.6659 63.8627 33.2659C64.0117 32.8659 64.2187 33.0229 61.6717 32.1259C61.2717 31.9859 61.4307 31.7599 60.3557 34.2989C59.9217 35.3249 59.9427 35.7789 59.2137 35.4649C54.3547 33.3719 54.8577 33.4859 54.6907 33.9029C53.3737 37.1899 53.1497 36.7559 54.1787 37.1929C57.1427 38.4529 57.0327 38.1929 56.5787 39.1929C51.7597 49.6999 52.3057 51.3519 51.4787 51.0429C47.2207 49.4589 48.2067 49.5619 47.7657 50.5729C47.4417 51.3169 47.1717 52.0849 46.8727 52.8389C46.7917 53.0449 46.4387 52.8139 51.2947 54.8499C51.9687 55.1319 51.7427 55.2739 51.1117 56.8499C50.2407 59.0219 50.2067 58.9259 50.6557 59.1119C54.0847 60.5349 52.3437 60.5669 54.7107 56.3529C54.8107 56.1689 54.9107 56.1279 56.0407 56.6529C56.3277 56.7859 56.2117 57.1339 56.0407 57.5609C54.6087 61.1349 54.6647 60.7509 55.0747 60.9229C57.5507 61.9619 57.4567 61.9749 57.6317 61.5869C59.2667 57.9609 58.8317 58.7139 59.0677 58.2509C59.5817 57.1999 64.3607 61.3529 68.3867 57.2689V57.2669Z" fill="black"/>
<path d="M65.2992 52.2308C65.3722 53.6148 63.6452 55.1578 61.7942 54.7968C59.9265 54.4283 58.1112 53.8314 56.3892 53.0198C55.9522 52.8148 55.8742 52.6498 56.0102 52.1728C56.2878 50.9961 56.6866 49.8513 57.2002 48.7568C57.7082 47.7908 57.9782 46.6948 58.5902 46.8618C59.7143 47.1729 60.8107 47.5766 61.8682 48.0688C63.9112 49.0098 65.1792 49.9538 65.2992 52.2308ZM62.1862 54.2998C62.5873 54.2646 62.9806 54.1678 63.3522 54.0128C63.6422 53.9311 63.9077 53.7792 64.1252 53.5706C64.3426 53.3621 64.5054 53.1032 64.5992 52.8168C65.6152 49.7658 61.8922 48.6778 58.8992 47.5308C58.5342 47.3908 58.4662 47.6388 58.2902 48.0138C57.6476 49.3968 57.0837 50.8151 56.6012 52.2618C56.5582 52.3898 56.5812 52.4208 56.6902 52.4618C60.2592 53.8998 59.3832 53.7558 62.1862 54.2998Z" fill="black"/>
<path d="M64.5318 45.718C63.6318 45.832 61.8768 45.089 60.2808 44.489C59.3858 44.153 59.4808 43.837 59.5688 43.524C59.9471 42.1709 60.4817 40.8664 61.1618 39.637C61.3618 39.263 61.4928 39.222 61.9318 39.337C62.746 39.5912 63.529 39.9364 64.2658 40.366C65.8138 41.118 66.7748 41.766 67.0158 42.731C67.14 43.1001 67.1677 43.4948 67.0962 43.8775C67.0247 44.2603 66.8565 44.6184 66.6075 44.9178C66.3586 45.2172 66.0371 45.4479 65.6738 45.588C65.3105 45.728 64.9173 45.7728 64.5318 45.718ZM66.5988 43.589C66.6272 43.2694 66.576 42.9478 66.4496 42.6528C66.3233 42.3579 66.1258 42.0989 65.8748 41.899C65.2349 41.3958 64.5247 40.9892 63.7668 40.692C61.5938 39.837 61.7418 39.657 61.5508 40.152C60.1508 43.796 59.9268 43.687 60.3438 43.862C61.9118 44.516 65.2028 46.027 66.1158 44.707C66.3826 44.3895 66.5505 44.0009 66.5988 43.589Z" fill="black"/>
<path d="M137.795 28.321C137.8 31.8973 136.983 35.4269 135.406 38.637C133.829 41.8471 131.536 44.6517 128.703 46.8341C125.869 49.0166 122.572 50.5183 119.066 51.2234C115.56 51.9285 111.939 51.818 108.482 50.9005C105.025 49.9829 101.826 48.2829 99.1308 45.9318C96.4359 43.5807 94.3177 40.6415 92.9397 37.3413C91.5618 34.041 90.9611 30.4682 91.1841 26.8988C91.4071 23.3294 92.4478 19.8591 94.2257 16.756C105.844 -3.82298 137.773 4.24502 137.795 28.321ZM114.505 5.83302C99.4927 5.66202 88.0187 20.816 93.0717 35.58C98.3997 51.149 118.218 55.934 129.7 44.994C145.326 30.107 134.151 6.05802 114.505 5.83302Z" fill="black"/>
<path d="M114.276 9.53898C118.009 9.54229 121.657 10.6501 124.762 12.7229C127.866 14.7957 130.288 17.7408 131.722 21.1873C133.156 24.6337 133.538 28.4275 132.82 32.0907C132.102 35.7539 130.316 39.1227 127.688 41.7729C125.059 44.4231 121.704 46.2362 118.047 46.9838C114.39 47.7314 110.593 47.3801 107.135 45.9741C103.677 44.5681 100.713 42.1703 98.6148 39.0827C96.517 35.9951 95.3796 32.3557 95.3461 28.623C95.2924 26.1152 95.7443 23.6222 96.6746 21.2927C97.605 18.9632 98.9949 16.8449 100.761 15.064C102.528 13.2831 104.635 11.8761 106.957 10.9269C109.279 9.97767 111.768 9.50565 114.276 9.53898ZM101.91 15.039C98.6432 17.9919 96.5637 22.0335 96.0604 26.4083C95.557 30.783 96.6643 35.1913 99.1751 38.809C109.028 52.993 131.962 46.985 132.392 28.239C132.729 13.558 113.977 4.14098 101.91 15.037V15.039Z" fill="black"/>
<path d="M116.137 43.28C113.89 42.211 109.69 39.031 107.051 36.866C105.239 35.379 105.497 35.472 105.683 35.123C106.468 33.6438 107.464 32.2874 108.642 31.097C108.942 30.797 109.251 30.908 109.972 31.397C111.247 32.2149 112.472 33.1078 113.641 34.071C116.891 36.571 114.359 35.948 120.197 29.864C120.921 29.11 124.058 32.224 124.634 32.828C124.7 32.8755 124.754 32.9367 124.794 33.0074C124.833 33.0781 124.857 33.1566 124.863 33.2374C124.869 33.3181 124.857 33.3992 124.828 33.475C124.8 33.5508 124.755 33.6194 124.697 33.676C123.315 35.594 118.059 42.232 116.137 43.28ZM124.055 33.443C124.366 33.052 124.534 33.404 120.675 30.325C120.434 30.132 120.675 29.925 116.089 35.877C115.605 36.505 115.857 36.411 113.189 34.394C108.733 31.021 108.989 31.408 108.82 31.626C108.651 31.844 107.934 32.795 106.281 35.097C106.026 35.452 105.881 35.197 108.557 37.197C109.89 38.197 114.857 42.017 116.39 42.729C116.146 42.734 117.286 41.953 124.055 33.443Z" fill="black"/>
<path d="M123.152 20.527C123.263 21.567 121.006 24.01 120.195 24.937C119.862 25.318 119.881 25.397 119.369 25.037C113.128 20.687 113.7 20.357 113.349 20.537C112.113 22.5336 110.724 24.4304 109.192 26.21C108.422 27.173 108.712 27.121 104.234 23.91C103.786 23.589 103.634 23.766 106.016 20.625C106.704 19.717 109.328 16.417 109.929 15.725C112.388 12.881 112.314 13.13 112.792 13.384C115.911 15.049 122.336 19.351 123.152 20.527ZM122.686 20.766C122.58 20.616 122.786 20.766 121.494 19.781C118.697 17.5997 115.723 15.6547 112.603 13.966C112.178 13.72 112.45 13.503 110.156 16.394C103.971 24.188 104.656 23.535 105.004 23.794C108.504 26.364 108.386 26.434 108.625 26.094C109.073 25.464 107.502 27.71 111.592 22.118C113.2 19.918 113.092 19.707 113.47 19.97C114.576 20.732 119.582 24.641 119.729 24.634C119.876 24.627 122.507 21.07 122.686 20.766Z" fill="black"/>
<path d="M106.856 29.1731C106.031 30.7681 104.945 32.2146 103.645 33.4531C103.537 33.5543 103.398 33.6144 103.25 33.6228C103.103 33.6312 102.957 33.5874 102.839 33.4991C101.642 32.7435 100.547 31.8389 99.5783 30.8071C99.1123 30.3781 99.0473 30.2071 101.83 26.2911C101.861 26.2213 101.908 26.1594 101.966 26.1097C102.025 26.06 102.093 26.0239 102.167 26.0038C102.241 25.9837 102.318 25.9802 102.394 25.9936C102.469 26.007 102.54 26.0368 102.603 26.0811C104.253 26.7477 105.713 27.8095 106.856 29.1731ZM102.431 26.6241C102.031 26.9981 99.8263 30.1571 99.9813 30.3921C100.052 30.5001 102.349 32.3921 102.443 32.4731C103.17 33.0731 103.243 33.1171 103.389 32.9291C106.312 29.0671 106.373 29.3621 105.939 29.0291C104.584 28.0001 102.75 26.8001 102.431 26.6241Z" fill="black"/>
<path d="M129.73 26.153C129.081 27.6171 128.182 28.9576 127.075 30.115C126.853 30.345 126.698 30.546 126.428 30.402C124.992 29.6577 123.701 28.662 122.616 27.462C122.536 27.4018 122.482 27.3125 122.467 27.2132C122.451 27.114 122.475 27.0127 122.534 26.931C123.207 25.4762 124.153 24.1647 125.322 23.068C125.729 22.686 125.833 22.644 126.309 22.955C127.664 23.7649 128.831 24.8553 129.73 26.153ZM129.143 26.168C128.094 25.1442 126.98 24.1895 125.807 23.31C124.817 24.4879 123.898 25.7234 123.055 27.01C122.869 27.268 123.022 27.189 123.78 27.758C126.688 29.942 126.595 30.033 126.78 29.747C127.785 28.221 128.986 26.426 129.143 26.168Z" fill="black"/>
<path d="M113.873 24.6469C115.353 25.3304 116.695 26.2794 117.832 27.4469C118.073 27.7199 118.073 27.7719 117.866 28.0719C115.104 32.0639 114.926 31.8369 114.448 31.4969C110.416 28.6299 110.483 28.8399 111.099 27.8769C111.632 27.0419 112.951 25.0429 113.873 24.6469ZM114.921 31.1329C115.073 30.9429 115.374 30.4809 115.681 30.0739C117.573 27.5659 117.581 27.8339 117.156 27.5319C113.671 25.0539 113.911 25.0789 113.673 25.3809C112.947 26.2999 112.073 27.3969 111.5 28.1569C111.258 28.4769 111.15 28.3669 112.611 29.4439C112.666 29.4889 114.674 30.9719 114.921 31.1329Z" fill="black"/>
<path d="M152 46.4109C179.01 45.9739 187.021 79.3439 165.878 91.8669C162.58 93.8334 158.865 94.9952 155.035 95.2581C151.204 95.5209 147.366 94.8774 143.83 93.3798C140.295 91.8821 137.162 89.5725 134.686 86.638C132.21 83.7035 130.46 80.2269 129.578 76.4899C125.973 61.3529 137.7 46.6419 152 46.4109ZM153.439 94.5169C166.05 94.5649 176.757 84.7969 177.074 70.7669C176.613 56.7829 165.89 47.2719 153.483 47.1669C150.361 47.1439 147.265 47.7386 144.374 48.9167C141.483 50.0948 138.853 51.8331 136.637 54.0315C134.42 56.2299 132.66 58.8451 131.458 61.7264C130.256 64.6077 129.636 67.6983 129.633 70.8202C129.63 73.9422 130.244 77.034 131.441 79.9175C132.638 82.801 134.393 85.4194 136.606 87.622C138.818 89.8245 141.445 91.5676 144.334 92.7511C147.222 93.9346 150.317 94.5351 153.439 94.5179V94.5169Z" fill="black"/>
<path d="M143.633 88.3136C139.077 85.8415 135.669 81.6849 134.138 76.7326C132.607 71.7804 133.074 66.4257 135.44 61.8136C143.918 45.2906 168.148 48.4626 172.257 66.2356C176.254 83.5266 158.131 96.2086 143.633 88.3136ZM134.633 76.0487C135.548 79.1643 137.235 81.9984 139.537 84.2884C141.839 86.5784 144.682 88.2501 147.803 89.1486C165.966 94.2486 179.631 73.0486 167.655 58.5796C155.06 43.3636 129.047 55.5787 134.629 76.0487H134.633Z" fill="black"/>
<path d="M163.191 72.6637C163.232 73.1857 162.323 73.4227 152.329 76.4007C151.269 76.7167 143.564 68.4337 143.351 68.0847C143.056 67.5997 143.151 67.5457 144.411 66.0907C146.828 63.2907 151.37 58.2207 154.243 55.9717C156.857 53.9267 156.818 53.4717 157.251 54.3787C159.652 59.4237 162.694 70.3737 163.191 72.6637ZM153.567 66.0187C154.167 65.9807 153.907 66.4487 154.755 62.7307C156.726 54.0837 156.56 55.0067 156.493 54.7457C155.718 54.9577 144.633 66.3947 144.249 67.2977C144.455 67.3507 149.705 66.2667 153.567 66.0187ZM162.436 71.7327C162.363 71.2177 157.207 55.2887 157.002 55.1247C156.857 55.3247 156.944 55.3157 156.881 55.5927C154.328 66.9357 154.164 65.9367 155.286 66.5807C160.194 69.3997 162.31 72.1887 162.436 71.7327ZM153.9 66.5737C153.214 66.3497 144.244 67.9017 144 67.9687C144.121 68.2487 146.11 70.0447 147.934 71.8607C151.834 75.7417 151.826 75.9107 151.997 75.6497C152.078 75.5487 153.591 67.5587 153.9 66.5737ZM152.55 75.8097C155.459 74.9187 155.243 74.7387 162.476 72.6517C162.821 72.5517 162.816 72.6187 159.703 70.3467C156.062 67.6897 155.871 67.5737 154.728 66.8367C154.296 66.5587 154.48 66.2927 153.308 71.7567C152.372 76.1177 152.433 75.6377 152.548 75.8097H152.55Z" fill="black"/>
<path d="M142.81 69.5817C143.189 69.8877 149.745 76.8587 151.162 78.1557C151.424 78.3957 161.648 74.6807 162.208 74.6507C162.708 74.6237 162.294 75.1647 161.952 75.5337C155.778 82.1977 154.989 82.6607 150.935 85.9407C149.655 86.9757 149.455 87.3887 149.108 86.6527C146.53 81.3318 144.352 75.8266 142.59 70.1827C142.454 69.8187 142.634 69.7267 142.81 69.5817ZM150.01 85.9237C153.711 82.8618 157.256 79.6163 160.632 76.1997C161.103 75.7337 161.544 75.3267 160.873 75.5577C151.109 78.9167 151.508 78.5287 151.391 79.0717C149.812 86.4297 149.878 85.6917 150.01 85.9237ZM143.517 71.0757C143.474 71.2057 148.982 85.3567 149.417 85.8947C149.501 85.6287 149.76 83.9777 150.074 82.4597C150.835 78.7687 151.051 78.8197 150.735 78.5037C144.151 71.9167 144.118 71.5107 143.517 71.0757Z" fill="black"/>
</svg>
