<svg width="200" height="200" viewBox="0 0 200 200" fill="none" xmlns="http://www.w3.org/2000/svg">
<path fill-rule="evenodd" clip-rule="evenodd" d="M99.8699 85.0698C99.5674 84.6205 99.1883 84.2279 98.7499 83.9098C98.4857 83.9156 98.2257 83.9763 97.9864 84.0883C97.747 84.2002 97.5336 84.3608 97.3599 84.5598C97.1899 84.7998 97.4499 85.1798 97.6199 85.4398C97.7993 85.7204 98.007 85.9818 98.2399 86.2198C98.5499 86.4298 99.0399 86.0298 99.3899 85.7698C99.7399 85.5098 99.9999 85.3298 99.8699 85.0698ZM98.5199 85.5298C98.3699 85.3398 98.0899 84.9798 97.9599 84.7698C98.1693 84.5386 98.412 84.3398 98.6799 84.1798C98.6799 84.1798 99.0499 84.8398 99.1799 85.0898C98.9099 85.2798 98.6899 85.4298 98.5199 85.5298ZM100.63 86.8098C100.51 86.6698 99.5399 87.0498 99.2499 87.4598C99.0799 87.6998 99.3299 88.0798 99.5099 88.3498C99.682 88.6325 99.8905 88.8913 100.13 89.1198C100.184 89.1625 100.251 89.187 100.32 89.1898C100.64 89.1898 101.55 88.4798 101.69 88.3198C101.736 88.2758 101.768 88.2186 101.78 88.1559C101.793 88.0933 101.786 88.0283 101.76 87.9698C101.454 87.5199 101.072 87.1273 100.63 86.8098ZM100.41 88.4298C100.206 88.1869 100.016 87.9332 99.8399 87.6698C100.055 87.4442 100.296 87.246 100.56 87.0798C100.56 87.0798 100.94 87.7498 101.07 87.9998C100.76 88.1998 100.58 88.3298 100.41 88.4298ZM106.15 94.8498C108.46 93.1598 105.28 90.0098 103.49 92.3298C103.303 92.6409 103.204 92.9969 103.204 93.3598C103.204 93.7227 103.303 94.0788 103.49 94.3898C103.782 94.8033 104.226 95.084 104.725 95.1702C105.223 95.2565 105.736 95.1412 106.15 94.8498ZM103.85 92.9998C103.97 91.2398 106.91 91.7698 106.28 93.6298C106.174 93.9267 105.962 94.1734 105.683 94.3211C105.405 94.4688 105.081 94.5069 104.776 94.4278C104.471 94.3487 104.207 94.1582 104.036 93.8939C103.864 93.6296 103.798 93.3106 103.85 92.9998ZM100.42 84.7398C100.476 84.7773 100.542 84.7981 100.61 84.7998C100.94 84.7998 101.84 84.0998 101.98 83.9398C102.028 83.8951 102.061 83.836 102.074 83.7713C102.086 83.7065 102.078 83.6395 102.05 83.5798C101.745 83.1355 101.366 82.7465 100.93 82.4298C100.667 82.4413 100.409 82.5047 100.17 82.6162C99.9315 82.7278 99.7174 82.8853 99.5399 83.0798C99.3699 83.3198 99.6299 83.7098 99.7999 83.9598C99.976 84.2427 100.184 84.5044 100.42 84.7398ZM100.86 82.7398C100.86 82.7398 101.23 83.3998 101.36 83.6498C101 83.8998 100.84 83.9998 100.7 84.0898C100.54 83.8898 100.27 83.5398 100.13 83.3298C100.335 83.0796 100.582 82.8665 100.86 82.6998V82.7398ZM103.87 86.8398C103.916 86.7955 103.946 86.7376 103.957 86.6747C103.968 86.6117 103.958 86.547 103.93 86.4898C103.627 86.0405 103.248 85.6479 102.81 85.3298C102.547 85.3413 102.289 85.4047 102.05 85.5162C101.812 85.6278 101.597 85.7853 101.42 85.9798C101.25 86.2198 101.52 86.6198 101.68 86.8698C101.861 87.1458 102.069 87.4037 102.3 87.6398C102.357 87.6767 102.422 87.7006 102.49 87.7098C102.83 87.7198 103.72 86.9998 103.87 86.8398ZM102.58 86.9498C102.381 86.7061 102.194 86.4524 102.02 86.1898C102.232 85.9609 102.474 85.7623 102.74 85.5998C102.74 85.5998 103.11 86.2598 103.24 86.5098C103 86.7098 102.74 86.8598 102.58 86.9998V86.9498ZM154 84.1498C153.89 84.2298 153.32 84.6498 152.78 85.1498C152.24 85.6498 150.52 87.2998 150.38 88.0498C150.37 88.187 150.391 88.3247 150.441 88.4528C150.491 88.5808 150.569 88.696 150.67 88.7898C150.93 89.0698 151.96 89.9498 151.96 89.5298C151.935 89.4582 151.894 89.3932 151.84 89.3398C151.531 89.045 151.265 88.7084 151.05 88.3398C150.87 87.9798 152.81 86.1398 154.2 84.3398C154.35 84.2098 154.15 83.9998 154 84.1498ZM151.26 91.1098C151.12 91.3098 150.98 91.7198 151.26 91.7498C151.26 91.7498 151.51 91.4598 151.82 91.4198C152.41 91.4198 152.38 92.3098 152.37 92.9098C152.37 93.0798 152.6 93.1498 152.64 92.9798C152.911 92.604 153.033 92.1404 152.98 91.6798C152.78 90.8398 151.67 90.4898 151.26 91.1098ZM151.69 85.1698C151.812 85.217 151.948 85.2152 152.069 85.1649C152.19 85.1147 152.287 85.0197 152.34 84.8998L152.58 84.3498C152.634 84.2291 152.638 84.0919 152.591 83.9682C152.544 83.8445 152.45 83.7444 152.33 83.6898C152.271 83.6613 152.207 83.645 152.142 83.6416C152.076 83.6383 152.011 83.6481 151.949 83.6705C151.888 83.6929 151.831 83.7274 151.783 83.7719C151.735 83.8164 151.697 83.8701 151.67 83.9298L151.42 84.5098C151.394 84.5708 151.38 84.6364 151.379 84.7028C151.379 84.7692 151.391 84.835 151.417 84.8964C151.442 84.9579 151.479 85.0137 151.526 85.0606C151.573 85.1076 151.628 85.1447 151.69 85.1698ZM155.49 87.2198C155.568 87.2675 155.658 87.2918 155.75 87.2898C156.23 87.2898 156.18 86.8598 156.44 86.6398C156.541 86.5536 156.603 86.4309 156.613 86.2987C156.624 86.1665 156.581 86.0356 156.495 85.9348C156.409 85.834 156.286 85.7716 156.154 85.7613C156.022 85.751 155.891 85.7936 155.79 85.8798C155.42 86.1898 155 86.9198 155.49 87.2198ZM83.5299 62.0998C90.1999 62.5298 106.1 61.7098 106.1 60.9298C106.01 25.6298 106.22 27.4598 105.81 27.3798C99.0099 26.1198 96.3799 25.5798 91.7499 26.1998C85.4399 27.0598 83.0899 28.7398 72.7499 28.9698C66.7499 29.1098 66.9099 28.8298 66.8599 29.0698C66.6899 29.8698 66.5399 64.0098 67.1499 64.6398C68.3099 65.8098 78.1799 61.7498 83.5299 62.0998ZM67.0999 29.1998C70.9105 29.3572 74.7271 29.2904 78.5299 28.9998C85.6199 28.3698 90.8699 25.8898 97.5299 26.5498C99.1499 26.7098 103.85 27.5498 105.47 27.8898V60.6298C104.18 60.7698 98.5599 61.3398 92.4699 61.5398C82.6199 61.8698 83.9199 60.9398 78.5899 61.9598C74.0699 62.8198 68.5899 64.6098 67.5899 64.2398C67.1899 62.0498 66.9999 30.7198 67.0999 29.1998Z" fill="black"/>
<path fill-rule="evenodd" clip-rule="evenodd" d="M80.1399 54.1898C82.1399 53.8398 95.4799 46.1098 96.3399 44.3298C96.3962 44.2492 96.4265 44.1532 96.4265 44.0548C96.4265 43.9564 96.3962 43.8604 96.3399 43.7798C95.3399 42.6998 80.9199 35.7798 79.2799 35.7298C78.2799 35.7298 78.7999 52.0198 79.5399 53.8498C79.5792 53.9713 79.6626 54.0736 79.7737 54.1366C79.8848 54.1995 80.0155 54.2185 80.1399 54.1898ZM79.2399 35.9998C80.8199 36.0898 94.4199 43.0598 95.7399 44.1198C94.2899 45.9998 82.2899 53.0698 79.9999 53.5998C78.7799 49.9998 79.3399 35.9998 79.2399 35.9998ZM43.8899 37.2398C43.8785 37.4041 43.8585 37.5676 43.8299 37.7298C43.8169 37.7942 43.817 37.8606 43.8303 37.925C43.8435 37.9894 43.8696 38.0505 43.9069 38.1046C43.9442 38.1587 43.992 38.2048 44.0475 38.24C44.103 38.2753 44.165 38.299 44.2299 38.3098C44.3583 38.3334 44.4909 38.3058 44.5993 38.233C44.7077 38.1601 44.7833 38.0477 44.8099 37.9198C44.85 37.7218 44.8767 37.5214 44.8899 37.3198C44.8951 37.2541 44.8874 37.1881 44.8671 37.1254C44.8468 37.0627 44.8144 37.0047 44.7717 36.9545C44.729 36.9044 44.6768 36.8631 44.6182 36.8332C44.5595 36.8032 44.4955 36.785 44.4299 36.7798C44.3642 36.7745 44.2982 36.7823 44.2355 36.8025C44.1728 36.8228 44.1148 36.8552 44.0646 36.898C44.0145 36.9407 43.9732 36.9928 43.9432 37.0515C43.9133 37.1101 43.8951 37.1741 43.8899 37.2398ZM44.0999 42.6098C44.0999 42.6098 43.1699 41.8598 43.0999 41.7798C42.9815 41.7081 42.8709 41.6243 42.7699 41.5298C42.7699 41.3298 42.3299 41.2798 42.5899 41.9998C42.7699 42.4998 43.7299 43.1298 44.1799 42.8498C44.2117 42.8392 44.238 42.8164 44.253 42.7864C44.268 42.7564 44.2705 42.7216 44.2599 42.6898C44.2493 42.658 44.2264 42.6317 44.1964 42.6167C44.1664 42.6017 44.1317 42.5992 44.0999 42.6098Z" fill="black"/>
<path fill-rule="evenodd" clip-rule="evenodd" d="M54.3101 87.8199C55.0601 87.2299 53.9201 83.6199 52.4901 79.3199C59.1201 81.6899 64.6301 82.7199 71.4901 81.3799C72.7501 81.5799 73.9701 81.7499 75.1101 81.8799C75.3101 81.8799 75.5501 81.6199 75.8701 81.0399C76.883 81.7131 78.1025 82.0038 79.3101 81.8599C80.2301 81.5999 83.3101 80.0099 83.5701 79.1999C83.6023 79.1206 83.6181 79.0356 83.6168 78.9501C83.6156 78.8645 83.5971 78.7801 83.5626 78.7017C83.5281 78.6234 83.4783 78.5528 83.416 78.4941C83.3537 78.4354 83.2803 78.3898 83.2001 78.3599C86.0002 77.6962 88.8391 77.2085 91.7001 76.8999C100.23 75.9599 115.76 78.7699 121.28 78.3999C128.98 77.8699 144.87 70.3999 145.53 68.6199C146.07 67.1799 148.88 9.11992 146.6 5.61992C146.513 5.48234 146.386 5.37437 146.236 5.31014C146.086 5.24591 145.92 5.22841 145.76 5.25992C142.53 5.34992 126.41 11.3199 120.4 11.6099C113.17 11.9999 99.2301 8.89992 90.5901 9.84992C78.1001 11.2399 72.5701 15.1999 63.7501 14.9999C53.0901 14.7099 44.7501 8.38992 34.4901 7.07992C28.1201 6.26992 19.3601 6.35992 13.7901 8.54992C13.1858 8.73636 12.6319 9.0578 12.1701 9.48992C11.3901 10.5799 11.7401 36.8499 11.7501 37.8899C11.3901 37.1299 10.7501 37.3699 10.4001 38.1499C9.71013 39.8299 9.92013 44.0899 9.89013 44.6399C9.46182 45.9073 9.09802 47.1957 8.80013 48.4999H7.80013C7.75512 48.5002 7.71139 48.5149 7.67538 48.5419C7.63937 48.5689 7.61299 48.6068 7.60013 48.6499C5.60013 54.7099 2.93013 67.1999 7.42013 71.7999C8.84083 73.356 10.7555 74.3734 12.8401 74.6799C12.8688 75.2618 12.9765 75.837 13.1601 76.3899C13.6001 77.0899 15.1601 76.4999 17.8601 75.6799C16.8456 78.2765 15.9644 80.9233 15.2201 83.6099C14.9201 84.6099 13.3801 90.5499 13.7101 91.2099C14.0401 91.8699 15.0601 91.9499 15.7101 92.1099C13.8057 104.238 13.4261 116.557 14.5801 128.78C14.6301 129.31 15.1701 129.78 16.0901 130.08C15.9001 139.9 17.5501 158 18.0001 158.51C18.1507 158.613 18.3209 158.685 18.5001 158.72C18.5001 159.58 18.4501 161.07 18.5001 162.14C18.4817 162.198 18.4817 162.261 18.5001 162.32C18.4914 162.685 18.5667 163.048 18.7201 163.38C19.6001 164.51 26.9601 164.53 27.3301 164.24C27.4684 164.149 27.5818 164.025 27.6603 163.879C27.7388 163.733 27.7799 163.57 27.7799 163.405C27.7799 163.239 27.7388 163.076 27.6603 162.931C27.5818 162.785 27.4684 162.661 27.3301 162.57C26.8393 162.267 26.3202 162.013 25.7801 161.81C24.9019 161.469 23.985 161.237 23.0501 161.12C23.0501 160.53 23.0501 159.69 23.1301 159.01C23.2343 159.015 23.3372 158.984 23.4211 158.922C23.505 158.86 23.5648 158.771 23.5901 158.67C24.1501 157.13 27.9801 138.5 29.3301 131.23C32.7601 131.23 36.4401 131.03 39.9201 130.78C40.6201 141.67 43.2001 157.07 43.5601 157.4C43.7282 157.503 43.9152 157.571 44.1101 157.6V160.23C44.0903 160.288 44.0903 160.352 44.1101 160.41C44.1014 160.775 44.1767 161.138 44.3301 161.47C45.2001 162.6 52.5601 162.62 52.9401 162.33C53.0784 162.239 53.1918 162.115 53.2703 161.969C53.3488 161.823 53.3899 161.66 53.3899 161.495C53.3899 161.329 53.3488 161.166 53.2703 161.021C53.1918 160.875 53.0784 160.751 52.9401 160.66C52.4514 160.353 51.9319 160.098 51.3901 159.9C50.5111 159.561 49.5945 159.329 48.6601 159.21V157.73C48.742 157.712 48.8191 157.677 48.8864 157.627C48.9536 157.577 49.0094 157.513 49.0501 157.44C50.2401 154.53 52.0501 137.53 52.0501 129.44C53.3901 129.2 57.1801 128.5 57.9401 127.44C59.0001 125.83 55.5501 104 53.0001 88.7499C53.4542 88.4653 53.8916 88.1547 54.3101 87.8199ZM75.0901 81.3799C67.6601 80.4599 56.5001 78.0899 50.5801 73.5499C47.8601 64.8999 48.3301 62.3199 49.6801 52.9399C53.1601 56.1299 55.6801 59.8499 57.9201 62.5499C59.4001 64.2999 75.5101 76.1799 77.0601 77.6099C76.4717 78.9011 75.8141 80.1596 75.0901 81.3799ZM29.1501 27.2699C29.4346 27.6181 29.8207 27.8689 30.2545 27.9872C30.6883 28.1055 31.1482 28.0855 31.5701 27.9299C31.4701 28.3899 31.4701 28.5099 31.5701 28.6799C30.7848 29.1031 30.102 29.6937 29.5701 30.4099C28.4301 32.2799 28.6001 31.9999 28.6801 32.9999C28.3472 33.2211 28.0706 33.5172 27.8726 33.8645C27.6747 34.2119 27.5608 34.6007 27.5401 34.9999C27.4621 35.6663 27.4857 36.3406 27.6101 36.9999C27.6877 37.4253 27.8584 37.8283 28.1101 38.1799C28.2986 38.4518 28.5418 38.6813 28.8243 38.8535C29.1067 39.0257 29.4221 39.1369 29.7501 39.1799C29.6776 39.6102 29.6776 40.0496 29.7501 40.4799C30.0559 41.7533 30.7559 42.8976 31.7501 43.7499C32.1355 44.0618 32.6057 44.2505 33.0997 44.2915C33.5937 44.3325 34.0887 44.224 34.5201 43.9799C34.4201 44.5199 34.2601 45.3499 34.1101 46.2099C33.3083 46.2083 32.5071 46.2517 31.7101 46.3399C30.9201 45.5499 24.8001 46.4599 24.8001 48.4999C22.5245 49.7435 20.4757 51.363 18.7401 53.2899C18.2201 42.6899 17.6201 23.7099 17.5401 23.6699C18.5401 23.2199 24.6901 22.7799 30.8001 23.4199C30.4355 23.5597 30.1025 23.7713 29.8211 24.042C29.5396 24.3128 29.3153 24.6372 29.1614 24.9962C29.0076 25.3552 28.9273 25.7414 28.9254 26.1319C28.9234 26.5225 28.9999 26.9094 29.1501 27.2699ZM40.7801 26.4799C39.5801 26.9599 33.7101 28.5999 32.2601 28.5699C32.0701 28.2999 32.0801 28.4199 32.1901 27.9899C37.3001 27.3199 39.7101 24.5999 40.7801 26.4799ZM46.3601 36.4799C46.4401 37.1199 47.2101 39.5899 47.2801 40.2899C47.0501 40.4599 46.3801 40.5299 46.2001 40.7099C46.0162 41.2179 45.9083 41.7504 45.8801 42.2899C45.5701 44.1499 44.0201 44.5999 42.1401 44.6799C41.4001 44.6799 41.6401 44.6799 41.3301 47.5299C39.2139 46.7783 36.9946 46.3567 34.7501 46.2799C34.9401 45.2199 35.0701 44.5499 35.1501 44.1099C35.2288 44.2567 35.3617 44.3669 35.5204 44.4174C35.6791 44.4678 35.8512 44.4543 36.0001 44.3799C36.7201 44.0099 36.5401 43.2499 36.2401 42.5099C35.6101 40.9599 36.0101 40.3499 35.6701 40.1599C35.2132 39.8937 34.8286 39.5195 34.5501 39.0699C33.9901 38.0699 34.5501 37.0699 35.1901 37.0699C36.4001 37.0699 36.4601 38.3299 36.8001 39.0699C37.3001 40.2199 38.5901 38.9099 38.4401 36.4999C38.6201 36.3799 39.3701 36.4399 39.7201 36.1999C40.0701 35.9599 40.2601 35.2899 40.5401 34.9599C40.9451 35.1249 41.383 35.1927 41.8189 35.158C42.2547 35.1233 42.6764 34.9869 43.0501 34.7599C43.2426 34.6217 43.4018 34.4422 43.516 34.2346C43.6301 34.027 43.6965 33.7965 43.7101 33.5599C43.9126 33.6967 44.1467 33.7793 44.3901 33.7999C44.9023 33.7847 45.3891 33.5735 45.7501 33.2099C46.0288 33.429 46.2865 33.6734 46.5201 33.9399C46.8801 35.6999 46.2901 35.9099 46.3601 36.4699V36.4799ZM27.6301 46.8199C28.8229 46.5631 30.0512 46.5157 31.2601 46.6799C31.8191 47.8659 32.7942 48.8054 34.0001 49.3199C31.9001 50.7899 27.3901 49.9999 27.6301 46.8199ZM31.8601 46.6499C35.7949 46.2405 39.7661 46.933 43.3301 48.6499C40.7401 50.4899 37.6701 50.1299 34.7101 48.9599C33.5137 48.5569 32.5021 47.737 31.8601 46.6499ZM41.9301 47.7399C42.0201 46.9399 42.0901 46.0899 42.1601 45.2799C44.3501 45.1699 46.1001 44.5399 46.4501 42.3699C46.4501 42.1199 46.5701 41.3699 46.6201 41.0899C48.0101 40.6099 47.9901 40.7699 47.5401 39.0899C47.5401 39.1899 46.8601 36.7999 46.8001 36.2999C46.9312 36.0229 47.0124 35.7251 47.0401 35.4199C47.2901 35.5599 47.5901 35.2699 47.7301 34.8399C48.1301 33.5499 47.1601 33.1399 47.1701 32.6799C47.2882 32.1017 47.2572 31.5029 47.0801 30.9399C47.0002 30.4555 46.8145 29.9947 46.5363 29.5903C46.258 29.1858 45.894 28.8477 45.4701 28.5999C45.2901 28.5099 44.7801 28.3199 44.7401 28.2799C44.3901 27.9199 44.3501 26.9399 42.5301 26.5999C42.0501 26.5099 41.5301 26.5999 41.3201 26.5099C41.1975 26.1682 40.9655 25.8764 40.6601 25.6799C40.1001 25.3199 40.0301 25.5599 40.2401 25.3299C45.8701 26.6799 53.2401 28.5799 56.9901 29.5699C56.9401 31.8799 56.5101 50.1099 55.9201 59.4999C54.0653 57.0211 51.9938 54.712 49.7301 52.5999C49.9901 50.8099 45.0701 47.3399 43.5901 48.4699C43.0501 48.1899 42.4901 47.9999 41.9301 47.7399ZM49.2401 52.3799C48.9801 53.8199 48.8101 54.6299 48.5201 56.6099C47.7675 56.7039 47.0036 56.5873 46.3133 56.273C45.623 55.9588 45.0335 55.4592 44.6101 54.8299C44.3549 53.8521 44.4514 52.8156 44.8827 51.9016C45.3141 50.9877 46.053 50.2544 46.9701 49.8299C48.2201 50.6499 49.3401 51.7799 49.2401 52.3799ZM50.0001 73.9999C47.7201 74.7999 44.2201 73.7599 44.4901 71.0499C44.516 70.0505 44.9286 69.1001 45.6411 68.3988C46.3536 67.6975 47.3104 67.2999 48.3101 67.2899C48.7493 69.556 49.3135 71.7961 50.0001 73.9999ZM78.4901 73.2399C78.5601 73.6599 78.7801 75.6499 78.7901 76.2399C78.7901 76.3999 78.7901 76.3399 78.6501 76.3799C78.2414 76.4821 77.8275 76.5622 77.4101 76.6199C77.2301 75.6799 77.1901 75.3099 76.9101 73.8599C78.1901 73.3099 78.3001 73.3099 78.5201 73.2299L78.4901 73.2399ZM82.7501 79.2399C81.6533 80.1114 80.4377 80.822 79.1401 81.3499C78.0637 81.4975 76.9684 81.2904 76.0201 80.7599C76.2701 80.2799 76.5701 79.6499 76.9401 78.8799C77.2401 78.9699 77.4601 78.8799 77.8001 78.6199C78.4201 78.1799 79.5601 77.3899 79.1701 78.1299C78.8901 78.6599 78.4001 79.0399 78.5501 79.3999C78.7001 79.7599 79.1801 79.6399 79.5501 79.5899C80.527 79.4295 81.4924 79.2057 82.4401 78.9199C82.6001 78.8699 83.2901 78.7799 82.7801 79.2299L82.7501 79.2399ZM87.0701 74.5299C87.0701 74.6899 87.0701 74.6299 86.9201 74.6599C86.5033 74.7282 86.0824 74.7683 85.6601 74.7799C85.5701 73.8599 85.5401 73.2199 85.4101 71.9999C85.9422 71.828 86.4829 71.6845 87.0301 71.5699C87.1001 71.9999 87.1301 73.9999 87.1001 74.5199L87.0701 74.5299ZM96.0001 73.8399C96.0001 73.9999 96.0001 73.9399 95.8401 73.9599C95.4205 73.9849 94.9998 73.9849 94.5801 73.9599V71.1699C95.9401 70.8999 96.0601 70.9199 96.2301 70.8899C96.2801 71.3399 96.1301 73.2999 96.0001 73.8399ZM105.49 74.4999C105.49 74.6499 105.49 74.5999 105.31 74.5899C104.891 74.5702 104.473 74.5234 104.06 74.4499C104.12 73.8499 104.3 72.6599 104.4 71.6799C105.75 71.5699 105.78 71.6099 106.08 71.5899C106.06 71.9999 105.68 73.9999 105.53 74.4999H105.49ZM125.08 74.7799C125.08 74.9299 125.08 74.8799 124.92 74.8999C124.502 74.9441 124.081 74.9642 123.66 74.9599C123.66 74.0799 123.66 73.4899 123.55 72.1699C125.05 71.7999 124.94 71.8699 125.19 71.8099C125.24 72.2699 125.18 74.2199 125.12 74.7799H125.08ZM133.78 72.3899C133.78 72.5499 133.78 72.4899 133.63 72.5199C133.217 72.5998 132.8 72.6565 132.38 72.6899C132.31 72.2199 132.19 71.0399 132.03 69.9099C133.37 69.4699 133.48 69.4799 133.64 69.4199C133.73 69.8499 133.84 71.8299 133.82 72.3899H133.78ZM141.07 69.1099C141.07 69.2199 141.07 69.1799 140.95 69.1999C140.58 69.2711 140.206 69.3179 139.83 69.3399C139.72 68.5299 139.71 68.1699 139.54 66.8999C140.011 66.7266 140.492 66.583 140.98 66.4699C141.06 66.8799 141.13 68.6299 141.11 69.1099H141.07ZM145.85 53.9999C139.57 56.9999 137.03 60.2099 129.08 61.6499C125.662 62.3307 122.137 62.2591 118.75 61.4399C118 58.1799 118.15 29.4399 118.22 28.3799C127.66 29.7799 146.74 22.7399 146.84 22.7099C146.73 32.4599 146.29 44.6399 145.85 53.9999ZM12.0001 17.3999C16.1801 16.8199 22.8701 14.8999 30.2901 15.5899C41.2901 16.5899 49.4801 22.2899 60.9901 23.2199C73.7301 24.2199 78.8601 20.0199 92.2401 19.0199C101.41 18.3299 113.51 21.0799 120.94 21.1299C127 21.1299 141.1 17.6899 146.94 16.4799V22.4099C146.84 22.4099 126.1 29.6099 118.1 27.7299C118.1 27.7299 117.77 27.7299 117.75 28.0199C117.68 29.1699 117.38 59.9599 118.34 61.7699C118.366 61.8224 118.403 61.8689 118.447 61.9068C118.492 61.9446 118.544 61.9729 118.6 61.9899C122.099 62.8548 125.747 62.9334 129.28 62.2199C137.19 60.7799 139.89 57.5699 145.91 54.6199C145.76 57.6199 145.62 60.3499 145.49 62.5499C138.49 65.3499 130.29 68.7299 122.59 69.3499C116.72 69.8299 100.12 67.4899 90.9201 68.1699C80.9201 68.9199 76.1501 70.9499 70.3901 71.8099C57.8801 62.4299 58.6901 62.9999 56.5101 60.1999C57.1001 51.1999 57.5101 33.0899 57.5901 29.3199C57.5921 29.2537 57.5713 29.1889 57.5313 29.1361C57.4913 29.0833 57.4344 29.0459 57.3701 29.0299C53.0001 27.8899 46.5601 26.2999 40.5301 24.8699C40.6438 24.6518 40.6824 24.4022 40.6401 24.1599C40.5906 23.8504 40.4544 23.5612 40.2474 23.3258C40.0403 23.0904 39.7708 22.9185 39.4701 22.8299C39.5777 22.6666 39.635 22.4754 39.635 22.2799C39.635 22.0844 39.5777 21.8932 39.4701 21.7299C39.2502 21.3877 38.9214 21.1296 38.5368 20.9971C38.1522 20.8647 37.7341 20.8657 37.3501 20.9999C35.7301 18.8499 31.9501 20.1899 31.1801 22.1299C30.4101 24.0699 33.2701 22.7799 24.3801 22.8799C23.1001 22.8799 18.1901 23.0599 17.3801 23.5899C17.2501 23.6699 18.1601 51.3299 18.2801 53.9399C17.3794 54.9713 16.5697 56.0787 15.8601 57.2499C15.5674 54.3156 14.9435 51.4239 14.0001 48.6299C14.0001 48.5599 14.0001 48.5199 13.6301 48.4999C13.3942 47.3434 13.2206 46.1751 13.1101 44.9999C15.3901 42.6199 14.6301 41.5699 13.6401 41.8799C13.2059 42.0997 12.7544 42.2837 12.2901 42.4299C12.0001 36.2599 11.9301 23.1899 12.0001 17.3999ZM10.3301 44.8399C10.4001 44.7399 10.6401 36.7899 11.2201 38.1699C11.6601 39.2299 11.6101 42.4399 11.7101 42.6299C12.1901 43.6299 13.4701 42.3999 13.9901 42.3799C14.2501 42.7099 12.9901 44.2799 12.6801 44.6399C12.3701 44.9999 12.6801 45.5099 13.3001 48.4899H9.13013C9.54013 47.1499 10.1401 45.2199 10.3301 44.8399ZM13.4601 74.1999C11.2994 74.0447 9.28393 73.0549 7.84013 71.4399C3.51013 67.0499 6.16013 54.7799 8.00013 48.9299H13.6701C14.6191 51.8143 15.2397 54.7965 15.5201 57.8199C15.5249 57.8608 15.5429 57.899 15.5713 57.9288C15.5997 57.9586 15.637 57.9784 15.6776 57.9851C15.7182 57.9919 15.7599 57.9853 15.7964 57.9663C15.833 57.9474 15.8623 57.917 15.8801 57.8799C18.0202 54.1282 21.1284 51.02 24.8801 48.8799C25.2115 55.1526 24.1317 61.4198 21.7201 67.2199C20.1501 70.8699 19.2401 74.4699 13.4601 74.1999ZM23.2601 64.0699C24.079 64.1306 24.8585 64.4456 25.4896 64.9709C26.1207 65.4963 26.5719 66.2056 26.7801 66.9999C27.8601 70.7499 23.4301 71.9999 20.8701 70.5599C21.7868 68.4427 22.5847 66.276 23.2601 64.0699ZM17.2601 78.8699C21.2601 80.2199 20.9101 86.6899 15.2601 85.6599C15.8101 83.7199 16.3601 81.6899 17.3001 78.8699H17.2601ZM14.3001 90.9999C14.4526 89.4043 14.7437 87.825 15.1701 86.2799C21.4401 87.5499 22.3001 80.0099 17.3901 78.6399C18.2467 76.0162 19.3031 73.4621 20.5501 70.9999C21.7516 71.6602 23.1538 71.8559 24.4901 71.5499C29.5701 70.3899 27.6401 63.8199 23.3401 63.7799C24.8716 58.8714 25.4586 53.7171 25.0701 48.5899C25.0201 47.7699 26.0701 47.1999 27.3601 46.8499C27.3263 47.1356 27.3263 47.4242 27.3601 47.7099C27.5701 50.4299 32.3601 51.7099 34.8101 49.4599C36.6977 50.1548 38.7202 50.4046 40.7201 50.1899C41.9109 49.9845 43.0295 49.4785 43.9701 48.7199C44.4301 48.3699 45.6001 48.8399 46.7301 49.5599C45.7547 49.9189 44.951 50.6333 44.4801 51.5599C44.1793 52.0857 43.9902 52.668 43.9248 53.2703C43.8594 53.8725 43.9191 54.4818 44.1001 55.0599C44.5665 55.7975 45.2315 56.3886 46.0186 56.7654C46.8057 57.1421 47.6831 57.2893 48.5501 57.1899C48.0541 60.3086 47.9667 63.4786 48.2901 66.6199C47.5574 66.5996 46.8332 66.7809 46.1966 67.1442C45.5599 67.5075 45.0354 68.0387 44.6801 68.6799C42.1301 72.9699 46.4901 75.7699 50.2401 74.1599C51.4401 77.8199 54.3201 86.2699 53.9501 87.2899C52.7169 88.3589 51.2915 89.1836 49.7501 89.7199C49.639 89.0278 49.3599 88.3734 48.9372 87.8141C48.5146 87.2548 47.9614 86.8076 47.326 86.5115C46.6905 86.2155 45.9922 86.0797 45.2921 86.1161C44.592 86.1524 43.9115 86.3597 43.3101 86.7199C41.3801 87.9799 40.9501 90.8299 41.5501 91.9299C38.017 92.5054 34.4487 92.8395 30.8701 92.9299C31.6101 86.9299 22.1801 86.0899 22.4201 92.9299C19.6362 92.6716 16.9026 92.0219 14.3001 90.9999ZM49.1201 89.9999C46.7403 90.8569 44.2866 91.4929 41.7901 91.8999V91.8399C41.6483 91.2637 41.6294 90.6641 41.7345 90.08C41.8395 89.496 42.0664 88.9406 42.4001 88.4499C42.807 87.8132 43.4009 87.3179 44.1004 87.0322C44.7999 86.7465 45.5707 86.6843 46.307 86.8541C47.0433 87.0239 47.7089 87.4175 48.2126 87.9807C48.7163 88.544 49.0333 89.2493 49.1201 89.9999ZM30.2101 92.9399C27.9101 92.9399 25.4001 92.9399 22.6601 92.8799C22.6253 91.8457 22.9801 90.836 23.6542 90.0508C24.3282 89.2656 25.2725 88.7621 26.3001 88.6399C26.8514 88.6259 27.3992 88.7307 27.9064 88.9474C28.4135 89.164 28.868 89.4873 29.239 89.8953C29.61 90.3033 29.8888 90.7864 30.0563 91.3118C30.2239 91.8372 30.2764 92.3925 30.2101 92.9399ZM24.8101 162.07C24.7704 162.158 24.7084 162.234 24.6301 162.29C22.7492 162.312 20.8688 162.215 19.0001 162C18.9201 161 18.8501 159.62 18.8001 158.76C20.1059 158.968 21.4285 159.052 22.7501 159.01C22.4501 161.59 22.5201 161.44 22.8501 161.54C24.0801 162 23.9101 161.74 24.8101 162.07ZM23.0001 158.4C21.4992 158.458 19.9965 158.347 18.5201 158.07C17.9201 154.07 16.4401 137.98 16.4501 130.19C18.9201 130.99 23.6401 131.28 28.9701 131.19C27.3701 138.57 23.4301 157.11 23.0001 158.4ZM50.4001 160.16C50.3577 160.246 50.2961 160.321 50.2201 160.38C48.3397 160.408 46.4593 160.318 44.5901 160.11C44.5301 159.4 44.4801 158.46 44.4401 157.67C45.7062 157.874 46.9926 157.921 48.2701 157.81C48.0701 159.61 48.1101 159.54 48.4401 159.65C49.6201 160 49.4801 159.83 50.3801 160.16H50.4001ZM48.4701 157.16C46.9794 157.354 45.4662 157.282 44.0001 156.95C43.3301 154.22 41.0001 139.86 40.2401 130.78C44.7201 130.46 48.8601 129.99 51.7201 129.51C51.5201 137.45 49.4601 154.48 48.4501 157.13L48.4701 157.16ZM57.4701 127.04C55.2601 130.22 15.6601 132.38 15.2901 128.76C14.1395 116.612 14.5023 104.368 16.3701 92.3099C25.0101 94.8499 44.2701 93.8699 52.4901 89.1199C55.0001 104.42 58.3101 125.71 57.4101 127L57.4701 127.04Z" fill="black"/>
<path fill-rule="evenodd" clip-rule="evenodd" d="M37.7202 79.8899C37.8066 79.2428 37.7473 78.5847 37.5466 77.9636C37.3459 77.3424 37.0089 76.774 36.5602 76.2999C36.1238 75.8064 35.5742 75.4263 34.9585 75.1921C34.3428 74.9579 33.6794 74.8766 33.0254 74.9553C32.3713 75.034 31.7462 75.2702 31.2036 75.6438C30.661 76.0173 30.2172 76.517 29.9102 77.0999C29.5726 77.6494 29.3576 78.2654 29.2799 78.9057C29.2022 79.546 29.2638 80.1955 29.4602 80.8099C31.0602 83.8599 37.1802 83.5999 37.7202 79.8899ZM30.3402 77.3399C30.6088 76.8255 30.9988 76.3843 31.4763 76.0545C31.9538 75.7248 32.5045 75.5164 33.0807 75.4475C33.6569 75.3785 34.2412 75.4511 34.783 75.6589C35.3249 75.8666 35.8079 76.2033 36.1902 76.6399C36.5834 77.0619 36.8772 77.5665 37.0502 78.1167C37.2232 78.6669 37.2711 79.2488 37.1902 79.8199C36.7302 83.0099 31.2702 83.2399 29.8802 80.5699C29.73 80.0289 29.6933 79.4626 29.7724 78.9067C29.8516 78.3509 30.0449 77.8174 30.3402 77.3399ZM41.0802 61.6299C41.1728 60.9765 41.1166 60.3107 40.9157 59.6821C40.7148 59.0535 40.3745 58.4785 39.9202 57.9999C39.4846 57.506 38.9355 57.1252 38.3203 56.8903C37.7051 56.6553 37.042 56.5731 36.3881 56.6508C35.7341 56.7285 35.1087 56.9637 34.5657 57.3363C34.0226 57.7089 33.5781 58.2077 33.2702 58.7899C29.7302 65.1799 40.3602 66.6499 41.0802 61.6299ZM33.7002 59.0799C33.9688 58.5655 34.3588 58.1243 34.8363 57.7945C35.3138 57.4648 35.8645 57.2564 36.4407 57.1875C37.0169 57.1185 37.6012 57.1911 38.143 57.3989C38.6849 57.6066 39.1679 57.9433 39.5502 58.3799C39.9452 58.8007 40.2402 59.3051 40.4133 59.8557C40.5864 60.4062 40.6332 60.9887 40.5502 61.5599C40.0902 64.7499 34.6302 64.9699 33.2402 62.3099C33.09 61.7689 33.0533 61.2026 33.1324 60.6467C33.2116 60.0909 33.4049 59.5574 33.7002 59.0799ZM168.76 105.44C166.809 104.069 164.733 102.883 162.56 101.9C162.71 100.7 163.27 93.7399 162.86 93.1099C162.73 92.9199 162.7 93.1099 162.86 92.7299C163.18 92.9564 163.548 93.1043 163.936 93.1617C164.323 93.219 164.719 93.1841 165.09 93.0599C165.438 93.5245 165.952 93.8363 166.524 93.9296C167.097 94.0229 167.683 93.8903 168.16 93.5599C169.67 92.7599 172.29 89.6399 171.5 87.4299C171.2 86.5999 170.98 87.1299 171.81 86.5599C172.476 85.9821 172.99 85.2511 173.31 84.4299C173.717 83.6577 173.884 82.7816 173.79 81.9138C173.695 81.0461 173.344 80.2264 172.78 79.5599C171.951 78.5481 170.807 77.8438 169.53 77.5599C169.132 77.4508 168.728 77.364 168.32 77.2999C168.1 75.9799 169.09 73.5899 165.46 71.6199C164.316 71.0758 163.008 70.9865 161.8 71.3699C160.42 71.7599 160.8 72.3699 160.55 71.6399C159.46 68.7899 155.84 66.7599 153.39 68.2499C152.688 68.665 152.091 69.2365 151.645 69.9197C151.199 70.603 150.917 71.3798 150.82 72.1899C150.853 73.0226 151.058 73.8395 151.42 74.5899C147.22 75.1199 147.85 81.2899 151.5 81.1399C150.744 82.8655 150.136 84.6518 149.68 86.4799C149.25 88.7199 148.93 91.2399 149.97 93.2799C150.422 94.0949 151.053 94.7972 151.815 95.334C152.577 95.8709 153.451 96.2284 154.37 96.3799C153.87 97.3299 153.37 98.2799 153.04 99.0099C144.91 97.3799 127.2 102.11 125.53 103.56C125.23 103.82 125.36 104.05 125.53 104.56C124.365 104.889 123.183 105.16 121.99 105.37C118.165 100.789 113.938 96.5585 109.36 92.7299C109.48 90.4799 107.83 87.8899 105.99 87.3999C103.99 84.2099 101.71 81.0299 101.14 80.6899C100.57 80.3499 95.8802 83.3899 95.5802 83.9999C95.4802 84.1899 95.5802 84.3499 95.7402 84.6799C96.6802 86.4899 100.99 93.5599 102.92 96.3099C104.504 100.177 106.442 103.89 108.71 107.4C108.059 107.478 107.414 107.601 106.78 107.77C99.3002 109.7 92.7202 114.49 87.4402 119.71C81.3502 125.71 75.7702 133.82 73.8402 137.78C73.7402 137.97 73.6602 138.12 73.7502 138.29C73.9791 138.724 74.2328 139.145 74.5102 139.55L73.9202 140.41C72.1902 139.08 66.6802 135.11 64.9202 136.48C63.3402 137.13 62.3402 137.28 64.5002 141.1C65.8802 143.52 69.6602 147.65 72.0702 148.84C73.6302 149.6 74.5002 148.12 74.2102 147.53C75.6862 146.729 77.0595 145.752 78.3002 144.62L79.3002 145.87C79.3599 145.936 79.4419 145.978 79.5306 145.987C79.6193 145.996 79.7082 145.972 79.7802 145.92C91.5702 136.92 105.86 125.57 107.12 126.14C109.45 127.2 117.94 140.76 120.68 142.8C120.711 142.821 120.732 142.854 120.738 142.89C120.745 142.927 120.736 142.964 120.715 142.995C120.694 143.025 120.662 143.046 120.625 143.053C120.588 143.059 120.551 143.051 120.52 143.03C117.36 140.86 108.77 127.77 106.88 126.79C105.22 127.28 100.01 131.38 90.6102 138.07C85.8702 152.07 84.1902 169.62 84.6102 170.74C84.7002 170.95 85.1402 171.2 85.7802 171.46C85.6602 172.55 85.5402 173.67 85.4502 174.64C83.6002 175.82 77.9002 179.73 78.6202 181.82C78.6902 183.48 78.4602 184.52 82.8302 183.82C85.5602 183.35 88.4802 181.82 90.8302 180.51C91.2202 180.3 91.3602 178.8 91.3802 178C91.9309 176.47 92.2674 174.872 92.3802 173.25C93.0325 173.425 93.7149 173.455 94.3802 173.34C94.8402 173.11 96.5102 170.22 98.6202 166.27C96.6202 174.08 94.2602 184.6 95.0502 185.57C95.2917 185.902 95.6396 186.142 96.0362 186.249C96.4328 186.357 96.8541 186.325 97.2302 186.16C98.3802 185.67 103.91 166.3 105.34 160.5C109.52 161.5 116.8 163.24 124.89 165.09C121.23 177.95 118.14 190.89 118.8 191.74C119.032 192.072 119.373 192.313 119.764 192.42C120.155 192.528 120.571 192.496 120.94 192.33C121.5 192.09 125.94 178.96 130.33 166.33C142.33 169.03 154.89 171.7 161.19 172.57C162.19 180.76 164.02 193.75 165.19 194.45C165.533 194.678 165.945 194.78 166.354 194.74C166.764 194.7 167.148 194.52 167.44 194.23C168.13 193.54 167.04 180.23 166.17 171.93C169.65 168.49 176.55 157.17 182.46 146.7C183.77 159.28 187.31 189.7 188.64 192.05C188.806 192.244 189.017 192.394 189.253 192.488C189.49 192.582 189.747 192.617 190 192.59C190.418 192.565 190.811 192.382 191.1 192.08C192.01 191.18 188.1 150.48 186.92 142C189.13 141.92 190.92 141.83 192.1 141.71C193.61 141.56 193.92 137.58 192.54 137.16C191.089 136.78 189.606 136.529 188.11 136.41C190.59 131.74 192.35 128.18 192.74 127.04C192.82 126.8 192.89 126.54 192.74 126.37C192.23 126.032 191.684 125.753 191.11 125.54C193.4 120.67 194.89 117.34 194.95 117.13C196 113.16 172.71 106.58 168.76 105.44ZM70.6302 138.86C70.0278 140.214 69.2801 141.498 68.4002 142.69L67.4002 141.49C68.3221 140.535 68.9203 139.314 69.1102 138C69.6202 138.28 70.1302 138.57 70.6302 138.86ZM68.5702 137.75C68.3684 138.943 67.8228 140.052 67.0002 140.94C64.2402 137.27 64.5702 135.8 68.5702 137.75ZM72.3102 148.51C70.2002 147.37 65.4002 142.27 64.1902 138.83C64.1102 138.61 63.8902 137.9 64.0502 137.74C64.1939 137.626 64.3519 137.532 64.5202 137.46C64.4602 138.74 65.9102 140.69 66.7002 141.68C68.1702 143.51 71.1202 147.07 73.4802 147.68C73.6452 147.714 73.8153 147.714 73.9802 147.68C74.1902 148 73.5002 149.16 72.3102 148.51ZM73.6402 147.1C72.3502 146.75 70.4802 145.03 68.8402 143.2C69.7598 141.925 70.4595 140.506 70.9102 139C72.2302 139.79 73.3802 140.58 73.8402 140.93C73.8655 140.949 73.8943 140.962 73.9249 140.969C73.9556 140.976 73.9873 140.977 74.0182 140.971C74.0492 140.966 74.0786 140.954 74.1047 140.936C74.1309 140.919 74.1532 140.896 74.1702 140.87C74.1702 140.87 74.4202 140.45 74.7502 139.93C75.7502 141.31 77.0402 143.03 78.1102 144.35C76.4302 145.6 74.2302 147.27 73.6402 147.1ZM82.8402 177.34C83.9025 178.361 84.8513 179.495 85.6702 180.72L84.2002 181.22C83.618 180.05 82.6844 179.092 81.5302 178.48C82.0002 178.05 82.4502 177.66 82.8402 177.34ZM81.1002 178.88C82.1359 179.49 82.9809 180.376 83.5402 181.44C79.3302 182.77 77.8002 182.08 81.1002 178.88ZM90.7402 180.14C87.5502 181.64 83.9202 183.4 80.6002 183.37C80.3802 183.37 79.6002 183.37 79.5302 183.13C79.4731 182.959 79.4395 182.78 79.4302 182.6C80.8802 183.19 84.0002 182.03 85.5002 181.5C87.2302 180.91 89.8902 179.88 91.1602 178.5C91.1033 179.064 90.9617 179.617 90.7402 180.14ZM90.9702 177.76C90.1502 178.9 87.9702 179.88 86.3102 180.49C85.4195 179.211 84.3368 178.078 83.1002 177.13C85.8602 174.93 85.9902 175.13 86.0102 174.85C86.0102 174.85 86.1002 173.27 86.2202 171.64C88.1384 172.279 90.0958 172.793 92.0802 173.18C91.929 174.748 91.5657 176.289 91.0002 177.76H90.9702ZM184.97 111.08C183.25 110.84 181.77 111.08 181.02 111.89C180.67 112.29 179.62 113.89 178.12 116.3C176.068 112.37 173.209 108.918 169.73 106.17C175.53 107.81 181 109.57 185 111.08H184.97ZM153.05 99.5299C153.26 99.5299 153.05 99.5299 154.72 96.3599C154.9 95.9899 153.72 96.2399 152.1 95.1299C149.25 93.2299 149.48 89.9399 150.18 86.5899C150.689 84.6834 151.358 82.8234 152.18 81.0299C153.055 80.6695 153.845 80.1315 154.5 79.4499C159.45 81.9899 161.35 81.4499 162.23 81.8099C162.032 82.2941 161.774 82.7511 161.46 83.1699C161.46 83.1699 161.98 86.4999 161.23 88.0399C160.92 88.6699 162.07 88.9899 162.6 88.6599C162.861 88.4594 163.099 88.2314 163.31 87.9799C165.17 87.6799 165.31 88.6099 164.4 89.7799C163.27 91.1899 162.49 91.2499 162.4 91.9399C162.35 92.4599 161.31 93.4399 162.21 93.5699C162.266 96.4095 162.125 99.2495 161.79 102.07C161.78 102.143 161.793 102.219 161.83 102.284C161.866 102.349 161.922 102.4 161.99 102.43C162.59 102.68 163.23 102.97 163.85 103.28C161.1 107.01 157.54 110.55 152.85 109.44C148.16 108.33 148.78 103.54 150.99 99.2599C151.682 99.3062 152.37 99.3964 153.05 99.5299ZM150.55 99.3599C149.67 101.08 148.48 104.08 149 106.49C149.6 109.24 152.28 110.31 155 110.2C158.5 110.06 160.66 108.13 162.81 105.73C163.45 105 164.09 104.24 164.59 103.55C175.66 109.23 181.27 122.7 181.1 125.24C179.1 126.4 167.31 126.55 164.96 126.58C164.302 124.15 163.795 121.682 163.44 119.19C163.44 119.153 163.426 119.117 163.399 119.091C163.373 119.065 163.337 119.05 163.3 119.05C163.263 119.05 163.228 119.065 163.201 119.091C163.175 119.117 163.16 119.153 163.16 119.19C163.428 121.796 163.865 124.381 164.47 126.93C164.55 127.25 164.94 127.16 166.23 127.16L166.41 127.59C159.26 128.42 155.14 128.59 149.24 131.51C145.83 128.13 142.59 124.77 137.54 120.51C135.611 118.739 133.545 117.124 131.36 115.68C133.212 112.762 135.321 110.014 137.66 107.47C137.8 107.35 137.61 107.14 137.47 107.26C134.777 109.508 132.542 112.255 130.89 115.35C129.95 113.25 126.79 106.07 126.14 104.02C127.85 102.94 142 98.8399 150.55 99.3599ZM158.63 151.64C160.06 148.83 161.76 145.64 163.63 142.35C168.95 142.35 174.42 142.25 179.21 142.17C176.69 146.61 174.03 151.32 171.65 155.48C167.3 154.1 162.89 152.81 158.63 151.64ZM171.27 156.08C167.66 162.38 164.76 167.32 164.14 167.98C162.48 167.98 147.01 164.46 132.19 161.08C134.19 155.38 136.03 150.19 137.33 146.86C148.2 149.44 161.26 152.87 171.27 156.08ZM158.87 142.4L163.1 142.35C162.53 143.41 161.97 144.46 161.43 145.51C160.68 144.58 159.82 143.53 158.87 142.4ZM139.28 142.4C138.36 142.56 138.28 141.62 131.52 160.97L126.91 159.91C132.6 140.37 134.64 138.73 134.91 138.73C135.77 137.52 165.43 135.85 182.36 136.62L179.57 141.54C164.7 141.74 143 141.67 139.28 142.36V142.4ZM178.62 135.94C164.62 135.67 144.99 136.68 137.62 137.8C134.7 137.56 137.69 135.59 140.46 135.16C142.56 134.84 144.83 134.93 145.29 134.7C147.69 133.5 148.66 130.37 166.83 128.13C167.26 128.07 166.98 127.59 166.83 127.2C170.985 127.246 175.137 127.013 179.26 126.5C179.661 128.882 179.858 131.294 179.85 133.71C179.692 134.555 179.26 135.325 178.62 135.9V135.94ZM106.12 87.9399C106.546 88.0633 106.943 88.2712 107.286 88.5513C107.63 88.8313 107.913 89.1778 108.12 89.5699C108.481 90.3372 108.698 91.1642 108.76 92.0099C108.13 90.9399 107.67 90.0699 107.54 89.9499C107.19 89.5999 104.63 89.8299 103.96 88.9499C103.29 88.0699 105.09 87.6399 106.12 87.8999V87.9399ZM96.0602 84.2199C97.1702 82.9299 101.06 80.6899 101.06 80.9399C101.55 81.2699 103.49 84.2499 105.33 87.2999C103.89 87.2999 102.68 88.1699 103.47 89.2999C104.26 90.4299 106.12 90.2999 107.11 90.4699C107.829 91.597 108.461 92.777 109 93.9999C108 94.5699 104.86 96.4499 104.13 96.8099C102.92 95.3899 96.3802 84.9399 96.0602 84.2199ZM109.37 107.37C107.246 104.242 105.402 100.932 103.86 97.4799C104.06 97.5599 104.25 97.4799 104.51 97.3199C105.51 96.7999 108.61 94.9699 109.51 94.4399C109.9 94.1999 109.59 93.5999 109.38 93.1299C115.2 97.8299 121.63 105.89 121.82 105.95C123.177 105.828 124.517 105.567 125.82 105.17C126.74 107.62 128.82 112.39 129.82 114.63C122.8 109.92 115.69 106.84 109.37 107.37ZM111.2 141.55C120.2 143.5 126.64 144.87 131.2 145.46C129.79 149.25 128.14 154.34 126.52 159.77C115.94 157.35 106.73 155.24 104.61 154.84C107.93 148.21 110.89 142.2 111.2 141.55ZM96.9402 185.55C96.7091 185.635 96.4565 185.643 96.2203 185.573C95.9841 185.503 95.7771 185.358 95.6302 185.16C95.2502 183.82 97.7802 172.22 99.5502 164.6C100.37 163.05 101.23 161.38 102.1 159.69L104.96 160.4C103.46 166 97.8502 184.23 96.9402 185.55ZM120.66 191.79C120.428 191.876 120.174 191.883 119.938 191.811C119.701 191.739 119.495 191.591 119.35 191.39C119.2 189.39 122.03 177.31 125.35 165.2L129.66 166.2C125.6 178.09 121.47 190.34 120.66 191.79ZM166.96 193.79C166.779 193.956 166.547 194.056 166.301 194.072C166.056 194.089 165.812 194.021 165.61 193.88C164.74 192.75 162.82 180.53 161.69 172.64C165.06 173.08 165.16 172.87 165.69 172.4C166.4 180.4 167.24 192.54 167 193.77L166.96 193.79ZM190.6 191.66C190.422 191.813 190.198 191.903 189.964 191.918C189.729 191.932 189.496 191.87 189.3 191.74C188.14 189.68 184.3 158.29 182.83 146.15C183.61 144.76 184.37 143.39 185.1 142.06H186.64C187.53 149.71 190.9 188.89 190.6 191.64V191.66ZM192.4 137.78C193.13 138 192.85 141 192.09 141.08C190.65 141.22 188.34 141.32 185.47 141.4C186.31 139.86 187.11 138.4 187.85 136.99C189.387 137.107 190.91 137.365 192.4 137.76V137.78ZM192.15 126.78C191.15 130.22 170.03 168.98 164.89 172.2C162.78 173.53 106.69 160.47 102.23 159.45C102.98 158 103.74 156.52 104.47 155.06C123.47 159.45 163.27 169.14 164.41 168.58C165.72 167.93 187.68 128.15 189.47 125.66C190.39 125.958 191.286 126.326 192.15 126.76V126.78ZM194.3 116.95C193.056 119.741 191.786 122.522 190.49 125.29C190.1 125.14 189.75 125.02 189.56 124.97C189.476 124.93 189.381 124.919 189.289 124.937C189.197 124.955 189.114 125.001 189.05 125.07C188.67 125.49 186.05 130.07 182.65 136.07C181.57 136.02 180.43 135.98 179.25 135.96C179.779 135.34 180.125 134.585 180.25 133.78C180.43 132.7 179.95 129.06 179.56 126.44C180.84 126.19 181.69 125.87 181.76 125.44C182.03 124.03 179.33 118.53 178.52 117.01C180.11 114.46 181.23 112.76 181.52 112.37C183.79 109.76 194.67 114.93 194.3 116.93V116.95Z" fill="black"/>
</svg>
