<svg width="200" height="200" viewBox="0 0 200 200" fill="none" xmlns="http://www.w3.org/2000/svg">
<path d="M155 9.67015C150.71 9.50015 147 13.6702 147.62 17.7402C147.913 19.1586 148.639 20.4513 149.697 21.4399C150.756 22.4286 152.095 23.0646 153.53 23.2602C157.53 23.7802 161.89 20.4402 161.74 16.2602C161.615 14.5281 160.861 12.9017 159.619 11.6877C158.377 10.4737 156.734 9.75602 155 9.67015ZM157.68 20.2802L154.68 18.2802L150.77 20.7202L152.1 17.0302L149.92 15.6202L152.84 15.1402L154.68 12.1902L155.79 14.5202L159.19 14.3702L156.68 16.8002L157.68 20.2802ZM113.13 62.8701C113.8 62.7001 114.62 62.1001 114.53 61.3401C114.44 60.5801 113.62 60.1901 112.96 60.1601C111.9 60.1601 110.84 61.1601 111.02 61.9501C111.2 62.7401 112.26 63.0801 113.13 62.8701ZM83.65 172.5C84.6344 171.68 85.5114 170.74 86.26 169.7C87.55 167.89 89.44 165.26 88.73 162.4C88.28 160.56 86.62 158.16 84.24 158.08C81.86 158 79.94 160.52 79.37 162.36C78.58 164.87 79.76 167.15 80.55 168.66C81.3158 170.135 82.37 171.441 83.65 172.5ZM82 163.3C82 162.905 82.1173 162.518 82.337 162.189C82.5568 161.86 82.8692 161.604 83.2346 161.452C83.6001 161.301 84.0022 161.261 84.3902 161.339C84.7781 161.416 85.1345 161.606 85.4142 161.886C85.6939 162.166 85.8844 162.522 85.9615 162.91C86.0387 163.298 85.9991 163.7 85.8477 164.065C85.6964 164.431 85.44 164.743 85.1111 164.963C84.7822 165.183 84.3955 165.3 84 165.3C83.4695 165.3 82.9608 165.089 82.5858 164.714C82.2107 164.339 82 163.831 82 163.3ZM152.44 172.22C152.56 168.41 150.44 165.84 148.92 165.84C147.4 165.84 145.28 168.41 145.39 172.22H152.44ZM153.36 170.38L155.79 170.43C156 169.551 155.879 168.626 155.45 167.83C154.61 166.36 153.26 165.69 152.35 167.1C153.006 168.068 153.358 169.211 153.36 170.38ZM142 170.43L144.43 170.38C144.433 169.212 144.781 168.071 145.43 167.1C144.51 165.69 143.16 166.37 142.33 167.83C141.904 168.627 141.786 169.552 142 170.43ZM148.92 165.06C149.389 165.102 149.86 165 150.269 164.767C150.678 164.535 151.007 164.182 151.21 163.758C151.413 163.333 151.482 162.856 151.407 162.392C151.332 161.927 151.117 161.496 150.79 161.157C150.464 160.818 150.041 160.587 149.58 160.494C149.118 160.402 148.639 160.453 148.207 160.64C147.775 160.828 147.411 161.143 147.163 161.543C146.915 161.943 146.795 162.41 146.82 162.88C146.836 163.44 147.06 163.973 147.449 164.376C147.837 164.779 148.362 165.023 148.92 165.06ZM143.7 165.7C144.112 165.662 144.494 165.47 144.771 165.162C145.047 164.855 145.197 164.454 145.19 164.04C145.161 163.749 145.048 163.472 144.864 163.244C144.681 163.016 144.435 162.846 144.157 162.755C143.878 162.664 143.58 162.656 143.297 162.732C143.014 162.807 142.759 162.964 142.564 163.182C142.368 163.399 142.24 163.669 142.195 163.959C142.15 164.248 142.191 164.544 142.311 164.811C142.431 165.078 142.627 165.304 142.873 165.462C143.12 165.62 143.407 165.703 143.7 165.7ZM154.14 165.7C154.552 165.662 154.934 165.47 155.211 165.162C155.487 164.855 155.637 164.454 155.63 164.04C155.601 163.749 155.488 163.472 155.304 163.244C155.121 163.016 154.875 162.846 154.597 162.755C154.318 162.664 154.02 162.656 153.737 162.732C153.454 162.807 153.199 162.964 153.004 163.182C152.808 163.399 152.68 163.669 152.635 163.959C152.59 164.248 152.631 164.544 152.751 164.811C152.871 165.078 153.067 165.304 153.313 165.462C153.56 165.62 153.847 165.703 154.14 165.7ZM88.41 65.7501C87.7068 65.8042 87.005 65.6288 86.41 65.2501C86.6754 64.372 87.1141 63.556 87.7 62.8501C87.7437 62.7856 87.7632 62.7077 87.7549 62.6302C87.7467 62.5527 87.7113 62.4806 87.655 62.4267C87.5987 62.3728 87.5251 62.3405 87.4473 62.3357C87.3695 62.3308 87.2925 62.3537 87.23 62.4001C86.88 62.7601 85.36 64.9601 85.65 65.6701C85.94 66.3801 88.3 66.7701 88.83 66.2601C88.8976 66.2045 88.9403 66.1242 88.9488 66.037C88.9572 65.9498 88.9307 65.8628 88.875 65.7951C88.8193 65.7275 88.739 65.6848 88.6518 65.6763C88.5646 65.6679 88.4776 65.6945 88.41 65.7501ZM94.29 70.8101C96.4826 70.7386 98.5909 69.948 100.29 68.5601C100.207 69.246 99.9812 69.9068 99.6263 70.4995C99.2714 71.0922 98.7956 71.6035 98.23 72.0001C98.1637 72.0399 98.1159 72.1044 98.0971 72.1794C98.0784 72.2545 98.0902 72.3338 98.13 72.4001C98.1698 72.4665 98.2343 72.5142 98.3093 72.533C98.3843 72.5517 98.4637 72.5399 98.53 72.5001C99.411 72.0144 100.132 71.2834 100.606 70.3959C101.08 69.5084 101.286 68.5025 101.2 67.5001C101.195 67.4132 101.165 67.3295 101.113 67.2593C101.062 67.1891 100.991 67.1354 100.909 67.1047C100.828 67.074 100.739 67.0676 100.654 67.0863C100.569 67.105 100.491 67.1481 100.43 67.2101C98.8249 68.9359 96.6216 69.9839 94.27 70.1401C94.1709 70.1453 94.0779 70.189 94.0106 70.2619C93.9433 70.3347 93.9072 70.431 93.91 70.5301C93.934 70.6119 93.9842 70.6836 94.0528 70.7342C94.1214 70.7847 94.2047 70.8114 94.29 70.8101ZM94.76 48.6502C94.6486 48.6502 94.5418 48.6944 94.463 48.7732C94.3842 48.8519 94.34 48.9588 94.34 49.0701C94.34 49.1815 94.3842 49.2884 94.463 49.3671C94.5418 49.4459 94.6486 49.4902 94.76 49.4902C95.5674 49.5296 96.3557 49.7495 97.0669 50.1337C97.7782 50.5179 98.3943 51.0566 98.87 51.7101C98.9192 51.7688 98.9879 51.8079 99.0635 51.8203C99.1391 51.8326 99.2166 51.8174 99.282 51.7775C99.3473 51.7376 99.3962 51.6755 99.4197 51.6026C99.4432 51.5297 99.4397 51.4507 99.41 51.3802C98.9421 50.5575 98.2662 49.8723 97.4501 49.3932C96.634 48.9141 95.7063 48.6578 94.76 48.6502ZM82.81 49.3302C82.1447 49.8922 81.2896 50.1785 80.42 50.1302C80.3303 50.1258 80.2422 50.1551 80.173 50.2123C80.1038 50.2696 80.0585 50.3506 80.046 50.4395C80.0334 50.5284 80.0546 50.6188 80.1053 50.693C80.156 50.7671 80.2326 50.8196 80.32 50.8401C80.858 50.953 81.4148 50.9405 81.9472 50.8035C82.4796 50.6665 82.9733 50.4087 83.39 50.0501C83.79 49.6701 83.26 49.0002 82.81 49.3302ZM81.89 59.5601C81.89 59.1101 81.65 57.2701 81.66 56.8401C81.66 56.7473 81.6231 56.6583 81.5575 56.5927C81.4918 56.527 81.4028 56.4902 81.31 56.4902C81.2188 56.4874 81.1302 56.5203 81.0629 56.582C80.9957 56.6436 80.9551 56.7291 80.95 56.8201C80.8956 57.7694 80.8956 58.7209 80.95 59.6701C80.9646 59.7948 81.0281 59.9086 81.1265 59.9864C81.1753 60.0249 81.2311 60.0535 81.2909 60.0704C81.3507 60.0874 81.4133 60.0924 81.475 60.0851C81.5367 60.0779 81.5964 60.0586 81.6506 60.0283C81.7049 59.998 81.7527 59.9574 81.7912 59.9086C81.8297 59.8598 81.8583 59.804 81.8753 59.7442C81.8922 59.6844 81.8972 59.6219 81.89 59.5601ZM96 59.3201C96 58.9901 95.8 57.6701 95.81 57.3201C95.81 57.2273 95.7731 57.1383 95.7075 57.0727C95.6418 57.007 95.5528 56.9702 95.46 56.9702C95.3672 56.9702 95.2781 57.007 95.2125 57.0727C95.1468 57.1383 95.11 57.2273 95.11 57.3201C95.11 57.6801 95.01 59.0701 95.05 59.4301C95.0518 59.4967 95.0675 59.5621 95.096 59.6223C95.1245 59.6824 95.1652 59.736 95.2155 59.7795C95.2659 59.8231 95.3247 59.8558 95.3883 59.8754C95.4519 59.895 95.5189 59.9012 95.585 59.8935C95.6511 59.8859 95.7149 59.8645 95.7724 59.8309C95.8298 59.7973 95.8796 59.7521 95.9186 59.6981C95.9577 59.6442 95.985 59.5828 95.999 59.5177C96.0131 59.4526 96.0134 59.3853 96 59.3201Z" fill="black"/>
<path d="M49.2995 103C49.2888 103.033 49.2888 103.068 49.2995 103.1C53.6701 112.947 60.7928 121.32 69.8105 127.214C78.8282 133.107 89.3568 136.27 100.129 136.32C131.369 136.32 156.969 110.03 155.659 77.8503C155.188 66.3048 151.012 55.2178 143.749 46.2303C138.093 39.2779 130.845 33.7899 122.619 30.2303C122.725 29.8697 122.805 29.5021 122.859 29.1303C123.419 25.4803 121.859 23.0403 119.089 20.5703C117.697 19.3706 116.235 18.2553 114.709 17.2303C113.195 16.0958 111.446 15.3166 109.589 14.9503C108.601 14.751 107.58 14.7874 106.609 15.0567C105.638 15.3261 104.744 15.8206 103.999 16.5003C103.719 16.7903 103.479 17.2503 103.179 17.4303C102.742 17.5627 102.28 17.5935 101.829 17.5203C98.7707 17.5198 95.7441 18.145 92.9358 19.3574C90.1275 20.5698 87.5969 22.3438 85.4995 24.5703C84.2429 24.7817 83.0567 25.2953 82.0428 26.0671C81.0289 26.8388 80.2178 27.8454 79.6795 29.0003C49.7795 41.4103 37.0595 74.0003 49.2995 103ZM83.0695 111.38C81.9036 107.537 81.3964 103.523 81.5695 99.5103C81.7195 96.1703 81.9595 90.5903 85.5695 88.2503C86.6953 87.4688 87.9236 86.8463 89.2195 86.4003C88.0695 92.7703 90.2995 99.1803 92.9995 105C91.2895 105.61 84.6395 110.39 83.0695 111.4V111.38ZM91.0695 86.3803C90.9795 85.3803 90.5195 82.3803 90.4495 81.9103C90.4358 81.7019 90.3688 81.5005 90.255 81.3254C90.1412 81.1504 89.9843 81.0074 89.7995 80.9103C89.4695 80.7403 87.9995 80.2403 87.6095 80.0403C82.9995 77.7803 79.5595 72.4003 79.9995 64.5503C81.2158 64.7273 82.4548 64.6696 83.6495 64.3803C85.2195 63.9103 86.1995 62.4303 86.5495 59.9903C86.7757 59.7834 87.0435 59.6273 87.335 59.5325C87.6264 59.4376 87.9348 59.4062 88.2395 59.4403C88.8605 59.4934 89.4619 59.6847 89.9995 60.0003C90.1133 60.7942 90.4114 61.5504 90.8698 62.2085C91.3282 62.8666 91.9342 63.4083 92.6395 63.7903C94.2229 64.5553 96.0396 64.683 97.7144 64.147C99.3893 63.6111 100.794 62.4524 101.639 60.9103C102.067 60.0561 102.335 59.1309 102.429 58.1803C104.131 58.283 105.839 58.1382 107.499 57.7503C107.499 58.2603 107.499 59.1803 107.829 59.3603C108.929 59.9103 110.829 55.4903 113.499 55.4903C114.336 55.5436 115.125 55.899 115.719 56.4903C116.18 56.8308 116.555 57.2736 116.815 57.7838C117.076 58.2939 117.214 58.8576 117.219 59.4303C117.157 59.9346 116.994 60.4215 116.742 60.8627C116.49 61.3038 116.152 61.6905 115.749 62.0003C114.555 63.124 112.989 63.7683 111.349 63.8103C111.315 63.8142 111.282 63.8265 111.254 63.8461C111.226 63.8657 111.203 63.892 111.187 63.9226C111.171 63.9532 111.163 63.9873 111.163 64.0218C111.164 64.0563 111.173 64.0901 111.189 64.1203C112.826 66.8336 113.976 69.8116 114.589 72.9203C114.049 78.8103 113.819 81.3203 113.709 82.5403C112.789 93.5403 108.999 102.68 102.899 111.89C101.533 113.823 100.385 115.903 99.4795 118.09C96.1095 107.5 87.7695 97.5803 89.8795 86.3303C90.0545 86.2591 90.2351 86.2022 90.4195 86.1603C90.4195 86.3136 90.4495 86.4436 90.5095 86.5503C90.5167 86.5871 90.5311 86.622 90.5518 86.6533C90.5726 86.6845 90.5993 86.7113 90.6304 86.7322C90.6615 86.7531 90.6964 86.7676 90.7331 86.775C90.7699 86.7824 90.8077 86.7825 90.8445 86.7753C90.8812 86.7681 90.9162 86.7537 90.9474 86.7329C90.9786 86.7122 91.0054 86.6855 91.0263 86.6544C91.0472 86.6233 91.0618 86.5884 91.0692 86.5516C91.0766 86.5149 91.0767 86.4771 91.0695 86.4403V86.3803ZM97.7495 44.5603C97.2266 44.1361 96.6392 43.7985 96.0095 43.5603C100.009 43.1903 103.099 42.0503 105.829 38.8403C106.129 39.0003 107.829 39.8403 108.089 40.0103C110.989 44.5203 109.399 46.3603 108.339 51.9103C108.019 53.5803 107.699 55.3203 107.519 56.8503C105.863 57.2709 104.159 57.4792 102.449 57.4703C102.529 56.6803 102.569 55.8303 102.679 55.0103C102.885 54.9275 103.057 54.7788 103.169 54.5876C103.281 54.3963 103.326 54.1733 103.298 53.9535C103.269 53.7338 103.168 53.5298 103.011 53.3735C102.854 53.2173 102.649 53.1176 102.429 53.0903L90.4295 52.8003C90.248 52.8114 90.073 52.8717 89.9233 52.9748C89.7735 53.0779 89.6548 53.2199 89.5797 53.3855C89.5046 53.551 89.4761 53.734 89.4972 53.9145C89.5183 54.0951 89.5882 54.2665 89.6995 54.4103C89.6298 55.9685 89.68 57.5298 89.8495 59.0803C89.347 58.8287 88.7952 58.6911 88.2334 58.6773C87.6716 58.6635 87.1137 58.7738 86.5995 59.0003C86.6838 57.6151 86.6302 56.2249 86.4395 54.8503C86.5758 54.7242 86.6774 54.5651 86.7343 54.3883C86.7912 54.2115 86.8015 54.023 86.7643 53.8411C86.7271 53.6591 86.6436 53.4898 86.5219 53.3495C86.4002 53.2093 86.2444 53.1028 86.0695 53.0403C85.9695 53.0403 86.1295 53.0403 79.7195 52.8803C79.7995 50.8803 79.8295 45.3303 80.7195 42.6203C85.8195 46.4303 92.0295 47.6203 97.7195 44.8803C97.7568 44.8491 97.7808 44.8047 97.7864 44.7563C97.7919 44.7079 97.7787 44.6592 97.7495 44.6203V44.5603ZM102.049 55.0903C101.789 56.6403 101.899 58.2703 101.329 59.7203C100.736 61.2024 99.5945 62.3986 98.1415 63.0599C96.6886 63.7211 95.0366 63.7965 93.5295 63.2703C92.7916 63.022 92.14 62.5683 91.6511 61.9625C91.1622 61.3567 90.8563 60.6239 90.7695 59.8503C90.5227 58.1956 90.419 56.5228 90.4595 54.8503C92.0795 55.0003 100.529 55.1203 102.049 55.1503V55.0903ZM85.7595 55.0903C86.0295 57.6103 86.1695 62.0903 83.9295 63.3303C83.2638 63.6193 82.5451 63.7657 81.8195 63.7603C81.185 63.8154 80.5459 63.7851 79.9195 63.6703C79.2728 63.5632 78.6682 63.2797 78.1724 62.8509C77.6765 62.4221 77.3087 61.8648 77.1095 61.2403C76.6362 59.145 76.4411 56.9965 76.5295 54.8503L85.7595 55.0903ZM99.6395 129.78C97.2695 126 88.9995 113.2 86.8195 110C88.7577 108.288 90.9088 106.832 93.2195 105.67C93.8895 106.95 98.2195 115.84 99.1095 119.4C99.1324 119.479 99.1803 119.549 99.2462 119.598C99.312 119.648 99.3921 119.675 99.4745 119.675C99.5568 119.675 99.6369 119.648 99.7027 119.598C99.7686 119.549 99.8166 119.479 99.8395 119.4C101.239 113.98 104.689 111.53 108.729 103.11C111.004 104.382 113.074 105.991 114.869 107.88C112.999 111.17 102.999 125.87 99.6395 129.83V129.78ZM117.999 109.36C112.199 103.95 109.829 102.71 109.099 102.43C111.911 96.548 113.707 90.2321 114.409 83.7503C117.309 86.0003 120.309 88.2103 122.989 90.6603C122.409 93.3903 119.229 105.58 117.999 109.36ZM122.449 30.8503C147.819 42.3503 161.449 69.7003 151.819 98.7503C146.889 96.6203 127.919 90.8303 123.579 90.1603C122.359 89.0003 116.579 84.5103 114.509 82.9403C114.509 82.4603 114.429 83.8603 115.229 74.1503C115.229 74.0403 117.459 62.9503 118.399 60.5303C118.903 59.2505 119.516 58.016 120.229 56.8403C121.398 54.7264 121.754 52.2581 121.229 49.9003C121.034 49.1518 120.694 48.4486 120.229 47.8303C121.245 46.8358 121.941 45.5617 122.229 44.1703C122.499 42.0603 121.449 40.0103 120.429 38.2403C121.181 37.0581 121.608 35.6995 121.669 34.3003C121.642 33.7696 121.491 33.2526 121.229 32.7903C121.753 32.2324 122.155 31.5717 122.409 30.8503H122.449ZM81.1695 28.2603C84.1695 24.0103 90.1695 25.0803 95.2395 26.1003C101.365 27.3494 107.325 29.3058 112.999 31.9303C113.063 31.9634 113.137 31.9699 113.206 31.9484C113.274 31.9268 113.331 31.8789 113.364 31.8153C113.398 31.7516 113.404 31.6774 113.383 31.609C113.361 31.5405 113.313 31.4834 113.249 31.4503C107.763 28.7524 101.966 26.7374 95.9895 25.4503C93.1395 24.8403 89.7295 24.1303 86.7695 24.4503C90.1787 21.2435 94.5162 19.199 99.1595 18.6103C102.329 18.2103 103.239 18.8603 104.099 17.7903C104.526 17.199 105.08 16.7105 105.719 16.3603C107.369 15.5003 109.779 15.3603 112.659 17.0003C114.214 17.8905 115.701 18.8932 117.109 20.0003C118.521 21.0216 119.771 22.2485 120.819 23.6403C121.803 24.9399 122.277 26.5552 122.149 28.1803C122.102 29.6075 121.597 30.9818 120.709 32.1003C120.318 31.6487 119.89 31.2306 119.429 30.8503C117.049 28.8503 109.049 23.2103 107.429 22.2203C107.362 22.1778 107.28 22.164 107.202 22.1818C107.124 22.1996 107.057 22.2477 107.014 22.3153C106.972 22.3829 106.958 22.4646 106.976 22.5425C106.994 22.6203 107.042 22.6878 107.109 22.7303C109.379 24.1503 116.379 29.3903 118.109 30.8603C119.229 31.7903 120.309 32.6303 120.629 33.6203C121.109 35.1503 120.229 36.6203 119.629 38.0403C119.599 38.107 119.591 38.1814 119.605 38.2531C119.62 38.3249 119.656 38.3903 119.709 38.4403C120.609 40.0603 121.649 42.3303 121.359 44.1703C121.08 45.31 120.488 46.3491 119.649 47.1703C115.549 42.2903 105.779 36.8203 99.2795 34.3703C91.6595 31.4603 82.0395 31.4503 79.4195 32.5403C79.6854 31.0036 80.2826 29.5431 81.1695 28.2603ZM79.1695 30.1703C78.8532 31.1056 78.632 32.0705 78.5095 33.0503C77.7395 33.3703 77.0495 34.6703 76.5095 36.7603C75.8595 39.5403 75.2895 41.9403 76.6795 44.2903C77.3073 45.3157 78.1845 46.1655 79.2295 46.7603C79.1095 47.7603 78.7995 51.4103 78.8295 52.9303L76.1995 52.8703H76.1295C75.9342 52.9089 75.7549 53.0049 75.6146 53.1461C75.4742 53.2872 75.3791 53.467 75.3416 53.6624C75.304 53.8579 75.3256 54.0601 75.4036 54.2432C75.4816 54.4263 75.6125 54.582 75.7795 54.6903C75.7353 56.8403 75.8624 58.9904 76.1595 61.1203C76.3114 61.887 76.6718 62.597 77.2011 63.1721C77.7304 63.7473 78.408 64.1653 79.1595 64.3803C78.8812 67.9854 79.6118 71.5968 81.2695 74.8103C82.821 77.8126 85.4283 80.135 88.5895 81.3303C89.5895 81.6603 89.5895 81.6203 89.6895 82.1603C89.6895 82.1603 90.1095 84.6803 90.2495 85.4403C87.2972 85.9286 84.6125 87.4445 82.6695 89.7203C71.0458 91.9307 59.934 96.2812 49.8995 102.55C47.0418 95.877 45.5335 88.7041 45.4615 81.4451C45.3895 74.186 46.7553 66.9846 49.48 60.2559C52.2047 53.5273 56.2345 47.4047 61.337 42.241C66.4395 37.0774 72.5138 32.975 79.2095 30.1703H79.1695ZM47.9995 13.7703C48.5895 13.7103 48.5195 12.8203 47.9995 12.8903C45.6595 12.9603 36.6895 13.2603 34.2695 13.2403C34.203 13.2528 34.143 13.2881 34.0999 13.3401C34.0567 13.3922 34.0331 13.4577 34.0331 13.5253C34.0331 13.5929 34.0567 13.6584 34.0999 13.7104C34.143 13.7625 34.203 13.7978 34.2695 13.8103C36.5095 13.9203 45.7195 14.0003 47.9995 13.7703ZM46.9995 16.1303C46.0895 16.1303 36.4995 16.8803 34.5795 16.9103C34.5026 16.9103 34.4288 16.9408 34.3744 16.9952C34.32 17.0496 34.2895 17.1234 34.2895 17.2003C34.2895 17.2772 34.32 17.351 34.3744 17.4053C34.4288 17.4597 34.5026 17.4903 34.5795 17.4903C36.1395 17.4903 45.9095 17.2303 47.0995 17.0003C47.2062 16.9772 47.3005 16.9152 47.3641 16.8265C47.4277 16.7377 47.456 16.6285 47.4436 16.52C47.4311 16.4115 47.3787 16.3115 47.2967 16.2395C47.2146 16.1675 47.1086 16.1285 46.9995 16.1303ZM48.5895 20.0803C48.5895 20.0803 36.3195 20.5403 35.1495 20.5503C35.073 20.5637 35.0038 20.6037 34.9539 20.6631C34.904 20.7226 34.8767 20.7977 34.8767 20.8753C34.8767 20.9529 34.904 21.028 34.9539 21.0874C35.0038 21.1469 35.073 21.1868 35.1495 21.2003C39.6495 21.2003 44.1495 21.3703 48.6195 21.0103C48.7308 20.9906 48.8314 20.9315 48.9027 20.8437C48.974 20.7559 49.0112 20.6453 49.0075 20.5323C49.0039 20.4192 48.9596 20.3113 48.8828 20.2283C48.806 20.1453 48.7019 20.0927 48.5895 20.0803ZM115.999 169.22L115.259 168.84C115.234 168.825 115.204 168.818 115.174 168.818C115.145 168.818 115.115 168.825 115.089 168.84C114.121 169.663 113.343 170.687 112.809 171.84C112.795 171.876 112.794 171.917 112.807 171.954C112.82 171.99 112.845 172.021 112.879 172.04C113.594 172.411 114.385 172.61 115.189 172.62C117.849 172.62 119.529 170.34 121.029 168.22C122.329 166.36 123.959 164.05 123.149 161.81C122.872 161.063 122.391 160.408 121.759 159.92C121.734 159.896 121.7 159.883 121.664 159.883C121.629 159.883 121.595 159.896 121.569 159.92C120.537 160.705 119.718 161.736 119.189 162.92C119.173 162.944 119.164 162.972 119.164 163C119.164 163.029 119.173 163.057 119.189 163.08L119.999 163.85C119.064 165.905 117.7 167.736 115.999 169.22ZM113.509 167.9C112.828 168.672 112.216 169.502 111.679 170.38C111.419 170.95 112.179 171.23 112.379 170.88C112.938 170.018 113.553 169.193 114.219 168.41C114.429 168.19 113.999 167.57 113.509 167.9ZM118.549 162.19C118.612 162.192 118.675 162.18 118.732 162.154C118.789 162.128 118.84 162.089 118.879 162.04C119.442 161.18 120.056 160.355 120.719 159.57C120.939 159.34 120.509 158.73 119.999 159.07C119.325 159.839 118.719 160.665 118.189 161.54C118.151 161.605 118.13 161.678 118.129 161.754C118.128 161.829 118.146 161.903 118.183 161.969C118.219 162.035 118.272 162.09 118.337 162.128C118.401 162.167 118.474 162.189 118.549 162.19ZM148.379 149.39C148.443 149.391 148.506 149.377 148.563 149.349C148.621 149.321 148.671 149.281 148.709 149.23C148.748 149.18 148.775 149.121 148.787 149.059C148.799 148.996 148.797 148.932 148.779 148.87L149.009 141.87C149.009 141.33 149.059 140.66 148.439 140.31C147.819 139.96 49.9595 139.73 50.0695 139.73C50.0351 139.732 50.0016 139.742 49.972 139.759C49.9424 139.777 49.9174 139.801 49.8995 139.83C49.592 142.485 49.4683 145.158 49.5295 147.83C49.6465 148.072 49.8346 148.273 50.0687 148.405C50.3028 148.537 50.5717 148.595 50.8395 148.57C52.2095 148.57 148.379 149.39 148.379 149.39ZM148.179 141.89C148.179 142.12 148.179 141.98 147.999 148.54C143.319 148.4 51.2395 147.68 50.5495 147.64C50.2395 147.53 50.2395 147.23 50.2595 146.76L50.4495 140.57C55.3595 140.71 147.549 140.95 147.929 140.98C148.309 141.01 148.209 141.42 148.179 141.89ZM58.7395 178.56C58.8562 178.56 58.9681 178.514 59.0506 178.431C59.1331 178.349 59.1795 178.237 59.1795 178.12C59.1795 178.004 59.1331 177.892 59.0506 177.809C58.9681 177.727 58.8562 177.68 58.7395 177.68C56.4995 177.81 47.4295 178.06 45.0095 178.03C44.943 178.043 44.883 178.078 44.8399 178.13C44.7967 178.182 44.7731 178.248 44.7731 178.315C44.7731 178.383 44.7967 178.448 44.8399 178.5C44.883 178.552 44.943 178.588 45.0095 178.6C47.2395 178.71 56.4295 178.78 58.7395 178.56ZM57.6895 180.92C56.7895 180.92 47.1995 181.67 45.2695 181.7C45.1925 181.7 45.1188 181.731 45.0644 181.785C45.01 181.84 44.9795 181.913 44.9795 181.99C44.9795 182.067 45.01 182.141 45.0644 182.195C45.1188 182.25 45.1925 182.28 45.2695 182.28C47.0795 182.28 56.6395 182.01 57.7895 181.79C57.8962 181.767 57.9905 181.705 58.0541 181.616C58.1177 181.528 58.146 181.418 58.1336 181.31C58.1211 181.202 58.0687 181.102 57.9867 181.03C57.9046 180.957 57.7986 180.919 57.6895 180.92ZM59.3095 184.88C59.3095 184.88 47.0595 185.33 45.8595 185.34C45.783 185.354 45.7138 185.394 45.6639 185.453C45.614 185.513 45.5867 185.588 45.5867 185.665C45.5867 185.743 45.614 185.818 45.6639 185.877C45.7138 185.937 45.783 185.977 45.8595 185.99C50.3395 185.99 54.8595 186.16 59.3195 185.8C59.3799 185.8 59.4396 185.787 59.4951 185.763C59.5507 185.74 59.601 185.705 59.6433 185.662C59.6855 185.619 59.7188 185.568 59.7414 185.512C59.7639 185.456 59.7751 185.396 59.7745 185.335C59.7738 185.275 59.7613 185.215 59.7375 185.16C59.7138 185.104 59.6794 185.054 59.6362 185.012C59.593 184.969 59.5419 184.936 59.4859 184.913C59.4298 184.891 59.3699 184.88 59.3095 184.88ZM90.5895 178.56C90.7062 178.56 90.8181 178.514 90.9006 178.431C90.9831 178.349 91.0295 178.237 91.0295 178.12C91.0295 178.004 90.9831 177.892 90.9006 177.809C90.8181 177.727 90.7062 177.68 90.5895 177.68C88.3295 177.8 79.2695 178.06 76.8595 178.03C76.793 178.043 76.733 178.078 76.6899 178.13C76.6467 178.182 76.6231 178.248 76.6231 178.315C76.6231 178.383 76.6467 178.448 76.6899 178.5C76.733 178.552 76.793 178.588 76.8595 178.6C79.0995 178.71 88.2695 178.78 90.5895 178.56ZM89.5395 180.92C88.6395 180.92 79.0495 181.67 77.1195 181.7C77.0426 181.7 76.9688 181.731 76.9144 181.785C76.86 181.84 76.8295 181.913 76.8295 181.99C76.8295 182.067 76.86 182.141 76.9144 182.195C76.9688 182.25 77.0426 182.28 77.1195 182.28C78.9195 182.28 88.4795 182.01 89.6295 181.79C89.7353 181.767 89.829 181.706 89.8925 181.618C89.9561 181.531 89.985 181.423 89.9739 181.315C89.9628 181.207 89.9123 181.107 89.8321 181.035C89.752 180.962 89.6478 180.921 89.5395 180.92ZM91.1695 184.88C91.1695 184.88 78.9095 185.33 77.7195 185.34C77.643 185.354 77.5738 185.394 77.5239 185.453C77.474 185.513 77.4467 185.588 77.4467 185.665C77.4467 185.743 77.474 185.818 77.5239 185.877C77.5738 185.937 77.643 185.977 77.7195 185.99C82.1995 185.99 86.7195 186.16 91.1795 185.8C91.3015 185.799 91.4179 185.749 91.5033 185.662C91.5886 185.575 91.6358 185.457 91.6345 185.335C91.6331 185.213 91.5834 185.097 91.4962 185.012C91.409 184.926 91.2915 184.879 91.1695 184.88ZM123.419 178.56C123.536 178.56 123.648 178.514 123.731 178.431C123.813 178.349 123.859 178.237 123.859 178.12C123.859 178.004 123.813 177.892 123.731 177.809C123.648 177.727 123.536 177.68 123.419 177.68C121.159 177.81 112.109 178.06 109.679 178.03C109.613 178.043 109.553 178.078 109.51 178.13C109.467 178.182 109.443 178.248 109.443 178.315C109.443 178.383 109.467 178.448 109.51 178.5C109.553 178.552 109.613 178.588 109.679 178.6C111.929 178.71 121.099 178.78 123.419 178.56ZM122.369 180.92C121.479 180.92 111.879 181.67 109.959 181.7C109.883 181.7 109.809 181.731 109.754 181.785C109.7 181.84 109.669 181.913 109.669 181.99C109.669 182.067 109.7 182.141 109.754 182.195C109.809 182.25 109.883 182.28 109.959 182.28C111.759 182.28 121.319 182.01 122.479 181.79C122.587 181.767 122.683 181.705 122.747 181.615C122.811 181.525 122.838 181.414 122.825 181.305C122.811 181.195 122.756 181.095 122.672 181.024C122.588 180.953 122.48 180.916 122.369 180.92ZM123.999 184.88C123.999 184.88 111.739 185.33 110.549 185.34C110.473 185.354 110.404 185.394 110.354 185.453C110.304 185.513 110.277 185.588 110.277 185.665C110.277 185.743 110.304 185.818 110.354 185.877C110.404 185.937 110.473 185.977 110.549 185.99C115.029 185.99 119.549 186.16 124.009 185.8C124.131 185.799 124.248 185.749 124.333 185.662C124.419 185.575 124.466 185.457 124.464 185.335C124.463 185.213 124.413 185.097 124.326 185.012C124.239 184.926 124.121 184.879 123.999 184.88ZM155.349 178.56C155.466 178.56 155.578 178.514 155.661 178.431C155.743 178.349 155.789 178.237 155.789 178.12C155.789 178.004 155.743 177.892 155.661 177.809C155.578 177.727 155.466 177.68 155.349 177.68C153.109 177.8 144.039 178.06 141.609 178.03C141.543 178.043 141.483 178.078 141.44 178.13C141.397 178.182 141.373 178.248 141.373 178.315C141.373 178.383 141.397 178.448 141.44 178.5C141.483 178.552 141.543 178.588 141.609 178.6C143.859 178.71 152.999 178.78 155.349 178.56ZM154.299 180.92C153.409 180.92 143.809 181.67 141.889 181.7C141.813 181.7 141.739 181.731 141.684 181.785C141.63 181.84 141.599 181.913 141.599 181.99C141.599 182.067 141.63 182.141 141.684 182.195C141.739 182.25 141.813 182.28 141.889 182.28C143.689 182.28 153.249 182.01 154.409 181.79C154.517 181.767 154.613 181.705 154.677 181.615C154.741 181.525 154.768 181.414 154.755 181.305C154.741 181.195 154.686 181.095 154.602 181.024C154.518 180.953 154.41 180.916 154.299 180.92ZM155.929 184.88C155.929 184.88 143.669 185.33 142.479 185.34C142.403 185.354 142.334 185.394 142.284 185.453C142.234 185.513 142.207 185.588 142.207 185.665C142.207 185.743 142.234 185.818 142.284 185.877C142.334 185.937 142.403 185.977 142.479 185.99C146.949 185.99 151.479 186.16 155.939 185.8C156.061 185.799 156.178 185.749 156.263 185.662C156.349 185.575 156.396 185.457 156.394 185.335C156.393 185.213 156.343 185.097 156.256 185.012C156.169 184.926 156.051 184.879 155.929 184.88ZM60.8095 173.05L58.4895 173C58.4895 171.82 58.4095 168.78 58.3695 167.84C58.6708 167.588 58.8653 167.231 58.9136 166.842C58.9618 166.452 58.8603 166.058 58.6295 165.74C58.5395 165.61 58.6295 165.64 55.7995 165.74V163.74C55.9753 163.491 56.0935 163.205 56.1453 162.904C56.1972 162.603 56.1816 162.294 56.0995 162C56.0881 161.956 56.0621 161.917 56.0258 161.89C55.9894 161.863 55.9449 161.849 55.8995 161.85L52.3395 161.96C52.2795 161.2 52.0195 158.47 51.9195 158.29C51.8513 158.16 51.7372 158.061 51.5995 158.01C52.8395 156.22 50.8895 155.59 51.2695 154.67C51.4295 154.28 50.8495 154.01 50.6195 154.37C50.0571 155.123 49.6245 155.965 49.3395 156.86C49.3482 157.126 49.4221 157.385 49.5547 157.615C49.6872 157.845 49.8743 158.039 50.0995 158.18C49.9543 158.238 49.8319 158.342 49.7508 158.475C49.6696 158.609 49.634 158.765 49.6495 158.92V162.03L46.7995 162.12C46.7583 162.121 46.7186 162.135 46.6861 162.16C46.6537 162.186 46.6303 162.221 46.6195 162.26C46.5094 162.581 46.4829 162.925 46.5424 163.259C46.6018 163.593 46.7454 163.907 46.9595 164.17C46.9595 164.74 47.0295 165.52 47.0895 166.08C44.2095 166.2 44.3195 166.16 44.2295 166.26C43.5095 167.12 43.0495 168.61 43.8995 169.26V172.89H42.2195C42.1372 172.89 42.0584 172.923 42.0003 172.981C41.9421 173.039 41.9095 173.118 41.9095 173.2C41.9095 173.283 41.9421 173.361 42.0003 173.42C42.0584 173.478 42.1372 173.51 42.2195 173.51C42.3295 173.51 60.6795 173.73 60.8495 173.71C60.937 173.705 61.0188 173.665 61.077 173.599C61.1351 173.534 61.1648 173.448 61.1595 173.36C61.1542 173.273 61.1143 173.191 61.0487 173.133C60.983 173.075 60.897 173.045 60.8095 173.05ZM51.6195 162H50.3695V158.84C50.6936 158.743 51.0309 158.695 51.3695 158.7C51.3895 159.12 51.5695 161.35 51.6195 162ZM50.0795 156.8C50.2585 156.401 50.4691 156.016 50.7095 155.65C51.0395 156.29 51.5195 156.65 51.2395 157.28C51.1189 157.499 50.9747 157.703 50.8095 157.89C50.3695 157.58 49.9995 157.22 50.0795 156.78V156.8ZM49.8595 163.85C49.9941 164.134 50.2065 164.374 50.472 164.542C50.7375 164.71 51.0453 164.799 51.3595 164.799C51.6737 164.799 51.9814 164.71 52.2469 164.542C52.5125 164.374 52.7249 164.134 52.8595 163.85C53.1297 164.109 53.4636 164.291 53.8271 164.379C54.1907 164.467 54.571 164.457 54.9295 164.35V165.82L47.7895 166.1C47.7895 165.61 47.7395 165.1 47.6995 164.64C48.0991 164.715 48.5116 164.679 48.8923 164.536C49.273 164.394 49.6075 164.149 49.8595 163.83V163.85ZM44.6495 172.85V169.48C45.0978 169.514 45.5481 169.45 45.9693 169.293C46.3905 169.136 46.7727 168.889 47.0895 168.57C47.4564 168.899 47.9317 169.081 48.4245 169.081C48.9172 169.081 49.3926 168.899 49.7595 168.57C50.9195 169.84 52.6595 169.25 53.6195 167.84C53.8092 168.109 54.0571 168.332 54.3449 168.492C54.6326 168.652 54.9526 168.745 55.2813 168.764C55.6099 168.784 55.9386 168.728 56.243 168.603C56.5474 168.478 56.8197 168.285 57.0395 168.04C57.2512 168.097 57.4716 168.114 57.6895 168.09C57.6895 169.15 57.6895 171.83 57.7595 172.95C54.6895 172.93 46.6595 172.87 44.6495 172.87V172.85Z" fill="black"/>
<path d="M179.94 60.24C178.36 59.12 179.48 59.24 177.18 51.67C176.4 49.1 175.53 46.01 173.18 45.02C173.18 37.56 173.18 6.47998 173.23 5.41998C173.271 5.35294 173.294 5.2761 173.295 5.19747C173.296 5.11884 173.277 5.04129 173.238 4.97288C173.199 4.90447 173.142 4.84772 173.074 4.80851C173.006 4.76931 172.929 4.7491 172.85 4.74998C153.95 4.74998 36.4601 5.27998 26.0401 5.39998C25.9771 5.40128 25.9153 5.41744 25.8598 5.44715C25.8042 5.47685 25.7564 5.51926 25.7204 5.57092C25.6843 5.62258 25.661 5.68203 25.6522 5.74443C25.6435 5.80682 25.6496 5.8704 25.6701 5.92998C25.4201 19.08 25.0601 90.88 24.9701 118.26C19.6638 122.921 15.497 128.737 12.7901 135.26C7.9101 147.19 7.6201 156.26 11.9401 162.09C14.8001 165.99 20.5101 170.37 25.0401 168.36C24.9001 187.42 24.8601 192.99 24.9701 194.6C25.0201 195.35 25.1101 195.24 25.2201 195.24C25.3301 195.24 166.29 194.98 172.54 194.91C172.618 194.91 172.695 194.888 172.762 194.848C172.829 194.807 172.884 194.749 172.92 194.68C172.97 194.58 173.19 149.99 173.36 138.16C174.58 138.126 175.776 137.812 176.854 137.242C177.933 136.671 178.866 135.859 179.58 134.87C182.029 131.805 184.047 128.421 185.58 124.81C187.84 118.86 189.47 114.57 190.42 107.92C192.52 93.27 189.37 77.27 183.04 64C181.91 61.61 182.07 61.75 179.94 60.24ZM22.0001 161.66C20.1201 160.79 18.4101 156.87 19.1001 153.49C19.6441 151.27 20.8761 149.278 22.6201 147.8C23.4167 147.01 24.2911 146.303 25.2301 145.69V149.14C24.4815 149.654 23.8083 150.27 23.2301 150.97C23.1851 151.041 23.168 151.126 23.1821 151.209C23.1961 151.292 23.2403 151.366 23.3061 151.418C23.3719 151.471 23.4547 151.497 23.5386 151.491C23.6224 151.486 23.7013 151.45 23.7601 151.39C24.7428 150.421 25.8736 149.614 27.1101 149C27.9801 148.61 28.1601 148.79 27.9501 149.6C27.7693 150.575 27.2906 151.469 26.5801 152.16C25.8708 152.731 25.0869 153.202 24.2501 153.56C23.7973 153.754 23.3679 153.999 22.9701 154.29C22.9173 154.343 22.8853 154.413 22.8802 154.488C22.875 154.562 22.897 154.636 22.942 154.696C22.9871 154.756 23.0522 154.797 23.1253 154.812C23.1985 154.828 23.2748 154.816 23.3401 154.78C24.1401 154.25 26.6501 153.47 28.0301 152.5C29.0301 151.81 29.1201 152.33 28.7801 153.36C28.0801 155.43 25.6501 156.5 24.0401 157.8C23.9842 157.856 23.9497 157.93 23.9426 158.009C23.9356 158.089 23.9565 158.168 24.0016 158.233C24.0467 158.298 24.1132 158.346 24.1897 158.367C24.2661 158.388 24.3476 158.382 24.4201 158.35C24.8701 158.1 25.3201 157.79 25.9601 157.35C26.6001 156.91 28.4101 156 29.0701 156.35C29.1446 156.384 29.2078 156.439 29.2521 156.508C29.2964 156.578 29.32 156.658 29.3201 156.74C29.4201 157.46 28.8201 158.16 28.2101 158.94C25.4101 162.52 23.1001 162.19 22.0001 161.66ZM172.15 194C163.45 194.05 32.5201 194.38 25.7101 194.46C25.7901 191.61 25.7101 173.59 25.7601 162.21C27.1192 161.177 28.3721 160.011 29.5001 158.73C29.7801 158.34 30.6501 156.99 29.9701 155.93C29.8183 155.703 29.6019 155.526 29.3489 155.423C29.0958 155.319 28.8176 155.294 28.5501 155.35C29.24 154.633 29.6755 153.709 29.7901 152.72C29.7901 152.41 29.8801 151.72 29.2901 151.43C29.0835 151.362 28.8641 151.343 28.649 151.375C28.4339 151.406 28.2289 151.486 28.0501 151.61C28.1401 151.47 28.2101 151.33 28.2901 151.18C28.6501 150.47 29.1501 148.84 28.7501 148.24C28.2001 147.43 26.8001 148.1 25.9601 148.6C26.0201 55.2 26.5001 21.77 26.4501 6.17998C36.1201 6.17998 166.36 5.64998 172.45 5.60998C172.37 11.16 172.24 49.35 172.24 49.35C170.579 49.623 168.989 50.2211 167.56 51.11C167.169 51.2986 166.843 51.5976 166.62 51.97C166.544 52.1005 166.498 52.2457 166.483 52.3958C166.468 52.546 166.485 52.6976 166.533 52.8405C166.581 52.9834 166.66 53.1144 166.762 53.2247C166.865 53.335 166.991 53.422 167.13 53.48C166.72 53.7267 166.377 54.07 166.13 54.48C166.03 54.8684 166.077 55.2799 166.261 55.636C166.446 55.9921 166.755 56.2676 167.13 56.41C166.07 57.36 166.28 59.03 168.42 59.34C169.723 59.5228 171.048 59.4652 172.33 59.17C172.92 68 172.05 188.35 172.15 194ZM173.35 61.31C173.29 60.58 173.22 59.81 173.13 58.99C173.771 58.7956 174.393 58.5446 174.99 58.24C175.41 58.03 175.07 57.4 174.65 57.61C173.059 58.3496 171.313 58.6927 169.56 58.61C168.91 58.61 167.82 58.61 167.56 57.98C167.3 57.35 167.93 56.88 168.36 56.76C170.247 57.0423 172.174 56.6906 173.84 55.76C173.92 55.7175 173.979 55.6452 174.005 55.559C174.032 55.4727 174.022 55.3795 173.98 55.3C173.938 55.2204 173.865 55.161 173.779 55.1347C173.693 55.1085 173.6 55.1175 173.52 55.16C172.016 55.8823 170.333 56.1466 168.68 55.92C167.5 55.76 166.95 55.43 166.97 54.92C166.97 54.68 167.97 53.92 168.37 53.75C170.141 54.0014 171.939 54.0014 173.71 53.75C174.16 53.69 174.1 53 173.65 53.06C172.31 53.23 168.01 53.12 167.6 52.76C167.557 52.7318 167.521 52.6933 167.496 52.6479C167.472 52.6025 167.459 52.5516 167.459 52.5C167.459 52.4483 167.472 52.3975 167.496 52.352C167.521 52.3066 167.557 52.2681 167.6 52.24C168.66 51.14 172.44 50.03 173.45 49.87C173.53 49.8607 173.602 49.8202 173.652 49.7574C173.702 49.6945 173.724 49.6145 173.715 49.535C173.706 49.4554 173.665 49.3828 173.602 49.3331C173.54 49.2834 173.46 49.2607 173.38 49.27H173.21V45.86C175.01 46.93 175.71 49.38 176.27 51.36C178.79 60.15 177.35 59.57 179.92 61.3C180.33 61.5596 180.712 61.8613 181.06 62.2C178.51 63.78 175.62 63.2 173.35 61.34V61.31Z" fill="black"/>
<path d="M107.45 109.59C107.219 109.59 106.992 109.659 106.8 109.787C106.608 109.916 106.458 110.099 106.369 110.313C106.28 110.526 106.257 110.762 106.302 110.989C106.348 111.216 106.459 111.424 106.623 111.588C106.786 111.751 106.995 111.863 107.222 111.908C107.449 111.953 107.684 111.93 107.898 111.841C108.111 111.753 108.294 111.603 108.423 111.41C108.551 111.218 108.62 110.992 108.62 110.76C108.62 110.45 108.497 110.152 108.277 109.933C108.058 109.714 107.76 109.59 107.45 109.59ZM104 115.31C103.743 115.31 103.492 115.387 103.278 115.529C103.064 115.672 102.897 115.875 102.799 116.113C102.701 116.35 102.675 116.612 102.725 116.864C102.775 117.116 102.899 117.348 103.081 117.53C103.263 117.711 103.494 117.835 103.746 117.885C103.999 117.935 104.26 117.91 104.497 117.811C104.735 117.713 104.938 117.546 105.081 117.333C105.224 117.119 105.3 116.867 105.3 116.61C105.3 116.266 105.163 115.935 104.919 115.691C104.675 115.447 104.345 115.31 104 115.31ZM100.9 120.33C100.702 120.33 100.509 120.389 100.344 120.499C100.18 120.609 100.052 120.765 99.9761 120.948C99.9004 121.13 99.8806 121.331 99.9192 121.525C99.9578 121.719 100.053 121.898 100.193 122.037C100.333 122.177 100.511 122.273 100.705 122.311C100.899 122.35 101.1 122.33 101.283 122.254C101.465 122.179 101.622 122.05 101.731 121.886C101.841 121.721 101.9 121.528 101.9 121.33C101.9 121.065 101.795 120.811 101.607 120.623C101.42 120.436 101.165 120.33 100.9 120.33Z" fill="black"/>
</svg>
