<svg width="200" height="200" viewBox="0 0 200 200" fill="none" xmlns="http://www.w3.org/2000/svg">
<path d="M23.3828 95.5547C21.4068 79.0427 22.2958 62.4617 25.9088 46.1377C26.4338 43.7667 28.6068 45.9237 43.9258 42.4927C45.0978 42.2307 46.2598 41.9567 47.4108 41.6737C47.9268 40.7187 48.4988 39.7677 49.1348 38.8317C35.7958 41.9987 25.3278 43.0747 24.9548 43.3997C24.2928 43.9757 24.0868 44.2197 23.6238 46.2037C19.1658 65.3137 19.0498 85.5607 22.6308 104.968C22.8078 101.881 23.0588 98.7097 23.3818 95.5537L23.3828 95.5547Z" fill="black"/>
<path d="M172.84 56.0496C170.22 53.5416 165.803 50.8526 163.927 50.1856C161.315 49.2556 138.117 47.0316 105.275 27.4666C93.0027 20.1566 94.5317 18.8646 89.9677 22.1296C88.3697 23.2726 86.6967 24.3556 84.9657 25.3806C85.7197 25.4956 86.4677 25.6296 87.2107 25.7836C93.2167 22.0636 92.2997 21.2936 93.7137 22.3536C108.022 33.0836 133.588 45.7836 158.374 50.8286C161.048 51.3726 162.55 50.6116 162.129 53.1176C161.505 56.8306 160.037 79.2966 149.274 105.443C135.197 139.64 106.139 171.069 78.6387 185.644C76.5517 186.75 74.4477 188.268 71.5987 186.043C65.0947 180.963 60.4977 176.97 54.4907 169.81C44.0497 157.365 40.6017 151.311 36.0127 140.476C35.2837 140.198 34.5097 139.9 33.6317 139.571C33.5297 139.533 33.4287 139.495 33.3287 139.457C40.3887 155.203 50.0867 169.301 61.9637 180.337C64.1837 182.4 79.6927 195.859 82.7847 194.959C92.0697 192.257 118.186 174.84 136.334 152.39C169.116 111.836 174.685 57.8186 172.839 56.0516L172.84 56.0496ZM171.524 57.4096C167.185 109.826 139.019 160.484 91.6407 188.75C81.3437 194.893 82.0317 193.963 79.9267 192.399C79.3927 192.002 76.4377 189.773 76.3637 189.698C75.4657 188.794 75.1587 189.937 82.3167 185.965C106.632 172.474 127.38 149.341 140.91 126.995C152.21 108.332 157.284 92.6976 160.945 74.5276C165.937 49.7566 162.52 51.2336 166.048 53.1936C167.813 54.1736 169.413 55.4046 171.09 56.5176C171.539 56.8156 171.536 56.8256 171.524 57.4096Z" fill="black"/>
<path d="M63.1976 59.8496C96.7756 60.7106 96.3585 64.8816 96.7685 60.9416C98.1055 48.0826 91.0396 40.8586 79.6236 40.1986C73.8696 43.0366 68.0225 45.1836 62.5435 46.8206C61.0925 48.8106 60.0016 51.2196 59.2016 54.0146C58.6186 56.0526 58.4485 57.5406 58.4525 59.3616C58.4535 60.0166 58.4096 59.7266 63.1976 59.8496Z" fill="black"/>
<path d="M41.2089 60.5695C42.7169 60.5415 42.2309 59.7955 42.3009 59.4355C42.5729 58.0365 42.8739 54.8895 43.8449 51.0395C38.8439 51.8515 35.6069 52.1665 35.2559 52.4285C34.8659 52.7185 34.5259 53.0765 34.4209 53.5965C33.7609 56.8445 33.2229 60.0325 32.7969 63.1585C35.2709 61.6275 38.7069 60.6165 41.2089 60.5695Z" fill="black"/>
<path d="M148.297 58.4895C147.026 58.0485 132.002 56.0825 112.445 46.3595C112.184 46.2305 111.928 46.1015 111.674 45.9745C112.024 47.0855 112.309 48.2385 112.524 49.4325C114.608 61.0015 110.969 64.8245 112.684 65.2935C121.174 67.6185 125.289 69.1495 126.843 78.7125C128.67 89.9575 124.354 118.875 120.382 134.778C133.259 116.555 145.978 85.8655 149.363 60.2835C149.38 59.0025 149.25 58.8195 148.298 58.4895H148.297Z" fill="black"/>
<path d="M96.5338 149.313C84.7038 149.313 75.4828 150.29 48.7238 144.212C60.6918 163.976 74.8658 174.123 76.9638 173.483C82.1378 171.905 89.3318 166.163 92.3028 163.905C100.083 157.993 105.031 153.377 109.673 148.155C105.462 149.051 100.497 149.093 96.5338 149.313Z" fill="black"/>
<path d="M126.842 78.7124C125.288 69.1494 121.173 67.6184 112.683 65.2934C110.968 64.8234 114.607 61.0014 112.523 49.4324C108.572 27.4974 81.0876 19.6014 61.4876 28.4584C44.1386 36.2984 43.0936 55.3444 42.2996 59.4364C42.2296 59.7964 42.7156 60.5414 41.2076 60.5694C37.4446 60.6404 31.5676 62.8904 30.0326 65.8104C23.0536 79.0884 20.4506 120.326 23.7176 130.273C24.6386 133.077 24.1956 136.04 33.6306 139.57C38.4476 141.372 40.1456 142.254 48.3016 144.116C75.3866 150.3 84.6416 149.313 96.5336 149.313C104.181 148.889 115.564 149.126 118.052 142.611C122.342 131.376 129.04 92.2454 126.841 78.7134L126.842 78.7124ZM44.5026 60.0054C44.5626 57.2534 46.7476 47.5564 49.8796 42.1314C53.1196 36.5184 56.3596 33.7804 60.7536 31.2964C66.2386 28.1964 76.4226 26.9884 77.6376 26.9644C84.6476 26.8254 91.5056 28.9234 96.9236 31.7964C104.741 35.9414 107.974 40.8494 109.559 47.1254C110.99 52.7924 110.945 59.5594 110.173 63.7824C109.881 65.3774 110.116 64.6034 99.2696 63.0434C98.8856 62.9884 98.7926 62.8904 98.8506 62.4574C102.786 33.0894 66.9876 32.0054 58.6906 49.1094C56.3426 53.9494 56.4576 59.6554 56.4536 59.6824C56.3546 60.2414 51.8386 59.8354 51.8386 59.9884C44.1926 59.9884 44.4936 60.4464 44.5026 60.0054ZM96.7686 60.9414C96.3586 64.8814 96.7756 60.7104 63.1976 59.8494C58.4096 59.7264 58.4526 60.0174 58.4516 59.3614C58.4486 57.5404 58.6176 56.0514 59.2006 54.0144C61.8016 44.9224 67.4896 39.9044 78.5826 40.1564C90.6076 40.4294 98.1446 47.6964 96.7676 60.9404L96.7686 60.9414ZM117.937 134.755C115.994 143.261 116.101 144.052 108.256 145.843C103.973 146.821 84.5256 147.291 80.1686 146.737C76.9846 146.332 76.8226 147.952 54.3406 143.277C21.0456 136.355 27.0406 133.62 24.6906 122.485C23.3356 92.3944 29.5986 69.9504 31.4666 67.3834C32.9866 65.2954 34.2636 65.0224 35.5176 64.1234C35.9116 63.8414 35.7496 64.0224 37.7526 63.3574C39.1986 62.8774 41.4516 62.8034 41.4756 62.8034C62.1076 61.1084 79.4746 62.8454 99.9856 65.6374C110.125 67.0174 122.112 67.9954 123.97 75.7914C127.05 88.7154 120.741 122.486 117.938 134.754L117.937 134.755Z" fill="black"/>
<path d="M60.044 85.4665C56.906 91.2505 57.945 98.9514 63.688 103.964C63.931 104.176 64.026 104.413 63.981 104.72C63.535 107.793 62.833 115.03 62.85 118.856C62.879 125.248 63.148 128.782 68.554 131.065C72.381 132.682 76.373 131.184 77.977 126.211C78.648 124.129 78.691 122.596 79.487 115.379C80.484 106.346 79.704 106.627 80.608 106.235C84.925 104.363 89.109 98.9915 89.003 92.6385C89.617 78.3175 67.617 71.5074 60.043 85.4654L60.044 85.4665ZM68.801 110.688C66.868 128.939 69.603 130.831 66.512 128.36C64.412 126.681 64.321 122.678 64.353 119.753C64.483 107.901 66.664 104.451 65.351 103.3C60.539 99.0865 58.088 92.1915 62.31 85.3644C63.293 83.7754 65.553 82.0804 65.705 81.9364C67.401 80.3334 69.976 80.1604 68.987 81.2534C62.493 88.4374 64.989 96.3775 69.657 99.9905C70.559 100.688 69.883 100.458 68.799 110.687L68.801 110.688Z" fill="black"/>
<path d="M113.004 79.6706C112.686 92.5926 108.019 144.008 105.888 138.006C105.348 136.486 111.551 81.0266 111.511 78.7766C111.426 74.0086 110.252 73.4536 110.957 73.0696C111.469 72.7906 112.061 73.6316 112.246 74.1196C112.918 75.8936 113.052 77.7736 113.005 79.6716L113.004 79.6706Z" fill="black"/>
<path d="M18.8955 171.403C18.3215 171.208 23.6345 165.736 23.5375 164.72C23.4565 163.87 22.4455 163.379 21.7605 163.988C20.8285 164.818 19.0855 166.653 17.7295 168.036C17.1575 168.62 17.4575 163.81 15.4795 160.114C15.0085 159.234 13.8545 159.444 13.8215 160.513C13.7545 162.691 14.8515 168.467 15.2235 170.209C13.3435 169.733 7.94055 168.245 7.89555 170.209C7.88555 170.648 8.13655 170.907 8.47455 171.074C12.5245 173.069 13.6125 172.614 13.1885 173.178C10.9305 176.183 10.2135 176.972 9.82555 178.128C9.54855 178.951 9.76655 179.868 10.6755 179.875C11.6705 179.883 12.0005 179.059 14.2115 176.388C17.1385 172.852 15.5905 173.781 17.5305 179.148C18.0135 180.484 18.1345 180.819 18.7625 180.725C19.8465 180.563 19.1265 176.982 18.9005 175.028C18.7915 174.087 24.2485 177.197 25.0265 175.208C25.6755 173.55 22.7675 172.717 18.8955 171.401V171.403Z" fill="black"/>
<path d="M153.652 16.3685C152.874 16.1315 155.562 14.9395 157.511 12.2315C158.073 11.4505 157.368 10.6225 155.451 11.8155C151.501 14.2735 151.452 15.1865 151.334 14.5805C150.904 12.3825 150.672 10.6995 149.981 9.46251C149.252 8.15651 147.332 7.76951 147.916 11.9115C148.638 17.0265 149.481 15.0435 145.228 15.2605C143.289 15.3595 142.594 16.5275 143.183 17.2955C143.53 17.7485 144.11 17.8375 145.302 18.0915C147.626 18.5865 147.176 17.7165 143.451 21.3735C143.059 21.7585 142.56 22.6175 143.086 23.2065C144.004 24.2335 145.581 22.6605 149.015 19.9565C149.478 19.5915 149.094 19.9465 150.227 23.1625C150.607 24.2395 150.843 24.9685 151.627 24.9735C152.287 24.9785 152.97 24.2685 152.795 22.9625C151.857 15.9785 151.297 20.7075 157.452 18.6975C159.573 18.0045 155.646 16.9765 153.652 16.3685Z" fill="black"/>
<path d="M151.791 183.977C150.978 187.06 155.8 187.183 155.529 184.499C155.711 182.594 152.476 181.377 151.791 183.977Z" fill="black"/>
<path d="M42.3904 5.00642C41.0154 4.92242 36.9254 6.46942 38.3864 9.52342C39.5154 11.8834 42.7954 12.4854 44.7044 10.3514C46.8514 7.95142 44.6654 4.84442 42.3904 5.00642ZM41.9034 9.72742C39.7814 9.87742 39.4314 7.41742 40.1734 7.16442C40.8634 6.92942 41.5264 6.57242 42.2904 6.62242C44.4684 6.76542 43.8304 9.89442 41.9034 9.72742Z" fill="black"/>
<path d="M191.824 118.172C190.196 114.516 184.744 115.939 183.121 117.758C179.87 121.399 184.781 128.483 189.806 124.192C191.506 122.74 192.658 120.045 191.824 118.172ZM186.413 123.465C185.713 123.561 184.01 121.918 184.442 119.986C184.725 118.717 185.967 117.731 186.556 117.837C186.936 117.906 187.335 117.849 187.724 117.876C191.432 118.133 189.464 123.324 186.413 123.465Z" fill="black"/>
</svg>
