<svg width="200" height="200" viewBox="0 0 200 200" fill="none" xmlns="http://www.w3.org/2000/svg">
<path d="M37.1101 99.7304C40.2659 101.609 43.6642 103.045 47.2101 104C47.4601 104.12 47.7001 104.22 47.9501 104.32C48.0485 104.579 48.132 104.843 48.2001 105.11C46.924 105.432 45.6323 105.689 44.3301 105.88C45.6189 106.621 47.0963 106.969 48.5801 106.88V107.48C47.2934 107.476 46.0174 107.246 44.8101 106.8C43.6797 106.349 42.6085 105.761 41.6201 105.05C41.4369 104.964 41.2412 104.906 41.0401 104.88C40.1331 105.221 39.3262 105.784 38.6936 106.518C38.0611 107.252 37.6232 108.133 37.4201 109.08C37.2301 110.52 38.6601 110.21 40.0301 110.14C42.3001 110.05 44.5901 109.95 46.8601 109.94C50.3835 109.897 53.8741 110.621 57.0901 112.06C59.609 113.274 61.625 115.329 62.7901 117.87C63.3093 119.072 63.669 120.336 63.8601 121.63C64.2095 123.02 64.2707 124.466 64.0401 125.88C64.8017 123.419 65.2584 120.873 65.4001 118.3V117.54C65.5401 115.26 65.5801 112.54 63.8601 110.84C62.9459 109.933 61.8231 109.263 60.5901 108.89C59.3448 108.479 58.0619 108.191 56.7601 108.03C55.4501 107.82 54.1401 107.7 52.7601 107.58C51.3801 107.46 50.3901 107.51 49.1801 107.49C49.173 106.452 48.9374 105.428 48.4901 104.49C50.4096 105.097 52.465 105.125 54.4001 104.57C55.9001 104.19 57.9601 103.57 58.4001 101.93C58.7201 102.19 60.4001 103.13 59.4801 102.51C59.3801 102.43 59.4801 102.43 59.5801 102.51C60.9101 103.03 62.3701 103.09 63.7101 103.57C66.0901 104.43 68.8601 105.85 69.1401 108.66C69.0022 107.262 68.5467 105.913 67.8085 104.718C67.0702 103.522 66.0686 102.51 64.8801 101.76C62.8455 100.555 60.5026 99.9709 58.1401 100.08C58.8947 99.5861 59.53 98.9303 60.0001 98.1604C60.6699 97.0437 61.0385 95.7723 61.0701 94.4704C61.0768 92.1367 60.5429 89.8332 59.5101 87.7404C60.0027 87.2598 60.3494 86.6497 60.5101 85.9804C60.6038 85.6208 60.6138 85.2445 60.5392 84.8805C60.4647 84.5164 60.3076 84.1743 60.0801 83.8804C59.8101 83.5921 59.4857 83.3599 59.1257 83.1972C58.7657 83.0345 58.377 82.9446 57.9821 82.9325C57.5873 82.9204 57.1939 82.9865 56.8246 83.1268C56.4553 83.2672 56.1173 83.4791 55.8301 83.7504C55.1684 84.2447 54.6956 84.9504 54.4901 85.7504C54.3522 86.2674 54.3874 86.8153 54.5901 87.3104C54.4572 87.3324 54.3309 87.3837 54.2201 87.4604C53.9101 87.1804 53.5901 86.9204 53.2901 86.6204C53.5105 86.9725 53.7579 87.3068 54.0301 87.6204C53.8545 87.8065 53.7094 88.0191 53.6001 88.2504C52.9155 87.9897 52.1717 87.9255 51.4525 88.0651C50.7333 88.2047 50.0675 88.5425 49.5301 89.0404C48.9093 89.4517 48.4157 90.0281 48.1047 90.7048C47.7938 91.3815 47.6779 92.1315 47.7701 92.8704C47.2707 93.2089 46.7992 93.5867 46.3601 94.0004C46.0132 94.2707 45.6978 94.5794 45.4201 94.9204C45.0739 93.1083 45.1665 91.2395 45.6901 89.4704C46.9101 85.923 48.527 82.5247 50.5101 79.3404C51.3501 79.3404 55.0701 81.9304 55.4401 82.2704H55.5001C55.8648 82.5147 56.2003 82.7999 56.5001 83.1204C57.0016 82.8355 57.5684 82.6858 58.1451 82.6858C58.7219 82.6858 59.2887 82.8355 59.7901 83.1204C59.8525 82.4062 59.7778 81.6867 59.5701 81.0004C60.0286 81.5229 60.3302 82.1641 60.4401 82.8504C60.4446 82.877 60.4578 82.9014 60.4778 82.9195C60.4977 82.9377 60.5232 82.9486 60.5501 82.9504C60.5777 82.9506 60.6042 82.9403 60.6246 82.9218C60.645 82.9033 60.6576 82.8778 60.6601 82.8504C60.7899 81.2921 60.4185 79.733 59.6001 78.4004C58.0947 76.1002 55.8409 74.3905 53.2201 73.5604C50.2844 72.5695 47.1402 72.3657 44.1011 72.9693C41.062 73.5729 38.2344 74.9628 35.9001 77.0004C31.5001 80.6204 29.3401 85.5004 30.1301 90.1404C30.7401 93.7904 33.3101 97.2904 37.1101 99.7304ZM59.1101 84.0904C59.1243 84.0791 59.142 84.0729 59.1601 84.0729C59.1783 84.0729 59.196 84.0791 59.2101 84.0904C59.0893 84.8259 58.8812 85.5443 58.5901 86.2304C58.5901 86.3304 58.3701 86.2904 58.4201 86.2304C58.6901 85.5304 58.8601 84.8204 59.0801 84.0904H59.1101ZM57.6101 84.7004C57.6101 84.6304 57.7401 84.7004 57.7201 84.7004C57.3562 85.6306 57.0621 86.5866 56.8401 87.5604C56.8401 87.6404 56.6901 87.5604 56.7101 87.5604C56.8935 86.5779 57.1853 85.6187 57.5801 84.7004H57.6101ZM52.8001 89.7704C52.8149 89.7605 52.8323 89.7553 52.8501 89.7553C52.8679 89.7553 52.8853 89.7605 52.9001 89.7704C52.7001 90.6004 52.4001 91.4204 52.1201 92.2504C52.1201 92.3404 51.9701 92.2504 51.9901 92.2504C52.2501 91.4204 52.4701 90.5804 52.7701 89.7704H52.8001ZM51.1901 89.3904C51.1901 89.3204 51.3601 89.3904 51.3401 89.4604C50.9901 90.4604 50.5401 91.4604 50.2601 92.5904C49.9801 93.7204 50.2601 92.6504 50.1901 92.6504C50.1823 92.6504 50.1745 92.6489 50.1672 92.6459C50.1599 92.6429 50.1533 92.6384 50.1477 92.6329C50.1421 92.6273 50.1377 92.6207 50.1347 92.6134C50.1317 92.6061 50.1301 92.5983 50.1301 92.5904C50.312 91.4784 50.6592 90.3998 51.1601 89.3904H51.1901ZM39.4501 96.0004C39.5113 95.7531 39.6353 95.5258 39.8101 95.3404C40.0196 95.1574 40.2758 95.0362 40.5501 94.9904C42.8001 94.5904 44.3501 96.4804 45.7201 98.1804C46.0301 98.5604 46.3201 98.9304 46.6001 99.2404C46.6205 99.2594 46.6473 99.27 46.6751 99.27C46.703 99.27 46.7298 99.2594 46.7501 99.2404C46.7589 99.232 46.7659 99.2219 46.7707 99.2108C46.7754 99.1996 46.7779 99.1876 46.7779 99.1754C46.7779 99.1633 46.7754 99.1513 46.7707 99.1401C46.7659 99.1289 46.7589 99.1188 46.7501 99.1104C46.2097 97.9644 45.8037 96.7598 45.5401 95.5204C45.9699 95.169 46.365 94.7772 46.7201 94.3504L48.0001 93.1804C48.0568 93.3109 48.1272 93.4349 48.2101 93.5504C49.1001 94.7104 51.2101 94.6104 52.9101 93.2604C54.6101 91.9104 55.2701 89.9504 54.3701 88.7804C54.2512 88.633 54.1133 88.5019 53.9601 88.3904C54.0976 88.221 54.2594 88.0727 54.4401 87.9504L54.6401 88.1704C55.1155 88.6186 55.6677 88.9777 56.2701 89.2304C56.9001 89.4904 57.7201 89.2304 57.7001 89.8804C57.6907 90.185 57.6006 90.4816 57.439 90.7399C57.2773 90.9982 57.05 91.2089 56.7801 91.3504C57.106 91.2534 57.3958 91.062 57.613 90.8004C57.8301 90.5387 57.9649 90.2186 58.0001 89.8804C58.0111 89.7812 58.0007 89.6808 57.9696 89.586C57.9386 89.4911 57.8876 89.404 57.8201 89.3304C57.6802 89.1979 57.5015 89.1138 57.3101 89.0904C57.0065 89.0491 56.7081 88.9754 56.4201 88.8704C55.8394 88.6313 55.3048 88.293 54.8401 87.8704C54.8018 87.8254 54.7581 87.7851 54.7101 87.7504L54.9101 87.6404C54.946 87.718 54.9895 87.7917 55.0401 87.8604C55.2775 88.1598 55.5827 88.3984 55.9304 88.5566C56.2781 88.7149 56.6585 88.7881 57.0401 88.7704C57.8178 88.7628 58.5734 88.5109 59.2001 88.0504C60.1163 90.0459 60.5937 92.2147 60.6001 94.4104C60.6023 95.6169 60.2886 96.8029 59.6901 97.8504C59.06 98.9164 58.1223 99.767 57.0001 100.29C56.9657 100.329 56.9467 100.379 56.9467 100.43C56.9467 100.482 56.9657 100.532 57.0001 100.57L57.2401 100.8L57.3601 100.89C57.6801 101.21 58.0101 101.51 58.3601 101.8C57.6701 103.8 54.0201 104.36 52.2901 104.45C50.9432 104.43 49.6022 104.266 48.2901 103.96C47.9915 103.446 47.6285 102.973 47.2101 102.55C46.6233 101.652 46.1338 100.693 45.7501 99.6904V99.5104C45.7687 99.4879 45.7776 99.4589 45.7747 99.4298C45.7719 99.4008 45.7577 99.374 45.7351 99.3554C45.7126 99.3369 45.6836 99.328 45.6545 99.3308C45.6255 99.3337 45.5987 99.3479 45.5801 99.3704C45.32 99.6804 44.9958 99.9303 44.6298 100.103C44.2638 100.276 43.8648 100.367 43.4601 100.37C42.6376 100.345 41.8395 100.085 41.1601 99.6204C40.5411 99.2622 40.0459 98.7239 39.7404 98.0772C39.4349 97.4305 39.3337 96.7061 39.4501 96.0004Z" fill="black"/>
<path d="M49.4501 87.1704C48.9564 87.39 48.5488 87.766 48.2901 88.2404C48.7701 87.9804 49.1801 87.7204 49.6401 87.5204C50.0871 87.2974 50.5663 87.1456 51.0601 87.0704C50.802 86.9629 50.5226 86.9161 50.2435 86.9334C49.9644 86.9507 49.693 87.0318 49.4501 87.1704ZM54.0901 85.1004C54.1702 84.9285 54.2604 84.7616 54.3601 84.6004C54.4589 84.4519 54.5692 84.3115 54.6901 84.1804C54.9123 83.8797 55.1599 83.5987 55.4301 83.3404C55.2224 83.3465 55.0188 83.4002 54.8351 83.4973C54.6513 83.5943 54.4923 83.7322 54.3701 83.9004C54.2286 84.0621 54.129 84.2561 54.0802 84.4654C54.0314 84.6747 54.0348 84.8927 54.0901 85.1004ZM53.4701 94.0504C53.5346 94.1173 53.5916 94.1911 53.6401 94.2704C53.7601 94.4704 53.9201 94.7704 54.0601 95.0404C54.1783 95.2988 54.3188 95.5464 54.4801 95.7804L54.6001 95.8904C54.6006 95.9121 54.6075 95.9332 54.62 95.951C54.6324 95.9688 54.6499 95.9825 54.6701 95.9904C54.908 96.2773 55.2212 96.4921 55.5746 96.6105C55.928 96.7288 56.3074 96.7461 56.6701 96.6604C57.0175 96.5555 57.3348 96.3692 57.5957 96.117C57.8566 95.8648 58.0535 95.554 58.1701 95.2104V95.0904C58.3818 94.4877 58.457 93.8456 58.3901 93.2104C58.3906 93.1892 58.3863 93.1681 58.3775 93.1488C58.3686 93.1295 58.3555 93.1125 58.3392 93.099C58.3228 93.0856 58.3036 93.076 58.2829 93.071C58.2623 93.066 58.2408 93.0658 58.2201 93.0704C58.1999 93.0719 58.1804 93.0781 58.163 93.0885C58.1457 93.0989 58.131 93.1133 58.1201 93.1304C57.7949 93.2664 57.4608 93.38 57.1201 93.4704H57.0001L55.8501 93.7804C55.5713 93.8514 55.287 93.8982 55.0001 93.9204C54.5053 93.9193 54.0121 93.8623 53.5301 93.7504C53.4904 93.741 53.4486 93.7472 53.4133 93.7676C53.378 93.7881 53.3518 93.8213 53.3401 93.8604C53.3358 93.8814 53.3357 93.9031 53.34 93.9242C53.3442 93.9452 53.3527 93.9652 53.3648 93.983C53.3769 94.0007 53.3925 94.0158 53.4106 94.0274C53.4287 94.039 53.4489 94.0468 53.4701 94.0504ZM55.1201 94.2604C55.3999 94.2622 55.6788 94.2286 55.9501 94.1604L56.6801 93.9404C57.1593 93.8195 57.6276 93.659 58.0801 93.4604C58.1347 94.0241 58.0559 94.5927 57.8501 95.1204C57.7325 95.3955 57.5547 95.6408 57.3297 95.8381C57.1047 96.0354 56.8383 96.1797 56.5501 96.2604C56.2583 96.3148 55.9577 96.2997 55.6728 96.2163C55.3878 96.1329 55.1266 95.9836 54.9101 95.7804C54.8328 95.7181 54.7624 95.6477 54.7001 95.5704C54.5629 95.3637 54.4425 95.1463 54.3401 94.9204C54.2001 94.6404 54.0501 94.3704 53.9201 94.1504C54.3148 94.2316 54.7173 94.2685 55.1201 94.2604ZM92.4901 165.68C90.9201 159.63 89.3101 153.5 89.1401 147.24C89.1401 145.68 89.1401 144.12 89.2101 142.56C90.1401 139.89 91.0601 137.22 91.7601 134.48C91.8279 134.227 91.8322 133.96 91.7726 133.704C91.7131 133.449 91.5914 133.211 91.4185 133.014C91.2455 132.816 91.0266 132.664 90.781 132.571C90.5353 132.478 90.2706 132.447 90.0101 132.48H84.9201C84.6364 132.451 84.3511 132.518 84.1101 132.67C83.9604 132.829 83.8507 133.021 83.7901 133.23L80.4301 142.65C80.3713 142.513 80.2824 142.39 80.1699 142.291C80.0574 142.193 79.9242 142.121 79.7801 142.08C79.4601 142.08 79.0601 141.96 78.6601 142.73C78.0363 143.757 77.5456 144.86 77.2001 146.01C77.1401 145.85 77.0801 145.69 77.0101 145.54C76.8635 145.072 76.5901 144.653 76.2201 144.33C75.917 144.131 75.5769 143.995 75.2201 143.93C70.7999 142.839 66.2928 142.136 61.7501 141.83C62.1201 137.66 62.7501 133.48 63.4801 129.41C64.1401 122.89 63.8501 116.08 57.2901 112.62C53.0401 110.37 48.2901 110.22 43.5401 110.37C42.9801 111.5 42.4201 112.64 41.8901 113.79C37.4501 119.6 33.6801 124.99 31.7901 132.53C29.8201 140.768 29.8201 149.353 31.7901 157.59C32.2703 159.989 33.4056 162.208 35.0701 164C34.0944 170.005 32.2341 175.831 29.5501 181.29C29.2212 181.844 29.0516 182.477 29.0601 183.12C29.2208 183.876 29.6553 184.546 30.2801 185C34.7501 189.06 41.2801 191.43 47.0401 192.83C52.2301 194.1 57.5601 194.16 62.8001 195.04C64.3601 184.74 63.1001 174.34 62.1701 163.93C64.9525 162.513 67.6264 160.892 70.1701 159.08C73.8801 158.14 77.4401 157.17 80.7401 155.08C81.2301 154.75 81.8001 154.44 82.2601 154.08C82.2601 154.08 84.1401 152.56 84.3701 152.36C84.0001 164.49 83.5801 176.57 89.7401 187.49C89.7781 187.596 89.8364 187.692 89.9118 187.775C89.9872 187.857 90.0781 187.924 90.1793 187.971C90.2806 188.019 90.3902 188.046 90.5018 188.051C90.6135 188.056 90.7251 188.039 90.8301 188C90.9811 187.951 91.1135 187.857 91.2101 187.73C94.8972 185.435 97.7558 182.023 99.3701 177.99C97.823 176.524 96.3701 174.96 95.0201 173.31C93.8461 170.889 92.9955 168.324 92.4901 165.68ZM77.3501 146.28C77.6961 145.107 78.1936 143.985 78.8301 142.94C79.4101 141.69 80.9801 142.52 79.8301 144.42C79.8117 144.456 79.8076 144.498 79.8187 144.537C79.8298 144.576 79.8554 144.609 79.8901 144.63C79.9114 144.643 79.9355 144.649 79.9601 144.649C79.9847 144.649 80.0088 144.643 80.0301 144.63L82.9701 143.43C83.2599 143.278 83.5827 143.199 83.9101 143.2C84.6101 143.14 84.1401 143.98 83.7501 144.46C83.2885 144.969 82.7604 145.413 82.1801 145.78C82.1274 145.81 82.0884 145.859 82.0716 145.917C82.0548 145.975 82.0614 146.037 82.0901 146.09C82.1229 146.14 82.1726 146.175 82.2298 146.19C82.287 146.204 82.3477 146.198 82.4001 146.17L85.1201 145C85.2398 144.941 85.368 144.9 85.5001 144.88C85.6101 144.88 85.6301 144.88 85.6601 145C85.7501 145.5 85.2901 146.06 84.7801 146.38C84.2701 146.7 83.6501 147.06 83.0901 147.44C83.0586 147.461 83.0329 147.489 83.0154 147.522C82.9979 147.556 82.9892 147.593 82.9901 147.63C82.9976 147.682 83.0247 147.728 83.0657 147.76C83.1068 147.792 83.1586 147.806 83.2101 147.8C83.6296 147.751 84.0443 147.667 84.4501 147.55C84.8401 147.48 85.3401 147.49 85.3101 147.75C85.1801 148.75 81.5101 149.87 81.9901 149.75L81.3401 149.96C80.5178 150.232 79.6702 150.419 78.8101 150.52C78.3301 149.16 77.8101 147.8 77.2601 146.45C77.2786 146.447 77.2961 146.44 77.3113 146.43C77.3265 146.419 77.339 146.404 77.3477 146.388C77.3565 146.371 77.3613 146.353 77.3617 146.334C77.3621 146.316 77.3581 146.297 77.3501 146.28ZM69.1001 159.28L68.8601 159.34H69.0901C64.5434 162.6 59.4692 165.053 54.0901 166.59C49.1901 167.91 45.0901 168.13 41.5601 167.24C39.2403 166.714 37.1199 165.534 35.4503 163.84C33.7807 162.145 32.6319 160.008 32.1401 157.68C30.2001 149.511 30.2001 141 32.1401 132.83C34.2501 124.57 38.5801 118.83 43.6701 112.27C44.0292 112.052 44.4116 111.874 44.8101 111.74C51.9901 109.85 56.7601 120.37 58.3001 125.55C59.5301 129.68 59.4801 134.41 57.1501 138.05C57.0701 138.19 56.3201 139.69 55.7301 140.87C56.8743 137.415 57.4156 133.789 57.3301 130.15C57.3301 130.095 57.308 130.041 57.2686 130.002C57.2292 129.962 57.1758 129.94 57.1201 129.94C57.0917 129.939 57.0633 129.943 57.0367 129.953C57.01 129.963 56.9857 129.979 56.9651 129.998C56.9445 130.018 56.9282 130.041 56.917 130.068C56.9058 130.094 56.9001 130.122 56.9001 130.15C57.0004 134.291 56.2799 138.41 54.7801 142.27C54.7601 142.324 54.7615 142.382 54.7838 142.434C54.8062 142.487 54.8479 142.528 54.9001 142.55H55.0001C62.0001 141.78 68.8101 143.03 75.1001 144.48C75.3983 144.531 75.6837 144.64 75.9401 144.8C76.2465 145.09 76.4708 145.456 76.5901 145.86C77.2601 147.5 77.8901 149.17 78.4801 150.81C78.5647 151.002 78.6057 151.211 78.6001 151.42C78.5309 151.632 78.4067 151.822 78.2401 151.97C77.1603 153.174 75.972 154.275 74.6901 155.26C72.7301 156.75 70.9001 158.09 69.1001 159.32V159.28ZM85.2201 150.28H80.9401C80.9398 150.314 80.9517 150.347 80.9738 150.373C80.9959 150.399 81.0265 150.416 81.0601 150.42H84.4501V151.51C84.1056 151.871 83.7345 152.205 83.3401 152.51L82.0001 153.55C81.5301 153.89 81.0001 154.19 80.5201 154.55C78.8869 155.583 77.1425 156.428 75.3201 157.07C74.3201 157.42 72.9801 157.61 71.8101 157.98C72.8101 157.21 73.9301 156.42 75.0301 155.58C76.3319 154.578 77.5402 153.461 78.6401 152.24C78.8666 152.063 79.0222 151.81 79.079 151.528C79.1358 151.245 79.0901 150.952 78.9501 150.7C79.7961 150.593 80.6299 150.406 81.4401 150.14L82.0801 149.94C83.9401 149.35 84.4901 149.22 85.2701 148.48C85.3725 148.403 85.4574 148.306 85.5195 148.194C85.5815 148.082 85.6192 147.958 85.6301 147.83C85.6333 147.753 85.6187 147.676 85.5875 147.605C85.5563 147.534 85.5093 147.471 85.4501 147.42C85.3535 147.331 85.2369 147.266 85.1101 147.23C84.8844 147.2 84.6558 147.2 84.4301 147.23H84.2901C84.5401 147.08 84.7901 146.94 85.0401 146.77C85.3765 146.6 85.656 146.335 85.8442 146.008C86.0325 145.681 86.1214 145.307 86.1001 144.93C86.0001 144.56 85.5801 144.34 84.9701 144.65L83.7601 145.18C83.8808 145.078 83.9943 144.968 84.1001 144.85C84.3438 144.554 84.5303 144.215 84.6501 143.85C84.6903 143.736 84.7031 143.614 84.6875 143.495C84.6719 143.375 84.6282 143.26 84.5601 143.16C84.4794 143.076 84.3813 143.009 84.2725 142.966C84.1638 142.923 84.047 142.904 83.9301 142.91C83.5577 142.919 83.1921 143.011 82.8601 143.18L80.8601 144.03L83.8601 135.57V135.63L84.3801 134.1C84.3971 133.987 84.4366 133.878 84.4964 133.78C84.5562 133.682 84.635 133.596 84.7282 133.529C84.8214 133.462 84.9271 133.414 85.0391 133.389C85.151 133.363 85.267 133.36 85.3801 133.38H90.5501C90.9301 133.38 91.1501 133.38 91.3601 133.79C91.4453 134.06 91.4453 134.35 91.3601 134.62C90.6401 137.16 87.3601 147.12 86.3601 149.62C86.1801 150.11 85.6701 150.27 85.2201 150.28Z" fill="black"/>
<path d="M78.3201 170.44C78.3201 170.44 78.2501 170.37 78.2401 170.44C77.6134 174.314 76.9934 178.18 76.3801 182.04C76.0601 184.04 75.9601 184.65 75.9501 184.62C75.3424 187.738 75.1474 190.922 75.3701 194.09C75.3701 194.122 75.3827 194.153 75.4053 194.175C75.4278 194.198 75.4583 194.21 75.4901 194.21C75.5219 194.21 75.5525 194.198 75.575 194.175C75.5975 194.153 75.6101 194.122 75.6101 194.09C75.7101 190.67 76.0301 187.27 76.4301 183.88C76.6456 186.926 77.5226 189.888 79.0001 192.56C79.0601 192.65 79.2301 192.56 79.1901 192.47C78.0063 189.385 77.132 186.189 76.5801 182.93C77.0801 178.77 77.7301 174.61 78.3201 170.44Z" fill="black"/>
<path d="M76.3103 182.36C76.3153 182.271 76.3153 182.18 76.3103 182.09C76.3103 182.09 75.9403 184.55 75.9503 184.62C76.0003 184 76.3103 182.36 76.3103 182.36ZM170.41 12.5005C168.176 13.5921 165.789 14.3373 163.33 14.7105C165.599 12.412 167.51 9.78607 169 6.92045C169.022 6.88152 169.036 6.83843 169.04 6.79395C169.044 6.74947 169.039 6.70459 169.025 6.6622C169.011 6.6198 168.988 6.58084 168.958 6.54782C168.928 6.51479 168.891 6.48844 168.85 6.47045C168.804 6.44594 168.753 6.43312 168.7 6.43312C168.648 6.43312 168.596 6.44594 168.55 6.47045C166.632 7.7515 164.554 8.77681 162.37 9.52045C161.17 9.92045 159.19 10.7005 157.93 10.1405C156.67 9.58045 155.47 8.00045 154.29 7.29045C150.678 5.15345 146.385 4.47736 142.29 5.40045C139.09 6.11045 129.47 9.77045 128.5 22.6505C128.42 23.6505 128.69 24.5705 127.78 25.1105C127.13 25.4905 124.49 24.8405 123.7 24.7705C121.104 24.5123 118.531 24.0645 116 23.4305C107.24 21.2205 98.4303 16.9805 95.0003 8.07045C94.9003 7.78045 94.4103 7.61045 94.2503 7.97045C92.6716 11.6654 92.1443 15.7246 92.7266 19.7003C93.309 23.6759 94.9782 27.4135 97.5503 30.5005C94.9564 30.1258 92.4942 29.1196 90.3803 27.5705C90.3331 27.5439 90.2811 27.5271 90.2273 27.5208C90.1735 27.5145 90.119 27.5189 90.0669 27.5337C90.0149 27.5486 89.9663 27.5737 89.9239 27.6074C89.8816 27.6412 89.8464 27.683 89.8203 27.7305C89.8068 27.7931 89.8068 27.8578 89.8203 27.9205C89.6674 32.0564 90.9516 36.1177 93.4547 39.4138C95.9577 42.7099 99.5251 45.0373 103.55 46.0005C101.797 46.3001 100.015 46.3907 98.2403 46.2705C98.1869 46.2704 98.134 46.2811 98.0849 46.3018C98.0357 46.3226 97.9911 46.3529 97.9538 46.3911C97.9166 46.4293 97.8873 46.4746 97.8678 46.5243C97.8483 46.574 97.8389 46.6271 97.8403 46.6805C97.8365 46.7137 97.8365 46.7472 97.8403 46.7805C98.9612 49.5504 100.763 51.9926 103.08 53.8805C105.396 55.7685 108.151 57.0411 111.09 57.5805C108.216 58.9211 105.24 60.0313 102.19 60.9005C99.0003 61.8205 93.8903 63.6205 90.7403 61.9005C90.6958 61.8736 90.6464 61.8559 90.5949 61.8484C90.5435 61.8409 90.4911 61.8437 90.4408 61.8568C90.3905 61.8698 90.3433 61.8928 90.302 61.9243C90.2607 61.9559 90.2261 61.9954 90.2003 62.0405C90.1581 62.1165 90.1412 62.204 90.1519 62.2902C90.1627 62.3765 90.2007 62.4571 90.2603 62.5205C95.1003 67.5205 102.17 69.6904 108.88 70.6304C108.559 71.4605 108.34 72.327 108.23 73.2105L107 72.4405L106.89 72.5304C101.517 76.4332 96.4087 80.6893 91.6003 85.2704C89.2293 87.6544 87.0712 90.2409 85.1503 93.0004C84.6603 93.6704 84.2403 94.4304 83.7503 95.0004C83.2132 95.5574 82.5127 95.9286 81.7503 96.0604C80.1636 96.5204 78.5769 97.0171 76.9903 97.5505C73.8322 98.5917 70.7341 99.8069 67.7103 101.19L66.5003 101.77C66.3397 101.729 66.1757 101.702 66.0103 101.69C65.8673 101.698 65.7259 101.725 65.5903 101.77L65.8303 101.89C67.9201 103.298 69.4048 105.44 69.9903 107.89C70.3704 108.705 70.8047 109.494 71.2903 110.25C72.8803 112.64 75.2003 114.5 77.2903 116.49C78.6893 118.212 79.9309 120.056 81.0003 122C81.2772 122.526 81.5243 123.067 81.7403 123.62C82.3601 125.188 82.8094 126.817 83.0803 128.48C83.3303 129.86 83.4803 131.26 83.6003 132.65C83.6563 132.542 83.7308 132.444 83.8203 132.36C84.0619 132.209 84.3467 132.143 84.6303 132.17H89.6303C89.7123 128.5 89.0313 124.853 87.6303 121.46C88.7903 120.69 89.9403 119.88 91.0403 119.01C93.9812 116.641 96.7145 114.025 99.2103 111.19C104.276 105.574 108.141 98.9829 110.57 91.8204C111.773 88.2596 112.538 84.5659 112.85 80.8205C113.13 77.1605 113.17 76.5305 112.58 75.9005C113.699 75.6824 114.771 75.273 115.75 74.6905C116.065 74.4664 116.353 74.2082 116.61 73.9204C116.755 73.7713 116.873 73.5989 116.96 73.4105C117.013 73.2881 117.025 73.152 116.994 73.0223C116.964 72.8926 116.892 72.7763 116.79 72.6905C116.644 72.6094 116.477 72.5712 116.31 72.5805C116.174 72.5916 116.04 72.6185 115.91 72.6605L116.47 72.2105C116.813 71.9627 117.069 71.6126 117.2 71.2105C122.02 71.1319 126.8 70.3123 131.37 68.7804C132.72 68.3104 134.02 67.7805 135.31 67.1805C134.93 67.8605 134.56 68.5404 134.23 69.2404C134.1 69.4704 134.23 69.8705 134.57 69.8305C135.374 69.6718 136.204 69.7096 136.99 69.9405C136.966 70.236 136.883 70.5236 136.745 70.7864C136.608 71.0492 136.419 71.2818 136.19 71.4705C135.952 71.6744 135.672 71.8245 135.37 71.9105C135.085 71.9396 134.803 71.9999 134.53 72.0904C134.51 72.11 134.494 72.1333 134.484 72.1591C134.473 72.1849 134.467 72.2125 134.467 72.2404C134.467 72.2684 134.473 72.296 134.484 72.3218C134.494 72.3476 134.51 72.3709 134.53 72.3905C134.68 72.5317 134.875 72.6165 135.08 72.6304L127.23 76.6304C126.735 76.889 126.361 77.3307 126.187 77.8612C126.014 78.3918 126.054 78.9693 126.3 79.4705L132.47 91.6304C132.721 92.1301 133.16 92.5098 133.691 92.686C134.221 92.8623 134.8 92.8207 135.3 92.5704L154.5 82.8404C154.998 82.5821 155.373 82.138 155.546 81.6044C155.718 81.0709 155.673 80.491 155.42 79.9904L149.3 67.8005C149.044 67.3037 148.602 66.9278 148.071 66.7538C147.539 66.5798 146.961 66.6217 146.46 66.8705L144.7 67.7704C144.03 66.3904 142.41 66.1205 140.98 66.1905C141.635 65.1485 142.216 64.0626 142.72 62.9405C152.367 56.202 159.094 46.0507 161.54 34.5405C161.988 32.4367 162.322 30.3103 162.54 28.1705C162.71 26.4605 162.17 22.6805 163.38 21.4305C163.84 20.9505 164.77 20.6005 165.3 20.1305C166.086 19.3951 166.827 18.6137 167.52 17.7905C168.75 16.4105 169.52 14.2105 170.88 13.0405C171.14 12.7705 170.75 12.3405 170.41 12.5005ZM112.63 76.6105C112.722 77.0543 112.749 77.5089 112.71 77.9604C112.73 78.8987 112.69 79.8373 112.59 80.7704C112.246 84.5219 111.44 88.2165 110.19 91.7704C107.803 98.843 103.995 105.353 99.0003 110.9C96.5016 113.693 93.7646 116.263 90.8203 118.58C89.7503 119.44 88.6403 120.23 87.5003 121C87.2212 120.394 86.9039 119.806 86.5503 119.24C83.9303 115.05 79.5503 112.3 75.8403 109.06C72.9103 106.52 70.6903 103.75 67.1403 102.06L67.8903 101.7C70.9236 100.367 74.0069 99.1738 77.1403 98.1205C78.7003 97.6005 80.2803 97.1204 81.8803 96.6404C82.2932 96.5339 82.6976 96.3969 83.0903 96.2305C83.5039 96.0501 83.8676 95.7722 84.1503 95.4204C84.7103 94.7304 85.1503 94.0304 85.5803 93.3504C87.4863 90.6522 89.6208 88.1229 91.9603 85.7905C96.7083 81.2526 101.717 76.9954 106.96 73.0405L111.72 75.7804C111.809 75.8593 111.903 75.9327 112 76.0005C112.274 76.126 112.496 76.3413 112.63 76.6105ZM116.05 71.7905C115.6 72.1605 114.99 72.6105 114.52 73.0405C114.498 73.0619 114.481 73.0875 114.469 73.1159C114.457 73.1442 114.451 73.1747 114.451 73.2055C114.451 73.2362 114.457 73.2667 114.469 73.295C114.481 73.3234 114.498 73.349 114.52 73.3705C114.549 73.4013 114.585 73.424 114.626 73.4363C114.666 73.4486 114.709 73.45 114.75 73.4405C115.15 73.3305 115.49 73.1605 115.82 73.0505C116.103 72.9142 116.423 72.8755 116.73 72.9405C116.79 72.9405 116.83 73.0904 116.73 73.2404C116.345 73.9072 115.766 74.4409 115.07 74.7704C114.207 75.1655 113.296 75.4479 112.36 75.6105C112.237 75.5151 112.103 75.4346 111.96 75.3705L108.53 73.3705C108.639 72.4471 108.872 71.5424 109.22 70.6805C110.78 70.9205 112.35 71.0605 113.92 71.1505C113.75 71.3105 113.59 71.4804 113.42 71.6304C113.365 71.6865 113.335 71.7619 113.335 71.8404C113.335 71.919 113.365 71.9944 113.42 72.0505C113.466 72.075 113.518 72.0878 113.57 72.0878C113.623 72.0878 113.674 72.075 113.72 72.0505L115.12 71.1605H116.53C116.414 71.4004 116.251 71.6145 116.05 71.7905ZM137.34 70.0505C137.736 70.2895 138.055 70.6364 138.26 71.0505L136.79 71.7905C137.002 71.557 137.16 71.2807 137.255 70.9805C137.35 70.6802 137.379 70.363 137.34 70.0505ZM132.85 91.3705L126.85 79.3705C126.701 79.0777 126.648 78.745 126.7 78.4204C130 79.0304 138.58 80.9005 138.56 80.9305C136.671 84.4653 135.063 88.1433 133.75 91.9305C133.397 91.8472 133.081 91.6505 132.85 91.3705ZM154.11 82.5204L135.26 92.0505C134.936 92.158 134.585 92.158 134.26 92.0505C135.599 88.2628 137.231 84.585 139.14 81.0505L141.88 81.5705C141.905 81.5727 141.93 81.5671 141.951 81.5546C141.973 81.542 141.99 81.5231 142 81.5005C142.44 80.6005 142.87 79.7105 143.31 78.8305C143.54 78.8305 149.5 80.0905 149.6 80.1205C151.48 80.5105 153.28 80.9004 154.94 81.2104C154.929 81.4825 154.847 81.7467 154.701 81.9767C154.555 82.2067 154.351 82.3942 154.11 82.5204ZM148.8 68.2305L154.75 80.0005C154.821 80.1594 154.868 80.3278 154.89 80.5005C153.28 80.2005 145.63 78.6004 143.64 78.2404C145.38 74.6804 147.09 71.2805 148.8 68.2305ZM143.9 68.8005C143.939 69.0816 143.885 69.3676 143.746 69.615C143.607 69.8623 143.391 70.0574 143.13 70.1704C143.051 70.2194 142.992 70.295 142.964 70.3837C142.936 70.4724 142.94 70.5682 142.976 70.654C143.012 70.7397 143.078 70.8097 143.161 70.8512C143.245 70.8927 143.34 70.9031 143.43 70.8804C143.68 70.8072 143.913 70.6835 144.113 70.5171C144.314 70.3507 144.478 70.145 144.596 69.9127C144.714 69.6804 144.783 69.4264 144.8 69.1663C144.816 68.9062 144.779 68.6456 144.69 68.4005C145.56 68.1105 147.18 66.5405 148.29 67.9305C146.09 71.8405 143.88 76.3305 141.63 80.9305C135.83 79.5905 130.91 78.5505 127 77.8205C127.067 77.6219 127.173 77.4389 127.312 77.2825C127.451 77.1261 127.621 76.9996 127.81 76.9105L138.37 71.5705C138.388 71.8383 138.324 72.1052 138.187 72.3357C138.049 72.5662 137.845 72.7492 137.6 72.8605C137.556 72.887 137.517 72.9223 137.487 72.9642C137.456 73.0062 137.435 73.054 137.424 73.1045C137.412 73.1551 137.412 73.2075 137.421 73.2583C137.431 73.3092 137.451 73.3576 137.48 73.4005C137.522 73.4682 137.584 73.521 137.658 73.5515C137.731 73.582 137.813 73.5887 137.89 73.5705C138.14 73.5073 138.373 73.3928 138.576 73.2344C138.778 73.0759 138.946 72.8769 139.067 72.6501C139.189 72.4233 139.261 72.1737 139.281 71.9172C139.3 71.6607 139.266 71.403 139.18 71.1605L143.9 68.8005ZM143.9 68.1704L142.57 68.8404C142.918 68.3876 143.075 67.8175 143.01 67.2505C143.387 67.4714 143.698 67.7891 143.91 68.1704H143.9ZM139.9 66.4105C139.78 66.6405 139.9 67.0304 140.24 66.9904C141.045 66.8314 141.876 66.8726 142.66 67.1105C142.637 67.4051 142.555 67.6921 142.419 67.9548C142.283 68.2174 142.097 68.4505 141.87 68.6405C141.628 68.8416 141.345 68.9882 141.04 69.0705C140.755 69.1043 140.474 69.1646 140.2 69.2505C140.18 69.27 140.164 69.2933 140.154 69.3191C140.143 69.3449 140.137 69.3725 140.137 69.4005C140.137 69.4284 140.143 69.456 140.154 69.4818C140.164 69.5076 140.18 69.5309 140.2 69.5505C140.32 69.6682 140.474 69.7451 140.64 69.7704L139.01 70.6004C138.38 69.1404 136.7 68.8605 135.25 68.9405C135.74 68.1505 136.19 67.3404 136.6 66.5204C138.199 65.7316 139.749 64.8467 141.24 63.8705C140.81 64.7205 140.38 65.5605 140 66.4105H139.9ZM149.74 14.7705C149.532 14.7966 149.321 14.7604 149.133 14.6664C148.946 14.5724 148.79 14.4249 148.687 14.2425C148.583 14.0601 148.536 13.851 148.551 13.6417C148.566 13.4325 148.643 13.2324 148.772 13.067C148.901 12.9015 149.076 12.778 149.276 12.7122C149.475 12.6464 149.689 12.6412 149.891 12.6973C150.093 12.7533 150.274 12.8681 150.411 13.0271C150.548 13.1861 150.635 13.3822 150.66 13.5905C150.665 13.6303 150.665 13.6706 150.66 13.7105C150.678 13.9647 150.597 14.2161 150.436 14.4131C150.274 14.6101 150.043 14.7379 149.79 14.7705H149.74Z" fill="black"/>
</svg>
